<svg xmlns="http://www.w3.org/2000/svg" xmlns:xlink="http://www.w3.org/1999/xlink" class="httpgd" width="1176.00" height="840.00" viewBox="0 0 940.80 672.00">
<defs>
  <style type='text/css'><![CDATA[
    .httpgd line, .httpgd polyline, .httpgd polygon, .httpgd path, .httpgd rect, .httpgd circle {
      fill: none;
      stroke: #000000;
      stroke-linecap: round;
      stroke-linejoin: round;
      stroke-miterlimit: 10.00;
    }
  ]]></style>
<clipPath id="c0"><rect x="0.00" y="0.00" width="940.80" height="672.00"/></clipPath>
<clipPath id="c1"><rect x="72.00" y="72.00" width="825.60" height="513.60"/></clipPath>
<clipPath id="c2"><rect x="0.00" y="0.00" width="940.80" height="672.00"/></clipPath>
<clipPath id="c3"><rect x="72.00" y="72.00" width="825.60" height="513.60"/></clipPath>
</defs>
<rect width="100%" height="100%" style="stroke: none;fill: #FFFFFF;"/>
<g clip-path="url(#c0)">
</g><g clip-path="url(#c1)">
<line x1="102.87" y1="234.13" x2="113.53" y2="500.70" style="stroke-width: 0.75;"/>
<line x1="115.17" y1="514.97" x2="123.71" y2="559.51" style="stroke-width: 0.75;"/>
<line x1="139.06" y1="556.90" x2="144.79" y2="543.10" style="stroke-width: 0.75;"/>
<line x1="149.47" y1="529.51" x2="156.86" y2="502.83" style="stroke-width: 0.75;"/>
<line x1="160.68" y1="488.95" x2="168.14" y2="461.56" style="stroke-width: 0.75;"/>
<line x1="172.18" y1="447.74" x2="179.12" y2="425.53" style="stroke-width: 0.75;"/>
<line x1="183.82" y1="411.93" x2="189.97" y2="395.66" style="stroke-width: 0.75;"/>
<line x1="195.59" y1="382.41" x2="200.68" y2="371.62" style="stroke-width: 0.75;"/>
<line x1="207.46" y1="358.94" x2="211.29" y2="352.58" style="stroke-width: 0.75;"/>
<line x1="219.41" y1="340.72" x2="221.82" y2="337.62" style="stroke-width: 0.75;"/>
<line x1="231.36" y1="326.87" x2="232.36" y2="325.88" style="stroke-width: 0.75;"/>
<circle cx="102.58" cy="226.94" r="2.70" style="stroke-width: 0.75;"/>
<circle cx="113.82" cy="507.89" r="2.70" style="stroke-width: 0.75;"/>
<circle cx="125.06" cy="566.58" r="2.70" style="stroke-width: 0.75;"/>
<circle cx="136.30" cy="563.56" r="2.70" style="stroke-width: 0.75;"/>
<circle cx="147.55" cy="536.45" r="2.70" style="stroke-width: 0.75;"/>
<circle cx="158.79" cy="495.89" r="2.70" style="stroke-width: 0.75;"/>
<circle cx="170.03" cy="454.61" r="2.70" style="stroke-width: 0.75;"/>
<circle cx="181.27" cy="418.66" r="2.70" style="stroke-width: 0.75;"/>
<circle cx="192.51" cy="388.93" r="2.70" style="stroke-width: 0.75;"/>
<circle cx="203.75" cy="365.11" r="2.70" style="stroke-width: 0.75;"/>
<circle cx="215.00" cy="346.41" r="2.70" style="stroke-width: 0.75;"/>
<circle cx="226.24" cy="331.94" r="2.70" style="stroke-width: 0.75;"/>
<circle cx="237.48" cy="320.81" r="2.70" style="stroke-width: 0.75;"/>
<circle cx="248.72" cy="312.18" r="2.70" style="stroke-width: 0.75;"/>
<circle cx="259.96" cy="305.29" r="2.70" style="stroke-width: 0.75;"/>
<circle cx="271.21" cy="299.66" r="2.70" style="stroke-width: 0.75;"/>
<circle cx="282.45" cy="294.75" r="2.70" style="stroke-width: 0.75;"/>
<circle cx="293.69" cy="290.36" r="2.70" style="stroke-width: 0.75;"/>
<circle cx="304.93" cy="286.29" r="2.70" style="stroke-width: 0.75;"/>
<circle cx="316.17" cy="282.48" r="2.70" style="stroke-width: 0.75;"/>
<circle cx="327.41" cy="278.85" r="2.70" style="stroke-width: 0.75;"/>
<circle cx="338.66" cy="275.39" r="2.70" style="stroke-width: 0.75;"/>
<circle cx="349.90" cy="272.09" r="2.70" style="stroke-width: 0.75;"/>
<circle cx="361.14" cy="268.93" r="2.70" style="stroke-width: 0.75;"/>
<circle cx="372.38" cy="265.85" r="2.70" style="stroke-width: 0.75;"/>
<circle cx="383.62" cy="262.89" r="2.70" style="stroke-width: 0.75;"/>
<circle cx="394.87" cy="259.94" r="2.70" style="stroke-width: 0.75;"/>
<circle cx="406.11" cy="256.98" r="2.70" style="stroke-width: 0.75;"/>
<circle cx="417.35" cy="253.95" r="2.70" style="stroke-width: 0.75;"/>
<circle cx="428.59" cy="250.88" r="2.70" style="stroke-width: 0.75;"/>
<circle cx="439.83" cy="247.72" r="2.70" style="stroke-width: 0.75;"/>
<circle cx="451.07" cy="244.46" r="2.70" style="stroke-width: 0.75;"/>
<circle cx="462.32" cy="241.16" r="2.70" style="stroke-width: 0.75;"/>
<circle cx="473.56" cy="237.71" r="2.70" style="stroke-width: 0.75;"/>
<circle cx="484.80" cy="234.19" r="2.70" style="stroke-width: 0.75;"/>
<circle cx="496.04" cy="230.60" r="2.70" style="stroke-width: 0.75;"/>
<circle cx="507.28" cy="226.95" r="2.70" style="stroke-width: 0.75;"/>
<circle cx="518.53" cy="223.26" r="2.70" style="stroke-width: 0.75;"/>
<circle cx="529.77" cy="219.50" r="2.70" style="stroke-width: 0.75;"/>
<circle cx="541.01" cy="215.81" r="2.70" style="stroke-width: 0.75;"/>
<circle cx="552.25" cy="212.01" r="2.70" style="stroke-width: 0.75;"/>
<circle cx="563.49" cy="208.25" r="2.70" style="stroke-width: 0.75;"/>
<circle cx="574.73" cy="204.49" r="2.70" style="stroke-width: 0.75;"/>
<circle cx="585.98" cy="200.72" r="2.70" style="stroke-width: 0.75;"/>
<circle cx="597.22" cy="196.95" r="2.70" style="stroke-width: 0.75;"/>
<circle cx="608.46" cy="193.17" r="2.70" style="stroke-width: 0.75;"/>
<circle cx="619.70" cy="189.38" r="2.70" style="stroke-width: 0.75;"/>
<circle cx="630.94" cy="185.58" r="2.70" style="stroke-width: 0.75;"/>
<circle cx="642.19" cy="181.76" r="2.70" style="stroke-width: 0.75;"/>
<circle cx="653.43" cy="177.90" r="2.70" style="stroke-width: 0.75;"/>
<circle cx="664.67" cy="174.08" r="2.70" style="stroke-width: 0.75;"/>
<circle cx="675.91" cy="170.10" r="2.70" style="stroke-width: 0.75;"/>
<circle cx="687.15" cy="166.13" r="2.70" style="stroke-width: 0.75;"/>
<circle cx="698.39" cy="162.12" r="2.70" style="stroke-width: 0.75;"/>
<circle cx="709.64" cy="158.04" r="2.70" style="stroke-width: 0.75;"/>
<circle cx="720.88" cy="153.91" r="2.70" style="stroke-width: 0.75;"/>
<circle cx="732.12" cy="149.70" r="2.70" style="stroke-width: 0.75;"/>
<circle cx="743.36" cy="145.42" r="2.70" style="stroke-width: 0.75;"/>
<circle cx="754.60" cy="141.06" r="2.70" style="stroke-width: 0.75;"/>
<circle cx="765.85" cy="136.61" r="2.70" style="stroke-width: 0.75;"/>
<circle cx="777.09" cy="132.06" r="2.70" style="stroke-width: 0.75;"/>
<circle cx="788.33" cy="127.47" r="2.70" style="stroke-width: 0.75;"/>
<circle cx="799.57" cy="122.64" r="2.70" style="stroke-width: 0.75;"/>
<circle cx="810.81" cy="117.73" r="2.70" style="stroke-width: 0.75;"/>
<circle cx="822.05" cy="112.78" r="2.70" style="stroke-width: 0.75;"/>
<circle cx="833.30" cy="107.52" r="2.70" style="stroke-width: 0.75;"/>
<circle cx="844.54" cy="102.18" r="2.70" style="stroke-width: 0.75;"/>
<circle cx="855.78" cy="96.74" r="2.70" style="stroke-width: 0.75;"/>
<circle cx="867.02" cy="91.02" r="2.70" style="stroke-width: 0.75;"/>
</g><g clip-path="url(#c2)">
<line x1="91.34" y1="585.60" x2="878.26" y2="585.60" style="stroke-width: 0.75;"/>
<line x1="91.34" y1="585.60" x2="91.34" y2="592.80" style="stroke-width: 0.75;"/>
<line x1="203.75" y1="585.60" x2="203.75" y2="592.80" style="stroke-width: 0.75;"/>
<line x1="316.17" y1="585.60" x2="316.17" y2="592.80" style="stroke-width: 0.75;"/>
<line x1="428.59" y1="585.60" x2="428.59" y2="592.80" style="stroke-width: 0.75;"/>
<line x1="541.01" y1="585.60" x2="541.01" y2="592.80" style="stroke-width: 0.75;"/>
<line x1="653.43" y1="585.60" x2="653.43" y2="592.80" style="stroke-width: 0.75;"/>
<line x1="765.85" y1="585.60" x2="765.85" y2="592.80" style="stroke-width: 0.75;"/>
<line x1="878.26" y1="585.60" x2="878.26" y2="592.80" style="stroke-width: 0.75;"/>
<g><text x="91.34" y="611.52" text-anchor="middle" style="font-family: Arial;font-size: 13.20px;" textLength="7.34px" lengthAdjust="spacingAndGlyphs">0</text></g>
<g><text x="203.75" y="611.52" text-anchor="middle" style="font-family: Arial;font-size: 13.20px;" textLength="14.67px" lengthAdjust="spacingAndGlyphs">10</text></g>
<g><text x="316.17" y="611.52" text-anchor="middle" style="font-family: Arial;font-size: 13.20px;" textLength="14.67px" lengthAdjust="spacingAndGlyphs">20</text></g>
<g><text x="428.59" y="611.52" text-anchor="middle" style="font-family: Arial;font-size: 13.20px;" textLength="14.67px" lengthAdjust="spacingAndGlyphs">30</text></g>
<g><text x="541.01" y="611.52" text-anchor="middle" style="font-family: Arial;font-size: 13.20px;" textLength="14.67px" lengthAdjust="spacingAndGlyphs">40</text></g>
<g><text x="653.43" y="611.52" text-anchor="middle" style="font-family: Arial;font-size: 13.20px;" textLength="14.67px" lengthAdjust="spacingAndGlyphs">50</text></g>
<g><text x="765.85" y="611.52" text-anchor="middle" style="font-family: Arial;font-size: 13.20px;" textLength="14.67px" lengthAdjust="spacingAndGlyphs">60</text></g>
<g><text x="878.26" y="611.52" text-anchor="middle" style="font-family: Arial;font-size: 13.20px;" textLength="14.67px" lengthAdjust="spacingAndGlyphs">70</text></g>
<line x1="72.00" y1="547.22" x2="72.00" y2="85.37" style="stroke-width: 0.75;"/>
<line x1="72.00" y1="547.22" x2="64.80" y2="547.22" style="stroke-width: 0.75;"/>
<line x1="72.00" y1="470.25" x2="64.80" y2="470.25" style="stroke-width: 0.75;"/>
<line x1="72.00" y1="393.27" x2="64.80" y2="393.27" style="stroke-width: 0.75;"/>
<line x1="72.00" y1="316.29" x2="64.80" y2="316.29" style="stroke-width: 0.75;"/>
<line x1="72.00" y1="239.32" x2="64.80" y2="239.32" style="stroke-width: 0.75;"/>
<line x1="72.00" y1="162.34" x2="64.80" y2="162.34" style="stroke-width: 0.75;"/>
<line x1="72.00" y1="85.37" x2="64.80" y2="85.37" style="stroke-width: 0.75;"/>
<g><text transform="translate(54.72,547.22) rotate(-90.00)" text-anchor="middle" style="font-family: Arial;font-size: 13.20px;" textLength="25.68px" lengthAdjust="spacingAndGlyphs">1.26</text></g>
<g><text transform="translate(54.72,470.25) rotate(-90.00)" text-anchor="middle" style="font-family: Arial;font-size: 13.20px;" textLength="25.68px" lengthAdjust="spacingAndGlyphs">1.28</text></g>
<g><text transform="translate(54.72,393.27) rotate(-90.00)" text-anchor="middle" style="font-family: Arial;font-size: 13.20px;" textLength="25.68px" lengthAdjust="spacingAndGlyphs">1.30</text></g>
<g><text transform="translate(54.72,316.29) rotate(-90.00)" text-anchor="middle" style="font-family: Arial;font-size: 13.20px;" textLength="25.68px" lengthAdjust="spacingAndGlyphs">1.32</text></g>
<g><text transform="translate(54.72,239.32) rotate(-90.00)" text-anchor="middle" style="font-family: Arial;font-size: 13.20px;" textLength="25.68px" lengthAdjust="spacingAndGlyphs">1.34</text></g>
<g><text transform="translate(54.72,162.34) rotate(-90.00)" text-anchor="middle" style="font-family: Arial;font-size: 13.20px;" textLength="25.68px" lengthAdjust="spacingAndGlyphs">1.36</text></g>
<g><text transform="translate(54.72,85.37) rotate(-90.00)" text-anchor="middle" style="font-family: Arial;font-size: 13.20px;" textLength="25.68px" lengthAdjust="spacingAndGlyphs">1.38</text></g>
<polygon points="72.00,585.60 897.60,585.60 897.60,72.00 72.00,72.00" style="stroke-width: 0.75;" />
<g><text x="484.80" y="43.34" text-anchor="middle" style="font-family: Arial;font-size: 20.40px;font-weight: bold;" textLength="658.31px" lengthAdjust="spacingAndGlyphs">HPO - Spline on volatile.acidity with balanced data (hybrid sampled)</text></g>
<g><text x="484.80" y="640.32" text-anchor="middle" style="font-family: Arial;font-size: 18.00px;" textLength="15.01px" lengthAdjust="spacingAndGlyphs">df</text></g>
<g><text transform="translate(25.92,328.80) rotate(-90.00)" text-anchor="middle" style="font-family: Arial;font-size: 18.00px;" textLength="82.02px" lengthAdjust="spacingAndGlyphs">MSE Loss</text></g>
</g><g clip-path="url(#c3)">
<circle cx="125.06" cy="566.58" r="2.70" style="stroke-width: 0.75;stroke: #FF0000;fill: #FF0000;"/>
</g>
</svg>