<svg xmlns="http://www.w3.org/2000/svg" xmlns:xlink="http://www.w3.org/1999/xlink" class="httpgd" width="1176.00" height="840.00" viewBox="0 0 940.80 672.00">
<defs>
  <style type='text/css'><![CDATA[
    .httpgd line, .httpgd polyline, .httpgd polygon, .httpgd path, .httpgd rect, .httpgd circle {
      fill: none;
      stroke: #000000;
      stroke-linecap: round;
      stroke-linejoin: round;
      stroke-miterlimit: 10.00;
    }
  ]]></style>
<clipPath id="c0"><rect x="0.00" y="0.00" width="940.80" height="672.00"/></clipPath>
<clipPath id="c1"><rect x="72.00" y="72.00" width="825.60" height="513.60"/></clipPath>
<clipPath id="c2"><rect x="0.00" y="0.00" width="940.80" height="672.00"/></clipPath>
<clipPath id="c3"><rect x="72.00" y="72.00" width="825.60" height="513.60"/></clipPath>
</defs>
<rect width="100%" height="100%" style="stroke: none;fill: #FFFFFF;"/>
<g clip-path="url(#c0)">
</g><g clip-path="url(#c1)">
<line x1="103.18" y1="300.76" x2="113.22" y2="420.77" style="stroke-width: 0.75;"/>
<line x1="115.45" y1="434.96" x2="123.44" y2="469.42" style="stroke-width: 0.75;"/>
<line x1="128.33" y1="482.85" x2="133.03" y2="492.05" style="stroke-width: 0.75;"/>
<line x1="140.89" y1="504.02" x2="142.96" y2="506.51" style="stroke-width: 0.75;"/>
<line x1="153.10" y1="516.64" x2="153.23" y2="516.75" style="stroke-width: 0.75;"/>
<line x1="411.69" y1="525.31" x2="411.77" y2="525.25" style="stroke-width: 0.75;"/>
<line x1="422.75" y1="515.94" x2="423.19" y2="515.56" style="stroke-width: 0.75;"/>
<line x1="433.85" y1="505.88" x2="434.58" y2="505.20" style="stroke-width: 0.75;"/>
<line x1="444.98" y1="495.24" x2="445.93" y2="494.30" style="stroke-width: 0.75;"/>
<line x1="456.07" y1="484.08" x2="457.32" y2="482.77" style="stroke-width: 0.75;"/>
<line x1="467.25" y1="472.34" x2="468.62" y2="470.88" style="stroke-width: 0.75;"/>
<line x1="478.43" y1="460.33" x2="479.93" y2="458.70" style="stroke-width: 0.75;"/>
<line x1="489.63" y1="448.06" x2="491.21" y2="446.30" style="stroke-width: 0.75;"/>
<line x1="500.87" y1="435.61" x2="502.46" y2="433.85" style="stroke-width: 0.75;"/>
<line x1="512.05" y1="423.11" x2="513.76" y2="421.17" style="stroke-width: 0.75;"/>
<line x1="523.31" y1="410.39" x2="524.98" y2="408.52" style="stroke-width: 0.75;"/>
<line x1="534.60" y1="397.81" x2="536.18" y2="396.05" style="stroke-width: 0.75;"/>
<line x1="545.84" y1="385.37" x2="547.42" y2="383.61" style="stroke-width: 0.75;"/>
<line x1="557.11" y1="372.96" x2="558.63" y2="371.30" style="stroke-width: 0.75;"/>
<line x1="568.40" y1="360.71" x2="569.83" y2="359.17" style="stroke-width: 0.75;"/>
<line x1="579.65" y1="348.63" x2="581.06" y2="347.12" style="stroke-width: 0.75;"/>
<line x1="590.98" y1="336.68" x2="592.22" y2="335.39" style="stroke-width: 0.75;"/>
<line x1="602.30" y1="325.11" x2="603.38" y2="324.03" style="stroke-width: 0.75;"/>
<line x1="613.57" y1="313.86" x2="614.59" y2="312.84" style="stroke-width: 0.75;"/>
<line x1="624.88" y1="302.77" x2="625.76" y2="301.92" style="stroke-width: 0.75;"/>
<line x1="636.19" y1="292.00" x2="636.94" y2="291.30" style="stroke-width: 0.75;"/>
<line x1="647.51" y1="281.52" x2="648.11" y2="280.98" style="stroke-width: 0.75;"/>
<line x1="658.82" y1="271.36" x2="659.28" y2="270.95" style="stroke-width: 0.75;"/>
<line x1="670.13" y1="261.49" x2="670.45" y2="261.21" style="stroke-width: 0.75;"/>
<line x1="681.42" y1="251.89" x2="681.64" y2="251.70" style="stroke-width: 0.75;"/>
<line x1="692.74" y1="242.52" x2="692.81" y2="242.47" style="stroke-width: 0.75;"/>
<line x1="782.70" y1="172.19" x2="782.72" y2="172.17" style="stroke-width: 0.75;"/>
<line x1="793.88" y1="163.07" x2="794.02" y2="162.95" style="stroke-width: 0.75;"/>
<line x1="805.07" y1="153.72" x2="805.31" y2="153.52" style="stroke-width: 0.75;"/>
<line x1="816.22" y1="144.12" x2="816.65" y2="143.75" style="stroke-width: 0.75;"/>
<line x1="827.35" y1="134.12" x2="828.00" y2="133.53" style="stroke-width: 0.75;"/>
<line x1="838.43" y1="123.61" x2="839.41" y2="122.64" style="stroke-width: 0.75;"/>
<line x1="849.40" y1="112.28" x2="850.92" y2="110.61" style="stroke-width: 0.75;"/>
<line x1="860.24" y1="99.63" x2="862.57" y2="96.68" style="stroke-width: 0.75;"/>
<circle cx="102.58" cy="293.59" r="2.70" style="stroke-width: 0.75;"/>
<circle cx="113.82" cy="427.94" r="2.70" style="stroke-width: 0.75;"/>
<circle cx="125.06" cy="476.44" r="2.70" style="stroke-width: 0.75;"/>
<circle cx="136.30" cy="498.47" r="2.70" style="stroke-width: 0.75;"/>
<circle cx="147.55" cy="512.06" r="2.70" style="stroke-width: 0.75;"/>
<circle cx="158.79" cy="521.33" r="2.70" style="stroke-width: 0.75;"/>
<circle cx="170.03" cy="526.50" r="2.70" style="stroke-width: 0.75;"/>
<circle cx="181.27" cy="527.26" r="2.70" style="stroke-width: 0.75;"/>
<circle cx="192.51" cy="525.13" r="2.70" style="stroke-width: 0.75;"/>
<circle cx="203.75" cy="522.90" r="2.70" style="stroke-width: 0.75;"/>
<circle cx="215.00" cy="522.75" r="2.70" style="stroke-width: 0.75;"/>
<circle cx="226.24" cy="525.47" r="2.70" style="stroke-width: 0.75;"/>
<circle cx="237.48" cy="530.73" r="2.70" style="stroke-width: 0.75;"/>
<circle cx="248.72" cy="537.60" r="2.70" style="stroke-width: 0.75;"/>
<circle cx="259.96" cy="544.90" r="2.70" style="stroke-width: 0.75;"/>
<circle cx="271.21" cy="551.87" r="2.70" style="stroke-width: 0.75;"/>
<circle cx="282.45" cy="557.77" r="2.70" style="stroke-width: 0.75;"/>
<circle cx="293.69" cy="562.26" r="2.70" style="stroke-width: 0.75;"/>
<circle cx="304.93" cy="565.21" r="2.70" style="stroke-width: 0.75;"/>
<circle cx="316.17" cy="566.58" r="2.70" style="stroke-width: 0.75;"/>
<circle cx="327.41" cy="566.40" r="2.70" style="stroke-width: 0.75;"/>
<circle cx="338.66" cy="564.76" r="2.70" style="stroke-width: 0.75;"/>
<circle cx="349.90" cy="561.76" r="2.70" style="stroke-width: 0.75;"/>
<circle cx="361.14" cy="557.51" r="2.70" style="stroke-width: 0.75;"/>
<circle cx="372.38" cy="552.16" r="2.70" style="stroke-width: 0.75;"/>
<circle cx="383.62" cy="545.65" r="2.70" style="stroke-width: 0.75;"/>
<circle cx="394.87" cy="538.22" r="2.70" style="stroke-width: 0.75;"/>
<circle cx="406.11" cy="529.86" r="2.70" style="stroke-width: 0.75;"/>
<circle cx="417.35" cy="520.70" r="2.70" style="stroke-width: 0.75;"/>
<circle cx="428.59" cy="510.80" r="2.70" style="stroke-width: 0.75;"/>
<circle cx="439.83" cy="500.28" r="2.70" style="stroke-width: 0.75;"/>
<circle cx="451.07" cy="489.27" r="2.70" style="stroke-width: 0.75;"/>
<circle cx="462.32" cy="477.59" r="2.70" style="stroke-width: 0.75;"/>
<circle cx="473.56" cy="465.63" r="2.70" style="stroke-width: 0.75;"/>
<circle cx="484.80" cy="453.40" r="2.70" style="stroke-width: 0.75;"/>
<circle cx="496.04" cy="440.96" r="2.70" style="stroke-width: 0.75;"/>
<circle cx="507.28" cy="428.51" r="2.70" style="stroke-width: 0.75;"/>
<circle cx="518.53" cy="415.77" r="2.70" style="stroke-width: 0.75;"/>
<circle cx="529.77" cy="403.15" r="2.70" style="stroke-width: 0.75;"/>
<circle cx="541.01" cy="390.71" r="2.70" style="stroke-width: 0.75;"/>
<circle cx="552.25" cy="378.27" r="2.70" style="stroke-width: 0.75;"/>
<circle cx="563.49" cy="365.98" r="2.70" style="stroke-width: 0.75;"/>
<circle cx="574.73" cy="353.90" r="2.70" style="stroke-width: 0.75;"/>
<circle cx="585.98" cy="341.86" r="2.70" style="stroke-width: 0.75;"/>
<circle cx="597.22" cy="330.21" r="2.70" style="stroke-width: 0.75;"/>
<circle cx="608.46" cy="318.93" r="2.70" style="stroke-width: 0.75;"/>
<circle cx="619.70" cy="307.77" r="2.70" style="stroke-width: 0.75;"/>
<circle cx="630.94" cy="296.92" r="2.70" style="stroke-width: 0.75;"/>
<circle cx="642.19" cy="286.38" r="2.70" style="stroke-width: 0.75;"/>
<circle cx="653.43" cy="276.13" r="2.70" style="stroke-width: 0.75;"/>
<circle cx="664.67" cy="266.18" r="2.70" style="stroke-width: 0.75;"/>
<circle cx="675.91" cy="256.52" r="2.70" style="stroke-width: 0.75;"/>
<circle cx="687.15" cy="247.06" r="2.70" style="stroke-width: 0.75;"/>
<circle cx="698.39" cy="237.93" r="2.70" style="stroke-width: 0.75;"/>
<circle cx="709.64" cy="229.09" r="2.70" style="stroke-width: 0.75;"/>
<circle cx="720.88" cy="220.33" r="2.70" style="stroke-width: 0.75;"/>
<circle cx="732.12" cy="211.66" r="2.70" style="stroke-width: 0.75;"/>
<circle cx="743.36" cy="203.02" r="2.70" style="stroke-width: 0.75;"/>
<circle cx="754.60" cy="194.31" r="2.70" style="stroke-width: 0.75;"/>
<circle cx="765.85" cy="185.64" r="2.70" style="stroke-width: 0.75;"/>
<circle cx="777.09" cy="176.70" r="2.70" style="stroke-width: 0.75;"/>
<circle cx="788.33" cy="167.66" r="2.70" style="stroke-width: 0.75;"/>
<circle cx="799.57" cy="158.37" r="2.70" style="stroke-width: 0.75;"/>
<circle cx="810.81" cy="148.87" r="2.70" style="stroke-width: 0.75;"/>
<circle cx="822.05" cy="139.00" r="2.70" style="stroke-width: 0.75;"/>
<circle cx="833.30" cy="128.66" r="2.70" style="stroke-width: 0.75;"/>
<circle cx="844.54" cy="117.59" r="2.70" style="stroke-width: 0.75;"/>
<circle cx="855.78" cy="105.29" r="2.70" style="stroke-width: 0.75;"/>
<circle cx="867.02" cy="91.02" r="2.70" style="stroke-width: 0.75;"/>
</g><g clip-path="url(#c2)">
<line x1="91.34" y1="585.60" x2="878.26" y2="585.60" style="stroke-width: 0.75;"/>
<line x1="91.34" y1="585.60" x2="91.34" y2="592.80" style="stroke-width: 0.75;"/>
<line x1="203.75" y1="585.60" x2="203.75" y2="592.80" style="stroke-width: 0.75;"/>
<line x1="316.17" y1="585.60" x2="316.17" y2="592.80" style="stroke-width: 0.75;"/>
<line x1="428.59" y1="585.60" x2="428.59" y2="592.80" style="stroke-width: 0.75;"/>
<line x1="541.01" y1="585.60" x2="541.01" y2="592.80" style="stroke-width: 0.75;"/>
<line x1="653.43" y1="585.60" x2="653.43" y2="592.80" style="stroke-width: 0.75;"/>
<line x1="765.85" y1="585.60" x2="765.85" y2="592.80" style="stroke-width: 0.75;"/>
<line x1="878.26" y1="585.60" x2="878.26" y2="592.80" style="stroke-width: 0.75;"/>
<g><text x="91.34" y="611.52" text-anchor="middle" style="font-family: Arial;font-size: 13.20px;" textLength="7.34px" lengthAdjust="spacingAndGlyphs">0</text></g>
<g><text x="203.75" y="611.52" text-anchor="middle" style="font-family: Arial;font-size: 13.20px;" textLength="14.67px" lengthAdjust="spacingAndGlyphs">10</text></g>
<g><text x="316.17" y="611.52" text-anchor="middle" style="font-family: Arial;font-size: 13.20px;" textLength="14.67px" lengthAdjust="spacingAndGlyphs">20</text></g>
<g><text x="428.59" y="611.52" text-anchor="middle" style="font-family: Arial;font-size: 13.20px;" textLength="14.67px" lengthAdjust="spacingAndGlyphs">30</text></g>
<g><text x="541.01" y="611.52" text-anchor="middle" style="font-family: Arial;font-size: 13.20px;" textLength="14.67px" lengthAdjust="spacingAndGlyphs">40</text></g>
<g><text x="653.43" y="611.52" text-anchor="middle" style="font-family: Arial;font-size: 13.20px;" textLength="14.67px" lengthAdjust="spacingAndGlyphs">50</text></g>
<g><text x="765.85" y="611.52" text-anchor="middle" style="font-family: Arial;font-size: 13.20px;" textLength="14.67px" lengthAdjust="spacingAndGlyphs">60</text></g>
<g><text x="878.26" y="611.52" text-anchor="middle" style="font-family: Arial;font-size: 13.20px;" textLength="14.67px" lengthAdjust="spacingAndGlyphs">70</text></g>
<line x1="72.00" y1="544.35" x2="72.00" y2="79.54" style="stroke-width: 0.75;"/>
<line x1="72.00" y1="544.35" x2="64.80" y2="544.35" style="stroke-width: 0.75;"/>
<line x1="72.00" y1="389.41" x2="64.80" y2="389.41" style="stroke-width: 0.75;"/>
<line x1="72.00" y1="234.48" x2="64.80" y2="234.48" style="stroke-width: 0.75;"/>
<line x1="72.00" y1="79.54" x2="64.80" y2="79.54" style="stroke-width: 0.75;"/>
<g><text transform="translate(54.72,544.35) rotate(-90.00)" text-anchor="middle" style="font-family: Arial;font-size: 13.20px;" textLength="33.01px" lengthAdjust="spacingAndGlyphs">0.540</text></g>
<g><text transform="translate(54.72,389.41) rotate(-90.00)" text-anchor="middle" style="font-family: Arial;font-size: 13.20px;" textLength="33.01px" lengthAdjust="spacingAndGlyphs">0.545</text></g>
<g><text transform="translate(54.72,234.48) rotate(-90.00)" text-anchor="middle" style="font-family: Arial;font-size: 13.20px;" textLength="33.01px" lengthAdjust="spacingAndGlyphs">0.550</text></g>
<g><text transform="translate(54.72,79.54) rotate(-90.00)" text-anchor="middle" style="font-family: Arial;font-size: 13.20px;" textLength="33.01px" lengthAdjust="spacingAndGlyphs">0.555</text></g>
<polygon points="72.00,585.60 897.60,585.60 897.60,72.00 72.00,72.00" style="stroke-width: 0.75;" />
<g><text x="484.80" y="43.34" text-anchor="middle" style="font-family: Arial;font-size: 20.40px;font-weight: bold;" textLength="372.79px" lengthAdjust="spacingAndGlyphs">HPO - Simple Spline on volatile.acidity</text></g>
<g><text x="484.80" y="640.32" text-anchor="middle" style="font-family: Arial;font-size: 18.00px;" textLength="15.01px" lengthAdjust="spacingAndGlyphs">df</text></g>
<g><text transform="translate(25.92,328.80) rotate(-90.00)" text-anchor="middle" style="font-family: Arial;font-size: 18.00px;" textLength="82.02px" lengthAdjust="spacingAndGlyphs">MSE Loss</text></g>
</g><g clip-path="url(#c3)">
<circle cx="316.17" cy="566.58" r="2.70" style="stroke-width: 0.75;stroke: #FF0000;fill: #FF0000;"/>
</g>
</svg>