<svg xmlns="http://www.w3.org/2000/svg" xmlns:xlink="http://www.w3.org/1999/xlink" class="httpgd" width="1176.00" height="840.00" viewBox="0 0 940.80 672.00">
<defs>
  <style type='text/css'><![CDATA[
    .httpgd line, .httpgd polyline, .httpgd polygon, .httpgd path, .httpgd rect, .httpgd circle {
      fill: none;
      stroke: #000000;
      stroke-linecap: round;
      stroke-linejoin: round;
      stroke-miterlimit: 10.00;
    }
  ]]></style>
<clipPath id="c0"><rect x="0.00" y="0.00" width="940.80" height="672.00"/></clipPath>
<clipPath id="c1"><rect x="72.00" y="72.00" width="825.60" height="513.60"/></clipPath>
<clipPath id="c2"><rect x="0.00" y="0.00" width="940.80" height="672.00"/></clipPath>
<clipPath id="c3"><rect x="72.00" y="72.00" width="825.60" height="513.60"/></clipPath>
</defs>
<rect width="100%" height="100%" style="stroke: none;fill: #FFFFFF;"/>
<g clip-path="url(#c0)">
</g><g clip-path="url(#c1)">
<line x1="102.86" y1="224.90" x2="113.54" y2="498.33" style="stroke-width: 0.75;"/>
<line x1="115.12" y1="512.61" x2="123.76" y2="559.50" style="stroke-width: 0.75;"/>
<line x1="139.35" y1="557.78" x2="144.50" y2="546.76" style="stroke-width: 0.75;"/>
<line x1="149.63" y1="533.35" x2="156.70" y2="510.04" style="stroke-width: 0.75;"/>
<line x1="160.79" y1="496.23" x2="168.03" y2="471.15" style="stroke-width: 0.75;"/>
<line x1="172.25" y1="457.38" x2="179.05" y2="436.37" style="stroke-width: 0.75;"/>
<line x1="183.87" y1="422.81" x2="189.92" y2="407.15" style="stroke-width: 0.75;"/>
<line x1="195.63" y1="393.94" x2="200.63" y2="383.55" style="stroke-width: 0.75;"/>
<line x1="207.53" y1="370.93" x2="211.22" y2="364.94" style="stroke-width: 0.75;"/>
<line x1="219.50" y1="353.19" x2="221.74" y2="350.39" style="stroke-width: 0.75;"/>
<line x1="231.48" y1="339.83" x2="232.24" y2="339.12" style="stroke-width: 0.75;"/>
<circle cx="102.58" cy="217.71" r="2.70" style="stroke-width: 0.75;"/>
<circle cx="113.82" cy="505.53" r="2.70" style="stroke-width: 0.75;"/>
<circle cx="125.06" cy="566.58" r="2.70" style="stroke-width: 0.75;"/>
<circle cx="136.30" cy="564.30" r="2.70" style="stroke-width: 0.75;"/>
<circle cx="147.55" cy="540.24" r="2.70" style="stroke-width: 0.75;"/>
<circle cx="158.79" cy="503.15" r="2.70" style="stroke-width: 0.75;"/>
<circle cx="170.03" cy="464.23" r="2.70" style="stroke-width: 0.75;"/>
<circle cx="181.27" cy="429.52" r="2.70" style="stroke-width: 0.75;"/>
<circle cx="192.51" cy="400.43" r="2.70" style="stroke-width: 0.75;"/>
<circle cx="203.75" cy="377.06" r="2.70" style="stroke-width: 0.75;"/>
<circle cx="215.00" cy="358.81" r="2.70" style="stroke-width: 0.75;"/>
<circle cx="226.24" cy="344.77" r="2.70" style="stroke-width: 0.75;"/>
<circle cx="237.48" cy="334.18" r="2.70" style="stroke-width: 0.75;"/>
<circle cx="248.72" cy="326.01" r="2.70" style="stroke-width: 0.75;"/>
<circle cx="259.96" cy="319.60" r="2.70" style="stroke-width: 0.75;"/>
<circle cx="271.21" cy="314.32" r="2.70" style="stroke-width: 0.75;"/>
<circle cx="282.45" cy="309.64" r="2.70" style="stroke-width: 0.75;"/>
<circle cx="293.69" cy="305.33" r="2.70" style="stroke-width: 0.75;"/>
<circle cx="304.93" cy="301.18" r="2.70" style="stroke-width: 0.75;"/>
<circle cx="316.17" cy="297.13" r="2.70" style="stroke-width: 0.75;"/>
<circle cx="327.41" cy="293.11" r="2.70" style="stroke-width: 0.75;"/>
<circle cx="338.66" cy="289.15" r="2.70" style="stroke-width: 0.75;"/>
<circle cx="349.90" cy="285.25" r="2.70" style="stroke-width: 0.75;"/>
<circle cx="361.14" cy="281.41" r="2.70" style="stroke-width: 0.75;"/>
<circle cx="372.38" cy="277.67" r="2.70" style="stroke-width: 0.75;"/>
<circle cx="383.62" cy="274.04" r="2.70" style="stroke-width: 0.75;"/>
<circle cx="394.87" cy="270.41" r="2.70" style="stroke-width: 0.75;"/>
<circle cx="406.11" cy="266.87" r="2.70" style="stroke-width: 0.75;"/>
<circle cx="417.35" cy="263.29" r="2.70" style="stroke-width: 0.75;"/>
<circle cx="428.59" cy="259.77" r="2.70" style="stroke-width: 0.75;"/>
<circle cx="439.83" cy="256.18" r="2.70" style="stroke-width: 0.75;"/>
<circle cx="451.07" cy="252.57" r="2.70" style="stroke-width: 0.75;"/>
<circle cx="462.32" cy="248.98" r="2.70" style="stroke-width: 0.75;"/>
<circle cx="473.56" cy="245.28" r="2.70" style="stroke-width: 0.75;"/>
<circle cx="484.80" cy="241.62" r="2.70" style="stroke-width: 0.75;"/>
<circle cx="496.04" cy="237.90" r="2.70" style="stroke-width: 0.75;"/>
<circle cx="507.28" cy="234.17" r="2.70" style="stroke-width: 0.75;"/>
<circle cx="518.53" cy="230.38" r="2.70" style="stroke-width: 0.75;"/>
<circle cx="529.77" cy="226.62" r="2.70" style="stroke-width: 0.75;"/>
<circle cx="541.01" cy="222.91" r="2.70" style="stroke-width: 0.75;"/>
<circle cx="552.25" cy="219.15" r="2.70" style="stroke-width: 0.75;"/>
<circle cx="563.49" cy="215.34" r="2.70" style="stroke-width: 0.75;"/>
<circle cx="574.73" cy="211.58" r="2.70" style="stroke-width: 0.75;"/>
<circle cx="585.98" cy="207.81" r="2.70" style="stroke-width: 0.75;"/>
<circle cx="597.22" cy="204.02" r="2.70" style="stroke-width: 0.75;"/>
<circle cx="608.46" cy="200.28" r="2.70" style="stroke-width: 0.75;"/>
<circle cx="619.70" cy="196.40" r="2.70" style="stroke-width: 0.75;"/>
<circle cx="630.94" cy="192.56" r="2.70" style="stroke-width: 0.75;"/>
<circle cx="642.19" cy="188.67" r="2.70" style="stroke-width: 0.75;"/>
<circle cx="653.43" cy="184.74" r="2.70" style="stroke-width: 0.75;"/>
<circle cx="664.67" cy="180.82" r="2.70" style="stroke-width: 0.75;"/>
<circle cx="675.91" cy="176.73" r="2.70" style="stroke-width: 0.75;"/>
<circle cx="687.15" cy="172.63" r="2.70" style="stroke-width: 0.75;"/>
<circle cx="698.39" cy="168.45" r="2.70" style="stroke-width: 0.75;"/>
<circle cx="709.64" cy="164.20" r="2.70" style="stroke-width: 0.75;"/>
<circle cx="720.88" cy="159.85" r="2.70" style="stroke-width: 0.75;"/>
<circle cx="732.12" cy="155.42" r="2.70" style="stroke-width: 0.75;"/>
<circle cx="743.36" cy="150.87" r="2.70" style="stroke-width: 0.75;"/>
<circle cx="754.60" cy="146.22" r="2.70" style="stroke-width: 0.75;"/>
<circle cx="765.85" cy="141.44" r="2.70" style="stroke-width: 0.75;"/>
<circle cx="777.09" cy="136.53" r="2.70" style="stroke-width: 0.75;"/>
<circle cx="788.33" cy="131.55" r="2.70" style="stroke-width: 0.75;"/>
<circle cx="799.57" cy="126.27" r="2.70" style="stroke-width: 0.75;"/>
<circle cx="810.81" cy="120.89" r="2.70" style="stroke-width: 0.75;"/>
<circle cx="822.05" cy="115.42" r="2.70" style="stroke-width: 0.75;"/>
<circle cx="833.30" cy="109.57" r="2.70" style="stroke-width: 0.75;"/>
<circle cx="844.54" cy="103.60" r="2.70" style="stroke-width: 0.75;"/>
<circle cx="855.78" cy="97.49" r="2.70" style="stroke-width: 0.75;"/>
<circle cx="867.02" cy="91.02" r="2.70" style="stroke-width: 0.75;"/>
</g><g clip-path="url(#c2)">
<line x1="91.34" y1="585.60" x2="878.26" y2="585.60" style="stroke-width: 0.75;"/>
<line x1="91.34" y1="585.60" x2="91.34" y2="592.80" style="stroke-width: 0.75;"/>
<line x1="203.75" y1="585.60" x2="203.75" y2="592.80" style="stroke-width: 0.75;"/>
<line x1="316.17" y1="585.60" x2="316.17" y2="592.80" style="stroke-width: 0.75;"/>
<line x1="428.59" y1="585.60" x2="428.59" y2="592.80" style="stroke-width: 0.75;"/>
<line x1="541.01" y1="585.60" x2="541.01" y2="592.80" style="stroke-width: 0.75;"/>
<line x1="653.43" y1="585.60" x2="653.43" y2="592.80" style="stroke-width: 0.75;"/>
<line x1="765.85" y1="585.60" x2="765.85" y2="592.80" style="stroke-width: 0.75;"/>
<line x1="878.26" y1="585.60" x2="878.26" y2="592.80" style="stroke-width: 0.75;"/>
<g><text x="91.34" y="611.52" text-anchor="middle" style="font-family: Arial;font-size: 13.20px;" textLength="7.34px" lengthAdjust="spacingAndGlyphs">0</text></g>
<g><text x="203.75" y="611.52" text-anchor="middle" style="font-family: Arial;font-size: 13.20px;" textLength="14.67px" lengthAdjust="spacingAndGlyphs">10</text></g>
<g><text x="316.17" y="611.52" text-anchor="middle" style="font-family: Arial;font-size: 13.20px;" textLength="14.67px" lengthAdjust="spacingAndGlyphs">20</text></g>
<g><text x="428.59" y="611.52" text-anchor="middle" style="font-family: Arial;font-size: 13.20px;" textLength="14.67px" lengthAdjust="spacingAndGlyphs">30</text></g>
<g><text x="541.01" y="611.52" text-anchor="middle" style="font-family: Arial;font-size: 13.20px;" textLength="14.67px" lengthAdjust="spacingAndGlyphs">40</text></g>
<g><text x="653.43" y="611.52" text-anchor="middle" style="font-family: Arial;font-size: 13.20px;" textLength="14.67px" lengthAdjust="spacingAndGlyphs">50</text></g>
<g><text x="765.85" y="611.52" text-anchor="middle" style="font-family: Arial;font-size: 13.20px;" textLength="14.67px" lengthAdjust="spacingAndGlyphs">60</text></g>
<g><text x="878.26" y="611.52" text-anchor="middle" style="font-family: Arial;font-size: 13.20px;" textLength="14.67px" lengthAdjust="spacingAndGlyphs">70</text></g>
<line x1="72.00" y1="571.14" x2="72.00" y2="143.65" style="stroke-width: 0.75;"/>
<line x1="72.00" y1="571.14" x2="64.80" y2="571.14" style="stroke-width: 0.75;"/>
<line x1="72.00" y1="485.65" x2="64.80" y2="485.65" style="stroke-width: 0.75;"/>
<line x1="72.00" y1="400.15" x2="64.80" y2="400.15" style="stroke-width: 0.75;"/>
<line x1="72.00" y1="314.65" x2="64.80" y2="314.65" style="stroke-width: 0.75;"/>
<line x1="72.00" y1="229.15" x2="64.80" y2="229.15" style="stroke-width: 0.75;"/>
<line x1="72.00" y1="143.65" x2="64.80" y2="143.65" style="stroke-width: 0.75;"/>
<g><text transform="translate(54.72,571.14) rotate(-90.00)" text-anchor="middle" style="font-family: Arial;font-size: 13.20px;" textLength="25.68px" lengthAdjust="spacingAndGlyphs">1.26</text></g>
<g><text transform="translate(54.72,485.65) rotate(-90.00)" text-anchor="middle" style="font-family: Arial;font-size: 13.20px;" textLength="25.68px" lengthAdjust="spacingAndGlyphs">1.28</text></g>
<g><text transform="translate(54.72,400.15) rotate(-90.00)" text-anchor="middle" style="font-family: Arial;font-size: 13.20px;" textLength="25.68px" lengthAdjust="spacingAndGlyphs">1.30</text></g>
<g><text transform="translate(54.72,314.65) rotate(-90.00)" text-anchor="middle" style="font-family: Arial;font-size: 13.20px;" textLength="25.68px" lengthAdjust="spacingAndGlyphs">1.32</text></g>
<g><text transform="translate(54.72,229.15) rotate(-90.00)" text-anchor="middle" style="font-family: Arial;font-size: 13.20px;" textLength="25.68px" lengthAdjust="spacingAndGlyphs">1.34</text></g>
<g><text transform="translate(54.72,143.65) rotate(-90.00)" text-anchor="middle" style="font-family: Arial;font-size: 13.20px;" textLength="25.68px" lengthAdjust="spacingAndGlyphs">1.36</text></g>
<polygon points="72.00,585.60 897.60,585.60 897.60,72.00 72.00,72.00" style="stroke-width: 0.75;" />
<g><text x="484.80" y="43.34" text-anchor="middle" style="font-family: Arial;font-size: 20.40px;font-weight: bold;" textLength="722.89px" lengthAdjust="spacingAndGlyphs">HPO - Weighted spline volatile.acidity with balanced data (hybrid sampled)</text></g>
<g><text x="484.80" y="640.32" text-anchor="middle" style="font-family: Arial;font-size: 18.00px;" textLength="15.01px" lengthAdjust="spacingAndGlyphs">df</text></g>
<g><text transform="translate(25.92,328.80) rotate(-90.00)" text-anchor="middle" style="font-family: Arial;font-size: 18.00px;" textLength="82.02px" lengthAdjust="spacingAndGlyphs">MSE Loss</text></g>
</g><g clip-path="url(#c3)">
<circle cx="125.06" cy="566.58" r="2.70" style="stroke-width: 0.75;stroke: #FF0000;fill: #FF0000;"/>
</g>
</svg>