<svg xmlns="http://www.w3.org/2000/svg" xmlns:xlink="http://www.w3.org/1999/xlink" class="httpgd" width="1176.00" height="840.00" viewBox="0 0 940.80 672.00">
<defs>
  <style type='text/css'><![CDATA[
    .httpgd line, .httpgd polyline, .httpgd polygon, .httpgd path, .httpgd rect, .httpgd circle {
      fill: none;
      stroke: #000000;
      stroke-linecap: round;
      stroke-linejoin: round;
      stroke-miterlimit: 10.00;
    }
  ]]></style>
<clipPath id="c0"><rect x="0.00" y="0.00" width="940.80" height="672.00"/></clipPath>
<clipPath id="c1"><rect x="72.00" y="72.00" width="825.60" height="513.60"/></clipPath>
<clipPath id="c2"><rect x="0.00" y="0.00" width="940.80" height="672.00"/></clipPath>
<clipPath id="c3"><rect x="72.00" y="72.00" width="825.60" height="513.60"/></clipPath>
</defs>
<rect width="100%" height="100%" style="stroke: none;fill: #FFFFFF;"/>
<g clip-path="url(#c0)">
</g><g clip-path="url(#c1)">
<line x1="105.51" y1="560.00" x2="110.88" y2="547.99" style="stroke-width: 0.75;"/>
<line x1="117.98" y1="535.53" x2="120.90" y2="531.40" style="stroke-width: 0.75;"/>
<line x1="209.27" y1="489.00" x2="209.48" y2="488.83" style="stroke-width: 0.75;"/>
<line x1="220.33" y1="479.37" x2="220.90" y2="478.85" style="stroke-width: 0.75;"/>
<line x1="231.46" y1="469.06" x2="232.26" y2="468.30" style="stroke-width: 0.75;"/>
<line x1="242.66" y1="458.34" x2="243.54" y2="457.50" style="stroke-width: 0.75;"/>
<line x1="253.98" y1="447.59" x2="254.70" y2="446.93" style="stroke-width: 0.75;"/>
<line x1="265.42" y1="437.31" x2="265.75" y2="437.03" style="stroke-width: 0.75;"/>
<line x1="760.21" y1="190.42" x2="760.24" y2="190.39" style="stroke-width: 0.75;"/>
<line x1="771.37" y1="181.26" x2="771.56" y2="181.10" style="stroke-width: 0.75;"/>
<line x1="782.53" y1="171.77" x2="782.89" y2="171.46" style="stroke-width: 0.75;"/>
<line x1="793.68" y1="161.93" x2="794.22" y2="161.45" style="stroke-width: 0.75;"/>
<line x1="804.86" y1="151.74" x2="805.53" y2="151.13" style="stroke-width: 0.75;"/>
<line x1="816.00" y1="141.25" x2="816.86" y2="140.42" style="stroke-width: 0.75;"/>
<line x1="827.20" y1="130.40" x2="828.15" y2="129.47" style="stroke-width: 0.75;"/>
<line x1="838.41" y1="119.36" x2="839.43" y2="118.35" style="stroke-width: 0.75;"/>
<line x1="849.65" y1="108.20" x2="850.67" y2="107.19" style="stroke-width: 0.75;"/>
<line x1="860.91" y1="97.06" x2="861.90" y2="96.08" style="stroke-width: 0.75;"/>
<circle cx="102.58" cy="566.58" r="2.70" style="stroke-width: 0.75;"/>
<circle cx="113.82" cy="541.41" r="2.70" style="stroke-width: 0.75;"/>
<circle cx="125.06" cy="525.53" r="2.70" style="stroke-width: 0.75;"/>
<circle cx="136.30" cy="522.55" r="2.70" style="stroke-width: 0.75;"/>
<circle cx="147.55" cy="522.16" r="2.70" style="stroke-width: 0.75;"/>
<circle cx="158.79" cy="520.26" r="2.70" style="stroke-width: 0.75;"/>
<circle cx="170.03" cy="515.99" r="2.70" style="stroke-width: 0.75;"/>
<circle cx="181.27" cy="509.76" r="2.70" style="stroke-width: 0.75;"/>
<circle cx="192.51" cy="502.18" r="2.70" style="stroke-width: 0.75;"/>
<circle cx="203.75" cy="493.63" r="2.70" style="stroke-width: 0.75;"/>
<circle cx="215.00" cy="484.21" r="2.70" style="stroke-width: 0.75;"/>
<circle cx="226.24" cy="474.02" r="2.70" style="stroke-width: 0.75;"/>
<circle cx="237.48" cy="463.34" r="2.70" style="stroke-width: 0.75;"/>
<circle cx="248.72" cy="452.51" r="2.70" style="stroke-width: 0.75;"/>
<circle cx="259.96" cy="442.01" r="2.70" style="stroke-width: 0.75;"/>
<circle cx="271.21" cy="432.33" r="2.70" style="stroke-width: 0.75;"/>
<circle cx="282.45" cy="423.70" r="2.70" style="stroke-width: 0.75;"/>
<circle cx="293.69" cy="416.13" r="2.70" style="stroke-width: 0.75;"/>
<circle cx="304.93" cy="409.55" r="2.70" style="stroke-width: 0.75;"/>
<circle cx="316.17" cy="403.90" r="2.70" style="stroke-width: 0.75;"/>
<circle cx="327.41" cy="398.98" r="2.70" style="stroke-width: 0.75;"/>
<circle cx="338.66" cy="394.54" r="2.70" style="stroke-width: 0.75;"/>
<circle cx="349.90" cy="390.42" r="2.70" style="stroke-width: 0.75;"/>
<circle cx="361.14" cy="386.56" r="2.70" style="stroke-width: 0.75;"/>
<circle cx="372.38" cy="382.73" r="2.70" style="stroke-width: 0.75;"/>
<circle cx="383.62" cy="378.94" r="2.70" style="stroke-width: 0.75;"/>
<circle cx="394.87" cy="375.16" r="2.70" style="stroke-width: 0.75;"/>
<circle cx="406.11" cy="371.23" r="2.70" style="stroke-width: 0.75;"/>
<circle cx="417.35" cy="367.26" r="2.70" style="stroke-width: 0.75;"/>
<circle cx="428.59" cy="363.18" r="2.70" style="stroke-width: 0.75;"/>
<circle cx="439.83" cy="359.04" r="2.70" style="stroke-width: 0.75;"/>
<circle cx="451.07" cy="354.74" r="2.70" style="stroke-width: 0.75;"/>
<circle cx="462.32" cy="350.43" r="2.70" style="stroke-width: 0.75;"/>
<circle cx="473.56" cy="346.00" r="2.70" style="stroke-width: 0.75;"/>
<circle cx="484.80" cy="341.53" r="2.70" style="stroke-width: 0.75;"/>
<circle cx="496.04" cy="337.08" r="2.70" style="stroke-width: 0.75;"/>
<circle cx="507.28" cy="332.51" r="2.70" style="stroke-width: 0.75;"/>
<circle cx="518.53" cy="327.92" r="2.70" style="stroke-width: 0.75;"/>
<circle cx="529.77" cy="323.28" r="2.70" style="stroke-width: 0.75;"/>
<circle cx="541.01" cy="318.59" r="2.70" style="stroke-width: 0.75;"/>
<circle cx="552.25" cy="313.84" r="2.70" style="stroke-width: 0.75;"/>
<circle cx="563.49" cy="308.96" r="2.70" style="stroke-width: 0.75;"/>
<circle cx="574.73" cy="303.94" r="2.70" style="stroke-width: 0.75;"/>
<circle cx="585.98" cy="298.77" r="2.70" style="stroke-width: 0.75;"/>
<circle cx="597.22" cy="293.37" r="2.70" style="stroke-width: 0.75;"/>
<circle cx="608.46" cy="287.89" r="2.70" style="stroke-width: 0.75;"/>
<circle cx="619.70" cy="282.11" r="2.70" style="stroke-width: 0.75;"/>
<circle cx="630.94" cy="276.12" r="2.70" style="stroke-width: 0.75;"/>
<circle cx="642.19" cy="269.99" r="2.70" style="stroke-width: 0.75;"/>
<circle cx="653.43" cy="263.57" r="2.70" style="stroke-width: 0.75;"/>
<circle cx="664.67" cy="256.87" r="2.70" style="stroke-width: 0.75;"/>
<circle cx="675.91" cy="250.06" r="2.70" style="stroke-width: 0.75;"/>
<circle cx="687.15" cy="242.95" r="2.70" style="stroke-width: 0.75;"/>
<circle cx="698.39" cy="235.56" r="2.70" style="stroke-width: 0.75;"/>
<circle cx="709.64" cy="227.99" r="2.70" style="stroke-width: 0.75;"/>
<circle cx="720.88" cy="220.15" r="2.70" style="stroke-width: 0.75;"/>
<circle cx="732.12" cy="212.05" r="2.70" style="stroke-width: 0.75;"/>
<circle cx="743.36" cy="203.65" r="2.70" style="stroke-width: 0.75;"/>
<circle cx="754.60" cy="194.93" r="2.70" style="stroke-width: 0.75;"/>
<circle cx="765.85" cy="185.88" r="2.70" style="stroke-width: 0.75;"/>
<circle cx="777.09" cy="176.48" r="2.70" style="stroke-width: 0.75;"/>
<circle cx="788.33" cy="166.74" r="2.70" style="stroke-width: 0.75;"/>
<circle cx="799.57" cy="156.63" r="2.70" style="stroke-width: 0.75;"/>
<circle cx="810.81" cy="146.24" r="2.70" style="stroke-width: 0.75;"/>
<circle cx="822.05" cy="135.43" r="2.70" style="stroke-width: 0.75;"/>
<circle cx="833.30" cy="124.43" r="2.70" style="stroke-width: 0.75;"/>
<circle cx="844.54" cy="113.27" r="2.70" style="stroke-width: 0.75;"/>
<circle cx="855.78" cy="102.11" r="2.70" style="stroke-width: 0.75;"/>
<circle cx="867.02" cy="91.02" r="2.70" style="stroke-width: 0.75;"/>
</g><g clip-path="url(#c2)">
<line x1="91.34" y1="585.60" x2="878.26" y2="585.60" style="stroke-width: 0.75;"/>
<line x1="91.34" y1="585.60" x2="91.34" y2="592.80" style="stroke-width: 0.75;"/>
<line x1="203.75" y1="585.60" x2="203.75" y2="592.80" style="stroke-width: 0.75;"/>
<line x1="316.17" y1="585.60" x2="316.17" y2="592.80" style="stroke-width: 0.75;"/>
<line x1="428.59" y1="585.60" x2="428.59" y2="592.80" style="stroke-width: 0.75;"/>
<line x1="541.01" y1="585.60" x2="541.01" y2="592.80" style="stroke-width: 0.75;"/>
<line x1="653.43" y1="585.60" x2="653.43" y2="592.80" style="stroke-width: 0.75;"/>
<line x1="765.85" y1="585.60" x2="765.85" y2="592.80" style="stroke-width: 0.75;"/>
<line x1="878.26" y1="585.60" x2="878.26" y2="592.80" style="stroke-width: 0.75;"/>
<g><text x="91.34" y="611.52" text-anchor="middle" style="font-family: Arial;font-size: 13.20px;" textLength="7.34px" lengthAdjust="spacingAndGlyphs">0</text></g>
<g><text x="203.75" y="611.52" text-anchor="middle" style="font-family: Arial;font-size: 13.20px;" textLength="14.67px" lengthAdjust="spacingAndGlyphs">10</text></g>
<g><text x="316.17" y="611.52" text-anchor="middle" style="font-family: Arial;font-size: 13.20px;" textLength="14.67px" lengthAdjust="spacingAndGlyphs">20</text></g>
<g><text x="428.59" y="611.52" text-anchor="middle" style="font-family: Arial;font-size: 13.20px;" textLength="14.67px" lengthAdjust="spacingAndGlyphs">30</text></g>
<g><text x="541.01" y="611.52" text-anchor="middle" style="font-family: Arial;font-size: 13.20px;" textLength="14.67px" lengthAdjust="spacingAndGlyphs">40</text></g>
<g><text x="653.43" y="611.52" text-anchor="middle" style="font-family: Arial;font-size: 13.20px;" textLength="14.67px" lengthAdjust="spacingAndGlyphs">50</text></g>
<g><text x="765.85" y="611.52" text-anchor="middle" style="font-family: Arial;font-size: 13.20px;" textLength="14.67px" lengthAdjust="spacingAndGlyphs">60</text></g>
<g><text x="878.26" y="611.52" text-anchor="middle" style="font-family: Arial;font-size: 13.20px;" textLength="14.67px" lengthAdjust="spacingAndGlyphs">70</text></g>
<line x1="72.00" y1="555.89" x2="72.00" y2="114.76" style="stroke-width: 0.75;"/>
<line x1="72.00" y1="555.89" x2="64.80" y2="555.89" style="stroke-width: 0.75;"/>
<line x1="72.00" y1="467.67" x2="64.80" y2="467.67" style="stroke-width: 0.75;"/>
<line x1="72.00" y1="379.44" x2="64.80" y2="379.44" style="stroke-width: 0.75;"/>
<line x1="72.00" y1="291.21" x2="64.80" y2="291.21" style="stroke-width: 0.75;"/>
<line x1="72.00" y1="202.99" x2="64.80" y2="202.99" style="stroke-width: 0.75;"/>
<line x1="72.00" y1="114.76" x2="64.80" y2="114.76" style="stroke-width: 0.75;"/>
<g><text transform="translate(54.72,555.89) rotate(-90.00)" text-anchor="middle" style="font-family: Arial;font-size: 13.20px;" textLength="18.34px" lengthAdjust="spacingAndGlyphs">0.8</text></g>
<g><text transform="translate(54.72,467.67) rotate(-90.00)" text-anchor="middle" style="font-family: Arial;font-size: 13.20px;" textLength="18.34px" lengthAdjust="spacingAndGlyphs">0.9</text></g>
<g><text transform="translate(54.72,379.44) rotate(-90.00)" text-anchor="middle" style="font-family: Arial;font-size: 13.20px;" textLength="18.34px" lengthAdjust="spacingAndGlyphs">1.0</text></g>
<g><text transform="translate(54.72,291.21) rotate(-90.00)" text-anchor="middle" style="font-family: Arial;font-size: 13.20px;" textLength="18.34px" lengthAdjust="spacingAndGlyphs">1.1</text></g>
<g><text transform="translate(54.72,202.99) rotate(-90.00)" text-anchor="middle" style="font-family: Arial;font-size: 13.20px;" textLength="18.34px" lengthAdjust="spacingAndGlyphs">1.2</text></g>
<g><text transform="translate(54.72,114.76) rotate(-90.00)" text-anchor="middle" style="font-family: Arial;font-size: 13.20px;" textLength="18.34px" lengthAdjust="spacingAndGlyphs">1.3</text></g>
<polygon points="72.00,585.60 897.60,585.60 897.60,72.00 72.00,72.00" style="stroke-width: 0.75;" />
<g><text x="484.80" y="43.34" text-anchor="middle" style="font-family: Arial;font-size: 20.40px;font-weight: bold;" textLength="583.55px" lengthAdjust="spacingAndGlyphs">HPO - Inverse Frequency Weighted Spline on volatile.acidity</text></g>
<g><text x="484.80" y="640.32" text-anchor="middle" style="font-family: Arial;font-size: 18.00px;" textLength="15.01px" lengthAdjust="spacingAndGlyphs">df</text></g>
<g><text transform="translate(25.92,328.80) rotate(-90.00)" text-anchor="middle" style="font-family: Arial;font-size: 18.00px;" textLength="82.02px" lengthAdjust="spacingAndGlyphs">MSE Loss</text></g>
</g><g clip-path="url(#c3)">
<circle cx="102.58" cy="566.58" r="2.70" style="stroke-width: 0.75;stroke: #FF0000;fill: #FF0000;"/>
</g>
</svg>