<svg xmlns="http://www.w3.org/2000/svg" xmlns:xlink="http://www.w3.org/1999/xlink" class="httpgd" width="1176.00" height="840.00" viewBox="0 0 940.80 672.00">
<defs>
  <style type='text/css'><![CDATA[
    .httpgd line, .httpgd polyline, .httpgd polygon, .httpgd path, .httpgd rect, .httpgd circle {
      fill: none;
      stroke: #000000;
      stroke-linecap: round;
      stroke-linejoin: round;
      stroke-miterlimit: 10.00;
    }
  ]]></style>
<clipPath id="c0"><rect x="0.00" y="0.00" width="940.80" height="672.00"/></clipPath>
<clipPath id="c1"><rect x="72.00" y="72.00" width="825.60" height="513.60"/></clipPath>
<clipPath id="c2"><rect x="0.00" y="0.00" width="940.80" height="672.00"/></clipPath>
<clipPath id="c3"><rect x="72.00" y="72.00" width="825.60" height="513.60"/></clipPath>
</defs>
<rect width="100%" height="100%" style="stroke: none;fill: #FFFFFF;"/>
<g clip-path="url(#c0)">
</g><g clip-path="url(#c1)">
<line x1="107.89" y1="189.44" x2="108.50" y2="189.99" style="stroke-width: 0.75;"/>
<line x1="114.97" y1="201.95" x2="123.91" y2="257.19" style="stroke-width: 0.75;"/>
<line x1="125.92" y1="271.45" x2="135.44" y2="350.23" style="stroke-width: 0.75;"/>
<line x1="137.31" y1="364.50" x2="146.54" y2="430.22" style="stroke-width: 0.75;"/>
<line x1="148.94" y1="444.41" x2="157.39" y2="487.33" style="stroke-width: 0.75;"/>
<line x1="161.13" y1="501.21" x2="167.69" y2="520.32" style="stroke-width: 0.75;"/>
<line x1="174.25" y1="532.96" x2="177.05" y2="536.85" style="stroke-width: 0.75;"/>
<line x1="321.79" y1="540.25" x2="321.80" y2="540.24" style="stroke-width: 0.75;"/>
<line x1="332.83" y1="530.98" x2="333.25" y2="530.61" style="stroke-width: 0.75;"/>
<line x1="343.96" y1="521.00" x2="344.59" y2="520.42" style="stroke-width: 0.75;"/>
<line x1="355.08" y1="510.55" x2="355.96" y2="509.70" style="stroke-width: 0.75;"/>
<line x1="366.30" y1="499.68" x2="367.22" y2="498.78" style="stroke-width: 0.75;"/>
<line x1="377.48" y1="488.67" x2="378.53" y2="487.62" style="stroke-width: 0.75;"/>
<line x1="388.75" y1="477.48" x2="389.74" y2="476.50" style="stroke-width: 0.75;"/>
<line x1="399.99" y1="466.39" x2="400.98" y2="465.40" style="stroke-width: 0.75;"/>
<line x1="411.28" y1="455.33" x2="412.18" y2="454.46" style="stroke-width: 0.75;"/>
<line x1="422.58" y1="444.50" x2="423.36" y2="443.76" style="stroke-width: 0.75;"/>
<line x1="433.86" y1="433.91" x2="434.56" y2="433.26" style="stroke-width: 0.75;"/>
<line x1="445.20" y1="423.56" x2="445.70" y2="423.11" style="stroke-width: 0.75;"/>
<line x1="456.50" y1="413.58" x2="456.89" y2="413.25" style="stroke-width: 0.75;"/>
<line x1="467.82" y1="403.87" x2="468.06" y2="403.66" style="stroke-width: 0.75;"/>
<line x1="479.13" y1="394.45" x2="479.23" y2="394.37" style="stroke-width: 0.75;"/>
<line x1="490.42" y1="385.31" x2="490.42" y2="385.31" style="stroke-width: 0.75;"/>
<line x1="703.96" y1="228.76" x2="704.07" y2="228.66" style="stroke-width: 0.75;"/>
<line x1="715.20" y1="219.52" x2="715.31" y2="219.43" style="stroke-width: 0.75;"/>
<line x1="726.38" y1="210.23" x2="726.62" y2="210.03" style="stroke-width: 0.75;"/>
<line x1="737.59" y1="200.70" x2="737.89" y2="200.43" style="stroke-width: 0.75;"/>
<line x1="748.77" y1="191.00" x2="749.20" y2="190.62" style="stroke-width: 0.75;"/>
<line x1="760.06" y1="181.17" x2="760.39" y2="180.88" style="stroke-width: 0.75;"/>
<line x1="771.26" y1="171.43" x2="771.68" y2="171.06" style="stroke-width: 0.75;"/>
<line x1="782.50" y1="161.56" x2="782.92" y2="161.19" style="stroke-width: 0.75;"/>
<line x1="793.75" y1="151.70" x2="794.15" y2="151.35" style="stroke-width: 0.75;"/>
<line x1="805.01" y1="141.90" x2="805.37" y2="141.59" style="stroke-width: 0.75;"/>
<line x1="816.25" y1="132.16" x2="816.61" y2="131.85" style="stroke-width: 0.75;"/>
<line x1="827.57" y1="122.51" x2="827.78" y2="122.33" style="stroke-width: 0.75;"/>
<line x1="838.87" y1="113.15" x2="838.97" y2="113.07" style="stroke-width: 0.75;"/>
<circle cx="102.58" cy="184.58" r="2.70" style="stroke-width: 0.75;"/>
<circle cx="113.82" cy="194.85" r="2.70" style="stroke-width: 0.75;"/>
<circle cx="125.06" cy="264.30" r="2.70" style="stroke-width: 0.75;"/>
<circle cx="136.30" cy="357.37" r="2.70" style="stroke-width: 0.75;"/>
<circle cx="147.55" cy="437.35" r="2.70" style="stroke-width: 0.75;"/>
<circle cx="158.79" cy="494.40" r="2.70" style="stroke-width: 0.75;"/>
<circle cx="170.03" cy="527.13" r="2.70" style="stroke-width: 0.75;"/>
<circle cx="181.27" cy="542.68" r="2.70" style="stroke-width: 0.75;"/>
<circle cx="192.51" cy="548.69" r="2.70" style="stroke-width: 0.75;"/>
<circle cx="203.75" cy="550.85" r="2.70" style="stroke-width: 0.75;"/>
<circle cx="215.00" cy="552.83" r="2.70" style="stroke-width: 0.75;"/>
<circle cx="226.24" cy="556.12" r="2.70" style="stroke-width: 0.75;"/>
<circle cx="237.48" cy="560.37" r="2.70" style="stroke-width: 0.75;"/>
<circle cx="248.72" cy="564.29" r="2.70" style="stroke-width: 0.75;"/>
<circle cx="259.96" cy="566.58" r="2.70" style="stroke-width: 0.75;"/>
<circle cx="271.21" cy="566.51" r="2.70" style="stroke-width: 0.75;"/>
<circle cx="282.45" cy="563.98" r="2.70" style="stroke-width: 0.75;"/>
<circle cx="293.69" cy="559.26" r="2.70" style="stroke-width: 0.75;"/>
<circle cx="304.93" cy="552.67" r="2.70" style="stroke-width: 0.75;"/>
<circle cx="316.17" cy="544.75" r="2.70" style="stroke-width: 0.75;"/>
<circle cx="327.41" cy="535.73" r="2.70" style="stroke-width: 0.75;"/>
<circle cx="338.66" cy="525.86" r="2.70" style="stroke-width: 0.75;"/>
<circle cx="349.90" cy="515.55" r="2.70" style="stroke-width: 0.75;"/>
<circle cx="361.14" cy="504.70" r="2.70" style="stroke-width: 0.75;"/>
<circle cx="372.38" cy="493.76" r="2.70" style="stroke-width: 0.75;"/>
<circle cx="383.62" cy="482.53" r="2.70" style="stroke-width: 0.75;"/>
<circle cx="394.87" cy="471.45" r="2.70" style="stroke-width: 0.75;"/>
<circle cx="406.11" cy="460.34" r="2.70" style="stroke-width: 0.75;"/>
<circle cx="417.35" cy="449.44" r="2.70" style="stroke-width: 0.75;"/>
<circle cx="428.59" cy="438.82" r="2.70" style="stroke-width: 0.75;"/>
<circle cx="439.83" cy="428.35" r="2.70" style="stroke-width: 0.75;"/>
<circle cx="451.07" cy="418.32" r="2.70" style="stroke-width: 0.75;"/>
<circle cx="462.32" cy="408.52" r="2.70" style="stroke-width: 0.75;"/>
<circle cx="473.56" cy="399.02" r="2.70" style="stroke-width: 0.75;"/>
<circle cx="484.80" cy="389.81" r="2.70" style="stroke-width: 0.75;"/>
<circle cx="496.04" cy="380.81" r="2.70" style="stroke-width: 0.75;"/>
<circle cx="507.28" cy="372.12" r="2.70" style="stroke-width: 0.75;"/>
<circle cx="518.53" cy="363.64" r="2.70" style="stroke-width: 0.75;"/>
<circle cx="529.77" cy="355.44" r="2.70" style="stroke-width: 0.75;"/>
<circle cx="541.01" cy="347.25" r="2.70" style="stroke-width: 0.75;"/>
<circle cx="552.25" cy="339.26" r="2.70" style="stroke-width: 0.75;"/>
<circle cx="563.49" cy="331.37" r="2.70" style="stroke-width: 0.75;"/>
<circle cx="574.73" cy="323.55" r="2.70" style="stroke-width: 0.75;"/>
<circle cx="585.98" cy="315.75" r="2.70" style="stroke-width: 0.75;"/>
<circle cx="597.22" cy="307.96" r="2.70" style="stroke-width: 0.75;"/>
<circle cx="608.46" cy="300.13" r="2.70" style="stroke-width: 0.75;"/>
<circle cx="619.70" cy="292.25" r="2.70" style="stroke-width: 0.75;"/>
<circle cx="630.94" cy="284.34" r="2.70" style="stroke-width: 0.75;"/>
<circle cx="642.19" cy="276.24" r="2.70" style="stroke-width: 0.75;"/>
<circle cx="653.43" cy="267.94" r="2.70" style="stroke-width: 0.75;"/>
<circle cx="664.67" cy="259.53" r="2.70" style="stroke-width: 0.75;"/>
<circle cx="675.91" cy="251.03" r="2.70" style="stroke-width: 0.75;"/>
<circle cx="687.15" cy="242.28" r="2.70" style="stroke-width: 0.75;"/>
<circle cx="698.39" cy="233.33" r="2.70" style="stroke-width: 0.75;"/>
<circle cx="709.64" cy="224.09" r="2.70" style="stroke-width: 0.75;"/>
<circle cx="720.88" cy="214.87" r="2.70" style="stroke-width: 0.75;"/>
<circle cx="732.12" cy="205.38" r="2.70" style="stroke-width: 0.75;"/>
<circle cx="743.36" cy="195.75" r="2.70" style="stroke-width: 0.75;"/>
<circle cx="754.60" cy="185.87" r="2.70" style="stroke-width: 0.75;"/>
<circle cx="765.85" cy="176.18" r="2.70" style="stroke-width: 0.75;"/>
<circle cx="777.09" cy="166.31" r="2.70" style="stroke-width: 0.75;"/>
<circle cx="788.33" cy="156.44" r="2.70" style="stroke-width: 0.75;"/>
<circle cx="799.57" cy="146.61" r="2.70" style="stroke-width: 0.75;"/>
<circle cx="810.81" cy="136.87" r="2.70" style="stroke-width: 0.75;"/>
<circle cx="822.05" cy="127.13" r="2.70" style="stroke-width: 0.75;"/>
<circle cx="833.30" cy="117.71" r="2.70" style="stroke-width: 0.75;"/>
<circle cx="844.54" cy="108.51" r="2.70" style="stroke-width: 0.75;"/>
<circle cx="855.78" cy="99.68" r="2.70" style="stroke-width: 0.75;"/>
<circle cx="867.02" cy="91.02" r="2.70" style="stroke-width: 0.75;"/>
</g><g clip-path="url(#c2)">
<line x1="91.34" y1="585.60" x2="878.26" y2="585.60" style="stroke-width: 0.75;"/>
<line x1="91.34" y1="585.60" x2="91.34" y2="592.80" style="stroke-width: 0.75;"/>
<line x1="203.75" y1="585.60" x2="203.75" y2="592.80" style="stroke-width: 0.75;"/>
<line x1="316.17" y1="585.60" x2="316.17" y2="592.80" style="stroke-width: 0.75;"/>
<line x1="428.59" y1="585.60" x2="428.59" y2="592.80" style="stroke-width: 0.75;"/>
<line x1="541.01" y1="585.60" x2="541.01" y2="592.80" style="stroke-width: 0.75;"/>
<line x1="653.43" y1="585.60" x2="653.43" y2="592.80" style="stroke-width: 0.75;"/>
<line x1="765.85" y1="585.60" x2="765.85" y2="592.80" style="stroke-width: 0.75;"/>
<line x1="878.26" y1="585.60" x2="878.26" y2="592.80" style="stroke-width: 0.75;"/>
<g><text x="91.34" y="611.52" text-anchor="middle" style="font-family: Arial;font-size: 13.20px;" textLength="7.34px" lengthAdjust="spacingAndGlyphs">0</text></g>
<g><text x="203.75" y="611.52" text-anchor="middle" style="font-family: Arial;font-size: 13.20px;" textLength="14.67px" lengthAdjust="spacingAndGlyphs">10</text></g>
<g><text x="316.17" y="611.52" text-anchor="middle" style="font-family: Arial;font-size: 13.20px;" textLength="14.67px" lengthAdjust="spacingAndGlyphs">20</text></g>
<g><text x="428.59" y="611.52" text-anchor="middle" style="font-family: Arial;font-size: 13.20px;" textLength="14.67px" lengthAdjust="spacingAndGlyphs">30</text></g>
<g><text x="541.01" y="611.52" text-anchor="middle" style="font-family: Arial;font-size: 13.20px;" textLength="14.67px" lengthAdjust="spacingAndGlyphs">40</text></g>
<g><text x="653.43" y="611.52" text-anchor="middle" style="font-family: Arial;font-size: 13.20px;" textLength="14.67px" lengthAdjust="spacingAndGlyphs">50</text></g>
<g><text x="765.85" y="611.52" text-anchor="middle" style="font-family: Arial;font-size: 13.20px;" textLength="14.67px" lengthAdjust="spacingAndGlyphs">60</text></g>
<g><text x="878.26" y="611.52" text-anchor="middle" style="font-family: Arial;font-size: 13.20px;" textLength="14.67px" lengthAdjust="spacingAndGlyphs">70</text></g>
<line x1="72.00" y1="533.72" x2="72.00" y2="114.94" style="stroke-width: 0.75;"/>
<line x1="72.00" y1="533.72" x2="64.80" y2="533.72" style="stroke-width: 0.75;"/>
<line x1="72.00" y1="463.92" x2="64.80" y2="463.92" style="stroke-width: 0.75;"/>
<line x1="72.00" y1="394.12" x2="64.80" y2="394.12" style="stroke-width: 0.75;"/>
<line x1="72.00" y1="324.33" x2="64.80" y2="324.33" style="stroke-width: 0.75;"/>
<line x1="72.00" y1="254.53" x2="64.80" y2="254.53" style="stroke-width: 0.75;"/>
<line x1="72.00" y1="184.73" x2="64.80" y2="184.73" style="stroke-width: 0.75;"/>
<line x1="72.00" y1="114.94" x2="64.80" y2="114.94" style="stroke-width: 0.75;"/>
<g><text transform="translate(54.72,533.72) rotate(-90.00)" text-anchor="middle" style="font-family: Arial;font-size: 13.20px;" textLength="25.68px" lengthAdjust="spacingAndGlyphs">2.70</text></g>
<g><text transform="translate(54.72,463.92) rotate(-90.00)" text-anchor="middle" style="font-family: Arial;font-size: 13.20px;" textLength="25.68px" lengthAdjust="spacingAndGlyphs">2.75</text></g>
<g><text transform="translate(54.72,394.12) rotate(-90.00)" text-anchor="middle" style="font-family: Arial;font-size: 13.20px;" textLength="25.68px" lengthAdjust="spacingAndGlyphs">2.80</text></g>
<g><text transform="translate(54.72,324.33) rotate(-90.00)" text-anchor="middle" style="font-family: Arial;font-size: 13.20px;" textLength="25.68px" lengthAdjust="spacingAndGlyphs">2.85</text></g>
<g><text transform="translate(54.72,254.53) rotate(-90.00)" text-anchor="middle" style="font-family: Arial;font-size: 13.20px;" textLength="25.68px" lengthAdjust="spacingAndGlyphs">2.90</text></g>
<g><text transform="translate(54.72,184.73) rotate(-90.00)" text-anchor="middle" style="font-family: Arial;font-size: 13.20px;" textLength="25.68px" lengthAdjust="spacingAndGlyphs">2.95</text></g>
<g><text transform="translate(54.72,114.94) rotate(-90.00)" text-anchor="middle" style="font-family: Arial;font-size: 13.20px;" textLength="25.68px" lengthAdjust="spacingAndGlyphs">3.00</text></g>
<polygon points="72.00,585.60 897.60,585.60 897.60,72.00 72.00,72.00" style="stroke-width: 0.75;" />
<g><text x="484.80" y="43.34" text-anchor="middle" style="font-family: Arial;font-size: 20.40px;font-weight: bold;" textLength="657.17px" lengthAdjust="spacingAndGlyphs">HPO - Spline on residual.sugar with balanced data (hybrid sampled)</text></g>
<g><text x="484.80" y="640.32" text-anchor="middle" style="font-family: Arial;font-size: 18.00px;" textLength="15.01px" lengthAdjust="spacingAndGlyphs">df</text></g>
<g><text transform="translate(25.92,328.80) rotate(-90.00)" text-anchor="middle" style="font-family: Arial;font-size: 18.00px;" textLength="82.02px" lengthAdjust="spacingAndGlyphs">MSE Loss</text></g>
</g><g clip-path="url(#c3)">
<circle cx="259.96" cy="566.58" r="2.70" style="stroke-width: 0.75;stroke: #FF0000;fill: #FF0000;"/>
</g>
</svg>