<svg xmlns="http://www.w3.org/2000/svg" xmlns:xlink="http://www.w3.org/1999/xlink" class="httpgd" width="1176.00" height="840.00" viewBox="0 0 940.80 672.00">
<defs>
  <style type='text/css'><![CDATA[
    .httpgd line, .httpgd polyline, .httpgd polygon, .httpgd path, .httpgd rect, .httpgd circle {
      fill: none;
      stroke: #000000;
      stroke-linecap: round;
      stroke-linejoin: round;
      stroke-miterlimit: 10.00;
    }
  ]]></style>
<clipPath id="c0"><rect x="0.00" y="0.00" width="940.80" height="672.00"/></clipPath>
<clipPath id="c1"><rect x="72.00" y="72.00" width="825.60" height="513.60"/></clipPath>
<clipPath id="c2"><rect x="0.00" y="0.00" width="940.80" height="672.00"/></clipPath>
<clipPath id="c3"><rect x="72.00" y="72.00" width="825.60" height="513.60"/></clipPath>
</defs>
<rect width="100%" height="100%" style="stroke: none;fill: #FFFFFF;"/>
<g clip-path="url(#c0)">
</g><g clip-path="url(#c1)">
<line x1="105.89" y1="474.37" x2="110.51" y2="465.42" style="stroke-width: 0.75;"/>
<line x1="115.49" y1="452.02" x2="123.39" y2="418.83" style="stroke-width: 0.75;"/>
<line x1="127.37" y1="405.00" x2="133.99" y2="385.46" style="stroke-width: 0.75;"/>
<line x1="162.76" y1="383.27" x2="166.05" y2="388.24" style="stroke-width: 0.75;"/>
<line x1="173.27" y1="400.67" x2="178.03" y2="410.09" style="stroke-width: 0.75;"/>
<line x1="184.27" y1="423.06" x2="189.52" y2="434.55" style="stroke-width: 0.75;"/>
<line x1="195.55" y1="447.62" x2="200.72" y2="458.76" style="stroke-width: 0.75;"/>
<line x1="206.96" y1="471.73" x2="211.79" y2="481.45" style="stroke-width: 0.75;"/>
<line x1="218.52" y1="494.18" x2="222.71" y2="501.65" style="stroke-width: 0.75;"/>
<line x1="230.19" y1="513.95" x2="233.53" y2="519.03" style="stroke-width: 0.75;"/>
<line x1="241.94" y1="530.70" x2="244.26" y2="533.62" style="stroke-width: 0.75;"/>
<line x1="253.82" y1="544.36" x2="254.87" y2="545.41" style="stroke-width: 0.75;"/>
<line x1="344.21" y1="545.37" x2="344.34" y2="545.26" style="stroke-width: 0.75;"/>
<line x1="355.13" y1="535.73" x2="355.91" y2="534.99" style="stroke-width: 0.75;"/>
<line x1="366.13" y1="524.86" x2="367.39" y2="523.55" style="stroke-width: 0.75;"/>
<line x1="377.20" y1="513.02" x2="378.81" y2="511.23" style="stroke-width: 0.75;"/>
<line x1="388.34" y1="500.45" x2="390.15" y2="498.36" style="stroke-width: 0.75;"/>
<line x1="399.47" y1="487.39" x2="401.50" y2="484.94" style="stroke-width: 0.75;"/>
<line x1="410.72" y1="473.87" x2="412.74" y2="471.45" style="stroke-width: 0.75;"/>
<line x1="421.95" y1="460.39" x2="423.99" y2="457.94" style="stroke-width: 0.75;"/>
<line x1="433.24" y1="446.91" x2="435.18" y2="444.61" style="stroke-width: 0.75;"/>
<line x1="444.63" y1="433.74" x2="446.28" y2="431.88" style="stroke-width: 0.75;"/>
<line x1="456.08" y1="421.33" x2="457.31" y2="420.05" style="stroke-width: 0.75;"/>
<line x1="467.57" y1="409.95" x2="468.30" y2="409.27" style="stroke-width: 0.75;"/>
<line x1="479.16" y1="399.82" x2="479.20" y2="399.79" style="stroke-width: 0.75;"/>
<line x1="625.23" y1="381.87" x2="625.42" y2="381.71" style="stroke-width: 0.75;"/>
<line x1="635.13" y1="371.23" x2="638.00" y2="367.22" style="stroke-width: 0.75;"/>
<line x1="645.29" y1="354.87" x2="650.33" y2="344.29" style="stroke-width: 0.75;"/>
<line x1="655.79" y1="330.99" x2="662.31" y2="312.19" style="stroke-width: 0.75;"/>
<line x1="666.50" y1="298.42" x2="674.08" y2="269.64" style="stroke-width: 0.75;"/>
<line x1="677.40" y1="255.64" x2="685.66" y2="216.68" style="stroke-width: 0.75;"/>
<line x1="688.44" y1="202.55" x2="697.10" y2="155.08" style="stroke-width: 0.75;"/>
<line x1="699.79" y1="140.93" x2="708.24" y2="98.09" style="stroke-width: 0.75;"/>
<line x1="715.00" y1="95.83" x2="715.52" y2="96.30" style="stroke-width: 0.75;"/>
<circle cx="102.58" cy="480.77" r="2.70" style="stroke-width: 0.75;"/>
<circle cx="113.82" cy="459.03" r="2.70" style="stroke-width: 0.75;"/>
<circle cx="125.06" cy="411.82" r="2.70" style="stroke-width: 0.75;"/>
<circle cx="136.30" cy="378.64" r="2.70" style="stroke-width: 0.75;"/>
<circle cx="147.55" cy="369.88" r="2.70" style="stroke-width: 0.75;"/>
<circle cx="158.79" cy="377.26" r="2.70" style="stroke-width: 0.75;"/>
<circle cx="170.03" cy="394.24" r="2.70" style="stroke-width: 0.75;"/>
<circle cx="181.27" cy="416.52" r="2.70" style="stroke-width: 0.75;"/>
<circle cx="192.51" cy="441.09" r="2.70" style="stroke-width: 0.75;"/>
<circle cx="203.75" cy="465.29" r="2.70" style="stroke-width: 0.75;"/>
<circle cx="215.00" cy="487.90" r="2.70" style="stroke-width: 0.75;"/>
<circle cx="226.24" cy="507.93" r="2.70" style="stroke-width: 0.75;"/>
<circle cx="237.48" cy="525.05" r="2.70" style="stroke-width: 0.75;"/>
<circle cx="248.72" cy="539.27" r="2.70" style="stroke-width: 0.75;"/>
<circle cx="259.96" cy="550.50" r="2.70" style="stroke-width: 0.75;"/>
<circle cx="271.21" cy="558.81" r="2.70" style="stroke-width: 0.75;"/>
<circle cx="282.45" cy="564.18" r="2.70" style="stroke-width: 0.75;"/>
<circle cx="293.69" cy="566.58" r="2.70" style="stroke-width: 0.75;"/>
<circle cx="304.93" cy="566.13" r="2.70" style="stroke-width: 0.75;"/>
<circle cx="316.17" cy="563.05" r="2.70" style="stroke-width: 0.75;"/>
<circle cx="327.41" cy="557.54" r="2.70" style="stroke-width: 0.75;"/>
<circle cx="338.66" cy="549.95" r="2.70" style="stroke-width: 0.75;"/>
<circle cx="349.90" cy="540.67" r="2.70" style="stroke-width: 0.75;"/>
<circle cx="361.14" cy="530.05" r="2.70" style="stroke-width: 0.75;"/>
<circle cx="372.38" cy="518.37" r="2.70" style="stroke-width: 0.75;"/>
<circle cx="383.62" cy="505.88" r="2.70" style="stroke-width: 0.75;"/>
<circle cx="394.87" cy="492.92" r="2.70" style="stroke-width: 0.75;"/>
<circle cx="406.11" cy="479.40" r="2.70" style="stroke-width: 0.75;"/>
<circle cx="417.35" cy="465.92" r="2.70" style="stroke-width: 0.75;"/>
<circle cx="428.59" cy="452.41" r="2.70" style="stroke-width: 0.75;"/>
<circle cx="439.83" cy="439.11" r="2.70" style="stroke-width: 0.75;"/>
<circle cx="451.07" cy="426.51" r="2.70" style="stroke-width: 0.75;"/>
<circle cx="462.32" cy="414.87" r="2.70" style="stroke-width: 0.75;"/>
<circle cx="473.56" cy="404.35" r="2.70" style="stroke-width: 0.75;"/>
<circle cx="484.80" cy="395.26" r="2.70" style="stroke-width: 0.75;"/>
<circle cx="496.04" cy="388.01" r="2.70" style="stroke-width: 0.75;"/>
<circle cx="507.28" cy="382.61" r="2.70" style="stroke-width: 0.75;"/>
<circle cx="518.53" cy="379.32" r="2.70" style="stroke-width: 0.75;"/>
<circle cx="529.77" cy="378.01" r="2.70" style="stroke-width: 0.75;"/>
<circle cx="541.01" cy="378.57" r="2.70" style="stroke-width: 0.75;"/>
<circle cx="552.25" cy="380.63" r="2.70" style="stroke-width: 0.75;"/>
<circle cx="563.49" cy="383.77" r="2.70" style="stroke-width: 0.75;"/>
<circle cx="574.73" cy="387.25" r="2.70" style="stroke-width: 0.75;"/>
<circle cx="585.98" cy="390.27" r="2.70" style="stroke-width: 0.75;"/>
<circle cx="597.22" cy="391.88" r="2.70" style="stroke-width: 0.75;"/>
<circle cx="608.46" cy="391.01" r="2.70" style="stroke-width: 0.75;"/>
<circle cx="619.70" cy="386.49" r="2.70" style="stroke-width: 0.75;"/>
<circle cx="630.94" cy="377.09" r="2.70" style="stroke-width: 0.75;"/>
<circle cx="642.19" cy="361.36" r="2.70" style="stroke-width: 0.75;"/>
<circle cx="653.43" cy="337.80" r="2.70" style="stroke-width: 0.75;"/>
<circle cx="664.67" cy="305.39" r="2.70" style="stroke-width: 0.75;"/>
<circle cx="675.91" cy="262.68" r="2.70" style="stroke-width: 0.75;"/>
<circle cx="687.15" cy="209.64" r="2.70" style="stroke-width: 0.75;"/>
<circle cx="698.39" cy="147.99" r="2.70" style="stroke-width: 0.75;"/>
<circle cx="709.64" cy="91.02" r="2.70" style="stroke-width: 0.75;"/>
<circle cx="720.88" cy="101.11" r="2.70" style="stroke-width: 0.75;"/>
<circle cx="732.12" cy="101.11" r="2.70" style="stroke-width: 0.75;"/>
<circle cx="743.36" cy="101.11" r="2.70" style="stroke-width: 0.75;"/>
<circle cx="754.60" cy="101.11" r="2.70" style="stroke-width: 0.75;"/>
<circle cx="765.85" cy="101.11" r="2.70" style="stroke-width: 0.75;"/>
<circle cx="777.09" cy="101.11" r="2.70" style="stroke-width: 0.75;"/>
<circle cx="788.33" cy="101.11" r="2.70" style="stroke-width: 0.75;"/>
<circle cx="799.57" cy="101.11" r="2.70" style="stroke-width: 0.75;"/>
<circle cx="810.81" cy="101.11" r="2.70" style="stroke-width: 0.75;"/>
<circle cx="822.05" cy="101.11" r="2.70" style="stroke-width: 0.75;"/>
<circle cx="833.30" cy="101.11" r="2.70" style="stroke-width: 0.75;"/>
<circle cx="844.54" cy="101.11" r="2.70" style="stroke-width: 0.75;"/>
<circle cx="855.78" cy="101.11" r="2.70" style="stroke-width: 0.75;"/>
<circle cx="867.02" cy="101.11" r="2.70" style="stroke-width: 0.75;"/>
</g><g clip-path="url(#c2)">
<line x1="91.34" y1="585.60" x2="878.26" y2="585.60" style="stroke-width: 0.75;"/>
<line x1="91.34" y1="585.60" x2="91.34" y2="592.80" style="stroke-width: 0.75;"/>
<line x1="203.75" y1="585.60" x2="203.75" y2="592.80" style="stroke-width: 0.75;"/>
<line x1="316.17" y1="585.60" x2="316.17" y2="592.80" style="stroke-width: 0.75;"/>
<line x1="428.59" y1="585.60" x2="428.59" y2="592.80" style="stroke-width: 0.75;"/>
<line x1="541.01" y1="585.60" x2="541.01" y2="592.80" style="stroke-width: 0.75;"/>
<line x1="653.43" y1="585.60" x2="653.43" y2="592.80" style="stroke-width: 0.75;"/>
<line x1="765.85" y1="585.60" x2="765.85" y2="592.80" style="stroke-width: 0.75;"/>
<line x1="878.26" y1="585.60" x2="878.26" y2="592.80" style="stroke-width: 0.75;"/>
<g><text x="91.34" y="611.52" text-anchor="middle" style="font-family: Arial;font-size: 13.20px;" textLength="7.34px" lengthAdjust="spacingAndGlyphs">0</text></g>
<g><text x="203.75" y="611.52" text-anchor="middle" style="font-family: Arial;font-size: 13.20px;" textLength="14.67px" lengthAdjust="spacingAndGlyphs">10</text></g>
<g><text x="316.17" y="611.52" text-anchor="middle" style="font-family: Arial;font-size: 13.20px;" textLength="14.67px" lengthAdjust="spacingAndGlyphs">20</text></g>
<g><text x="428.59" y="611.52" text-anchor="middle" style="font-family: Arial;font-size: 13.20px;" textLength="14.67px" lengthAdjust="spacingAndGlyphs">30</text></g>
<g><text x="541.01" y="611.52" text-anchor="middle" style="font-family: Arial;font-size: 13.20px;" textLength="14.67px" lengthAdjust="spacingAndGlyphs">40</text></g>
<g><text x="653.43" y="611.52" text-anchor="middle" style="font-family: Arial;font-size: 13.20px;" textLength="14.67px" lengthAdjust="spacingAndGlyphs">50</text></g>
<g><text x="765.85" y="611.52" text-anchor="middle" style="font-family: Arial;font-size: 13.20px;" textLength="14.67px" lengthAdjust="spacingAndGlyphs">60</text></g>
<g><text x="878.26" y="611.52" text-anchor="middle" style="font-family: Arial;font-size: 13.20px;" textLength="14.67px" lengthAdjust="spacingAndGlyphs">70</text></g>
<line x1="72.00" y1="511.48" x2="72.00" y2="76.45" style="stroke-width: 0.75;"/>
<line x1="72.00" y1="511.48" x2="64.80" y2="511.48" style="stroke-width: 0.75;"/>
<line x1="72.00" y1="424.48" x2="64.80" y2="424.48" style="stroke-width: 0.75;"/>
<line x1="72.00" y1="337.47" x2="64.80" y2="337.47" style="stroke-width: 0.75;"/>
<line x1="72.00" y1="250.46" x2="64.80" y2="250.46" style="stroke-width: 0.75;"/>
<line x1="72.00" y1="163.46" x2="64.80" y2="163.46" style="stroke-width: 0.75;"/>
<line x1="72.00" y1="76.45" x2="64.80" y2="76.45" style="stroke-width: 0.75;"/>
<g><text transform="translate(54.72,511.48) rotate(-90.00)" text-anchor="middle" style="font-family: Arial;font-size: 13.20px;" textLength="33.01px" lengthAdjust="spacingAndGlyphs">0.670</text></g>
<g><text transform="translate(54.72,424.48) rotate(-90.00)" text-anchor="middle" style="font-family: Arial;font-size: 13.20px;" textLength="33.01px" lengthAdjust="spacingAndGlyphs">0.675</text></g>
<g><text transform="translate(54.72,337.47) rotate(-90.00)" text-anchor="middle" style="font-family: Arial;font-size: 13.20px;" textLength="33.01px" lengthAdjust="spacingAndGlyphs">0.680</text></g>
<g><text transform="translate(54.72,250.46) rotate(-90.00)" text-anchor="middle" style="font-family: Arial;font-size: 13.20px;" textLength="33.01px" lengthAdjust="spacingAndGlyphs">0.685</text></g>
<g><text transform="translate(54.72,163.46) rotate(-90.00)" text-anchor="middle" style="font-family: Arial;font-size: 13.20px;" textLength="33.01px" lengthAdjust="spacingAndGlyphs">0.690</text></g>
<g><text transform="translate(54.72,76.45) rotate(-90.00)" text-anchor="middle" style="font-family: Arial;font-size: 13.20px;" textLength="33.01px" lengthAdjust="spacingAndGlyphs">0.695</text></g>
<polygon points="72.00,585.60 897.60,585.60 897.60,72.00 72.00,72.00" style="stroke-width: 0.75;" />
<g><text x="484.80" y="43.34" text-anchor="middle" style="font-family: Arial;font-size: 20.40px;font-weight: bold;" textLength="371.66px" lengthAdjust="spacingAndGlyphs">HPO - Simple Spline on residual.sugar</text></g>
<g><text x="484.80" y="640.32" text-anchor="middle" style="font-family: Arial;font-size: 18.00px;" textLength="15.01px" lengthAdjust="spacingAndGlyphs">df</text></g>
<g><text transform="translate(25.92,328.80) rotate(-90.00)" text-anchor="middle" style="font-family: Arial;font-size: 18.00px;" textLength="82.02px" lengthAdjust="spacingAndGlyphs">MSE Loss</text></g>
</g><g clip-path="url(#c3)">
<circle cx="293.69" cy="566.58" r="2.70" style="stroke-width: 0.75;stroke: #FF0000;fill: #FF0000;"/>
</g>
</svg>