<svg xmlns="http://www.w3.org/2000/svg" xmlns:xlink="http://www.w3.org/1999/xlink" class="httpgd" width="1176.00" height="840.00" viewBox="0 0 940.80 672.00">
<defs>
  <style type='text/css'><![CDATA[
    .httpgd line, .httpgd polyline, .httpgd polygon, .httpgd path, .httpgd rect, .httpgd circle {
      fill: none;
      stroke: #000000;
      stroke-linecap: round;
      stroke-linejoin: round;
      stroke-miterlimit: 10.00;
    }
  ]]></style>
<clipPath id="c0"><rect x="0.00" y="0.00" width="940.80" height="672.00"/></clipPath>
<clipPath id="c1"><rect x="72.00" y="72.00" width="825.60" height="513.60"/></clipPath>
<clipPath id="c2"><rect x="0.00" y="0.00" width="940.80" height="672.00"/></clipPath>
<clipPath id="c3"><rect x="72.00" y="72.00" width="825.60" height="513.60"/></clipPath>
</defs>
<rect width="100%" height="100%" style="stroke: none;fill: #FFFFFF;"/>
<g clip-path="url(#c0)">
</g><g clip-path="url(#c1)">
<line x1="107.22" y1="176.21" x2="109.18" y2="178.54" style="stroke-width: 0.75;"/>
<line x1="114.96" y1="191.16" x2="123.92" y2="246.78" style="stroke-width: 0.75;"/>
<line x1="125.93" y1="261.03" x2="135.44" y2="339.32" style="stroke-width: 0.75;"/>
<line x1="137.28" y1="353.60" x2="146.56" y2="421.10" style="stroke-width: 0.75;"/>
<line x1="148.89" y1="435.30" x2="157.44" y2="480.20" style="stroke-width: 0.75;"/>
<line x1="161.03" y1="494.12" x2="167.78" y2="514.65" style="stroke-width: 0.75;"/>
<line x1="173.98" y1="527.52" x2="177.32" y2="532.63" style="stroke-width: 0.75;"/>
<line x1="310.51" y1="541.70" x2="310.59" y2="541.63" style="stroke-width: 0.75;"/>
<line x1="321.53" y1="532.28" x2="322.05" y2="531.81" style="stroke-width: 0.75;"/>
<line x1="332.61" y1="522.02" x2="333.46" y2="521.21" style="stroke-width: 0.75;"/>
<line x1="343.78" y1="511.17" x2="344.77" y2="510.20" style="stroke-width: 0.75;"/>
<line x1="354.95" y1="500.02" x2="356.09" y2="498.86" style="stroke-width: 0.75;"/>
<line x1="366.16" y1="488.57" x2="367.36" y2="487.33" style="stroke-width: 0.75;"/>
<line x1="377.37" y1="476.97" x2="378.63" y2="475.67" style="stroke-width: 0.75;"/>
<line x1="388.66" y1="465.34" x2="389.82" y2="464.16" style="stroke-width: 0.75;"/>
<line x1="399.92" y1="453.89" x2="401.06" y2="452.73" style="stroke-width: 0.75;"/>
<line x1="411.24" y1="442.54" x2="412.22" y2="441.57" style="stroke-width: 0.75;"/>
<line x1="422.52" y1="431.51" x2="423.42" y2="430.64" style="stroke-width: 0.75;"/>
<line x1="433.83" y1="420.70" x2="434.59" y2="419.98" style="stroke-width: 0.75;"/>
<line x1="445.19" y1="410.23" x2="445.72" y2="409.75" style="stroke-width: 0.75;"/>
<line x1="456.50" y1="400.20" x2="456.89" y2="399.86" style="stroke-width: 0.75;"/>
<line x1="467.83" y1="390.49" x2="468.05" y2="390.31" style="stroke-width: 0.75;"/>
<line x1="479.15" y1="381.14" x2="479.21" y2="381.10" style="stroke-width: 0.75;"/>
<line x1="726.48" y1="204.90" x2="726.52" y2="204.87" style="stroke-width: 0.75;"/>
<line x1="737.68" y1="195.77" x2="737.80" y2="195.67" style="stroke-width: 0.75;"/>
<line x1="748.89" y1="186.49" x2="749.07" y2="186.34" style="stroke-width: 0.75;"/>
<line x1="760.12" y1="177.10" x2="760.33" y2="176.94" style="stroke-width: 0.75;"/>
<line x1="771.35" y1="167.67" x2="771.58" y2="167.48" style="stroke-width: 0.75;"/>
<line x1="782.59" y1="158.20" x2="782.82" y2="158.01" style="stroke-width: 0.75;"/>
<line x1="793.85" y1="148.75" x2="794.05" y2="148.58" style="stroke-width: 0.75;"/>
<line x1="805.08" y1="139.32" x2="805.30" y2="139.13" style="stroke-width: 0.75;"/>
<line x1="816.39" y1="129.95" x2="816.48" y2="129.88" style="stroke-width: 0.75;"/>
<circle cx="102.58" cy="170.70" r="2.70" style="stroke-width: 0.75;"/>
<circle cx="113.82" cy="184.05" r="2.70" style="stroke-width: 0.75;"/>
<circle cx="125.06" cy="253.88" r="2.70" style="stroke-width: 0.75;"/>
<circle cx="136.30" cy="346.46" r="2.70" style="stroke-width: 0.75;"/>
<circle cx="147.55" cy="428.23" r="2.70" style="stroke-width: 0.75;"/>
<circle cx="158.79" cy="487.28" r="2.70" style="stroke-width: 0.75;"/>
<circle cx="170.03" cy="521.49" r="2.70" style="stroke-width: 0.75;"/>
<circle cx="181.27" cy="538.65" r="2.70" style="stroke-width: 0.75;"/>
<circle cx="192.51" cy="546.49" r="2.70" style="stroke-width: 0.75;"/>
<circle cx="203.75" cy="550.61" r="2.70" style="stroke-width: 0.75;"/>
<circle cx="215.00" cy="554.24" r="2.70" style="stroke-width: 0.75;"/>
<circle cx="226.24" cy="558.43" r="2.70" style="stroke-width: 0.75;"/>
<circle cx="237.48" cy="562.66" r="2.70" style="stroke-width: 0.75;"/>
<circle cx="248.72" cy="565.71" r="2.70" style="stroke-width: 0.75;"/>
<circle cx="259.96" cy="566.58" r="2.70" style="stroke-width: 0.75;"/>
<circle cx="271.21" cy="564.83" r="2.70" style="stroke-width: 0.75;"/>
<circle cx="282.45" cy="560.58" r="2.70" style="stroke-width: 0.75;"/>
<circle cx="293.69" cy="554.27" r="2.70" style="stroke-width: 0.75;"/>
<circle cx="304.93" cy="546.25" r="2.70" style="stroke-width: 0.75;"/>
<circle cx="316.17" cy="537.09" r="2.70" style="stroke-width: 0.75;"/>
<circle cx="327.41" cy="527.00" r="2.70" style="stroke-width: 0.75;"/>
<circle cx="338.66" cy="516.22" r="2.70" style="stroke-width: 0.75;"/>
<circle cx="349.90" cy="505.15" r="2.70" style="stroke-width: 0.75;"/>
<circle cx="361.14" cy="493.73" r="2.70" style="stroke-width: 0.75;"/>
<circle cx="372.38" cy="482.16" r="2.70" style="stroke-width: 0.75;"/>
<circle cx="383.62" cy="470.48" r="2.70" style="stroke-width: 0.75;"/>
<circle cx="394.87" cy="459.02" r="2.70" style="stroke-width: 0.75;"/>
<circle cx="406.11" cy="447.60" r="2.70" style="stroke-width: 0.75;"/>
<circle cx="417.35" cy="436.52" r="2.70" style="stroke-width: 0.75;"/>
<circle cx="428.59" cy="425.64" r="2.70" style="stroke-width: 0.75;"/>
<circle cx="439.83" cy="415.05" r="2.70" style="stroke-width: 0.75;"/>
<circle cx="451.07" cy="404.94" r="2.70" style="stroke-width: 0.75;"/>
<circle cx="462.32" cy="395.13" r="2.70" style="stroke-width: 0.75;"/>
<circle cx="473.56" cy="385.67" r="2.70" style="stroke-width: 0.75;"/>
<circle cx="484.80" cy="376.56" r="2.70" style="stroke-width: 0.75;"/>
<circle cx="496.04" cy="367.72" r="2.70" style="stroke-width: 0.75;"/>
<circle cx="507.28" cy="359.31" r="2.70" style="stroke-width: 0.75;"/>
<circle cx="518.53" cy="351.02" r="2.70" style="stroke-width: 0.75;"/>
<circle cx="529.77" cy="343.02" r="2.70" style="stroke-width: 0.75;"/>
<circle cx="541.01" cy="335.22" r="2.70" style="stroke-width: 0.75;"/>
<circle cx="552.25" cy="327.59" r="2.70" style="stroke-width: 0.75;"/>
<circle cx="563.49" cy="320.07" r="2.70" style="stroke-width: 0.75;"/>
<circle cx="574.73" cy="312.64" r="2.70" style="stroke-width: 0.75;"/>
<circle cx="585.98" cy="305.26" r="2.70" style="stroke-width: 0.75;"/>
<circle cx="597.22" cy="297.89" r="2.70" style="stroke-width: 0.75;"/>
<circle cx="608.46" cy="290.50" r="2.70" style="stroke-width: 0.75;"/>
<circle cx="619.70" cy="283.05" r="2.70" style="stroke-width: 0.75;"/>
<circle cx="630.94" cy="275.58" r="2.70" style="stroke-width: 0.75;"/>
<circle cx="642.19" cy="267.92" r="2.70" style="stroke-width: 0.75;"/>
<circle cx="653.43" cy="260.12" r="2.70" style="stroke-width: 0.75;"/>
<circle cx="664.67" cy="252.06" r="2.70" style="stroke-width: 0.75;"/>
<circle cx="675.91" cy="243.98" r="2.70" style="stroke-width: 0.75;"/>
<circle cx="687.15" cy="235.63" r="2.70" style="stroke-width: 0.75;"/>
<circle cx="698.39" cy="227.10" r="2.70" style="stroke-width: 0.75;"/>
<circle cx="709.64" cy="218.26" r="2.70" style="stroke-width: 0.75;"/>
<circle cx="720.88" cy="209.43" r="2.70" style="stroke-width: 0.75;"/>
<circle cx="732.12" cy="200.34" r="2.70" style="stroke-width: 0.75;"/>
<circle cx="743.36" cy="191.10" r="2.70" style="stroke-width: 0.75;"/>
<circle cx="754.60" cy="181.73" r="2.70" style="stroke-width: 0.75;"/>
<circle cx="765.85" cy="172.31" r="2.70" style="stroke-width: 0.75;"/>
<circle cx="777.09" cy="162.84" r="2.70" style="stroke-width: 0.75;"/>
<circle cx="788.33" cy="153.37" r="2.70" style="stroke-width: 0.75;"/>
<circle cx="799.57" cy="143.95" r="2.70" style="stroke-width: 0.75;"/>
<circle cx="810.81" cy="134.50" r="2.70" style="stroke-width: 0.75;"/>
<circle cx="822.05" cy="125.32" r="2.70" style="stroke-width: 0.75;"/>
<circle cx="833.30" cy="116.34" r="2.70" style="stroke-width: 0.75;"/>
<circle cx="844.54" cy="107.59" r="2.70" style="stroke-width: 0.75;"/>
<circle cx="855.78" cy="99.21" r="2.70" style="stroke-width: 0.75;"/>
<circle cx="867.02" cy="91.02" r="2.70" style="stroke-width: 0.75;"/>
</g><g clip-path="url(#c2)">
<line x1="91.34" y1="585.60" x2="878.26" y2="585.60" style="stroke-width: 0.75;"/>
<line x1="91.34" y1="585.60" x2="91.34" y2="592.80" style="stroke-width: 0.75;"/>
<line x1="203.75" y1="585.60" x2="203.75" y2="592.80" style="stroke-width: 0.75;"/>
<line x1="316.17" y1="585.60" x2="316.17" y2="592.80" style="stroke-width: 0.75;"/>
<line x1="428.59" y1="585.60" x2="428.59" y2="592.80" style="stroke-width: 0.75;"/>
<line x1="541.01" y1="585.60" x2="541.01" y2="592.80" style="stroke-width: 0.75;"/>
<line x1="653.43" y1="585.60" x2="653.43" y2="592.80" style="stroke-width: 0.75;"/>
<line x1="765.85" y1="585.60" x2="765.85" y2="592.80" style="stroke-width: 0.75;"/>
<line x1="878.26" y1="585.60" x2="878.26" y2="592.80" style="stroke-width: 0.75;"/>
<g><text x="91.34" y="611.52" text-anchor="middle" style="font-family: Arial;font-size: 13.20px;" textLength="7.34px" lengthAdjust="spacingAndGlyphs">0</text></g>
<g><text x="203.75" y="611.52" text-anchor="middle" style="font-family: Arial;font-size: 13.20px;" textLength="14.67px" lengthAdjust="spacingAndGlyphs">10</text></g>
<g><text x="316.17" y="611.52" text-anchor="middle" style="font-family: Arial;font-size: 13.20px;" textLength="14.67px" lengthAdjust="spacingAndGlyphs">20</text></g>
<g><text x="428.59" y="611.52" text-anchor="middle" style="font-family: Arial;font-size: 13.20px;" textLength="14.67px" lengthAdjust="spacingAndGlyphs">30</text></g>
<g><text x="541.01" y="611.52" text-anchor="middle" style="font-family: Arial;font-size: 13.20px;" textLength="14.67px" lengthAdjust="spacingAndGlyphs">40</text></g>
<g><text x="653.43" y="611.52" text-anchor="middle" style="font-family: Arial;font-size: 13.20px;" textLength="14.67px" lengthAdjust="spacingAndGlyphs">50</text></g>
<g><text x="765.85" y="611.52" text-anchor="middle" style="font-family: Arial;font-size: 13.20px;" textLength="14.67px" lengthAdjust="spacingAndGlyphs">60</text></g>
<g><text x="878.26" y="611.52" text-anchor="middle" style="font-family: Arial;font-size: 13.20px;" textLength="14.67px" lengthAdjust="spacingAndGlyphs">70</text></g>
<line x1="72.00" y1="532.50" x2="72.00" y2="107.02" style="stroke-width: 0.75;"/>
<line x1="72.00" y1="532.50" x2="64.80" y2="532.50" style="stroke-width: 0.75;"/>
<line x1="72.00" y1="461.59" x2="64.80" y2="461.59" style="stroke-width: 0.75;"/>
<line x1="72.00" y1="390.67" x2="64.80" y2="390.67" style="stroke-width: 0.75;"/>
<line x1="72.00" y1="319.76" x2="64.80" y2="319.76" style="stroke-width: 0.75;"/>
<line x1="72.00" y1="248.84" x2="64.80" y2="248.84" style="stroke-width: 0.75;"/>
<line x1="72.00" y1="177.93" x2="64.80" y2="177.93" style="stroke-width: 0.75;"/>
<line x1="72.00" y1="107.02" x2="64.80" y2="107.02" style="stroke-width: 0.75;"/>
<g><text transform="translate(54.72,532.50) rotate(-90.00)" text-anchor="middle" style="font-family: Arial;font-size: 13.20px;" textLength="25.68px" lengthAdjust="spacingAndGlyphs">2.70</text></g>
<g><text transform="translate(54.72,461.59) rotate(-90.00)" text-anchor="middle" style="font-family: Arial;font-size: 13.20px;" textLength="25.68px" lengthAdjust="spacingAndGlyphs">2.75</text></g>
<g><text transform="translate(54.72,390.67) rotate(-90.00)" text-anchor="middle" style="font-family: Arial;font-size: 13.20px;" textLength="25.68px" lengthAdjust="spacingAndGlyphs">2.80</text></g>
<g><text transform="translate(54.72,319.76) rotate(-90.00)" text-anchor="middle" style="font-family: Arial;font-size: 13.20px;" textLength="25.68px" lengthAdjust="spacingAndGlyphs">2.85</text></g>
<g><text transform="translate(54.72,248.84) rotate(-90.00)" text-anchor="middle" style="font-family: Arial;font-size: 13.20px;" textLength="25.68px" lengthAdjust="spacingAndGlyphs">2.90</text></g>
<g><text transform="translate(54.72,177.93) rotate(-90.00)" text-anchor="middle" style="font-family: Arial;font-size: 13.20px;" textLength="25.68px" lengthAdjust="spacingAndGlyphs">2.95</text></g>
<g><text transform="translate(54.72,107.02) rotate(-90.00)" text-anchor="middle" style="font-family: Arial;font-size: 13.20px;" textLength="25.68px" lengthAdjust="spacingAndGlyphs">3.00</text></g>
<polygon points="72.00,585.60 897.60,585.60 897.60,72.00 72.00,72.00" style="stroke-width: 0.75;" />
<g><text x="484.80" y="43.34" text-anchor="middle" style="font-family: Arial;font-size: 20.40px;font-weight: bold;" textLength="721.75px" lengthAdjust="spacingAndGlyphs">HPO - Weighted spline residual.sugar with balanced data (hybrid sampled)</text></g>
<g><text x="484.80" y="640.32" text-anchor="middle" style="font-family: Arial;font-size: 18.00px;" textLength="15.01px" lengthAdjust="spacingAndGlyphs">df</text></g>
<g><text transform="translate(25.92,328.80) rotate(-90.00)" text-anchor="middle" style="font-family: Arial;font-size: 18.00px;" textLength="82.02px" lengthAdjust="spacingAndGlyphs">MSE Loss</text></g>
</g><g clip-path="url(#c3)">
<circle cx="259.96" cy="566.58" r="2.70" style="stroke-width: 0.75;stroke: #FF0000;fill: #FF0000;"/>
</g>
</svg>