<svg xmlns="http://www.w3.org/2000/svg" xmlns:xlink="http://www.w3.org/1999/xlink" class="httpgd" width="1176.00" height="840.00" viewBox="0 0 940.80 672.00">
<defs>
  <style type='text/css'><![CDATA[
    .httpgd line, .httpgd polyline, .httpgd polygon, .httpgd path, .httpgd rect, .httpgd circle {
      fill: none;
      stroke: #000000;
      stroke-linecap: round;
      stroke-linejoin: round;
      stroke-miterlimit: 10.00;
    }
  ]]></style>
<clipPath id="c0"><rect x="0.00" y="0.00" width="940.80" height="672.00"/></clipPath>
<clipPath id="c1"><rect x="72.00" y="72.00" width="825.60" height="513.60"/></clipPath>
<clipPath id="c2"><rect x="0.00" y="0.00" width="940.80" height="672.00"/></clipPath>
<clipPath id="c3"><rect x="72.00" y="72.00" width="825.60" height="513.60"/></clipPath>
</defs>
<rect width="100%" height="100%" style="stroke: none;fill: #FFFFFF;"/>
<g clip-path="url(#c0)">
</g><g clip-path="url(#c1)">
<line x1="129.09" y1="555.56" x2="132.28" y2="550.83" style="stroke-width: 0.75;"/>
<line x1="139.82" y1="538.58" x2="144.03" y2="531.03" style="stroke-width: 0.75;"/>
<line x1="151.56" y1="518.77" x2="154.77" y2="514.01" style="stroke-width: 0.75;"/>
<line x1="163.22" y1="502.37" x2="165.59" y2="499.35" style="stroke-width: 0.75;"/>
<line x1="174.68" y1="488.18" x2="176.62" y2="485.89" style="stroke-width: 0.75;"/>
<line x1="186.15" y1="475.10" x2="187.63" y2="473.50" style="stroke-width: 0.75;"/>
<line x1="197.66" y1="463.17" x2="198.61" y2="462.24" style="stroke-width: 0.75;"/>
<line x1="209.04" y1="452.32" x2="209.71" y2="451.71" style="stroke-width: 0.75;"/>
<line x1="220.23" y1="441.88" x2="221.01" y2="441.14" style="stroke-width: 0.75;"/>
<line x1="231.28" y1="431.05" x2="232.44" y2="429.87" style="stroke-width: 0.75;"/>
<line x1="242.29" y1="419.37" x2="243.91" y2="417.56" style="stroke-width: 0.75;"/>
<line x1="253.32" y1="406.67" x2="255.36" y2="404.22" style="stroke-width: 0.75;"/>
<line x1="264.44" y1="393.04" x2="266.73" y2="390.16" style="stroke-width: 0.75;"/>
<line x1="275.61" y1="378.83" x2="278.04" y2="375.70" style="stroke-width: 0.75;"/>
<line x1="286.86" y1="364.32" x2="289.28" y2="361.19" style="stroke-width: 0.75;"/>
<line x1="298.15" y1="349.85" x2="300.47" y2="346.91" style="stroke-width: 0.75;"/>
<line x1="309.44" y1="335.64" x2="311.67" y2="332.86" style="stroke-width: 0.75;"/>
<line x1="320.80" y1="321.73" x2="322.79" y2="319.36" style="stroke-width: 0.75;"/>
<line x1="332.12" y1="308.39" x2="333.95" y2="306.26" style="stroke-width: 0.75;"/>
<line x1="343.50" y1="295.48" x2="345.05" y2="293.78" style="stroke-width: 0.75;"/>
<line x1="354.88" y1="283.26" x2="356.16" y2="281.93" style="stroke-width: 0.75;"/>
<line x1="366.26" y1="271.67" x2="367.26" y2="270.68" style="stroke-width: 0.75;"/>
<line x1="377.64" y1="260.70" x2="378.36" y2="260.02" style="stroke-width: 0.75;"/>
<line x1="389.01" y1="250.33" x2="389.48" y2="249.93" style="stroke-width: 0.75;"/>
<line x1="400.36" y1="240.50" x2="400.62" y2="240.28" style="stroke-width: 0.75;"/>
<line x1="411.70" y1="231.09" x2="411.75" y2="231.04" style="stroke-width: 0.75;"/>
<line x1="422.97" y1="222.01" x2="422.97" y2="222.01" style="stroke-width: 0.75;"/>
<line x1="713.02" y1="101.79" x2="717.49" y2="110.18" style="stroke-width: 0.75;"/>
<circle cx="102.58" cy="566.32" r="2.70" style="stroke-width: 0.75;"/>
<circle cx="113.82" cy="566.58" r="2.70" style="stroke-width: 0.75;"/>
<circle cx="125.06" cy="561.53" r="2.70" style="stroke-width: 0.75;"/>
<circle cx="136.30" cy="544.86" r="2.70" style="stroke-width: 0.75;"/>
<circle cx="147.55" cy="524.75" r="2.70" style="stroke-width: 0.75;"/>
<circle cx="158.79" cy="508.04" r="2.70" style="stroke-width: 0.75;"/>
<circle cx="170.03" cy="493.68" r="2.70" style="stroke-width: 0.75;"/>
<circle cx="181.27" cy="480.39" r="2.70" style="stroke-width: 0.75;"/>
<circle cx="192.51" cy="468.21" r="2.70" style="stroke-width: 0.75;"/>
<circle cx="203.75" cy="457.20" r="2.70" style="stroke-width: 0.75;"/>
<circle cx="215.00" cy="446.83" r="2.70" style="stroke-width: 0.75;"/>
<circle cx="226.24" cy="436.19" r="2.70" style="stroke-width: 0.75;"/>
<circle cx="237.48" cy="424.73" r="2.70" style="stroke-width: 0.75;"/>
<circle cx="248.72" cy="412.20" r="2.70" style="stroke-width: 0.75;"/>
<circle cx="259.96" cy="398.68" r="2.70" style="stroke-width: 0.75;"/>
<circle cx="271.21" cy="384.53" r="2.70" style="stroke-width: 0.75;"/>
<circle cx="282.45" cy="370.01" r="2.70" style="stroke-width: 0.75;"/>
<circle cx="293.69" cy="355.50" r="2.70" style="stroke-width: 0.75;"/>
<circle cx="304.93" cy="341.26" r="2.70" style="stroke-width: 0.75;"/>
<circle cx="316.17" cy="327.25" r="2.70" style="stroke-width: 0.75;"/>
<circle cx="327.41" cy="313.84" r="2.70" style="stroke-width: 0.75;"/>
<circle cx="338.66" cy="300.81" r="2.70" style="stroke-width: 0.75;"/>
<circle cx="349.90" cy="288.45" r="2.70" style="stroke-width: 0.75;"/>
<circle cx="361.14" cy="276.73" r="2.70" style="stroke-width: 0.75;"/>
<circle cx="372.38" cy="265.61" r="2.70" style="stroke-width: 0.75;"/>
<circle cx="383.62" cy="255.11" r="2.70" style="stroke-width: 0.75;"/>
<circle cx="394.87" cy="245.15" r="2.70" style="stroke-width: 0.75;"/>
<circle cx="406.11" cy="235.62" r="2.70" style="stroke-width: 0.75;"/>
<circle cx="417.35" cy="226.51" r="2.70" style="stroke-width: 0.75;"/>
<circle cx="428.59" cy="217.50" r="2.70" style="stroke-width: 0.75;"/>
<circle cx="439.83" cy="208.69" r="2.70" style="stroke-width: 0.75;"/>
<circle cx="451.07" cy="199.94" r="2.70" style="stroke-width: 0.75;"/>
<circle cx="462.32" cy="191.28" r="2.70" style="stroke-width: 0.75;"/>
<circle cx="473.56" cy="182.59" r="2.70" style="stroke-width: 0.75;"/>
<circle cx="484.80" cy="173.90" r="2.70" style="stroke-width: 0.75;"/>
<circle cx="496.04" cy="165.45" r="2.70" style="stroke-width: 0.75;"/>
<circle cx="507.28" cy="157.10" r="2.70" style="stroke-width: 0.75;"/>
<circle cx="518.53" cy="149.11" r="2.70" style="stroke-width: 0.75;"/>
<circle cx="529.77" cy="141.56" r="2.70" style="stroke-width: 0.75;"/>
<circle cx="541.01" cy="134.54" r="2.70" style="stroke-width: 0.75;"/>
<circle cx="552.25" cy="128.02" r="2.70" style="stroke-width: 0.75;"/>
<circle cx="563.49" cy="122.22" r="2.70" style="stroke-width: 0.75;"/>
<circle cx="574.73" cy="117.02" r="2.70" style="stroke-width: 0.75;"/>
<circle cx="585.98" cy="112.55" r="2.70" style="stroke-width: 0.75;"/>
<circle cx="597.22" cy="108.75" r="2.70" style="stroke-width: 0.75;"/>
<circle cx="608.46" cy="105.61" r="2.70" style="stroke-width: 0.75;"/>
<circle cx="619.70" cy="103.05" r="2.70" style="stroke-width: 0.75;"/>
<circle cx="630.94" cy="101.01" r="2.70" style="stroke-width: 0.75;"/>
<circle cx="642.19" cy="99.38" r="2.70" style="stroke-width: 0.75;"/>
<circle cx="653.43" cy="97.99" r="2.70" style="stroke-width: 0.75;"/>
<circle cx="664.67" cy="96.63" r="2.70" style="stroke-width: 0.75;"/>
<circle cx="675.91" cy="95.08" r="2.70" style="stroke-width: 0.75;"/>
<circle cx="687.15" cy="93.14" r="2.70" style="stroke-width: 0.75;"/>
<circle cx="698.39" cy="91.02" r="2.70" style="stroke-width: 0.75;"/>
<circle cx="709.64" cy="95.44" r="2.70" style="stroke-width: 0.75;"/>
<circle cx="720.88" cy="116.53" r="2.70" style="stroke-width: 0.75;"/>
<circle cx="732.12" cy="116.53" r="2.70" style="stroke-width: 0.75;"/>
<circle cx="743.36" cy="116.53" r="2.70" style="stroke-width: 0.75;"/>
<circle cx="754.60" cy="116.53" r="2.70" style="stroke-width: 0.75;"/>
<circle cx="765.85" cy="116.53" r="2.70" style="stroke-width: 0.75;"/>
<circle cx="777.09" cy="116.53" r="2.70" style="stroke-width: 0.75;"/>
<circle cx="788.33" cy="116.53" r="2.70" style="stroke-width: 0.75;"/>
<circle cx="799.57" cy="116.53" r="2.70" style="stroke-width: 0.75;"/>
<circle cx="810.81" cy="116.53" r="2.70" style="stroke-width: 0.75;"/>
<circle cx="822.05" cy="116.53" r="2.70" style="stroke-width: 0.75;"/>
<circle cx="833.30" cy="116.53" r="2.70" style="stroke-width: 0.75;"/>
<circle cx="844.54" cy="116.53" r="2.70" style="stroke-width: 0.75;"/>
<circle cx="855.78" cy="116.53" r="2.70" style="stroke-width: 0.75;"/>
<circle cx="867.02" cy="116.53" r="2.70" style="stroke-width: 0.75;"/>
</g><g clip-path="url(#c2)">
<line x1="91.34" y1="585.60" x2="878.26" y2="585.60" style="stroke-width: 0.75;"/>
<line x1="91.34" y1="585.60" x2="91.34" y2="592.80" style="stroke-width: 0.75;"/>
<line x1="203.75" y1="585.60" x2="203.75" y2="592.80" style="stroke-width: 0.75;"/>
<line x1="316.17" y1="585.60" x2="316.17" y2="592.80" style="stroke-width: 0.75;"/>
<line x1="428.59" y1="585.60" x2="428.59" y2="592.80" style="stroke-width: 0.75;"/>
<line x1="541.01" y1="585.60" x2="541.01" y2="592.80" style="stroke-width: 0.75;"/>
<line x1="653.43" y1="585.60" x2="653.43" y2="592.80" style="stroke-width: 0.75;"/>
<line x1="765.85" y1="585.60" x2="765.85" y2="592.80" style="stroke-width: 0.75;"/>
<line x1="878.26" y1="585.60" x2="878.26" y2="592.80" style="stroke-width: 0.75;"/>
<g><text x="91.34" y="611.52" text-anchor="middle" style="font-family: Arial;font-size: 13.20px;" textLength="7.34px" lengthAdjust="spacingAndGlyphs">0</text></g>
<g><text x="203.75" y="611.52" text-anchor="middle" style="font-family: Arial;font-size: 13.20px;" textLength="14.67px" lengthAdjust="spacingAndGlyphs">10</text></g>
<g><text x="316.17" y="611.52" text-anchor="middle" style="font-family: Arial;font-size: 13.20px;" textLength="14.67px" lengthAdjust="spacingAndGlyphs">20</text></g>
<g><text x="428.59" y="611.52" text-anchor="middle" style="font-family: Arial;font-size: 13.20px;" textLength="14.67px" lengthAdjust="spacingAndGlyphs">30</text></g>
<g><text x="541.01" y="611.52" text-anchor="middle" style="font-family: Arial;font-size: 13.20px;" textLength="14.67px" lengthAdjust="spacingAndGlyphs">40</text></g>
<g><text x="653.43" y="611.52" text-anchor="middle" style="font-family: Arial;font-size: 13.20px;" textLength="14.67px" lengthAdjust="spacingAndGlyphs">50</text></g>
<g><text x="765.85" y="611.52" text-anchor="middle" style="font-family: Arial;font-size: 13.20px;" textLength="14.67px" lengthAdjust="spacingAndGlyphs">60</text></g>
<g><text x="878.26" y="611.52" text-anchor="middle" style="font-family: Arial;font-size: 13.20px;" textLength="14.67px" lengthAdjust="spacingAndGlyphs">70</text></g>
<line x1="72.00" y1="556.26" x2="72.00" y2="136.85" style="stroke-width: 0.75;"/>
<line x1="72.00" y1="556.26" x2="64.80" y2="556.26" style="stroke-width: 0.75;"/>
<line x1="72.00" y1="486.36" x2="64.80" y2="486.36" style="stroke-width: 0.75;"/>
<line x1="72.00" y1="416.46" x2="64.80" y2="416.46" style="stroke-width: 0.75;"/>
<line x1="72.00" y1="346.56" x2="64.80" y2="346.56" style="stroke-width: 0.75;"/>
<line x1="72.00" y1="276.65" x2="64.80" y2="276.65" style="stroke-width: 0.75;"/>
<line x1="72.00" y1="206.75" x2="64.80" y2="206.75" style="stroke-width: 0.75;"/>
<line x1="72.00" y1="136.85" x2="64.80" y2="136.85" style="stroke-width: 0.75;"/>
<g><text transform="translate(54.72,556.26) rotate(-90.00)" text-anchor="middle" style="font-family: Arial;font-size: 13.20px;" textLength="18.34px" lengthAdjust="spacingAndGlyphs">0.7</text></g>
<g><text transform="translate(54.72,486.36) rotate(-90.00)" text-anchor="middle" style="font-family: Arial;font-size: 13.20px;" textLength="18.34px" lengthAdjust="spacingAndGlyphs">0.8</text></g>
<g><text transform="translate(54.72,416.46) rotate(-90.00)" text-anchor="middle" style="font-family: Arial;font-size: 13.20px;" textLength="18.34px" lengthAdjust="spacingAndGlyphs">0.9</text></g>
<g><text transform="translate(54.72,346.56) rotate(-90.00)" text-anchor="middle" style="font-family: Arial;font-size: 13.20px;" textLength="18.34px" lengthAdjust="spacingAndGlyphs">1.0</text></g>
<g><text transform="translate(54.72,276.65) rotate(-90.00)" text-anchor="middle" style="font-family: Arial;font-size: 13.20px;" textLength="18.34px" lengthAdjust="spacingAndGlyphs">1.1</text></g>
<g><text transform="translate(54.72,206.75) rotate(-90.00)" text-anchor="middle" style="font-family: Arial;font-size: 13.20px;" textLength="18.34px" lengthAdjust="spacingAndGlyphs">1.2</text></g>
<g><text transform="translate(54.72,136.85) rotate(-90.00)" text-anchor="middle" style="font-family: Arial;font-size: 13.20px;" textLength="18.34px" lengthAdjust="spacingAndGlyphs">1.3</text></g>
<polygon points="72.00,585.60 897.60,585.60 897.60,72.00 72.00,72.00" style="stroke-width: 0.75;" />
<g><text x="484.80" y="43.34" text-anchor="middle" style="font-family: Arial;font-size: 20.40px;font-weight: bold;" textLength="582.42px" lengthAdjust="spacingAndGlyphs">HPO - Inverse Frequency Weighted Spline on residual.sugar</text></g>
<g><text x="484.80" y="640.32" text-anchor="middle" style="font-family: Arial;font-size: 18.00px;" textLength="15.01px" lengthAdjust="spacingAndGlyphs">df</text></g>
<g><text transform="translate(25.92,328.80) rotate(-90.00)" text-anchor="middle" style="font-family: Arial;font-size: 18.00px;" textLength="82.02px" lengthAdjust="spacingAndGlyphs">MSE Loss</text></g>
</g><g clip-path="url(#c3)">
<circle cx="113.82" cy="566.58" r="2.70" style="stroke-width: 0.75;stroke: #FF0000;fill: #FF0000;"/>
</g>
</svg>