<svg xmlns="http://www.w3.org/2000/svg" xmlns:xlink="http://www.w3.org/1999/xlink" class="httpgd" width="1176.00" height="840.00" viewBox="0 0 940.80 672.00">
<defs>
  <style type='text/css'><![CDATA[
    .httpgd line, .httpgd polyline, .httpgd polygon, .httpgd path, .httpgd rect, .httpgd circle {
      fill: none;
      stroke: #000000;
      stroke-linecap: round;
      stroke-linejoin: round;
      stroke-miterlimit: 10.00;
    }
  ]]></style>
<clipPath id="c0"><rect x="0.00" y="0.00" width="940.80" height="672.00"/></clipPath>
<clipPath id="c1"><rect x="72.00" y="72.00" width="825.60" height="513.60"/></clipPath>
<clipPath id="c2"><rect x="0.00" y="0.00" width="940.80" height="672.00"/></clipPath>
<clipPath id="c3"><rect x="72.00" y="72.00" width="825.60" height="513.60"/></clipPath>
</defs>
<rect width="100%" height="100%" style="stroke: none;fill: #FFFFFF;"/>
<g clip-path="url(#c0)">
</g><g clip-path="url(#c1)">
<line x1="118.40" y1="555.80" x2="120.48" y2="553.27" style="stroke-width: 0.75;"/>
<line x1="129.51" y1="542.06" x2="131.85" y2="539.09" style="stroke-width: 0.75;"/>
<line x1="490.42" y1="368.88" x2="490.42" y2="368.88" style="stroke-width: 0.75;"/>
<line x1="501.59" y1="359.79" x2="501.74" y2="359.67" style="stroke-width: 0.75;"/>
<line x1="512.79" y1="350.43" x2="513.02" y2="350.23" style="stroke-width: 0.75;"/>
<line x1="524.01" y1="340.92" x2="524.29" y2="340.68" style="stroke-width: 0.75;"/>
<line x1="535.23" y1="331.32" x2="535.55" y2="331.04" style="stroke-width: 0.75;"/>
<line x1="546.46" y1="321.64" x2="546.80" y2="321.34" style="stroke-width: 0.75;"/>
<line x1="557.70" y1="311.92" x2="558.05" y2="311.62" style="stroke-width: 0.75;"/>
<line x1="568.95" y1="302.21" x2="569.28" y2="301.92" style="stroke-width: 0.75;"/>
<line x1="580.20" y1="292.54" x2="580.51" y2="292.27" style="stroke-width: 0.75;"/>
<line x1="591.44" y1="282.90" x2="591.75" y2="282.64" style="stroke-width: 0.75;"/>
<line x1="602.74" y1="273.33" x2="602.94" y2="273.17" style="stroke-width: 0.75;"/>
<line x1="614.00" y1="263.95" x2="614.17" y2="263.81" style="stroke-width: 0.75;"/>
<line x1="625.29" y1="254.66" x2="625.36" y2="254.61" style="stroke-width: 0.75;"/>
<circle cx="102.58" cy="566.58" r="2.70" style="stroke-width: 0.75;"/>
<circle cx="113.82" cy="561.36" r="2.70" style="stroke-width: 0.75;"/>
<circle cx="125.06" cy="547.72" r="2.70" style="stroke-width: 0.75;"/>
<circle cx="136.30" cy="533.43" r="2.70" style="stroke-width: 0.75;"/>
<circle cx="147.55" cy="525.27" r="2.70" style="stroke-width: 0.75;"/>
<circle cx="158.79" cy="521.78" r="2.70" style="stroke-width: 0.75;"/>
<circle cx="170.03" cy="520.54" r="2.70" style="stroke-width: 0.75;"/>
<circle cx="181.27" cy="520.36" r="2.70" style="stroke-width: 0.75;"/>
<circle cx="192.51" cy="520.61" r="2.70" style="stroke-width: 0.75;"/>
<circle cx="203.75" cy="520.85" r="2.70" style="stroke-width: 0.75;"/>
<circle cx="215.00" cy="520.74" r="2.70" style="stroke-width: 0.75;"/>
<circle cx="226.24" cy="519.96" r="2.70" style="stroke-width: 0.75;"/>
<circle cx="237.48" cy="518.29" r="2.70" style="stroke-width: 0.75;"/>
<circle cx="248.72" cy="515.64" r="2.70" style="stroke-width: 0.75;"/>
<circle cx="259.96" cy="512.03" r="2.70" style="stroke-width: 0.75;"/>
<circle cx="271.21" cy="507.55" r="2.70" style="stroke-width: 0.75;"/>
<circle cx="282.45" cy="502.41" r="2.70" style="stroke-width: 0.75;"/>
<circle cx="293.69" cy="496.73" r="2.70" style="stroke-width: 0.75;"/>
<circle cx="304.93" cy="490.68" r="2.70" style="stroke-width: 0.75;"/>
<circle cx="316.17" cy="484.33" r="2.70" style="stroke-width: 0.75;"/>
<circle cx="327.41" cy="477.92" r="2.70" style="stroke-width: 0.75;"/>
<circle cx="338.66" cy="471.32" r="2.70" style="stroke-width: 0.75;"/>
<circle cx="349.90" cy="464.70" r="2.70" style="stroke-width: 0.75;"/>
<circle cx="361.14" cy="458.01" r="2.70" style="stroke-width: 0.75;"/>
<circle cx="372.38" cy="451.31" r="2.70" style="stroke-width: 0.75;"/>
<circle cx="383.62" cy="444.45" r="2.70" style="stroke-width: 0.75;"/>
<circle cx="394.87" cy="437.46" r="2.70" style="stroke-width: 0.75;"/>
<circle cx="406.11" cy="430.31" r="2.70" style="stroke-width: 0.75;"/>
<circle cx="417.35" cy="422.89" r="2.70" style="stroke-width: 0.75;"/>
<circle cx="428.59" cy="415.29" r="2.70" style="stroke-width: 0.75;"/>
<circle cx="439.83" cy="407.45" r="2.70" style="stroke-width: 0.75;"/>
<circle cx="451.07" cy="399.33" r="2.70" style="stroke-width: 0.75;"/>
<circle cx="462.32" cy="390.94" r="2.70" style="stroke-width: 0.75;"/>
<circle cx="473.56" cy="382.28" r="2.70" style="stroke-width: 0.75;"/>
<circle cx="484.80" cy="373.39" r="2.70" style="stroke-width: 0.75;"/>
<circle cx="496.04" cy="364.38" r="2.70" style="stroke-width: 0.75;"/>
<circle cx="507.28" cy="355.07" r="2.70" style="stroke-width: 0.75;"/>
<circle cx="518.53" cy="345.59" r="2.70" style="stroke-width: 0.75;"/>
<circle cx="529.77" cy="336.01" r="2.70" style="stroke-width: 0.75;"/>
<circle cx="541.01" cy="326.34" r="2.70" style="stroke-width: 0.75;"/>
<circle cx="552.25" cy="316.63" r="2.70" style="stroke-width: 0.75;"/>
<circle cx="563.49" cy="306.91" r="2.70" style="stroke-width: 0.75;"/>
<circle cx="574.73" cy="297.22" r="2.70" style="stroke-width: 0.75;"/>
<circle cx="585.98" cy="287.59" r="2.70" style="stroke-width: 0.75;"/>
<circle cx="597.22" cy="277.95" r="2.70" style="stroke-width: 0.75;"/>
<circle cx="608.46" cy="268.55" r="2.70" style="stroke-width: 0.75;"/>
<circle cx="619.70" cy="259.21" r="2.70" style="stroke-width: 0.75;"/>
<circle cx="630.94" cy="250.06" r="2.70" style="stroke-width: 0.75;"/>
<circle cx="642.19" cy="241.09" r="2.70" style="stroke-width: 0.75;"/>
<circle cx="653.43" cy="232.27" r="2.70" style="stroke-width: 0.75;"/>
<circle cx="664.67" cy="223.71" r="2.70" style="stroke-width: 0.75;"/>
<circle cx="675.91" cy="215.14" r="2.70" style="stroke-width: 0.75;"/>
<circle cx="687.15" cy="206.83" r="2.70" style="stroke-width: 0.75;"/>
<circle cx="698.39" cy="198.70" r="2.70" style="stroke-width: 0.75;"/>
<circle cx="709.64" cy="190.72" r="2.70" style="stroke-width: 0.75;"/>
<circle cx="720.88" cy="182.89" r="2.70" style="stroke-width: 0.75;"/>
<circle cx="732.12" cy="175.34" r="2.70" style="stroke-width: 0.75;"/>
<circle cx="743.36" cy="167.68" r="2.70" style="stroke-width: 0.75;"/>
<circle cx="754.60" cy="160.31" r="2.70" style="stroke-width: 0.75;"/>
<circle cx="765.85" cy="153.02" r="2.70" style="stroke-width: 0.75;"/>
<circle cx="777.09" cy="145.85" r="2.70" style="stroke-width: 0.75;"/>
<circle cx="788.33" cy="138.89" r="2.70" style="stroke-width: 0.75;"/>
<circle cx="799.57" cy="131.78" r="2.70" style="stroke-width: 0.75;"/>
<circle cx="810.81" cy="124.86" r="2.70" style="stroke-width: 0.75;"/>
<circle cx="822.05" cy="118.01" r="2.70" style="stroke-width: 0.75;"/>
<circle cx="833.30" cy="111.21" r="2.70" style="stroke-width: 0.75;"/>
<circle cx="844.54" cy="104.45" r="2.70" style="stroke-width: 0.75;"/>
<circle cx="855.78" cy="97.72" r="2.70" style="stroke-width: 0.75;"/>
<circle cx="867.02" cy="91.02" r="2.70" style="stroke-width: 0.75;"/>
</g><g clip-path="url(#c2)">
<line x1="91.34" y1="585.60" x2="878.26" y2="585.60" style="stroke-width: 0.75;"/>
<line x1="91.34" y1="585.60" x2="91.34" y2="592.80" style="stroke-width: 0.75;"/>
<line x1="203.75" y1="585.60" x2="203.75" y2="592.80" style="stroke-width: 0.75;"/>
<line x1="316.17" y1="585.60" x2="316.17" y2="592.80" style="stroke-width: 0.75;"/>
<line x1="428.59" y1="585.60" x2="428.59" y2="592.80" style="stroke-width: 0.75;"/>
<line x1="541.01" y1="585.60" x2="541.01" y2="592.80" style="stroke-width: 0.75;"/>
<line x1="653.43" y1="585.60" x2="653.43" y2="592.80" style="stroke-width: 0.75;"/>
<line x1="765.85" y1="585.60" x2="765.85" y2="592.80" style="stroke-width: 0.75;"/>
<line x1="878.26" y1="585.60" x2="878.26" y2="592.80" style="stroke-width: 0.75;"/>
<g><text x="91.34" y="611.52" text-anchor="middle" style="font-family: Arial;font-size: 13.20px;" textLength="7.34px" lengthAdjust="spacingAndGlyphs">0</text></g>
<g><text x="203.75" y="611.52" text-anchor="middle" style="font-family: Arial;font-size: 13.20px;" textLength="14.67px" lengthAdjust="spacingAndGlyphs">10</text></g>
<g><text x="316.17" y="611.52" text-anchor="middle" style="font-family: Arial;font-size: 13.20px;" textLength="14.67px" lengthAdjust="spacingAndGlyphs">20</text></g>
<g><text x="428.59" y="611.52" text-anchor="middle" style="font-family: Arial;font-size: 13.20px;" textLength="14.67px" lengthAdjust="spacingAndGlyphs">30</text></g>
<g><text x="541.01" y="611.52" text-anchor="middle" style="font-family: Arial;font-size: 13.20px;" textLength="14.67px" lengthAdjust="spacingAndGlyphs">40</text></g>
<g><text x="653.43" y="611.52" text-anchor="middle" style="font-family: Arial;font-size: 13.20px;" textLength="14.67px" lengthAdjust="spacingAndGlyphs">50</text></g>
<g><text x="765.85" y="611.52" text-anchor="middle" style="font-family: Arial;font-size: 13.20px;" textLength="14.67px" lengthAdjust="spacingAndGlyphs">60</text></g>
<g><text x="878.26" y="611.52" text-anchor="middle" style="font-family: Arial;font-size: 13.20px;" textLength="14.67px" lengthAdjust="spacingAndGlyphs">70</text></g>
<line x1="72.00" y1="502.22" x2="72.00" y2="177.79" style="stroke-width: 0.75;"/>
<line x1="72.00" y1="502.22" x2="64.80" y2="502.22" style="stroke-width: 0.75;"/>
<line x1="72.00" y1="394.07" x2="64.80" y2="394.07" style="stroke-width: 0.75;"/>
<line x1="72.00" y1="285.93" x2="64.80" y2="285.93" style="stroke-width: 0.75;"/>
<line x1="72.00" y1="177.79" x2="64.80" y2="177.79" style="stroke-width: 0.75;"/>
<g><text transform="translate(54.72,502.22) rotate(-90.00)" text-anchor="middle" style="font-family: Arial;font-size: 13.20px;" textLength="25.68px" lengthAdjust="spacingAndGlyphs">0.68</text></g>
<g><text transform="translate(54.72,394.07) rotate(-90.00)" text-anchor="middle" style="font-family: Arial;font-size: 13.20px;" textLength="25.68px" lengthAdjust="spacingAndGlyphs">0.70</text></g>
<g><text transform="translate(54.72,285.93) rotate(-90.00)" text-anchor="middle" style="font-family: Arial;font-size: 13.20px;" textLength="25.68px" lengthAdjust="spacingAndGlyphs">0.72</text></g>
<g><text transform="translate(54.72,177.79) rotate(-90.00)" text-anchor="middle" style="font-family: Arial;font-size: 13.20px;" textLength="25.68px" lengthAdjust="spacingAndGlyphs">0.74</text></g>
<polygon points="72.00,585.60 897.60,585.60 897.60,72.00 72.00,72.00" style="stroke-width: 0.75;" />
<g><text x="484.80" y="43.34" text-anchor="middle" style="font-family: Arial;font-size: 20.40px;font-weight: bold;" textLength="271.93px" lengthAdjust="spacingAndGlyphs">HPO - Simple Spline on PC1</text></g>
<g><text x="484.80" y="640.32" text-anchor="middle" style="font-family: Arial;font-size: 18.00px;" textLength="15.01px" lengthAdjust="spacingAndGlyphs">df</text></g>
<g><text transform="translate(25.92,328.80) rotate(-90.00)" text-anchor="middle" style="font-family: Arial;font-size: 18.00px;" textLength="82.02px" lengthAdjust="spacingAndGlyphs">MSE Loss</text></g>
</g><g clip-path="url(#c3)">
<circle cx="102.58" cy="566.58" r="2.70" style="stroke-width: 0.75;stroke: #FF0000;fill: #FF0000;"/>
</g>
</svg>