<svg xmlns="http://www.w3.org/2000/svg" xmlns:xlink="http://www.w3.org/1999/xlink" class="httpgd" width="1176.00" height="840.00" viewBox="0 0 940.80 672.00">
<defs>
  <style type='text/css'><![CDATA[
    .httpgd line, .httpgd polyline, .httpgd polygon, .httpgd path, .httpgd rect, .httpgd circle {
      fill: none;
      stroke: #000000;
      stroke-linecap: round;
      stroke-linejoin: round;
      stroke-miterlimit: 10.00;
    }
  ]]></style>
<clipPath id="c0"><rect x="0.00" y="0.00" width="940.80" height="672.00"/></clipPath>
<clipPath id="c1"><rect x="72.00" y="72.00" width="825.60" height="513.60"/></clipPath>
<clipPath id="c2"><rect x="0.00" y="0.00" width="940.80" height="672.00"/></clipPath>
<clipPath id="c3"><rect x="72.00" y="72.00" width="825.60" height="513.60"/></clipPath>
</defs>
<rect width="100%" height="100%" style="stroke: none;fill: #FFFFFF;"/>
<g clip-path="url(#c0)">
</g><g clip-path="url(#c1)">
<line x1="107.43" y1="561.26" x2="108.97" y2="559.58" style="stroke-width: 0.75;"/>
<line x1="116.67" y1="547.65" x2="122.21" y2="534.82" style="stroke-width: 0.75;"/>
<line x1="127.06" y1="521.29" x2="134.30" y2="496.22" style="stroke-width: 0.75;"/>
<line x1="138.33" y1="482.39" x2="145.52" y2="457.85" style="stroke-width: 0.75;"/>
<line x1="150.16" y1="444.23" x2="156.17" y2="428.86" style="stroke-width: 0.75;"/>
<line x1="162.25" y1="415.84" x2="166.56" y2="407.99" style="stroke-width: 0.75;"/>
<line x1="174.38" y1="395.94" x2="176.91" y2="392.61" style="stroke-width: 0.75;"/>
<line x1="186.43" y1="381.86" x2="187.35" y2="380.96" style="stroke-width: 0.75;"/>
<line x1="254.23" y1="334.17" x2="254.46" y2="333.98" style="stroke-width: 0.75;"/>
<line x1="265.25" y1="324.45" x2="265.92" y2="323.83" style="stroke-width: 0.75;"/>
<line x1="276.34" y1="313.90" x2="277.31" y2="312.96" style="stroke-width: 0.75;"/>
<line x1="287.53" y1="302.82" x2="288.60" y2="301.75" style="stroke-width: 0.75;"/>
<line x1="298.77" y1="291.55" x2="299.85" y2="290.48" style="stroke-width: 0.75;"/>
<line x1="310.06" y1="280.33" x2="311.04" y2="279.38" style="stroke-width: 0.75;"/>
<line x1="321.37" y1="269.35" x2="322.21" y2="268.54" style="stroke-width: 0.75;"/>
<line x1="332.68" y1="258.66" x2="333.39" y2="258.01" style="stroke-width: 0.75;"/>
<line x1="344.00" y1="248.27" x2="344.56" y2="247.77" style="stroke-width: 0.75;"/>
<line x1="355.33" y1="238.21" x2="355.71" y2="237.87" style="stroke-width: 0.75;"/>
<line x1="366.61" y1="228.46" x2="366.91" y2="228.20" style="stroke-width: 0.75;"/>
<line x1="377.96" y1="218.96" x2="378.05" y2="218.89" style="stroke-width: 0.75;"/>
<circle cx="102.58" cy="566.58" r="2.70" style="stroke-width: 0.75;"/>
<circle cx="113.82" cy="554.26" r="2.70" style="stroke-width: 0.75;"/>
<circle cx="125.06" cy="528.21" r="2.70" style="stroke-width: 0.75;"/>
<circle cx="136.30" cy="489.30" r="2.70" style="stroke-width: 0.75;"/>
<circle cx="147.55" cy="450.94" r="2.70" style="stroke-width: 0.75;"/>
<circle cx="158.79" cy="422.15" r="2.70" style="stroke-width: 0.75;"/>
<circle cx="170.03" cy="401.67" r="2.70" style="stroke-width: 0.75;"/>
<circle cx="181.27" cy="386.88" r="2.70" style="stroke-width: 0.75;"/>
<circle cx="192.51" cy="375.93" r="2.70" style="stroke-width: 0.75;"/>
<circle cx="203.75" cy="367.56" r="2.70" style="stroke-width: 0.75;"/>
<circle cx="215.00" cy="360.74" r="2.70" style="stroke-width: 0.75;"/>
<circle cx="226.24" cy="354.23" r="2.70" style="stroke-width: 0.75;"/>
<circle cx="237.48" cy="347.08" r="2.70" style="stroke-width: 0.75;"/>
<circle cx="248.72" cy="338.81" r="2.70" style="stroke-width: 0.75;"/>
<circle cx="259.96" cy="329.34" r="2.70" style="stroke-width: 0.75;"/>
<circle cx="271.21" cy="318.94" r="2.70" style="stroke-width: 0.75;"/>
<circle cx="282.45" cy="307.92" r="2.70" style="stroke-width: 0.75;"/>
<circle cx="293.69" cy="296.65" r="2.70" style="stroke-width: 0.75;"/>
<circle cx="304.93" cy="285.38" r="2.70" style="stroke-width: 0.75;"/>
<circle cx="316.17" cy="274.33" r="2.70" style="stroke-width: 0.75;"/>
<circle cx="327.41" cy="263.56" r="2.70" style="stroke-width: 0.75;"/>
<circle cx="338.66" cy="253.10" r="2.70" style="stroke-width: 0.75;"/>
<circle cx="349.90" cy="242.94" r="2.70" style="stroke-width: 0.75;"/>
<circle cx="361.14" cy="233.14" r="2.70" style="stroke-width: 0.75;"/>
<circle cx="372.38" cy="223.51" r="2.70" style="stroke-width: 0.75;"/>
<circle cx="383.62" cy="214.33" r="2.70" style="stroke-width: 0.75;"/>
<circle cx="394.87" cy="205.42" r="2.70" style="stroke-width: 0.75;"/>
<circle cx="406.11" cy="196.79" r="2.70" style="stroke-width: 0.75;"/>
<circle cx="417.35" cy="188.65" r="2.70" style="stroke-width: 0.75;"/>
<circle cx="428.59" cy="180.78" r="2.70" style="stroke-width: 0.75;"/>
<circle cx="439.83" cy="173.21" r="2.70" style="stroke-width: 0.75;"/>
<circle cx="451.07" cy="166.06" r="2.70" style="stroke-width: 0.75;"/>
<circle cx="462.32" cy="159.25" r="2.70" style="stroke-width: 0.75;"/>
<circle cx="473.56" cy="152.77" r="2.70" style="stroke-width: 0.75;"/>
<circle cx="484.80" cy="146.67" r="2.70" style="stroke-width: 0.75;"/>
<circle cx="496.04" cy="140.86" r="2.70" style="stroke-width: 0.75;"/>
<circle cx="507.28" cy="135.37" r="2.70" style="stroke-width: 0.75;"/>
<circle cx="518.53" cy="130.18" r="2.70" style="stroke-width: 0.75;"/>
<circle cx="529.77" cy="125.39" r="2.70" style="stroke-width: 0.75;"/>
<circle cx="541.01" cy="120.90" r="2.70" style="stroke-width: 0.75;"/>
<circle cx="552.25" cy="116.78" r="2.70" style="stroke-width: 0.75;"/>
<circle cx="563.49" cy="113.01" r="2.70" style="stroke-width: 0.75;"/>
<circle cx="574.73" cy="109.61" r="2.70" style="stroke-width: 0.75;"/>
<circle cx="585.98" cy="106.53" r="2.70" style="stroke-width: 0.75;"/>
<circle cx="597.22" cy="103.77" r="2.70" style="stroke-width: 0.75;"/>
<circle cx="608.46" cy="101.35" r="2.70" style="stroke-width: 0.75;"/>
<circle cx="619.70" cy="99.25" r="2.70" style="stroke-width: 0.75;"/>
<circle cx="630.94" cy="97.45" r="2.70" style="stroke-width: 0.75;"/>
<circle cx="642.19" cy="95.92" r="2.70" style="stroke-width: 0.75;"/>
<circle cx="653.43" cy="94.64" r="2.70" style="stroke-width: 0.75;"/>
<circle cx="664.67" cy="93.60" r="2.70" style="stroke-width: 0.75;"/>
<circle cx="675.91" cy="92.77" r="2.70" style="stroke-width: 0.75;"/>
<circle cx="687.15" cy="92.12" r="2.70" style="stroke-width: 0.75;"/>
<circle cx="698.39" cy="91.65" r="2.70" style="stroke-width: 0.75;"/>
<circle cx="709.64" cy="91.32" r="2.70" style="stroke-width: 0.75;"/>
<circle cx="720.88" cy="91.11" r="2.70" style="stroke-width: 0.75;"/>
<circle cx="732.12" cy="91.02" r="2.70" style="stroke-width: 0.75;"/>
<circle cx="743.36" cy="91.02" r="2.70" style="stroke-width: 0.75;"/>
<circle cx="754.60" cy="91.11" r="2.70" style="stroke-width: 0.75;"/>
<circle cx="765.85" cy="91.26" r="2.70" style="stroke-width: 0.75;"/>
<circle cx="777.09" cy="91.45" r="2.70" style="stroke-width: 0.75;"/>
<circle cx="788.33" cy="91.70" r="2.70" style="stroke-width: 0.75;"/>
<circle cx="799.57" cy="91.98" r="2.70" style="stroke-width: 0.75;"/>
<circle cx="810.81" cy="92.28" r="2.70" style="stroke-width: 0.75;"/>
<circle cx="822.05" cy="92.60" r="2.70" style="stroke-width: 0.75;"/>
<circle cx="833.30" cy="92.93" r="2.70" style="stroke-width: 0.75;"/>
<circle cx="844.54" cy="93.26" r="2.70" style="stroke-width: 0.75;"/>
<circle cx="855.78" cy="93.58" r="2.70" style="stroke-width: 0.75;"/>
<circle cx="867.02" cy="93.89" r="2.70" style="stroke-width: 0.75;"/>
</g><g clip-path="url(#c2)">
<line x1="91.34" y1="585.60" x2="878.26" y2="585.60" style="stroke-width: 0.75;"/>
<line x1="91.34" y1="585.60" x2="91.34" y2="592.80" style="stroke-width: 0.75;"/>
<line x1="203.75" y1="585.60" x2="203.75" y2="592.80" style="stroke-width: 0.75;"/>
<line x1="316.17" y1="585.60" x2="316.17" y2="592.80" style="stroke-width: 0.75;"/>
<line x1="428.59" y1="585.60" x2="428.59" y2="592.80" style="stroke-width: 0.75;"/>
<line x1="541.01" y1="585.60" x2="541.01" y2="592.80" style="stroke-width: 0.75;"/>
<line x1="653.43" y1="585.60" x2="653.43" y2="592.80" style="stroke-width: 0.75;"/>
<line x1="765.85" y1="585.60" x2="765.85" y2="592.80" style="stroke-width: 0.75;"/>
<line x1="878.26" y1="585.60" x2="878.26" y2="592.80" style="stroke-width: 0.75;"/>
<g><text x="91.34" y="611.52" text-anchor="middle" style="font-family: Arial;font-size: 13.20px;" textLength="7.34px" lengthAdjust="spacingAndGlyphs">0</text></g>
<g><text x="203.75" y="611.52" text-anchor="middle" style="font-family: Arial;font-size: 13.20px;" textLength="14.67px" lengthAdjust="spacingAndGlyphs">10</text></g>
<g><text x="316.17" y="611.52" text-anchor="middle" style="font-family: Arial;font-size: 13.20px;" textLength="14.67px" lengthAdjust="spacingAndGlyphs">20</text></g>
<g><text x="428.59" y="611.52" text-anchor="middle" style="font-family: Arial;font-size: 13.20px;" textLength="14.67px" lengthAdjust="spacingAndGlyphs">30</text></g>
<g><text x="541.01" y="611.52" text-anchor="middle" style="font-family: Arial;font-size: 13.20px;" textLength="14.67px" lengthAdjust="spacingAndGlyphs">40</text></g>
<g><text x="653.43" y="611.52" text-anchor="middle" style="font-family: Arial;font-size: 13.20px;" textLength="14.67px" lengthAdjust="spacingAndGlyphs">50</text></g>
<g><text x="765.85" y="611.52" text-anchor="middle" style="font-family: Arial;font-size: 13.20px;" textLength="14.67px" lengthAdjust="spacingAndGlyphs">60</text></g>
<g><text x="878.26" y="611.52" text-anchor="middle" style="font-family: Arial;font-size: 13.20px;" textLength="14.67px" lengthAdjust="spacingAndGlyphs">70</text></g>
<line x1="72.00" y1="511.87" x2="72.00" y2="169.66" style="stroke-width: 0.75;"/>
<line x1="72.00" y1="511.87" x2="64.80" y2="511.87" style="stroke-width: 0.75;"/>
<line x1="72.00" y1="397.80" x2="64.80" y2="397.80" style="stroke-width: 0.75;"/>
<line x1="72.00" y1="283.73" x2="64.80" y2="283.73" style="stroke-width: 0.75;"/>
<line x1="72.00" y1="169.66" x2="64.80" y2="169.66" style="stroke-width: 0.75;"/>
<g><text transform="translate(54.72,511.87) rotate(-90.00)" text-anchor="middle" style="font-family: Arial;font-size: 13.20px;" textLength="18.34px" lengthAdjust="spacingAndGlyphs">0.8</text></g>
<g><text transform="translate(54.72,397.80) rotate(-90.00)" text-anchor="middle" style="font-family: Arial;font-size: 13.20px;" textLength="18.34px" lengthAdjust="spacingAndGlyphs">1.0</text></g>
<g><text transform="translate(54.72,283.73) rotate(-90.00)" text-anchor="middle" style="font-family: Arial;font-size: 13.20px;" textLength="18.34px" lengthAdjust="spacingAndGlyphs">1.2</text></g>
<g><text transform="translate(54.72,169.66) rotate(-90.00)" text-anchor="middle" style="font-family: Arial;font-size: 13.20px;" textLength="18.34px" lengthAdjust="spacingAndGlyphs">1.4</text></g>
<polygon points="72.00,585.60 897.60,585.60 897.60,72.00 72.00,72.00" style="stroke-width: 0.75;" />
<g><text x="484.80" y="43.34" text-anchor="middle" style="font-family: Arial;font-size: 20.40px;font-weight: bold;" textLength="482.69px" lengthAdjust="spacingAndGlyphs">HPO - Inverse Frequency Weighted Spline on PC1</text></g>
<g><text x="484.80" y="640.32" text-anchor="middle" style="font-family: Arial;font-size: 18.00px;" textLength="15.01px" lengthAdjust="spacingAndGlyphs">df</text></g>
<g><text transform="translate(25.92,328.80) rotate(-90.00)" text-anchor="middle" style="font-family: Arial;font-size: 18.00px;" textLength="82.02px" lengthAdjust="spacingAndGlyphs">MSE Loss</text></g>
</g><g clip-path="url(#c3)">
<circle cx="102.58" cy="566.58" r="2.70" style="stroke-width: 0.75;stroke: #FF0000;fill: #FF0000;"/>
</g>
</svg>