<svg xmlns="http://www.w3.org/2000/svg" xmlns:xlink="http://www.w3.org/1999/xlink" class="httpgd" width="1176.00" height="840.00" viewBox="0 0 940.80 672.00">
<defs>
  <style type='text/css'><![CDATA[
    .httpgd line, .httpgd polyline, .httpgd polygon, .httpgd path, .httpgd rect, .httpgd circle {
      fill: none;
      stroke: #000000;
      stroke-linecap: round;
      stroke-linejoin: round;
      stroke-miterlimit: 10.00;
    }
  ]]></style>
<clipPath id="c0"><rect x="0.00" y="0.00" width="940.80" height="672.00"/></clipPath>
<clipPath id="c1"><rect x="72.00" y="72.00" width="825.60" height="513.60"/></clipPath>
<clipPath id="c2"><rect x="0.00" y="0.00" width="940.80" height="672.00"/></clipPath>
<clipPath id="c3"><rect x="72.00" y="72.00" width="825.60" height="513.60"/></clipPath>
</defs>
<rect width="100%" height="100%" style="stroke: none;fill: #FFFFFF;"/>
<g clip-path="url(#c0)">
</g><g clip-path="url(#c1)">
<line x1="102.98" y1="559.39" x2="113.42" y2="371.97" style="stroke-width: 0.75;"/>
<line x1="119.28" y1="360.09" x2="119.60" y2="359.82" style="stroke-width: 0.75;"/>
<line x1="125.98" y1="362.27" x2="135.38" y2="435.40" style="stroke-width: 0.75;"/>
<line x1="137.41" y1="449.66" x2="146.44" y2="507.84" style="stroke-width: 0.75;"/>
<line x1="149.61" y1="521.86" x2="156.73" y2="545.68" style="stroke-width: 0.75;"/>
<line x1="164.13" y1="557.41" x2="164.69" y2="557.92" style="stroke-width: 0.75;"/>
<line x1="185.44" y1="550.15" x2="188.34" y2="546.06" style="stroke-width: 0.75;"/>
<line x1="196.13" y1="533.97" x2="200.14" y2="527.05" style="stroke-width: 0.75;"/>
<line x1="207.38" y1="514.60" x2="211.37" y2="507.76" style="stroke-width: 0.75;"/>
<line x1="218.94" y1="495.52" x2="222.29" y2="490.40" style="stroke-width: 0.75;"/>
<line x1="230.64" y1="478.68" x2="233.08" y2="475.53" style="stroke-width: 0.75;"/>
<line x1="242.41" y1="464.58" x2="243.80" y2="463.10" style="stroke-width: 0.75;"/>
<line x1="254.08" y1="453.04" x2="254.61" y2="452.55" style="stroke-width: 0.75;"/>
<circle cx="102.58" cy="566.58" r="2.70" style="stroke-width: 0.75;"/>
<circle cx="113.82" cy="364.78" r="2.70" style="stroke-width: 0.75;"/>
<circle cx="125.06" cy="355.13" r="2.70" style="stroke-width: 0.75;"/>
<circle cx="136.30" cy="442.54" r="2.70" style="stroke-width: 0.75;"/>
<circle cx="147.55" cy="514.96" r="2.70" style="stroke-width: 0.75;"/>
<circle cx="158.79" cy="552.58" r="2.70" style="stroke-width: 0.75;"/>
<circle cx="170.03" cy="562.75" r="2.70" style="stroke-width: 0.75;"/>
<circle cx="181.27" cy="556.02" r="2.70" style="stroke-width: 0.75;"/>
<circle cx="192.51" cy="540.19" r="2.70" style="stroke-width: 0.75;"/>
<circle cx="203.75" cy="520.82" r="2.70" style="stroke-width: 0.75;"/>
<circle cx="215.00" cy="501.54" r="2.70" style="stroke-width: 0.75;"/>
<circle cx="226.24" cy="484.38" r="2.70" style="stroke-width: 0.75;"/>
<circle cx="237.48" cy="469.83" r="2.70" style="stroke-width: 0.75;"/>
<circle cx="248.72" cy="457.85" r="2.70" style="stroke-width: 0.75;"/>
<circle cx="259.96" cy="447.74" r="2.70" style="stroke-width: 0.75;"/>
<circle cx="271.21" cy="438.85" r="2.70" style="stroke-width: 0.75;"/>
<circle cx="282.45" cy="430.62" r="2.70" style="stroke-width: 0.75;"/>
<circle cx="293.69" cy="422.68" r="2.70" style="stroke-width: 0.75;"/>
<circle cx="304.93" cy="414.72" r="2.70" style="stroke-width: 0.75;"/>
<circle cx="316.17" cy="406.81" r="2.70" style="stroke-width: 0.75;"/>
<circle cx="327.41" cy="398.74" r="2.70" style="stroke-width: 0.75;"/>
<circle cx="338.66" cy="390.53" r="2.70" style="stroke-width: 0.75;"/>
<circle cx="349.90" cy="382.36" r="2.70" style="stroke-width: 0.75;"/>
<circle cx="361.14" cy="374.05" r="2.70" style="stroke-width: 0.75;"/>
<circle cx="372.38" cy="365.84" r="2.70" style="stroke-width: 0.75;"/>
<circle cx="383.62" cy="357.70" r="2.70" style="stroke-width: 0.75;"/>
<circle cx="394.87" cy="349.72" r="2.70" style="stroke-width: 0.75;"/>
<circle cx="406.11" cy="341.91" r="2.70" style="stroke-width: 0.75;"/>
<circle cx="417.35" cy="334.36" r="2.70" style="stroke-width: 0.75;"/>
<circle cx="428.59" cy="326.99" r="2.70" style="stroke-width: 0.75;"/>
<circle cx="439.83" cy="319.89" r="2.70" style="stroke-width: 0.75;"/>
<circle cx="451.07" cy="312.95" r="2.70" style="stroke-width: 0.75;"/>
<circle cx="462.32" cy="306.38" r="2.70" style="stroke-width: 0.75;"/>
<circle cx="473.56" cy="299.93" r="2.70" style="stroke-width: 0.75;"/>
<circle cx="484.80" cy="293.75" r="2.70" style="stroke-width: 0.75;"/>
<circle cx="496.04" cy="287.82" r="2.70" style="stroke-width: 0.75;"/>
<circle cx="507.28" cy="281.94" r="2.70" style="stroke-width: 0.75;"/>
<circle cx="518.53" cy="276.32" r="2.70" style="stroke-width: 0.75;"/>
<circle cx="529.77" cy="270.76" r="2.70" style="stroke-width: 0.75;"/>
<circle cx="541.01" cy="265.21" r="2.70" style="stroke-width: 0.75;"/>
<circle cx="552.25" cy="259.78" r="2.70" style="stroke-width: 0.75;"/>
<circle cx="563.49" cy="254.39" r="2.70" style="stroke-width: 0.75;"/>
<circle cx="574.73" cy="249.07" r="2.70" style="stroke-width: 0.75;"/>
<circle cx="585.98" cy="243.68" r="2.70" style="stroke-width: 0.75;"/>
<circle cx="597.22" cy="238.21" r="2.70" style="stroke-width: 0.75;"/>
<circle cx="608.46" cy="232.81" r="2.70" style="stroke-width: 0.75;"/>
<circle cx="619.70" cy="227.30" r="2.70" style="stroke-width: 0.75;"/>
<circle cx="630.94" cy="221.73" r="2.70" style="stroke-width: 0.75;"/>
<circle cx="642.19" cy="216.08" r="2.70" style="stroke-width: 0.75;"/>
<circle cx="653.43" cy="210.29" r="2.70" style="stroke-width: 0.75;"/>
<circle cx="664.67" cy="204.51" r="2.70" style="stroke-width: 0.75;"/>
<circle cx="675.91" cy="198.60" r="2.70" style="stroke-width: 0.75;"/>
<circle cx="687.15" cy="192.65" r="2.70" style="stroke-width: 0.75;"/>
<circle cx="698.39" cy="186.61" r="2.70" style="stroke-width: 0.75;"/>
<circle cx="709.64" cy="180.50" r="2.70" style="stroke-width: 0.75;"/>
<circle cx="720.88" cy="174.32" r="2.70" style="stroke-width: 0.75;"/>
<circle cx="732.12" cy="168.09" r="2.70" style="stroke-width: 0.75;"/>
<circle cx="743.36" cy="161.79" r="2.70" style="stroke-width: 0.75;"/>
<circle cx="754.60" cy="155.56" r="2.70" style="stroke-width: 0.75;"/>
<circle cx="765.85" cy="149.18" r="2.70" style="stroke-width: 0.75;"/>
<circle cx="777.09" cy="142.68" r="2.70" style="stroke-width: 0.75;"/>
<circle cx="788.33" cy="136.24" r="2.70" style="stroke-width: 0.75;"/>
<circle cx="799.57" cy="129.78" r="2.70" style="stroke-width: 0.75;"/>
<circle cx="810.81" cy="123.32" r="2.70" style="stroke-width: 0.75;"/>
<circle cx="822.05" cy="116.85" r="2.70" style="stroke-width: 0.75;"/>
<circle cx="833.30" cy="110.38" r="2.70" style="stroke-width: 0.75;"/>
<circle cx="844.54" cy="103.92" r="2.70" style="stroke-width: 0.75;"/>
<circle cx="855.78" cy="97.46" r="2.70" style="stroke-width: 0.75;"/>
<circle cx="867.02" cy="91.02" r="2.70" style="stroke-width: 0.75;"/>
</g><g clip-path="url(#c2)">
<line x1="91.34" y1="585.60" x2="878.26" y2="585.60" style="stroke-width: 0.75;"/>
<line x1="91.34" y1="585.60" x2="91.34" y2="592.80" style="stroke-width: 0.75;"/>
<line x1="203.75" y1="585.60" x2="203.75" y2="592.80" style="stroke-width: 0.75;"/>
<line x1="316.17" y1="585.60" x2="316.17" y2="592.80" style="stroke-width: 0.75;"/>
<line x1="428.59" y1="585.60" x2="428.59" y2="592.80" style="stroke-width: 0.75;"/>
<line x1="541.01" y1="585.60" x2="541.01" y2="592.80" style="stroke-width: 0.75;"/>
<line x1="653.43" y1="585.60" x2="653.43" y2="592.80" style="stroke-width: 0.75;"/>
<line x1="765.85" y1="585.60" x2="765.85" y2="592.80" style="stroke-width: 0.75;"/>
<line x1="878.26" y1="585.60" x2="878.26" y2="592.80" style="stroke-width: 0.75;"/>
<g><text x="91.34" y="611.52" text-anchor="middle" style="font-family: Arial;font-size: 13.20px;" textLength="7.34px" lengthAdjust="spacingAndGlyphs">0</text></g>
<g><text x="203.75" y="611.52" text-anchor="middle" style="font-family: Arial;font-size: 13.20px;" textLength="14.67px" lengthAdjust="spacingAndGlyphs">10</text></g>
<g><text x="316.17" y="611.52" text-anchor="middle" style="font-family: Arial;font-size: 13.20px;" textLength="14.67px" lengthAdjust="spacingAndGlyphs">20</text></g>
<g><text x="428.59" y="611.52" text-anchor="middle" style="font-family: Arial;font-size: 13.20px;" textLength="14.67px" lengthAdjust="spacingAndGlyphs">30</text></g>
<g><text x="541.01" y="611.52" text-anchor="middle" style="font-family: Arial;font-size: 13.20px;" textLength="14.67px" lengthAdjust="spacingAndGlyphs">40</text></g>
<g><text x="653.43" y="611.52" text-anchor="middle" style="font-family: Arial;font-size: 13.20px;" textLength="14.67px" lengthAdjust="spacingAndGlyphs">50</text></g>
<g><text x="765.85" y="611.52" text-anchor="middle" style="font-family: Arial;font-size: 13.20px;" textLength="14.67px" lengthAdjust="spacingAndGlyphs">60</text></g>
<g><text x="878.26" y="611.52" text-anchor="middle" style="font-family: Arial;font-size: 13.20px;" textLength="14.67px" lengthAdjust="spacingAndGlyphs">70</text></g>
<line x1="72.00" y1="518.35" x2="72.00" y2="101.06" style="stroke-width: 0.75;"/>
<line x1="72.00" y1="518.35" x2="64.80" y2="518.35" style="stroke-width: 0.75;"/>
<line x1="72.00" y1="414.02" x2="64.80" y2="414.02" style="stroke-width: 0.75;"/>
<line x1="72.00" y1="309.70" x2="64.80" y2="309.70" style="stroke-width: 0.75;"/>
<line x1="72.00" y1="205.38" x2="64.80" y2="205.38" style="stroke-width: 0.75;"/>
<line x1="72.00" y1="101.06" x2="64.80" y2="101.06" style="stroke-width: 0.75;"/>
<g><text transform="translate(54.72,518.35) rotate(-90.00)" text-anchor="middle" style="font-family: Arial;font-size: 13.20px;" textLength="18.34px" lengthAdjust="spacingAndGlyphs">3.7</text></g>
<g><text transform="translate(54.72,414.02) rotate(-90.00)" text-anchor="middle" style="font-family: Arial;font-size: 13.20px;" textLength="18.34px" lengthAdjust="spacingAndGlyphs">3.8</text></g>
<g><text transform="translate(54.72,309.70) rotate(-90.00)" text-anchor="middle" style="font-family: Arial;font-size: 13.20px;" textLength="18.34px" lengthAdjust="spacingAndGlyphs">3.9</text></g>
<g><text transform="translate(54.72,205.38) rotate(-90.00)" text-anchor="middle" style="font-family: Arial;font-size: 13.20px;" textLength="18.34px" lengthAdjust="spacingAndGlyphs">4.0</text></g>
<g><text transform="translate(54.72,101.06) rotate(-90.00)" text-anchor="middle" style="font-family: Arial;font-size: 13.20px;" textLength="18.34px" lengthAdjust="spacingAndGlyphs">4.1</text></g>
<polygon points="72.00,585.60 897.60,585.60 897.60,72.00 72.00,72.00" style="stroke-width: 0.75;" />
<g><text x="484.80" y="43.34" text-anchor="middle" style="font-family: Arial;font-size: 20.40px;font-weight: bold;" textLength="652.60px" lengthAdjust="spacingAndGlyphs">HPO - Weighted spline on PC1 with balanced data (hybrid sampled)</text></g>
<g><text x="484.80" y="640.32" text-anchor="middle" style="font-family: Arial;font-size: 18.00px;" textLength="15.01px" lengthAdjust="spacingAndGlyphs">df</text></g>
<g><text transform="translate(25.92,328.80) rotate(-90.00)" text-anchor="middle" style="font-family: Arial;font-size: 18.00px;" textLength="82.02px" lengthAdjust="spacingAndGlyphs">MSE Loss</text></g>
</g><g clip-path="url(#c3)">
<circle cx="102.58" cy="566.58" r="2.70" style="stroke-width: 0.75;stroke: #FF0000;fill: #FF0000;"/>
</g>
</svg>