<svg xmlns="http://www.w3.org/2000/svg" xmlns:xlink="http://www.w3.org/1999/xlink" class="httpgd" width="1176.00" height="840.00" viewBox="0 0 940.80 672.00">
<defs>
  <style type='text/css'><![CDATA[
    .httpgd line, .httpgd polyline, .httpgd polygon, .httpgd path, .httpgd rect, .httpgd circle {
      fill: none;
      stroke: #000000;
      stroke-linecap: round;
      stroke-linejoin: round;
      stroke-miterlimit: 10.00;
    }
  ]]></style>
<clipPath id="c0"><rect x="0.00" y="0.00" width="940.80" height="672.00"/></clipPath>
<clipPath id="c1"><rect x="72.00" y="72.00" width="825.60" height="513.60"/></clipPath>
<clipPath id="c2"><rect x="0.00" y="0.00" width="940.80" height="672.00"/></clipPath>
<clipPath id="c3"><rect x="72.00" y="72.00" width="825.60" height="513.60"/></clipPath>
</defs>
<rect width="100%" height="100%" style="stroke: none;fill: #FFFFFF;"/>
<g clip-path="url(#c0)">
</g><g clip-path="url(#c1)">
<line x1="103.96" y1="490.99" x2="112.44" y2="534.54" style="stroke-width: 0.75;"/>
<line x1="116.78" y1="548.17" x2="122.11" y2="560.01" style="stroke-width: 0.75;"/>
<line x1="127.90" y1="559.96" x2="133.46" y2="547.04" style="stroke-width: 0.75;"/>
<line x1="138.68" y1="533.63" x2="145.17" y2="515.04" style="stroke-width: 0.75;"/>
<line x1="149.99" y1="501.47" x2="156.34" y2="483.87" style="stroke-width: 0.75;"/>
<line x1="160.98" y1="470.24" x2="167.83" y2="448.86" style="stroke-width: 0.75;"/>
<line x1="171.97" y1="435.07" x2="179.33" y2="408.69" style="stroke-width: 0.75;"/>
<line x1="183.09" y1="394.79" x2="190.69" y2="365.75" style="stroke-width: 0.75;"/>
<line x1="194.35" y1="351.83" x2="201.92" y2="323.10" style="stroke-width: 0.75;"/>
<line x1="205.73" y1="309.22" x2="213.02" y2="283.57" style="stroke-width: 0.75;"/>
<line x1="217.21" y1="269.80" x2="224.03" y2="248.63" style="stroke-width: 0.75;"/>
<line x1="228.83" y1="235.06" x2="234.89" y2="219.34" style="stroke-width: 0.75;"/>
<line x1="240.56" y1="206.11" x2="245.64" y2="195.37" style="stroke-width: 0.75;"/>
<line x1="252.39" y1="182.67" x2="256.30" y2="176.07" style="stroke-width: 0.75;"/>
<line x1="264.27" y1="164.10" x2="266.90" y2="160.58" style="stroke-width: 0.75;"/>
<line x1="276.10" y1="149.54" x2="277.55" y2="147.98" style="stroke-width: 0.75;"/>
<line x1="287.88" y1="137.98" x2="288.25" y2="137.66" style="stroke-width: 0.75;"/>
<circle cx="102.58" cy="483.93" r="2.70" style="stroke-width: 0.75;"/>
<circle cx="113.82" cy="541.61" r="2.70" style="stroke-width: 0.75;"/>
<circle cx="125.06" cy="566.58" r="2.70" style="stroke-width: 0.75;"/>
<circle cx="136.30" cy="540.42" r="2.70" style="stroke-width: 0.75;"/>
<circle cx="147.55" cy="508.24" r="2.70" style="stroke-width: 0.75;"/>
<circle cx="158.79" cy="477.09" r="2.70" style="stroke-width: 0.75;"/>
<circle cx="170.03" cy="442.01" r="2.70" style="stroke-width: 0.75;"/>
<circle cx="181.27" cy="401.76" r="2.70" style="stroke-width: 0.75;"/>
<circle cx="192.51" cy="358.79" r="2.70" style="stroke-width: 0.75;"/>
<circle cx="203.75" cy="316.14" r="2.70" style="stroke-width: 0.75;"/>
<circle cx="215.00" cy="276.65" r="2.70" style="stroke-width: 0.75;"/>
<circle cx="226.24" cy="241.78" r="2.70" style="stroke-width: 0.75;"/>
<circle cx="237.48" cy="212.62" r="2.70" style="stroke-width: 0.75;"/>
<circle cx="248.72" cy="188.86" r="2.70" style="stroke-width: 0.75;"/>
<circle cx="259.96" cy="169.87" r="2.70" style="stroke-width: 0.75;"/>
<circle cx="271.21" cy="154.81" r="2.70" style="stroke-width: 0.75;"/>
<circle cx="282.45" cy="142.70" r="2.70" style="stroke-width: 0.75;"/>
<circle cx="293.69" cy="132.93" r="2.70" style="stroke-width: 0.75;"/>
<circle cx="304.93" cy="124.96" r="2.70" style="stroke-width: 0.75;"/>
<circle cx="316.17" cy="118.35" r="2.70" style="stroke-width: 0.75;"/>
<circle cx="327.41" cy="112.78" r="2.70" style="stroke-width: 0.75;"/>
<circle cx="338.66" cy="108.12" r="2.70" style="stroke-width: 0.75;"/>
<circle cx="349.90" cy="104.17" r="2.70" style="stroke-width: 0.75;"/>
<circle cx="361.14" cy="100.86" r="2.70" style="stroke-width: 0.75;"/>
<circle cx="372.38" cy="98.09" r="2.70" style="stroke-width: 0.75;"/>
<circle cx="383.62" cy="95.83" r="2.70" style="stroke-width: 0.75;"/>
<circle cx="394.87" cy="94.04" r="2.70" style="stroke-width: 0.75;"/>
<circle cx="406.11" cy="92.68" r="2.70" style="stroke-width: 0.75;"/>
<circle cx="417.35" cy="91.74" r="2.70" style="stroke-width: 0.75;"/>
<circle cx="428.59" cy="91.19" r="2.70" style="stroke-width: 0.75;"/>
<circle cx="439.83" cy="91.02" r="2.70" style="stroke-width: 0.75;"/>
<circle cx="451.07" cy="91.21" r="2.70" style="stroke-width: 0.75;"/>
<circle cx="462.32" cy="91.73" r="2.70" style="stroke-width: 0.75;"/>
<circle cx="473.56" cy="92.57" r="2.70" style="stroke-width: 0.75;"/>
<circle cx="484.80" cy="93.70" r="2.70" style="stroke-width: 0.75;"/>
<circle cx="496.04" cy="95.13" r="2.70" style="stroke-width: 0.75;"/>
<circle cx="507.28" cy="96.77" r="2.70" style="stroke-width: 0.75;"/>
<circle cx="518.53" cy="98.66" r="2.70" style="stroke-width: 0.75;"/>
<circle cx="529.77" cy="100.75" r="2.70" style="stroke-width: 0.75;"/>
<circle cx="541.01" cy="103.03" r="2.70" style="stroke-width: 0.75;"/>
<circle cx="552.25" cy="105.44" r="2.70" style="stroke-width: 0.75;"/>
<circle cx="563.49" cy="107.94" r="2.70" style="stroke-width: 0.75;"/>
<circle cx="574.73" cy="110.55" r="2.70" style="stroke-width: 0.75;"/>
<circle cx="585.98" cy="113.24" r="2.70" style="stroke-width: 0.75;"/>
<circle cx="597.22" cy="115.91" r="2.70" style="stroke-width: 0.75;"/>
<circle cx="608.46" cy="118.55" r="2.70" style="stroke-width: 0.75;"/>
<circle cx="619.70" cy="121.13" r="2.70" style="stroke-width: 0.75;"/>
<circle cx="630.94" cy="123.62" r="2.70" style="stroke-width: 0.75;"/>
<circle cx="642.19" cy="125.94" r="2.70" style="stroke-width: 0.75;"/>
<circle cx="653.43" cy="128.11" r="2.70" style="stroke-width: 0.75;"/>
<circle cx="664.67" cy="130.09" r="2.70" style="stroke-width: 0.75;"/>
<circle cx="675.91" cy="131.80" r="2.70" style="stroke-width: 0.75;"/>
<circle cx="687.15" cy="133.24" r="2.70" style="stroke-width: 0.75;"/>
<circle cx="698.39" cy="134.36" r="2.70" style="stroke-width: 0.75;"/>
<circle cx="709.64" cy="135.15" r="2.70" style="stroke-width: 0.75;"/>
<circle cx="720.88" cy="135.60" r="2.70" style="stroke-width: 0.75;"/>
<circle cx="732.12" cy="135.68" r="2.70" style="stroke-width: 0.75;"/>
<circle cx="743.36" cy="135.38" r="2.70" style="stroke-width: 0.75;"/>
<circle cx="754.60" cy="134.69" r="2.70" style="stroke-width: 0.75;"/>
<circle cx="765.85" cy="133.63" r="2.70" style="stroke-width: 0.75;"/>
<circle cx="777.09" cy="132.20" r="2.70" style="stroke-width: 0.75;"/>
<circle cx="788.33" cy="130.41" r="2.70" style="stroke-width: 0.75;"/>
<circle cx="799.57" cy="128.29" r="2.70" style="stroke-width: 0.75;"/>
<circle cx="810.81" cy="125.86" r="2.70" style="stroke-width: 0.75;"/>
<circle cx="822.05" cy="123.17" r="2.70" style="stroke-width: 0.75;"/>
<circle cx="833.30" cy="120.27" r="2.70" style="stroke-width: 0.75;"/>
<circle cx="844.54" cy="117.10" r="2.70" style="stroke-width: 0.75;"/>
<circle cx="855.78" cy="113.87" r="2.70" style="stroke-width: 0.75;"/>
<circle cx="867.02" cy="110.43" r="2.70" style="stroke-width: 0.75;"/>
</g><g clip-path="url(#c2)">
<line x1="91.34" y1="585.60" x2="878.26" y2="585.60" style="stroke-width: 0.75;"/>
<line x1="91.34" y1="585.60" x2="91.34" y2="592.80" style="stroke-width: 0.75;"/>
<line x1="203.75" y1="585.60" x2="203.75" y2="592.80" style="stroke-width: 0.75;"/>
<line x1="316.17" y1="585.60" x2="316.17" y2="592.80" style="stroke-width: 0.75;"/>
<line x1="428.59" y1="585.60" x2="428.59" y2="592.80" style="stroke-width: 0.75;"/>
<line x1="541.01" y1="585.60" x2="541.01" y2="592.80" style="stroke-width: 0.75;"/>
<line x1="653.43" y1="585.60" x2="653.43" y2="592.80" style="stroke-width: 0.75;"/>
<line x1="765.85" y1="585.60" x2="765.85" y2="592.80" style="stroke-width: 0.75;"/>
<line x1="878.26" y1="585.60" x2="878.26" y2="592.80" style="stroke-width: 0.75;"/>
<g><text x="91.34" y="611.52" text-anchor="middle" style="font-family: Arial;font-size: 13.20px;" textLength="7.34px" lengthAdjust="spacingAndGlyphs">0</text></g>
<g><text x="203.75" y="611.52" text-anchor="middle" style="font-family: Arial;font-size: 13.20px;" textLength="14.67px" lengthAdjust="spacingAndGlyphs">10</text></g>
<g><text x="316.17" y="611.52" text-anchor="middle" style="font-family: Arial;font-size: 13.20px;" textLength="14.67px" lengthAdjust="spacingAndGlyphs">20</text></g>
<g><text x="428.59" y="611.52" text-anchor="middle" style="font-family: Arial;font-size: 13.20px;" textLength="14.67px" lengthAdjust="spacingAndGlyphs">30</text></g>
<g><text x="541.01" y="611.52" text-anchor="middle" style="font-family: Arial;font-size: 13.20px;" textLength="14.67px" lengthAdjust="spacingAndGlyphs">40</text></g>
<g><text x="653.43" y="611.52" text-anchor="middle" style="font-family: Arial;font-size: 13.20px;" textLength="14.67px" lengthAdjust="spacingAndGlyphs">50</text></g>
<g><text x="765.85" y="611.52" text-anchor="middle" style="font-family: Arial;font-size: 13.20px;" textLength="14.67px" lengthAdjust="spacingAndGlyphs">60</text></g>
<g><text x="878.26" y="611.52" text-anchor="middle" style="font-family: Arial;font-size: 13.20px;" textLength="14.67px" lengthAdjust="spacingAndGlyphs">70</text></g>
<line x1="72.00" y1="538.46" x2="72.00" y2="107.00" style="stroke-width: 0.75;"/>
<line x1="72.00" y1="538.46" x2="64.80" y2="538.46" style="stroke-width: 0.75;"/>
<line x1="72.00" y1="430.60" x2="64.80" y2="430.60" style="stroke-width: 0.75;"/>
<line x1="72.00" y1="322.73" x2="64.80" y2="322.73" style="stroke-width: 0.75;"/>
<line x1="72.00" y1="214.87" x2="64.80" y2="214.87" style="stroke-width: 0.75;"/>
<line x1="72.00" y1="107.00" x2="64.80" y2="107.00" style="stroke-width: 0.75;"/>
<g><text transform="translate(54.72,538.46) rotate(-90.00)" text-anchor="middle" style="font-family: Arial;font-size: 13.20px;" textLength="25.68px" lengthAdjust="spacingAndGlyphs">1.85</text></g>
<g><text transform="translate(54.72,430.60) rotate(-90.00)" text-anchor="middle" style="font-family: Arial;font-size: 13.20px;" textLength="25.68px" lengthAdjust="spacingAndGlyphs">1.90</text></g>
<g><text transform="translate(54.72,322.73) rotate(-90.00)" text-anchor="middle" style="font-family: Arial;font-size: 13.20px;" textLength="25.68px" lengthAdjust="spacingAndGlyphs">1.95</text></g>
<g><text transform="translate(54.72,214.87) rotate(-90.00)" text-anchor="middle" style="font-family: Arial;font-size: 13.20px;" textLength="25.68px" lengthAdjust="spacingAndGlyphs">2.00</text></g>
<g><text transform="translate(54.72,107.00) rotate(-90.00)" text-anchor="middle" style="font-family: Arial;font-size: 13.20px;" textLength="25.68px" lengthAdjust="spacingAndGlyphs">2.05</text></g>
<polygon points="72.00,585.60 897.60,585.60 897.60,72.00 72.00,72.00" style="stroke-width: 0.75;" />
<g><text x="484.80" y="43.34" text-anchor="middle" style="font-family: Arial;font-size: 20.40px;font-weight: bold;" textLength="589.16px" lengthAdjust="spacingAndGlyphs">HPO - Spline on alcohol with balanced data (hybrid sampled)</text></g>
<g><text x="484.80" y="640.32" text-anchor="middle" style="font-family: Arial;font-size: 18.00px;" textLength="15.01px" lengthAdjust="spacingAndGlyphs">df</text></g>
<g><text transform="translate(25.92,328.80) rotate(-90.00)" text-anchor="middle" style="font-family: Arial;font-size: 18.00px;" textLength="82.02px" lengthAdjust="spacingAndGlyphs">MSE Loss</text></g>
</g><g clip-path="url(#c3)">
<circle cx="125.06" cy="566.58" r="2.70" style="stroke-width: 0.75;stroke: #FF0000;fill: #FF0000;"/>
</g>
</svg>