<svg xmlns="http://www.w3.org/2000/svg" xmlns:xlink="http://www.w3.org/1999/xlink" class="httpgd" width="1176.00" height="840.00" viewBox="0 0 940.80 672.00">
<defs>
  <style type='text/css'><![CDATA[
    .httpgd line, .httpgd polyline, .httpgd polygon, .httpgd path, .httpgd rect, .httpgd circle {
      fill: none;
      stroke: #000000;
      stroke-linecap: round;
      stroke-linejoin: round;
      stroke-miterlimit: 10.00;
    }
  ]]></style>
<clipPath id="c0"><rect x="0.00" y="0.00" width="940.80" height="672.00"/></clipPath>
<clipPath id="c1"><rect x="72.00" y="72.00" width="825.60" height="513.60"/></clipPath>
<clipPath id="c2"><rect x="0.00" y="0.00" width="940.80" height="672.00"/></clipPath>
<clipPath id="c3"><rect x="72.00" y="72.00" width="825.60" height="513.60"/></clipPath>
</defs>
<rect width="100%" height="100%" style="stroke: none;fill: #FFFFFF;"/>
<g clip-path="url(#c0)">
</g><g clip-path="url(#c1)">
<line x1="107.40" y1="492.75" x2="111.17" y2="496.94" style="stroke-width: 0.75;"/>
<line x1="122.68" y1="504.96" x2="122.71" y2="504.98" style="stroke-width: 0.75;"/>
<line x1="136.10" y1="505.02" x2="136.11" y2="505.02" style="stroke-width: 0.75;"/>
<line x1="148.51" y1="498.00" x2="150.52" y2="496.44" style="stroke-width: 0.75;"/>
<line x1="162.62" y1="488.73" x2="163.24" y2="488.41" style="stroke-width: 0.75;"/>
<line x1="189.69" y1="487.49" x2="189.81" y2="487.54" style="stroke-width: 0.75;"/>
<line x1="202.26" y1="494.57" x2="204.07" y2="495.90" style="stroke-width: 0.75;"/>
<line x1="215.17" y1="505.04" x2="217.97" y2="507.60" style="stroke-width: 0.75;"/>
<line x1="228.42" y1="517.51" x2="231.55" y2="520.57" style="stroke-width: 0.75;"/>
<line x1="241.95" y1="530.52" x2="244.84" y2="533.23" style="stroke-width: 0.75;"/>
<line x1="255.71" y1="542.66" x2="257.90" y2="544.42" style="stroke-width: 0.75;"/>
<line x1="269.61" y1="552.76" x2="270.83" y2="553.53" style="stroke-width: 0.75;"/>
<line x1="283.55" y1="560.18" x2="283.71" y2="560.25" style="stroke-width: 0.75;"/>
<line x1="350.68" y1="558.56" x2="350.69" y2="558.55" style="stroke-width: 0.75;"/>
<line x1="363.81" y1="552.66" x2="364.38" y2="552.38" style="stroke-width: 0.75;"/>
<line x1="376.98" y1="545.42" x2="378.04" y2="544.79" style="stroke-width: 0.75;"/>
<line x1="390.15" y1="537.01" x2="391.69" y2="535.95" style="stroke-width: 0.75;"/>
<line x1="403.34" y1="527.49" x2="405.33" y2="525.96" style="stroke-width: 0.75;"/>
<line x1="416.55" y1="516.94" x2="418.94" y2="514.93" style="stroke-width: 0.75;"/>
<line x1="429.72" y1="505.39" x2="432.59" y2="502.72" style="stroke-width: 0.75;"/>
<line x1="442.96" y1="492.74" x2="446.17" y2="489.53" style="stroke-width: 0.75;"/>
<line x1="456.14" y1="479.15" x2="459.82" y2="475.14" style="stroke-width: 0.75;"/>
<line x1="469.38" y1="464.38" x2="473.39" y2="459.73" style="stroke-width: 0.75;"/>
<line x1="482.57" y1="448.63" x2="487.03" y2="442.99" style="stroke-width: 0.75;"/>
<line x1="495.81" y1="431.57" x2="500.62" y2="425.11" style="stroke-width: 0.75;"/>
<line x1="509.05" y1="413.44" x2="514.19" y2="406.11" style="stroke-width: 0.75;"/>
<line x1="522.27" y1="394.20" x2="527.79" y2="385.77" style="stroke-width: 0.75;"/>
<line x1="535.51" y1="373.61" x2="541.38" y2="364.03" style="stroke-width: 0.75;"/>
<line x1="548.80" y1="351.69" x2="554.91" y2="341.29" style="stroke-width: 0.75;"/>
<line x1="562.10" y1="328.82" x2="568.44" y2="317.58" style="stroke-width: 0.75;"/>
<line x1="575.43" y1="304.99" x2="581.92" y2="293.16" style="stroke-width: 0.75;"/>
<line x1="588.82" y1="280.52" x2="595.36" y2="268.50" style="stroke-width: 0.75;"/>
<line x1="602.23" y1="255.85" x2="608.77" y2="243.83" style="stroke-width: 0.75;"/>
<line x1="615.75" y1="231.23" x2="622.08" y2="220.03" style="stroke-width: 0.75;"/>
<line x1="629.31" y1="207.59" x2="635.34" y2="197.50" style="stroke-width: 0.75;"/>
<line x1="642.97" y1="185.29" x2="648.50" y2="176.82" style="stroke-width: 0.75;"/>
<line x1="656.75" y1="165.03" x2="661.55" y2="158.60" style="stroke-width: 0.75;"/>
<line x1="670.59" y1="147.41" x2="674.53" y2="142.91" style="stroke-width: 0.75;"/>
<line x1="684.46" y1="132.51" x2="687.48" y2="129.62" style="stroke-width: 0.75;"/>
<line x1="698.30" y1="120.15" x2="700.46" y2="118.43" style="stroke-width: 0.75;"/>
<line x1="712.08" y1="109.94" x2="713.50" y2="109.00" style="stroke-width: 0.75;"/>
<line x1="725.86" y1="101.63" x2="726.55" y2="101.26" style="stroke-width: 0.75;"/>
<line x1="779.78" y1="95.60" x2="779.92" y2="95.66" style="stroke-width: 0.75;"/>
<circle cx="102.58" cy="487.40" r="2.70" style="stroke-width: 0.75;"/>
<circle cx="115.99" cy="502.29" r="2.70" style="stroke-width: 0.75;"/>
<circle cx="129.40" cy="507.65" r="2.70" style="stroke-width: 0.75;"/>
<circle cx="142.81" cy="502.40" r="2.70" style="stroke-width: 0.75;"/>
<circle cx="156.22" cy="492.05" r="2.70" style="stroke-width: 0.75;"/>
<circle cx="169.63" cy="485.10" r="2.70" style="stroke-width: 0.75;"/>
<circle cx="183.05" cy="484.72" r="2.70" style="stroke-width: 0.75;"/>
<circle cx="196.46" cy="490.30" r="2.70" style="stroke-width: 0.75;"/>
<circle cx="209.87" cy="500.17" r="2.70" style="stroke-width: 0.75;"/>
<circle cx="223.28" cy="512.47" r="2.70" style="stroke-width: 0.75;"/>
<circle cx="236.69" cy="525.61" r="2.70" style="stroke-width: 0.75;"/>
<circle cx="250.10" cy="538.14" r="2.70" style="stroke-width: 0.75;"/>
<circle cx="263.51" cy="548.93" r="2.70" style="stroke-width: 0.75;"/>
<circle cx="276.92" cy="557.35" r="2.70" style="stroke-width: 0.75;"/>
<circle cx="290.34" cy="563.07" r="2.70" style="stroke-width: 0.75;"/>
<circle cx="303.75" cy="566.08" r="2.70" style="stroke-width: 0.75;"/>
<circle cx="317.16" cy="566.58" r="2.70" style="stroke-width: 0.75;"/>
<circle cx="330.57" cy="564.86" r="2.70" style="stroke-width: 0.75;"/>
<circle cx="343.98" cy="561.20" r="2.70" style="stroke-width: 0.75;"/>
<circle cx="357.39" cy="555.92" r="2.70" style="stroke-width: 0.75;"/>
<circle cx="370.80" cy="549.12" r="2.70" style="stroke-width: 0.75;"/>
<circle cx="384.22" cy="541.09" r="2.70" style="stroke-width: 0.75;"/>
<circle cx="397.63" cy="531.87" r="2.70" style="stroke-width: 0.75;"/>
<circle cx="411.04" cy="521.57" r="2.70" style="stroke-width: 0.75;"/>
<circle cx="424.45" cy="510.29" r="2.70" style="stroke-width: 0.75;"/>
<circle cx="437.86" cy="497.82" r="2.70" style="stroke-width: 0.75;"/>
<circle cx="451.27" cy="484.45" r="2.70" style="stroke-width: 0.75;"/>
<circle cx="464.68" cy="469.83" r="2.70" style="stroke-width: 0.75;"/>
<circle cx="478.09" cy="454.28" r="2.70" style="stroke-width: 0.75;"/>
<circle cx="491.51" cy="437.35" r="2.70" style="stroke-width: 0.75;"/>
<circle cx="504.92" cy="419.34" r="2.70" style="stroke-width: 0.75;"/>
<circle cx="518.33" cy="400.22" r="2.70" style="stroke-width: 0.75;"/>
<circle cx="531.74" cy="379.74" r="2.70" style="stroke-width: 0.75;"/>
<circle cx="545.15" cy="357.90" r="2.70" style="stroke-width: 0.75;"/>
<circle cx="558.56" cy="335.09" r="2.70" style="stroke-width: 0.75;"/>
<circle cx="571.97" cy="311.31" r="2.70" style="stroke-width: 0.75;"/>
<circle cx="585.38" cy="286.84" r="2.70" style="stroke-width: 0.75;"/>
<circle cx="598.80" cy="262.18" r="2.70" style="stroke-width: 0.75;"/>
<circle cx="612.21" cy="237.50" r="2.70" style="stroke-width: 0.75;"/>
<circle cx="625.62" cy="213.77" r="2.70" style="stroke-width: 0.75;"/>
<circle cx="639.03" cy="191.32" r="2.70" style="stroke-width: 0.75;"/>
<circle cx="652.44" cy="170.80" r="2.70" style="stroke-width: 0.75;"/>
<circle cx="665.85" cy="152.83" r="2.70" style="stroke-width: 0.75;"/>
<circle cx="679.26" cy="137.49" r="2.70" style="stroke-width: 0.75;"/>
<circle cx="692.68" cy="124.64" r="2.70" style="stroke-width: 0.75;"/>
<circle cx="706.09" cy="113.94" r="2.70" style="stroke-width: 0.75;"/>
<circle cx="719.50" cy="105.01" r="2.70" style="stroke-width: 0.75;"/>
<circle cx="732.91" cy="97.89" r="2.70" style="stroke-width: 0.75;"/>
<circle cx="746.32" cy="92.98" r="2.70" style="stroke-width: 0.75;"/>
<circle cx="759.73" cy="91.02" r="2.70" style="stroke-width: 0.75;"/>
<circle cx="773.14" cy="92.81" r="2.70" style="stroke-width: 0.75;"/>
<circle cx="786.55" cy="98.44" r="2.70" style="stroke-width: 0.75;"/>
<circle cx="799.97" cy="98.41" r="2.70" style="stroke-width: 0.75;"/>
<circle cx="813.38" cy="98.41" r="2.70" style="stroke-width: 0.75;"/>
<circle cx="826.79" cy="98.41" r="2.70" style="stroke-width: 0.75;"/>
<circle cx="840.20" cy="98.41" r="2.70" style="stroke-width: 0.75;"/>
<circle cx="853.61" cy="98.41" r="2.70" style="stroke-width: 0.75;"/>
<circle cx="867.02" cy="98.41" r="2.70" style="stroke-width: 0.75;"/>
</g><g clip-path="url(#c2)">
<line x1="89.17" y1="585.60" x2="893.84" y2="585.60" style="stroke-width: 0.75;"/>
<line x1="89.17" y1="585.60" x2="89.17" y2="592.80" style="stroke-width: 0.75;"/>
<line x1="223.28" y1="585.60" x2="223.28" y2="592.80" style="stroke-width: 0.75;"/>
<line x1="357.39" y1="585.60" x2="357.39" y2="592.80" style="stroke-width: 0.75;"/>
<line x1="491.51" y1="585.60" x2="491.51" y2="592.80" style="stroke-width: 0.75;"/>
<line x1="625.62" y1="585.60" x2="625.62" y2="592.80" style="stroke-width: 0.75;"/>
<line x1="759.73" y1="585.60" x2="759.73" y2="592.80" style="stroke-width: 0.75;"/>
<line x1="893.84" y1="585.60" x2="893.84" y2="592.80" style="stroke-width: 0.75;"/>
<g><text x="89.17" y="611.52" text-anchor="middle" style="font-family: Arial;font-size: 13.20px;" textLength="7.34px" lengthAdjust="spacingAndGlyphs">0</text></g>
<g><text x="223.28" y="611.52" text-anchor="middle" style="font-family: Arial;font-size: 13.20px;" textLength="14.67px" lengthAdjust="spacingAndGlyphs">10</text></g>
<g><text x="357.39" y="611.52" text-anchor="middle" style="font-family: Arial;font-size: 13.20px;" textLength="14.67px" lengthAdjust="spacingAndGlyphs">20</text></g>
<g><text x="491.51" y="611.52" text-anchor="middle" style="font-family: Arial;font-size: 13.20px;" textLength="14.67px" lengthAdjust="spacingAndGlyphs">30</text></g>
<g><text x="625.62" y="611.52" text-anchor="middle" style="font-family: Arial;font-size: 13.20px;" textLength="14.67px" lengthAdjust="spacingAndGlyphs">40</text></g>
<g><text x="759.73" y="611.52" text-anchor="middle" style="font-family: Arial;font-size: 13.20px;" textLength="14.67px" lengthAdjust="spacingAndGlyphs">50</text></g>
<g><text x="893.84" y="611.52" text-anchor="middle" style="font-family: Arial;font-size: 13.20px;" textLength="14.67px" lengthAdjust="spacingAndGlyphs">60</text></g>
<line x1="72.00" y1="553.16" x2="72.00" y2="88.93" style="stroke-width: 0.75;"/>
<line x1="72.00" y1="553.16" x2="64.80" y2="553.16" style="stroke-width: 0.75;"/>
<line x1="72.00" y1="460.32" x2="64.80" y2="460.32" style="stroke-width: 0.75;"/>
<line x1="72.00" y1="367.47" x2="64.80" y2="367.47" style="stroke-width: 0.75;"/>
<line x1="72.00" y1="274.62" x2="64.80" y2="274.62" style="stroke-width: 0.75;"/>
<line x1="72.00" y1="181.77" x2="64.80" y2="181.77" style="stroke-width: 0.75;"/>
<line x1="72.00" y1="88.93" x2="64.80" y2="88.93" style="stroke-width: 0.75;"/>
<g><text transform="translate(54.72,553.16) rotate(-90.00)" text-anchor="middle" style="font-family: Arial;font-size: 13.20px;" textLength="33.01px" lengthAdjust="spacingAndGlyphs">0.515</text></g>
<g><text transform="translate(54.72,460.32) rotate(-90.00)" text-anchor="middle" style="font-family: Arial;font-size: 13.20px;" textLength="33.01px" lengthAdjust="spacingAndGlyphs">0.520</text></g>
<g><text transform="translate(54.72,367.47) rotate(-90.00)" text-anchor="middle" style="font-family: Arial;font-size: 13.20px;" textLength="33.01px" lengthAdjust="spacingAndGlyphs">0.525</text></g>
<g><text transform="translate(54.72,274.62) rotate(-90.00)" text-anchor="middle" style="font-family: Arial;font-size: 13.20px;" textLength="33.01px" lengthAdjust="spacingAndGlyphs">0.530</text></g>
<g><text transform="translate(54.72,181.77) rotate(-90.00)" text-anchor="middle" style="font-family: Arial;font-size: 13.20px;" textLength="33.01px" lengthAdjust="spacingAndGlyphs">0.535</text></g>
<g><text transform="translate(54.72,88.93) rotate(-90.00)" text-anchor="middle" style="font-family: Arial;font-size: 13.20px;" textLength="33.01px" lengthAdjust="spacingAndGlyphs">0.540</text></g>
<polygon points="72.00,585.60 897.60,585.60 897.60,72.00 72.00,72.00" style="stroke-width: 0.75;" />
<g><text x="484.80" y="43.34" text-anchor="middle" style="font-family: Arial;font-size: 20.40px;font-weight: bold;" textLength="303.65px" lengthAdjust="spacingAndGlyphs">HPO - Simple Spline on alcohol</text></g>
<g><text x="484.80" y="640.32" text-anchor="middle" style="font-family: Arial;font-size: 18.00px;" textLength="15.01px" lengthAdjust="spacingAndGlyphs">df</text></g>
<g><text transform="translate(25.92,328.80) rotate(-90.00)" text-anchor="middle" style="font-family: Arial;font-size: 18.00px;" textLength="82.02px" lengthAdjust="spacingAndGlyphs">MSE Loss</text></g>
</g><g clip-path="url(#c3)">
<circle cx="317.16" cy="566.58" r="2.70" style="stroke-width: 0.75;stroke: #FF0000;fill: #FF0000;"/>
</g>
</svg>