<svg xmlns="http://www.w3.org/2000/svg" xmlns:xlink="http://www.w3.org/1999/xlink" class="httpgd" width="1176.00" height="840.00" viewBox="0 0 940.80 672.00">
<defs>
  <style type='text/css'><![CDATA[
    .httpgd line, .httpgd polyline, .httpgd polygon, .httpgd path, .httpgd rect, .httpgd circle {
      fill: none;
      stroke: #000000;
      stroke-linecap: round;
      stroke-linejoin: round;
      stroke-miterlimit: 10.00;
    }
  ]]></style>
<clipPath id="c0"><rect x="0.00" y="0.00" width="940.80" height="672.00"/></clipPath>
<clipPath id="c1"><rect x="72.00" y="72.00" width="825.60" height="513.60"/></clipPath>
<clipPath id="c2"><rect x="0.00" y="0.00" width="940.80" height="672.00"/></clipPath>
<clipPath id="c3"><rect x="72.00" y="72.00" width="825.60" height="513.60"/></clipPath>
</defs>
<rect width="100%" height="100%" style="stroke: none;fill: #FFFFFF;"/>
<g clip-path="url(#c0)">
</g><g clip-path="url(#c1)">
<line x1="105.63" y1="560.06" x2="112.94" y2="544.46" style="stroke-width: 0.75;"/>
<line x1="118.08" y1="531.05" x2="127.31" y2="500.63" style="stroke-width: 0.75;"/>
<line x1="134.69" y1="488.85" x2="137.53" y2="486.22" style="stroke-width: 0.75;"/>
<line x1="147.25" y1="487.00" x2="151.78" y2="492.80" style="stroke-width: 0.75;"/>
<line x1="160.14" y1="504.51" x2="165.71" y2="513.09" style="stroke-width: 0.75;"/>
<line x1="174.77" y1="524.18" x2="177.91" y2="527.27" style="stroke-width: 0.75;"/>
<line x1="189.56" y1="535.38" x2="189.94" y2="535.56" style="stroke-width: 0.75;"/>
<line x1="243.25" y1="533.71" x2="243.54" y2="533.58" style="stroke-width: 0.75;"/>
<line x1="256.16" y1="526.73" x2="257.45" y2="525.91" style="stroke-width: 0.75;"/>
<line x1="269.10" y1="517.48" x2="271.34" y2="515.65" style="stroke-width: 0.75;"/>
<line x1="282.13" y1="506.14" x2="285.13" y2="503.27" style="stroke-width: 0.75;"/>
<line x1="295.26" y1="493.04" x2="298.83" y2="489.22" style="stroke-width: 0.75;"/>
<line x1="308.51" y1="478.57" x2="312.40" y2="474.16" style="stroke-width: 0.75;"/>
<line x1="321.81" y1="463.26" x2="325.92" y2="458.39" style="stroke-width: 0.75;"/>
<line x1="335.16" y1="447.34" x2="339.39" y2="442.23" style="stroke-width: 0.75;"/>
<line x1="348.58" y1="431.14" x2="352.79" y2="426.07" style="stroke-width: 0.75;"/>
<line x1="362.02" y1="415.01" x2="366.18" y2="410.04" style="stroke-width: 0.75;"/>
<line x1="375.46" y1="399.03" x2="379.56" y2="394.18" style="stroke-width: 0.75;"/>
<line x1="388.89" y1="383.21" x2="392.95" y2="378.45" style="stroke-width: 0.75;"/>
<line x1="402.30" y1="367.49" x2="406.36" y2="362.75" style="stroke-width: 0.75;"/>
<line x1="415.72" y1="351.80" x2="419.77" y2="347.07" style="stroke-width: 0.75;"/>
<line x1="429.06" y1="336.07" x2="433.25" y2="331.04" style="stroke-width: 0.75;"/>
<line x1="442.45" y1="319.96" x2="446.68" y2="314.86" style="stroke-width: 0.75;"/>
<line x1="455.77" y1="303.69" x2="460.19" y2="298.16" style="stroke-width: 0.75;"/>
<line x1="469.13" y1="286.88" x2="473.64" y2="281.14" style="stroke-width: 0.75;"/>
<line x1="482.49" y1="269.78" x2="487.11" y2="263.80" style="stroke-width: 0.75;"/>
<line x1="495.87" y1="252.38" x2="500.55" y2="246.25" style="stroke-width: 0.75;"/>
<line x1="509.27" y1="234.80" x2="513.97" y2="228.62" style="stroke-width: 0.75;"/>
<line x1="522.73" y1="217.19" x2="527.33" y2="211.25" style="stroke-width: 0.75;"/>
<line x1="536.21" y1="199.91" x2="540.68" y2="194.25" style="stroke-width: 0.75;"/>
<line x1="549.72" y1="183.04" x2="553.99" y2="177.85" style="stroke-width: 0.75;"/>
<line x1="563.35" y1="166.91" x2="567.19" y2="162.60" style="stroke-width: 0.75;"/>
<line x1="576.99" y1="152.06" x2="580.37" y2="148.58" style="stroke-width: 0.75;"/>
<line x1="590.70" y1="138.56" x2="593.48" y2="136.02" style="stroke-width: 0.75;"/>
<line x1="604.45" y1="126.70" x2="606.56" y2="125.04" style="stroke-width: 0.75;"/>
<line x1="618.22" y1="116.61" x2="619.61" y2="115.70" style="stroke-width: 0.75;"/>
<line x1="631.99" y1="108.39" x2="632.66" y2="108.03" style="stroke-width: 0.75;"/>
<line x1="645.71" y1="101.99" x2="645.76" y2="101.97" style="stroke-width: 0.75;"/>
<circle cx="102.58" cy="566.58" r="2.70" style="stroke-width: 0.75;"/>
<circle cx="115.99" cy="537.94" r="2.70" style="stroke-width: 0.75;"/>
<circle cx="129.40" cy="493.74" r="2.70" style="stroke-width: 0.75;"/>
<circle cx="142.81" cy="481.33" r="2.70" style="stroke-width: 0.75;"/>
<circle cx="156.22" cy="498.47" r="2.70" style="stroke-width: 0.75;"/>
<circle cx="169.63" cy="519.13" r="2.70" style="stroke-width: 0.75;"/>
<circle cx="183.05" cy="532.32" r="2.70" style="stroke-width: 0.75;"/>
<circle cx="196.46" cy="538.62" r="2.70" style="stroke-width: 0.75;"/>
<circle cx="209.87" cy="540.78" r="2.70" style="stroke-width: 0.75;"/>
<circle cx="223.28" cy="540.06" r="2.70" style="stroke-width: 0.75;"/>
<circle cx="236.69" cy="536.68" r="2.70" style="stroke-width: 0.75;"/>
<circle cx="250.10" cy="530.62" r="2.70" style="stroke-width: 0.75;"/>
<circle cx="263.51" cy="522.02" r="2.70" style="stroke-width: 0.75;"/>
<circle cx="276.92" cy="511.11" r="2.70" style="stroke-width: 0.75;"/>
<circle cx="290.34" cy="498.29" r="2.70" style="stroke-width: 0.75;"/>
<circle cx="303.75" cy="483.96" r="2.70" style="stroke-width: 0.75;"/>
<circle cx="317.16" cy="468.76" r="2.70" style="stroke-width: 0.75;"/>
<circle cx="330.57" cy="452.89" r="2.70" style="stroke-width: 0.75;"/>
<circle cx="343.98" cy="436.68" r="2.70" style="stroke-width: 0.75;"/>
<circle cx="357.39" cy="420.53" r="2.70" style="stroke-width: 0.75;"/>
<circle cx="370.80" cy="404.52" r="2.70" style="stroke-width: 0.75;"/>
<circle cx="384.22" cy="388.69" r="2.70" style="stroke-width: 0.75;"/>
<circle cx="397.63" cy="372.97" r="2.70" style="stroke-width: 0.75;"/>
<circle cx="411.04" cy="357.27" r="2.70" style="stroke-width: 0.75;"/>
<circle cx="424.45" cy="341.60" r="2.70" style="stroke-width: 0.75;"/>
<circle cx="437.86" cy="325.51" r="2.70" style="stroke-width: 0.75;"/>
<circle cx="451.27" cy="309.31" r="2.70" style="stroke-width: 0.75;"/>
<circle cx="464.68" cy="292.53" r="2.70" style="stroke-width: 0.75;"/>
<circle cx="478.09" cy="275.48" r="2.70" style="stroke-width: 0.75;"/>
<circle cx="491.51" cy="258.10" r="2.70" style="stroke-width: 0.75;"/>
<circle cx="504.92" cy="240.53" r="2.70" style="stroke-width: 0.75;"/>
<circle cx="518.33" cy="222.89" r="2.70" style="stroke-width: 0.75;"/>
<circle cx="531.74" cy="205.56" r="2.70" style="stroke-width: 0.75;"/>
<circle cx="545.15" cy="188.60" r="2.70" style="stroke-width: 0.75;"/>
<circle cx="558.56" cy="172.29" r="2.70" style="stroke-width: 0.75;"/>
<circle cx="571.97" cy="157.23" r="2.70" style="stroke-width: 0.75;"/>
<circle cx="585.38" cy="143.41" r="2.70" style="stroke-width: 0.75;"/>
<circle cx="598.80" cy="131.16" r="2.70" style="stroke-width: 0.75;"/>
<circle cx="612.21" cy="120.58" r="2.70" style="stroke-width: 0.75;"/>
<circle cx="625.62" cy="111.74" r="2.70" style="stroke-width: 0.75;"/>
<circle cx="639.03" cy="104.68" r="2.70" style="stroke-width: 0.75;"/>
<circle cx="652.44" cy="99.28" r="2.70" style="stroke-width: 0.75;"/>
<circle cx="665.85" cy="95.42" r="2.70" style="stroke-width: 0.75;"/>
<circle cx="679.26" cy="92.91" r="2.70" style="stroke-width: 0.75;"/>
<circle cx="692.68" cy="91.53" r="2.70" style="stroke-width: 0.75;"/>
<circle cx="706.09" cy="91.02" r="2.70" style="stroke-width: 0.75;"/>
<circle cx="719.50" cy="91.08" r="2.70" style="stroke-width: 0.75;"/>
<circle cx="732.91" cy="91.41" r="2.70" style="stroke-width: 0.75;"/>
<circle cx="746.32" cy="91.84" r="2.70" style="stroke-width: 0.75;"/>
<circle cx="759.73" cy="92.37" r="2.70" style="stroke-width: 0.75;"/>
<circle cx="773.14" cy="93.10" r="2.70" style="stroke-width: 0.75;"/>
<circle cx="786.55" cy="94.11" r="2.70" style="stroke-width: 0.75;"/>
<circle cx="799.97" cy="94.10" r="2.70" style="stroke-width: 0.75;"/>
<circle cx="813.38" cy="94.10" r="2.70" style="stroke-width: 0.75;"/>
<circle cx="826.79" cy="94.10" r="2.70" style="stroke-width: 0.75;"/>
<circle cx="840.20" cy="94.10" r="2.70" style="stroke-width: 0.75;"/>
<circle cx="853.61" cy="94.10" r="2.70" style="stroke-width: 0.75;"/>
<circle cx="867.02" cy="94.10" r="2.70" style="stroke-width: 0.75;"/>
</g><g clip-path="url(#c2)">
<line x1="89.17" y1="585.60" x2="893.84" y2="585.60" style="stroke-width: 0.75;"/>
<line x1="89.17" y1="585.60" x2="89.17" y2="592.80" style="stroke-width: 0.75;"/>
<line x1="223.28" y1="585.60" x2="223.28" y2="592.80" style="stroke-width: 0.75;"/>
<line x1="357.39" y1="585.60" x2="357.39" y2="592.80" style="stroke-width: 0.75;"/>
<line x1="491.51" y1="585.60" x2="491.51" y2="592.80" style="stroke-width: 0.75;"/>
<line x1="625.62" y1="585.60" x2="625.62" y2="592.80" style="stroke-width: 0.75;"/>
<line x1="759.73" y1="585.60" x2="759.73" y2="592.80" style="stroke-width: 0.75;"/>
<line x1="893.84" y1="585.60" x2="893.84" y2="592.80" style="stroke-width: 0.75;"/>
<g><text x="89.17" y="611.52" text-anchor="middle" style="font-family: Arial;font-size: 13.20px;" textLength="7.34px" lengthAdjust="spacingAndGlyphs">0</text></g>
<g><text x="223.28" y="611.52" text-anchor="middle" style="font-family: Arial;font-size: 13.20px;" textLength="14.67px" lengthAdjust="spacingAndGlyphs">10</text></g>
<g><text x="357.39" y="611.52" text-anchor="middle" style="font-family: Arial;font-size: 13.20px;" textLength="14.67px" lengthAdjust="spacingAndGlyphs">20</text></g>
<g><text x="491.51" y="611.52" text-anchor="middle" style="font-family: Arial;font-size: 13.20px;" textLength="14.67px" lengthAdjust="spacingAndGlyphs">30</text></g>
<g><text x="625.62" y="611.52" text-anchor="middle" style="font-family: Arial;font-size: 13.20px;" textLength="14.67px" lengthAdjust="spacingAndGlyphs">40</text></g>
<g><text x="759.73" y="611.52" text-anchor="middle" style="font-family: Arial;font-size: 13.20px;" textLength="14.67px" lengthAdjust="spacingAndGlyphs">50</text></g>
<g><text x="893.84" y="611.52" text-anchor="middle" style="font-family: Arial;font-size: 13.20px;" textLength="14.67px" lengthAdjust="spacingAndGlyphs">60</text></g>
<line x1="72.00" y1="508.96" x2="72.00" y2="163.84" style="stroke-width: 0.75;"/>
<line x1="72.00" y1="508.96" x2="64.80" y2="508.96" style="stroke-width: 0.75;"/>
<line x1="72.00" y1="393.92" x2="64.80" y2="393.92" style="stroke-width: 0.75;"/>
<line x1="72.00" y1="278.88" x2="64.80" y2="278.88" style="stroke-width: 0.75;"/>
<line x1="72.00" y1="163.84" x2="64.80" y2="163.84" style="stroke-width: 0.75;"/>
<g><text transform="translate(54.72,508.96) rotate(-90.00)" text-anchor="middle" style="font-family: Arial;font-size: 13.20px;" textLength="25.68px" lengthAdjust="spacingAndGlyphs">1.00</text></g>
<g><text transform="translate(54.72,393.92) rotate(-90.00)" text-anchor="middle" style="font-family: Arial;font-size: 13.20px;" textLength="25.68px" lengthAdjust="spacingAndGlyphs">1.05</text></g>
<g><text transform="translate(54.72,278.88) rotate(-90.00)" text-anchor="middle" style="font-family: Arial;font-size: 13.20px;" textLength="25.68px" lengthAdjust="spacingAndGlyphs">1.10</text></g>
<g><text transform="translate(54.72,163.84) rotate(-90.00)" text-anchor="middle" style="font-family: Arial;font-size: 13.20px;" textLength="25.68px" lengthAdjust="spacingAndGlyphs">1.15</text></g>
<polygon points="72.00,585.60 897.60,585.60 897.60,72.00 72.00,72.00" style="stroke-width: 0.75;" />
<g><text x="484.80" y="43.34" text-anchor="middle" style="font-family: Arial;font-size: 20.40px;font-weight: bold;" textLength="514.40px" lengthAdjust="spacingAndGlyphs">HPO - Inverse Frequency Weighted Spline on alcohol</text></g>
<g><text x="484.80" y="640.32" text-anchor="middle" style="font-family: Arial;font-size: 18.00px;" textLength="15.01px" lengthAdjust="spacingAndGlyphs">df</text></g>
<g><text transform="translate(25.92,328.80) rotate(-90.00)" text-anchor="middle" style="font-family: Arial;font-size: 18.00px;" textLength="82.02px" lengthAdjust="spacingAndGlyphs">MSE Loss</text></g>
</g><g clip-path="url(#c3)">
<circle cx="102.58" cy="566.58" r="2.70" style="stroke-width: 0.75;stroke: #FF0000;fill: #FF0000;"/>
</g>
</svg>