<svg xmlns="http://www.w3.org/2000/svg" xmlns:xlink="http://www.w3.org/1999/xlink" class="httpgd" width="1176.00" height="840.00" viewBox="0 0 940.80 672.00">
<defs>
  <style type='text/css'><![CDATA[
    .httpgd line, .httpgd polyline, .httpgd polygon, .httpgd path, .httpgd rect, .httpgd circle {
      fill: none;
      stroke: #000000;
      stroke-linecap: round;
      stroke-linejoin: round;
      stroke-miterlimit: 10.00;
    }
  ]]></style>
<clipPath id="c0"><rect x="0.00" y="0.00" width="940.80" height="672.00"/></clipPath>
<clipPath id="c1"><rect x="72.00" y="72.00" width="825.60" height="513.60"/></clipPath>
<clipPath id="c2"><rect x="0.00" y="0.00" width="940.80" height="672.00"/></clipPath>
<clipPath id="c3"><rect x="72.00" y="72.00" width="825.60" height="513.60"/></clipPath>
</defs>
<rect width="100%" height="100%" style="stroke: none;fill: #FFFFFF;"/>
<g clip-path="url(#c0)">
</g><g clip-path="url(#c1)">
<line x1="104.21" y1="504.75" x2="112.18" y2="538.95" style="stroke-width: 0.75;"/>
<line x1="117.27" y1="552.28" x2="121.62" y2="560.26" style="stroke-width: 0.75;"/>
<line x1="128.28" y1="560.14" x2="133.08" y2="550.53" style="stroke-width: 0.75;"/>
<line x1="138.92" y1="537.39" x2="144.93" y2="522.00" style="stroke-width: 0.75;"/>
<line x1="150.06" y1="508.54" x2="156.27" y2="491.94" style="stroke-width: 0.75;"/>
<line x1="160.94" y1="478.32" x2="167.88" y2="456.11" style="stroke-width: 0.75;"/>
<line x1="171.88" y1="442.28" x2="179.42" y2="413.99" style="stroke-width: 0.75;"/>
<line x1="183.01" y1="400.04" x2="190.77" y2="368.97" style="stroke-width: 0.75;"/>
<line x1="194.29" y1="355.00" x2="201.98" y2="324.82" style="stroke-width: 0.75;"/>
<line x1="205.69" y1="310.91" x2="213.06" y2="284.55" style="stroke-width: 0.75;"/>
<line x1="217.22" y1="270.77" x2="224.01" y2="249.86" style="stroke-width: 0.75;"/>
<line x1="228.88" y1="236.31" x2="234.84" y2="221.20" style="stroke-width: 0.75;"/>
<line x1="240.65" y1="208.04" x2="245.55" y2="198.06" style="stroke-width: 0.75;"/>
<line x1="252.51" y1="185.48" x2="256.17" y2="179.56" style="stroke-width: 0.75;"/>
<line x1="264.39" y1="167.76" x2="266.78" y2="164.69" style="stroke-width: 0.75;"/>
<line x1="276.19" y1="153.81" x2="277.46" y2="152.48" style="stroke-width: 0.75;"/>
<line x1="287.90" y1="142.58" x2="288.23" y2="142.30" style="stroke-width: 0.75;"/>
<circle cx="102.58" cy="497.74" r="2.70" style="stroke-width: 0.75;"/>
<circle cx="113.82" cy="545.96" r="2.70" style="stroke-width: 0.75;"/>
<circle cx="125.06" cy="566.58" r="2.70" style="stroke-width: 0.75;"/>
<circle cx="136.30" cy="544.09" r="2.70" style="stroke-width: 0.75;"/>
<circle cx="147.55" cy="515.29" r="2.70" style="stroke-width: 0.75;"/>
<circle cx="158.79" cy="485.19" r="2.70" style="stroke-width: 0.75;"/>
<circle cx="170.03" cy="449.24" r="2.70" style="stroke-width: 0.75;"/>
<circle cx="181.27" cy="407.03" r="2.70" style="stroke-width: 0.75;"/>
<circle cx="192.51" cy="361.98" r="2.70" style="stroke-width: 0.75;"/>
<circle cx="203.75" cy="317.85" r="2.70" style="stroke-width: 0.75;"/>
<circle cx="215.00" cy="277.62" r="2.70" style="stroke-width: 0.75;"/>
<circle cx="226.24" cy="243.01" r="2.70" style="stroke-width: 0.75;"/>
<circle cx="237.48" cy="214.50" r="2.70" style="stroke-width: 0.75;"/>
<circle cx="248.72" cy="191.60" r="2.70" style="stroke-width: 0.75;"/>
<circle cx="259.96" cy="173.44" r="2.70" style="stroke-width: 0.75;"/>
<circle cx="271.21" cy="159.01" r="2.70" style="stroke-width: 0.75;"/>
<circle cx="282.45" cy="147.28" r="2.70" style="stroke-width: 0.75;"/>
<circle cx="293.69" cy="137.60" r="2.70" style="stroke-width: 0.75;"/>
<circle cx="304.93" cy="129.43" r="2.70" style="stroke-width: 0.75;"/>
<circle cx="316.17" cy="122.40" r="2.70" style="stroke-width: 0.75;"/>
<circle cx="327.41" cy="116.25" r="2.70" style="stroke-width: 0.75;"/>
<circle cx="338.66" cy="110.91" r="2.70" style="stroke-width: 0.75;"/>
<circle cx="349.90" cy="106.27" r="2.70" style="stroke-width: 0.75;"/>
<circle cx="361.14" cy="102.28" r="2.70" style="stroke-width: 0.75;"/>
<circle cx="372.38" cy="98.92" r="2.70" style="stroke-width: 0.75;"/>
<circle cx="383.62" cy="96.18" r="2.70" style="stroke-width: 0.75;"/>
<circle cx="394.87" cy="94.04" r="2.70" style="stroke-width: 0.75;"/>
<circle cx="406.11" cy="92.48" r="2.70" style="stroke-width: 0.75;"/>
<circle cx="417.35" cy="91.49" r="2.70" style="stroke-width: 0.75;"/>
<circle cx="428.59" cy="91.02" r="2.70" style="stroke-width: 0.75;"/>
<circle cx="439.83" cy="91.07" r="2.70" style="stroke-width: 0.75;"/>
<circle cx="451.07" cy="91.60" r="2.70" style="stroke-width: 0.75;"/>
<circle cx="462.32" cy="92.56" r="2.70" style="stroke-width: 0.75;"/>
<circle cx="473.56" cy="93.92" r="2.70" style="stroke-width: 0.75;"/>
<circle cx="484.80" cy="95.64" r="2.70" style="stroke-width: 0.75;"/>
<circle cx="496.04" cy="97.69" r="2.70" style="stroke-width: 0.75;"/>
<circle cx="507.28" cy="100.01" r="2.70" style="stroke-width: 0.75;"/>
<circle cx="518.53" cy="102.56" r="2.70" style="stroke-width: 0.75;"/>
<circle cx="529.77" cy="105.33" r="2.70" style="stroke-width: 0.75;"/>
<circle cx="541.01" cy="108.29" r="2.70" style="stroke-width: 0.75;"/>
<circle cx="552.25" cy="111.36" r="2.70" style="stroke-width: 0.75;"/>
<circle cx="563.49" cy="114.50" r="2.70" style="stroke-width: 0.75;"/>
<circle cx="574.73" cy="117.70" r="2.70" style="stroke-width: 0.75;"/>
<circle cx="585.98" cy="120.91" r="2.70" style="stroke-width: 0.75;"/>
<circle cx="597.22" cy="124.08" r="2.70" style="stroke-width: 0.75;"/>
<circle cx="608.46" cy="127.18" r="2.70" style="stroke-width: 0.75;"/>
<circle cx="619.70" cy="130.17" r="2.70" style="stroke-width: 0.75;"/>
<circle cx="630.94" cy="133.02" r="2.70" style="stroke-width: 0.75;"/>
<circle cx="642.19" cy="135.63" r="2.70" style="stroke-width: 0.75;"/>
<circle cx="653.43" cy="138.06" r="2.70" style="stroke-width: 0.75;"/>
<circle cx="664.67" cy="140.22" r="2.70" style="stroke-width: 0.75;"/>
<circle cx="675.91" cy="142.10" r="2.70" style="stroke-width: 0.75;"/>
<circle cx="687.15" cy="143.63" r="2.70" style="stroke-width: 0.75;"/>
<circle cx="698.39" cy="144.79" r="2.70" style="stroke-width: 0.75;"/>
<circle cx="709.64" cy="145.55" r="2.70" style="stroke-width: 0.75;"/>
<circle cx="720.88" cy="145.92" r="2.70" style="stroke-width: 0.75;"/>
<circle cx="732.12" cy="145.85" r="2.70" style="stroke-width: 0.75;"/>
<circle cx="743.36" cy="145.34" r="2.70" style="stroke-width: 0.75;"/>
<circle cx="754.60" cy="144.39" r="2.70" style="stroke-width: 0.75;"/>
<circle cx="765.85" cy="142.99" r="2.70" style="stroke-width: 0.75;"/>
<circle cx="777.09" cy="141.15" r="2.70" style="stroke-width: 0.75;"/>
<circle cx="788.33" cy="138.89" r="2.70" style="stroke-width: 0.75;"/>
<circle cx="799.57" cy="136.23" r="2.70" style="stroke-width: 0.75;"/>
<circle cx="810.81" cy="133.20" r="2.70" style="stroke-width: 0.75;"/>
<circle cx="822.05" cy="129.83" r="2.70" style="stroke-width: 0.75;"/>
<circle cx="833.30" cy="126.21" r="2.70" style="stroke-width: 0.75;"/>
<circle cx="844.54" cy="122.29" r="2.70" style="stroke-width: 0.75;"/>
<circle cx="855.78" cy="118.17" r="2.70" style="stroke-width: 0.75;"/>
<circle cx="867.02" cy="113.89" r="2.70" style="stroke-width: 0.75;"/>
</g><g clip-path="url(#c2)">
<line x1="91.34" y1="585.60" x2="878.26" y2="585.60" style="stroke-width: 0.75;"/>
<line x1="91.34" y1="585.60" x2="91.34" y2="592.80" style="stroke-width: 0.75;"/>
<line x1="203.75" y1="585.60" x2="203.75" y2="592.80" style="stroke-width: 0.75;"/>
<line x1="316.17" y1="585.60" x2="316.17" y2="592.80" style="stroke-width: 0.75;"/>
<line x1="428.59" y1="585.60" x2="428.59" y2="592.80" style="stroke-width: 0.75;"/>
<line x1="541.01" y1="585.60" x2="541.01" y2="592.80" style="stroke-width: 0.75;"/>
<line x1="653.43" y1="585.60" x2="653.43" y2="592.80" style="stroke-width: 0.75;"/>
<line x1="765.85" y1="585.60" x2="765.85" y2="592.80" style="stroke-width: 0.75;"/>
<line x1="878.26" y1="585.60" x2="878.26" y2="592.80" style="stroke-width: 0.75;"/>
<g><text x="91.34" y="611.52" text-anchor="middle" style="font-family: Arial;font-size: 13.20px;" textLength="7.34px" lengthAdjust="spacingAndGlyphs">0</text></g>
<g><text x="203.75" y="611.52" text-anchor="middle" style="font-family: Arial;font-size: 13.20px;" textLength="14.67px" lengthAdjust="spacingAndGlyphs">10</text></g>
<g><text x="316.17" y="611.52" text-anchor="middle" style="font-family: Arial;font-size: 13.20px;" textLength="14.67px" lengthAdjust="spacingAndGlyphs">20</text></g>
<g><text x="428.59" y="611.52" text-anchor="middle" style="font-family: Arial;font-size: 13.20px;" textLength="14.67px" lengthAdjust="spacingAndGlyphs">30</text></g>
<g><text x="541.01" y="611.52" text-anchor="middle" style="font-family: Arial;font-size: 13.20px;" textLength="14.67px" lengthAdjust="spacingAndGlyphs">40</text></g>
<g><text x="653.43" y="611.52" text-anchor="middle" style="font-family: Arial;font-size: 13.20px;" textLength="14.67px" lengthAdjust="spacingAndGlyphs">50</text></g>
<g><text x="765.85" y="611.52" text-anchor="middle" style="font-family: Arial;font-size: 13.20px;" textLength="14.67px" lengthAdjust="spacingAndGlyphs">60</text></g>
<g><text x="878.26" y="611.52" text-anchor="middle" style="font-family: Arial;font-size: 13.20px;" textLength="14.67px" lengthAdjust="spacingAndGlyphs">70</text></g>
<line x1="72.00" y1="543.02" x2="72.00" y2="83.64" style="stroke-width: 0.75;"/>
<line x1="72.00" y1="543.02" x2="64.80" y2="543.02" style="stroke-width: 0.75;"/>
<line x1="72.00" y1="428.17" x2="64.80" y2="428.17" style="stroke-width: 0.75;"/>
<line x1="72.00" y1="313.33" x2="64.80" y2="313.33" style="stroke-width: 0.75;"/>
<line x1="72.00" y1="198.48" x2="64.80" y2="198.48" style="stroke-width: 0.75;"/>
<line x1="72.00" y1="83.64" x2="64.80" y2="83.64" style="stroke-width: 0.75;"/>
<g><text transform="translate(54.72,543.02) rotate(-90.00)" text-anchor="middle" style="font-family: Arial;font-size: 13.20px;" textLength="25.68px" lengthAdjust="spacingAndGlyphs">1.85</text></g>
<g><text transform="translate(54.72,428.17) rotate(-90.00)" text-anchor="middle" style="font-family: Arial;font-size: 13.20px;" textLength="25.68px" lengthAdjust="spacingAndGlyphs">1.90</text></g>
<g><text transform="translate(54.72,313.33) rotate(-90.00)" text-anchor="middle" style="font-family: Arial;font-size: 13.20px;" textLength="25.68px" lengthAdjust="spacingAndGlyphs">1.95</text></g>
<g><text transform="translate(54.72,198.48) rotate(-90.00)" text-anchor="middle" style="font-family: Arial;font-size: 13.20px;" textLength="25.68px" lengthAdjust="spacingAndGlyphs">2.00</text></g>
<g><text transform="translate(54.72,83.64) rotate(-90.00)" text-anchor="middle" style="font-family: Arial;font-size: 13.20px;" textLength="25.68px" lengthAdjust="spacingAndGlyphs">2.05</text></g>
<polygon points="72.00,585.60 897.60,585.60 897.60,72.00 72.00,72.00" style="stroke-width: 0.75;" />
<g><text x="484.80" y="43.34" text-anchor="middle" style="font-family: Arial;font-size: 20.40px;font-weight: bold;" textLength="653.74px" lengthAdjust="spacingAndGlyphs">HPO - Weighted spline alcohol with balanced data (hybrid sampled)</text></g>
<g><text x="484.80" y="640.32" text-anchor="middle" style="font-family: Arial;font-size: 18.00px;" textLength="15.01px" lengthAdjust="spacingAndGlyphs">df</text></g>
<g><text transform="translate(25.92,328.80) rotate(-90.00)" text-anchor="middle" style="font-family: Arial;font-size: 18.00px;" textLength="82.02px" lengthAdjust="spacingAndGlyphs">MSE Loss</text></g>
</g><g clip-path="url(#c3)">
<circle cx="125.06" cy="566.58" r="2.70" style="stroke-width: 0.75;stroke: #FF0000;fill: #FF0000;"/>
</g>
</svg>