<svg xmlns="http://www.w3.org/2000/svg" xmlns:xlink="http://www.w3.org/1999/xlink" class="httpgd" width="1176.00" height="840.00" viewBox="0 0 940.80 672.00">
<defs>
  <style type='text/css'><![CDATA[
    .httpgd line, .httpgd polyline, .httpgd polygon, .httpgd path, .httpgd rect, .httpgd circle {
      fill: none;
      stroke: #000000;
      stroke-linecap: round;
      stroke-linejoin: round;
      stroke-miterlimit: 10.00;
    }
  ]]></style>
<clipPath id="c0"><rect x="0.00" y="0.00" width="940.80" height="672.00"/></clipPath>
<clipPath id="c1"><rect x="72.00" y="72.00" width="825.60" height="513.60"/></clipPath>
<clipPath id="c2"><rect x="0.00" y="0.00" width="940.80" height="672.00"/></clipPath>
</defs>
<rect width="100%" height="100%" style="stroke: none;fill: #FFFFFF;"/>
<g clip-path="url(#c0)">
</g><g clip-path="url(#c1)">
<line x1="105.23" y1="97.72" x2="176.37" y2="277.39" style="stroke-width: 0.75;"/>
<line x1="185.47" y1="287.30" x2="249.02" y2="318.99" style="stroke-width: 0.75;"/>
<line x1="261.01" y1="326.80" x2="326.36" y2="380.86" style="stroke-width: 0.75;"/>
<line x1="338.55" y1="388.24" x2="401.72" y2="414.75" style="stroke-width: 0.75;"/>
<line x1="414.16" y1="421.80" x2="479.00" y2="469.44" style="stroke-width: 0.75;"/>
<line x1="491.98" y1="474.28" x2="554.07" y2="479.27" style="stroke-width: 0.75;"/>
<line x1="567.97" y1="482.43" x2="630.97" y2="506.61" style="stroke-width: 0.75;"/>
<line x1="644.76" y1="510.53" x2="707.06" y2="522.35" style="stroke-width: 0.75;"/>
<line x1="721.01" y1="525.81" x2="783.70" y2="545.14" style="stroke-width: 0.75;"/>
<line x1="797.56" y1="549.02" x2="860.04" y2="564.81" style="stroke-width: 0.75;"/>
<circle cx="102.58" cy="91.02" r="2.70" style="stroke-width: 0.75;"/>
<circle cx="179.02" cy="284.09" r="2.70" style="stroke-width: 0.75;"/>
<circle cx="255.47" cy="322.21" r="2.70" style="stroke-width: 0.75;"/>
<circle cx="331.91" cy="385.45" r="2.70" style="stroke-width: 0.75;"/>
<circle cx="408.36" cy="417.54" r="2.70" style="stroke-width: 0.75;"/>
<circle cx="484.80" cy="473.70" r="2.70" style="stroke-width: 0.75;"/>
<circle cx="561.24" cy="479.85" r="2.70" style="stroke-width: 0.75;"/>
<circle cx="637.69" cy="509.19" r="2.70" style="stroke-width: 0.75;"/>
<circle cx="714.13" cy="523.69" r="2.70" style="stroke-width: 0.75;"/>
<circle cx="790.58" cy="547.26" r="2.70" style="stroke-width: 0.75;"/>
<circle cx="867.02" cy="566.58" r="2.70" style="stroke-width: 0.75;"/>
</g><g clip-path="url(#c2)">
<line x1="179.02" y1="585.60" x2="790.58" y2="585.60" style="stroke-width: 0.75;"/>
<line x1="179.02" y1="585.60" x2="179.02" y2="592.80" style="stroke-width: 0.75;"/>
<line x1="331.91" y1="585.60" x2="331.91" y2="592.80" style="stroke-width: 0.75;"/>
<line x1="484.80" y1="585.60" x2="484.80" y2="592.80" style="stroke-width: 0.75;"/>
<line x1="637.69" y1="585.60" x2="637.69" y2="592.80" style="stroke-width: 0.75;"/>
<line x1="790.58" y1="585.60" x2="790.58" y2="592.80" style="stroke-width: 0.75;"/>
<g><text x="179.02" y="611.52" text-anchor="middle" style="font-family: Arial;font-size: 13.20px;" textLength="7.34px" lengthAdjust="spacingAndGlyphs">2</text></g>
<g><text x="331.91" y="611.52" text-anchor="middle" style="font-family: Arial;font-size: 13.20px;" textLength="7.34px" lengthAdjust="spacingAndGlyphs">4</text></g>
<g><text x="484.80" y="611.52" text-anchor="middle" style="font-family: Arial;font-size: 13.20px;" textLength="7.34px" lengthAdjust="spacingAndGlyphs">6</text></g>
<g><text x="637.69" y="611.52" text-anchor="middle" style="font-family: Arial;font-size: 13.20px;" textLength="7.34px" lengthAdjust="spacingAndGlyphs">8</text></g>
<g><text x="790.58" y="611.52" text-anchor="middle" style="font-family: Arial;font-size: 13.20px;" textLength="14.67px" lengthAdjust="spacingAndGlyphs">10</text></g>
<line x1="72.00" y1="575.32" x2="72.00" y2="143.33" style="stroke-width: 0.75;"/>
<line x1="72.00" y1="575.32" x2="64.80" y2="575.32" style="stroke-width: 0.75;"/>
<line x1="72.00" y1="488.92" x2="64.80" y2="488.92" style="stroke-width: 0.75;"/>
<line x1="72.00" y1="402.52" x2="64.80" y2="402.52" style="stroke-width: 0.75;"/>
<line x1="72.00" y1="316.13" x2="64.80" y2="316.13" style="stroke-width: 0.75;"/>
<line x1="72.00" y1="229.73" x2="64.80" y2="229.73" style="stroke-width: 0.75;"/>
<line x1="72.00" y1="143.33" x2="64.80" y2="143.33" style="stroke-width: 0.75;"/>
<g><text transform="translate(54.72,575.32) rotate(-90.00)" text-anchor="middle" style="font-family: Arial;font-size: 13.20px;" textLength="25.68px" lengthAdjust="spacingAndGlyphs">0.00</text></g>
<g><text transform="translate(54.72,488.92) rotate(-90.00)" text-anchor="middle" style="font-family: Arial;font-size: 13.20px;" textLength="25.68px" lengthAdjust="spacingAndGlyphs">0.05</text></g>
<g><text transform="translate(54.72,402.52) rotate(-90.00)" text-anchor="middle" style="font-family: Arial;font-size: 13.20px;" textLength="25.68px" lengthAdjust="spacingAndGlyphs">0.10</text></g>
<g><text transform="translate(54.72,316.13) rotate(-90.00)" text-anchor="middle" style="font-family: Arial;font-size: 13.20px;" textLength="25.68px" lengthAdjust="spacingAndGlyphs">0.15</text></g>
<g><text transform="translate(54.72,229.73) rotate(-90.00)" text-anchor="middle" style="font-family: Arial;font-size: 13.20px;" textLength="25.68px" lengthAdjust="spacingAndGlyphs">0.20</text></g>
<g><text transform="translate(54.72,143.33) rotate(-90.00)" text-anchor="middle" style="font-family: Arial;font-size: 13.20px;" textLength="25.68px" lengthAdjust="spacingAndGlyphs">0.25</text></g>
<polygon points="72.00,585.60 897.60,585.60 897.60,72.00 72.00,72.00" style="stroke-width: 0.75;" />
<g><text x="484.80" y="43.34" text-anchor="middle" style="font-family: Arial;font-size: 20.40px;font-weight: bold;" textLength="187.01px" lengthAdjust="spacingAndGlyphs">Explained Variance</text></g>
<g><text x="484.80" y="640.32" text-anchor="middle" style="font-family: Arial;font-size: 18.00px;" textLength="167.06px" lengthAdjust="spacingAndGlyphs">Principal Component</text></g>
<g><text transform="translate(25.92,328.80) rotate(-90.00)" text-anchor="middle" style="font-family: Arial;font-size: 18.00px;" textLength="179.09px" lengthAdjust="spacingAndGlyphs">Proportion of Variance</text></g>
</g>
</svg>