<svg xmlns="http://www.w3.org/2000/svg" xmlns:xlink="http://www.w3.org/1999/xlink" class="httpgd" width="1176.00" height="840.00" viewBox="0 0 940.80 672.00">
<defs>
  <style type='text/css'><![CDATA[
    .httpgd line, .httpgd polyline, .httpgd polygon, .httpgd path, .httpgd rect, .httpgd circle {
      fill: none;
      stroke: #000000;
      stroke-linecap: round;
      stroke-linejoin: round;
      stroke-miterlimit: 10.00;
    }
  ]]></style>
<clipPath id="c0"><rect x="0.00" y="0.00" width="940.80" height="672.00"/></clipPath>
<clipPath id="c1"><rect x="72.00" y="72.00" width="825.60" height="513.60"/></clipPath>
<clipPath id="c2"><rect x="0.00" y="0.00" width="940.80" height="672.00"/></clipPath>
</defs>
<rect width="100%" height="100%" style="stroke: none;fill: #FFFFFF;"/>
<g clip-path="url(#c0)">
</g><g clip-path="url(#c1)">
<line x1="105.61" y1="97.55" x2="175.99" y2="248.91" style="stroke-width: 0.75;"/>
<line x1="184.61" y1="259.98" x2="249.88" y2="313.00" style="stroke-width: 0.75;"/>
<line x1="260.88" y1="322.30" x2="326.50" y2="379.96" style="stroke-width: 0.75;"/>
<line x1="338.12" y1="388.37" x2="402.15" y2="426.01" style="stroke-width: 0.75;"/>
<line x1="414.23" y1="433.83" x2="478.93" y2="479.79" style="stroke-width: 0.75;"/>
<line x1="491.49" y1="486.63" x2="554.55" y2="511.71" style="stroke-width: 0.75;"/>
<line x1="568.43" y1="514.80" x2="630.50" y2="518.48" style="stroke-width: 0.75;"/>
<line x1="644.78" y1="520.18" x2="707.05" y2="531.29" style="stroke-width: 0.75;"/>
<line x1="721.04" y1="534.58" x2="783.67" y2="552.94" style="stroke-width: 0.75;"/>
<line x1="797.70" y1="556.05" x2="859.90" y2="565.50" style="stroke-width: 0.75;"/>
<circle cx="102.58" cy="91.02" r="2.70" style="stroke-width: 0.75;"/>
<circle cx="179.02" cy="255.44" r="2.70" style="stroke-width: 0.75;"/>
<circle cx="255.47" cy="317.54" r="2.70" style="stroke-width: 0.75;"/>
<circle cx="331.91" cy="384.72" r="2.70" style="stroke-width: 0.75;"/>
<circle cx="408.36" cy="429.66" r="2.70" style="stroke-width: 0.75;"/>
<circle cx="484.80" cy="483.96" r="2.70" style="stroke-width: 0.75;"/>
<circle cx="561.24" cy="514.37" r="2.70" style="stroke-width: 0.75;"/>
<circle cx="637.69" cy="518.91" r="2.70" style="stroke-width: 0.75;"/>
<circle cx="714.13" cy="532.55" r="2.70" style="stroke-width: 0.75;"/>
<circle cx="790.58" cy="554.97" r="2.70" style="stroke-width: 0.75;"/>
<circle cx="867.02" cy="566.58" r="2.70" style="stroke-width: 0.75;"/>
</g><g clip-path="url(#c2)">
<line x1="179.02" y1="585.60" x2="790.58" y2="585.60" style="stroke-width: 0.75;"/>
<line x1="179.02" y1="585.60" x2="179.02" y2="592.80" style="stroke-width: 0.75;"/>
<line x1="331.91" y1="585.60" x2="331.91" y2="592.80" style="stroke-width: 0.75;"/>
<line x1="484.80" y1="585.60" x2="484.80" y2="592.80" style="stroke-width: 0.75;"/>
<line x1="637.69" y1="585.60" x2="637.69" y2="592.80" style="stroke-width: 0.75;"/>
<line x1="790.58" y1="585.60" x2="790.58" y2="592.80" style="stroke-width: 0.75;"/>
<g><text x="179.02" y="611.52" text-anchor="middle" style="font-family: Arial;font-size: 13.20px;" textLength="7.34px" lengthAdjust="spacingAndGlyphs">2</text></g>
<g><text x="331.91" y="611.52" text-anchor="middle" style="font-family: Arial;font-size: 13.20px;" textLength="7.34px" lengthAdjust="spacingAndGlyphs">4</text></g>
<g><text x="484.80" y="611.52" text-anchor="middle" style="font-family: Arial;font-size: 13.20px;" textLength="7.34px" lengthAdjust="spacingAndGlyphs">6</text></g>
<g><text x="637.69" y="611.52" text-anchor="middle" style="font-family: Arial;font-size: 13.20px;" textLength="7.34px" lengthAdjust="spacingAndGlyphs">8</text></g>
<g><text x="790.58" y="611.52" text-anchor="middle" style="font-family: Arial;font-size: 13.20px;" textLength="14.67px" lengthAdjust="spacingAndGlyphs">10</text></g>
<line x1="72.00" y1="575.45" x2="72.00" y2="155.41" style="stroke-width: 0.75;"/>
<line x1="72.00" y1="575.45" x2="64.80" y2="575.45" style="stroke-width: 0.75;"/>
<line x1="72.00" y1="491.44" x2="64.80" y2="491.44" style="stroke-width: 0.75;"/>
<line x1="72.00" y1="407.43" x2="64.80" y2="407.43" style="stroke-width: 0.75;"/>
<line x1="72.00" y1="323.42" x2="64.80" y2="323.42" style="stroke-width: 0.75;"/>
<line x1="72.00" y1="239.41" x2="64.80" y2="239.41" style="stroke-width: 0.75;"/>
<line x1="72.00" y1="155.41" x2="64.80" y2="155.41" style="stroke-width: 0.75;"/>
<g><text transform="translate(54.72,575.45) rotate(-90.00)" text-anchor="middle" style="font-family: Arial;font-size: 13.20px;" textLength="25.68px" lengthAdjust="spacingAndGlyphs">0.00</text></g>
<g><text transform="translate(54.72,491.44) rotate(-90.00)" text-anchor="middle" style="font-family: Arial;font-size: 13.20px;" textLength="25.68px" lengthAdjust="spacingAndGlyphs">0.05</text></g>
<g><text transform="translate(54.72,407.43) rotate(-90.00)" text-anchor="middle" style="font-family: Arial;font-size: 13.20px;" textLength="25.68px" lengthAdjust="spacingAndGlyphs">0.10</text></g>
<g><text transform="translate(54.72,323.42) rotate(-90.00)" text-anchor="middle" style="font-family: Arial;font-size: 13.20px;" textLength="25.68px" lengthAdjust="spacingAndGlyphs">0.15</text></g>
<g><text transform="translate(54.72,239.41) rotate(-90.00)" text-anchor="middle" style="font-family: Arial;font-size: 13.20px;" textLength="25.68px" lengthAdjust="spacingAndGlyphs">0.20</text></g>
<g><text transform="translate(54.72,155.41) rotate(-90.00)" text-anchor="middle" style="font-family: Arial;font-size: 13.20px;" textLength="25.68px" lengthAdjust="spacingAndGlyphs">0.25</text></g>
<polygon points="72.00,585.60 897.60,585.60 897.60,72.00 72.00,72.00" style="stroke-width: 0.75;" />
<g><text x="484.80" y="43.34" text-anchor="middle" style="font-family: Arial;font-size: 20.40px;font-weight: bold;" textLength="187.01px" lengthAdjust="spacingAndGlyphs">Explained Variance</text></g>
<g><text x="484.80" y="640.32" text-anchor="middle" style="font-family: Arial;font-size: 18.00px;" textLength="167.06px" lengthAdjust="spacingAndGlyphs">Principal Component</text></g>
<g><text transform="translate(25.92,328.80) rotate(-90.00)" text-anchor="middle" style="font-family: Arial;font-size: 18.00px;" textLength="179.09px" lengthAdjust="spacingAndGlyphs">Proportion of Variance</text></g>
</g>
</svg>