<svg xmlns="http://www.w3.org/2000/svg" xmlns:xlink="http://www.w3.org/1999/xlink" class="httpgd" width="1176.00" height="840.00" viewBox="0 0 940.80 672.00">
<defs>
  <style type='text/css'><![CDATA[
    .httpgd line, .httpgd polyline, .httpgd polygon, .httpgd path, .httpgd rect, .httpgd circle {
      fill: none;
      stroke: #000000;
      stroke-linecap: round;
      stroke-linejoin: round;
      stroke-miterlimit: 10.00;
    }
  ]]></style>
<clipPath id="c0"><rect x="0.00" y="0.00" width="940.80" height="672.00"/></clipPath>
<clipPath id="c1"><rect x="72.00" y="72.00" width="825.60" height="513.60"/></clipPath>
<clipPath id="c2"><rect x="0.00" y="0.00" width="940.80" height="672.00"/></clipPath>
<clipPath id="c3"><rect x="72.00" y="72.00" width="825.60" height="513.60"/></clipPath>
</defs>
<rect width="100%" height="100%" style="stroke: none;fill: #FFFFFF;"/>
<g clip-path="url(#c0)">
</g><g clip-path="url(#c1)">
<line x1="105.75" y1="560.11" x2="110.65" y2="550.12" style="stroke-width: 0.75;"/>
<line x1="115.10" y1="536.57" x2="123.78" y2="488.47" style="stroke-width: 0.75;"/>
<line x1="126.54" y1="474.34" x2="134.83" y2="434.75" style="stroke-width: 0.75;"/>
<line x1="138.20" y1="420.76" x2="145.65" y2="393.40" style="stroke-width: 0.75;"/>
<line x1="149.76" y1="379.60" x2="156.57" y2="358.51" style="stroke-width: 0.75;"/>
<line x1="161.22" y1="344.88" x2="167.59" y2="327.19" style="stroke-width: 0.75;"/>
<line x1="172.78" y1="313.76" x2="178.52" y2="299.85" style="stroke-width: 0.75;"/>
<line x1="184.54" y1="286.77" x2="189.25" y2="277.52" style="stroke-width: 0.75;"/>
<line x1="196.47" y1="265.08" x2="199.80" y2="260.03" style="stroke-width: 0.75;"/>
<line x1="208.51" y1="248.61" x2="210.24" y2="246.66" style="stroke-width: 0.75;"/>
<line x1="220.56" y1="236.68" x2="220.68" y2="236.59" style="stroke-width: 0.75;"/>
<circle cx="102.58" cy="566.58" r="2.70" style="stroke-width: 0.75;"/>
<circle cx="113.82" cy="543.66" r="2.70" style="stroke-width: 0.75;"/>
<circle cx="125.06" cy="481.38" r="2.70" style="stroke-width: 0.75;"/>
<circle cx="136.30" cy="427.71" r="2.70" style="stroke-width: 0.75;"/>
<circle cx="147.55" cy="386.45" r="2.70" style="stroke-width: 0.75;"/>
<circle cx="158.79" cy="351.66" r="2.70" style="stroke-width: 0.75;"/>
<circle cx="170.03" cy="320.42" r="2.70" style="stroke-width: 0.75;"/>
<circle cx="181.27" cy="293.19" r="2.70" style="stroke-width: 0.75;"/>
<circle cx="192.51" cy="271.10" r="2.70" style="stroke-width: 0.75;"/>
<circle cx="203.75" cy="254.01" r="2.70" style="stroke-width: 0.75;"/>
<circle cx="215.00" cy="241.25" r="2.70" style="stroke-width: 0.75;"/>
<circle cx="226.24" cy="232.01" r="2.70" style="stroke-width: 0.75;"/>
<circle cx="237.48" cy="225.48" r="2.70" style="stroke-width: 0.75;"/>
<circle cx="248.72" cy="221.09" r="2.70" style="stroke-width: 0.75;"/>
<circle cx="259.96" cy="218.48" r="2.70" style="stroke-width: 0.75;"/>
<circle cx="271.21" cy="217.35" r="2.70" style="stroke-width: 0.75;"/>
<circle cx="282.45" cy="217.43" r="2.70" style="stroke-width: 0.75;"/>
<circle cx="293.69" cy="218.42" r="2.70" style="stroke-width: 0.75;"/>
<circle cx="304.93" cy="220.04" r="2.70" style="stroke-width: 0.75;"/>
<circle cx="316.17" cy="222.01" r="2.70" style="stroke-width: 0.75;"/>
<circle cx="327.41" cy="224.07" r="2.70" style="stroke-width: 0.75;"/>
<circle cx="338.66" cy="226.03" r="2.70" style="stroke-width: 0.75;"/>
<circle cx="349.90" cy="227.76" r="2.70" style="stroke-width: 0.75;"/>
<circle cx="361.14" cy="229.17" r="2.70" style="stroke-width: 0.75;"/>
<circle cx="372.38" cy="230.21" r="2.70" style="stroke-width: 0.75;"/>
<circle cx="383.62" cy="230.84" r="2.70" style="stroke-width: 0.75;"/>
<circle cx="394.87" cy="231.08" r="2.70" style="stroke-width: 0.75;"/>
<circle cx="406.11" cy="230.94" r="2.70" style="stroke-width: 0.75;"/>
<circle cx="417.35" cy="230.45" r="2.70" style="stroke-width: 0.75;"/>
<circle cx="428.59" cy="229.64" r="2.70" style="stroke-width: 0.75;"/>
<circle cx="439.83" cy="228.54" r="2.70" style="stroke-width: 0.75;"/>
<circle cx="451.07" cy="227.19" r="2.70" style="stroke-width: 0.75;"/>
<circle cx="462.32" cy="225.59" r="2.70" style="stroke-width: 0.75;"/>
<circle cx="473.56" cy="223.78" r="2.70" style="stroke-width: 0.75;"/>
<circle cx="484.80" cy="221.77" r="2.70" style="stroke-width: 0.75;"/>
<circle cx="496.04" cy="219.59" r="2.70" style="stroke-width: 0.75;"/>
<circle cx="507.28" cy="217.25" r="2.70" style="stroke-width: 0.75;"/>
<circle cx="518.53" cy="214.74" r="2.70" style="stroke-width: 0.75;"/>
<circle cx="529.77" cy="212.12" r="2.70" style="stroke-width: 0.75;"/>
<circle cx="541.01" cy="209.40" r="2.70" style="stroke-width: 0.75;"/>
<circle cx="552.25" cy="206.51" r="2.70" style="stroke-width: 0.75;"/>
<circle cx="563.49" cy="203.53" r="2.70" style="stroke-width: 0.75;"/>
<circle cx="574.73" cy="200.46" r="2.70" style="stroke-width: 0.75;"/>
<circle cx="585.98" cy="197.29" r="2.70" style="stroke-width: 0.75;"/>
<circle cx="597.22" cy="194.02" r="2.70" style="stroke-width: 0.75;"/>
<circle cx="608.46" cy="190.67" r="2.70" style="stroke-width: 0.75;"/>
<circle cx="619.70" cy="187.24" r="2.70" style="stroke-width: 0.75;"/>
<circle cx="630.94" cy="183.77" r="2.70" style="stroke-width: 0.75;"/>
<circle cx="642.19" cy="180.12" r="2.70" style="stroke-width: 0.75;"/>
<circle cx="653.43" cy="176.45" r="2.70" style="stroke-width: 0.75;"/>
<circle cx="664.67" cy="172.73" r="2.70" style="stroke-width: 0.75;"/>
<circle cx="675.91" cy="168.88" r="2.70" style="stroke-width: 0.75;"/>
<circle cx="687.15" cy="164.92" r="2.70" style="stroke-width: 0.75;"/>
<circle cx="698.39" cy="160.91" r="2.70" style="stroke-width: 0.75;"/>
<circle cx="709.64" cy="156.83" r="2.70" style="stroke-width: 0.75;"/>
<circle cx="720.88" cy="152.66" r="2.70" style="stroke-width: 0.75;"/>
<circle cx="732.12" cy="148.42" r="2.70" style="stroke-width: 0.75;"/>
<circle cx="743.36" cy="144.10" r="2.70" style="stroke-width: 0.75;"/>
<circle cx="754.60" cy="139.69" r="2.70" style="stroke-width: 0.75;"/>
<circle cx="765.85" cy="135.20" r="2.70" style="stroke-width: 0.75;"/>
<circle cx="777.09" cy="130.63" r="2.70" style="stroke-width: 0.75;"/>
<circle cx="788.33" cy="125.98" r="2.70" style="stroke-width: 0.75;"/>
<circle cx="799.57" cy="121.25" r="2.70" style="stroke-width: 0.75;"/>
<circle cx="810.81" cy="116.42" r="2.70" style="stroke-width: 0.75;"/>
<circle cx="822.05" cy="111.60" r="2.70" style="stroke-width: 0.75;"/>
<circle cx="833.30" cy="106.53" r="2.70" style="stroke-width: 0.75;"/>
<circle cx="844.54" cy="101.45" r="2.70" style="stroke-width: 0.75;"/>
<circle cx="855.78" cy="96.28" r="2.70" style="stroke-width: 0.75;"/>
<circle cx="867.02" cy="91.02" r="2.70" style="stroke-width: 0.75;"/>
</g><g clip-path="url(#c2)">
<line x1="91.34" y1="585.60" x2="878.26" y2="585.60" style="stroke-width: 0.75;"/>
<line x1="91.34" y1="585.60" x2="91.34" y2="592.80" style="stroke-width: 0.75;"/>
<line x1="203.75" y1="585.60" x2="203.75" y2="592.80" style="stroke-width: 0.75;"/>
<line x1="316.17" y1="585.60" x2="316.17" y2="592.80" style="stroke-width: 0.75;"/>
<line x1="428.59" y1="585.60" x2="428.59" y2="592.80" style="stroke-width: 0.75;"/>
<line x1="541.01" y1="585.60" x2="541.01" y2="592.80" style="stroke-width: 0.75;"/>
<line x1="653.43" y1="585.60" x2="653.43" y2="592.80" style="stroke-width: 0.75;"/>
<line x1="765.85" y1="585.60" x2="765.85" y2="592.80" style="stroke-width: 0.75;"/>
<line x1="878.26" y1="585.60" x2="878.26" y2="592.80" style="stroke-width: 0.75;"/>
<g><text x="91.34" y="611.52" text-anchor="middle" style="font-family: Arial;font-size: 13.20px;" textLength="7.34px" lengthAdjust="spacingAndGlyphs">0</text></g>
<g><text x="203.75" y="611.52" text-anchor="middle" style="font-family: Arial;font-size: 13.20px;" textLength="14.67px" lengthAdjust="spacingAndGlyphs">10</text></g>
<g><text x="316.17" y="611.52" text-anchor="middle" style="font-family: Arial;font-size: 13.20px;" textLength="14.67px" lengthAdjust="spacingAndGlyphs">20</text></g>
<g><text x="428.59" y="611.52" text-anchor="middle" style="font-family: Arial;font-size: 13.20px;" textLength="14.67px" lengthAdjust="spacingAndGlyphs">30</text></g>
<g><text x="541.01" y="611.52" text-anchor="middle" style="font-family: Arial;font-size: 13.20px;" textLength="14.67px" lengthAdjust="spacingAndGlyphs">40</text></g>
<g><text x="653.43" y="611.52" text-anchor="middle" style="font-family: Arial;font-size: 13.20px;" textLength="14.67px" lengthAdjust="spacingAndGlyphs">50</text></g>
<g><text x="765.85" y="611.52" text-anchor="middle" style="font-family: Arial;font-size: 13.20px;" textLength="14.67px" lengthAdjust="spacingAndGlyphs">60</text></g>
<g><text x="878.26" y="611.52" text-anchor="middle" style="font-family: Arial;font-size: 13.20px;" textLength="14.67px" lengthAdjust="spacingAndGlyphs">70</text></g>
<line x1="72.00" y1="527.47" x2="72.00" y2="142.12" style="stroke-width: 0.75;"/>
<line x1="72.00" y1="527.47" x2="64.80" y2="527.47" style="stroke-width: 0.75;"/>
<line x1="72.00" y1="450.40" x2="64.80" y2="450.40" style="stroke-width: 0.75;"/>
<line x1="72.00" y1="373.33" x2="64.80" y2="373.33" style="stroke-width: 0.75;"/>
<line x1="72.00" y1="296.26" x2="64.80" y2="296.26" style="stroke-width: 0.75;"/>
<line x1="72.00" y1="219.19" x2="64.80" y2="219.19" style="stroke-width: 0.75;"/>
<line x1="72.00" y1="142.12" x2="64.80" y2="142.12" style="stroke-width: 0.75;"/>
<g><text transform="translate(54.72,527.47) rotate(-90.00)" text-anchor="middle" style="font-family: Arial;font-size: 13.20px;" textLength="18.34px" lengthAdjust="spacingAndGlyphs">2.3</text></g>
<g><text transform="translate(54.72,450.40) rotate(-90.00)" text-anchor="middle" style="font-family: Arial;font-size: 13.20px;" textLength="18.34px" lengthAdjust="spacingAndGlyphs">2.4</text></g>
<g><text transform="translate(54.72,373.33) rotate(-90.00)" text-anchor="middle" style="font-family: Arial;font-size: 13.20px;" textLength="18.34px" lengthAdjust="spacingAndGlyphs">2.5</text></g>
<g><text transform="translate(54.72,296.26) rotate(-90.00)" text-anchor="middle" style="font-family: Arial;font-size: 13.20px;" textLength="18.34px" lengthAdjust="spacingAndGlyphs">2.6</text></g>
<g><text transform="translate(54.72,219.19) rotate(-90.00)" text-anchor="middle" style="font-family: Arial;font-size: 13.20px;" textLength="18.34px" lengthAdjust="spacingAndGlyphs">2.7</text></g>
<g><text transform="translate(54.72,142.12) rotate(-90.00)" text-anchor="middle" style="font-family: Arial;font-size: 13.20px;" textLength="18.34px" lengthAdjust="spacingAndGlyphs">2.8</text></g>
<polygon points="72.00,585.60 897.60,585.60 897.60,72.00 72.00,72.00" style="stroke-width: 0.75;" />
<g><text x="484.80" y="43.34" text-anchor="middle" style="font-family: Arial;font-size: 20.40px;font-weight: bold;" textLength="589.17px" lengthAdjust="spacingAndGlyphs">HPO - Spline on density with balanced data (hybrid sampled)</text></g>
<g><text x="484.80" y="640.32" text-anchor="middle" style="font-family: Arial;font-size: 18.00px;" textLength="15.01px" lengthAdjust="spacingAndGlyphs">df</text></g>
<g><text transform="translate(25.92,328.80) rotate(-90.00)" text-anchor="middle" style="font-family: Arial;font-size: 18.00px;" textLength="82.02px" lengthAdjust="spacingAndGlyphs">MSE Loss</text></g>
</g><g clip-path="url(#c3)">
<circle cx="102.58" cy="566.58" r="2.70" style="stroke-width: 0.75;stroke: #FF0000;fill: #FF0000;"/>
</g>
</svg>