<svg xmlns="http://www.w3.org/2000/svg" xmlns:xlink="http://www.w3.org/1999/xlink" class="httpgd" width="1176.00" height="840.00" viewBox="0 0 940.80 672.00">
<defs>
  <style type='text/css'><![CDATA[
    .httpgd line, .httpgd polyline, .httpgd polygon, .httpgd path, .httpgd rect, .httpgd circle {
      fill: none;
      stroke: #000000;
      stroke-linecap: round;
      stroke-linejoin: round;
      stroke-miterlimit: 10.00;
    }
  ]]></style>
<clipPath id="c0"><rect x="0.00" y="0.00" width="940.80" height="672.00"/></clipPath>
<clipPath id="c1"><rect x="72.00" y="72.00" width="825.60" height="513.60"/></clipPath>
<clipPath id="c2"><rect x="0.00" y="0.00" width="940.80" height="672.00"/></clipPath>
<clipPath id="c3"><rect x="72.00" y="72.00" width="825.60" height="513.60"/></clipPath>
</defs>
<rect width="100%" height="100%" style="stroke: none;fill: #FFFFFF;"/>
<g clip-path="url(#c0)">
</g><g clip-path="url(#c1)">
<line x1="103.91" y1="514.01" x2="112.49" y2="559.50" style="stroke-width: 0.75;"/>
<line x1="118.13" y1="560.81" x2="120.75" y2="557.30" style="stroke-width: 0.75;"/>
<line x1="128.23" y1="545.07" x2="133.13" y2="535.07" style="stroke-width: 0.75;"/>
<line x1="140.03" y1="522.44" x2="143.82" y2="516.20" style="stroke-width: 0.75;"/>
<line x1="153.14" y1="505.51" x2="153.19" y2="505.47" style="stroke-width: 0.75;"/>
<line x1="445.36" y1="477.77" x2="445.54" y2="477.62" style="stroke-width: 0.75;"/>
<line x1="456.37" y1="468.13" x2="457.02" y2="467.54" style="stroke-width: 0.75;"/>
<line x1="467.45" y1="457.61" x2="468.43" y2="456.65" style="stroke-width: 0.75;"/>
<line x1="478.57" y1="446.43" x2="479.79" y2="445.17" style="stroke-width: 0.75;"/>
<line x1="489.63" y1="434.66" x2="491.21" y2="432.92" style="stroke-width: 0.75;"/>
<line x1="500.83" y1="422.20" x2="502.50" y2="420.32" style="stroke-width: 0.75;"/>
<line x1="512.00" y1="409.51" x2="513.80" y2="407.43" style="stroke-width: 0.75;"/>
<line x1="523.21" y1="396.53" x2="525.08" y2="394.36" style="stroke-width: 0.75;"/>
<line x1="534.45" y1="383.42" x2="536.33" y2="381.23" style="stroke-width: 0.75;"/>
<line x1="545.70" y1="370.29" x2="547.56" y2="368.11" style="stroke-width: 0.75;"/>
<line x1="556.97" y1="357.21" x2="558.77" y2="355.14" style="stroke-width: 0.75;"/>
<line x1="568.27" y1="344.32" x2="569.96" y2="342.41" style="stroke-width: 0.75;"/>
<line x1="579.51" y1="331.63" x2="581.20" y2="329.72" style="stroke-width: 0.75;"/>
<line x1="590.83" y1="319.01" x2="592.36" y2="317.34" style="stroke-width: 0.75;"/>
<line x1="602.17" y1="306.80" x2="603.51" y2="305.39" style="stroke-width: 0.75;"/>
<line x1="613.45" y1="294.97" x2="614.72" y2="293.65" style="stroke-width: 0.75;"/>
<line x1="624.72" y1="283.30" x2="625.92" y2="282.07" style="stroke-width: 0.75;"/>
<line x1="636.07" y1="271.86" x2="637.06" y2="270.88" style="stroke-width: 0.75;"/>
<line x1="647.38" y1="260.84" x2="648.23" y2="260.03" style="stroke-width: 0.75;"/>
<line x1="658.69" y1="250.13" x2="659.40" y2="249.47" style="stroke-width: 0.75;"/>
<line x1="670.00" y1="239.72" x2="670.58" y2="239.20" style="stroke-width: 0.75;"/>
<line x1="681.31" y1="229.61" x2="681.75" y2="229.22" style="stroke-width: 0.75;"/>
<line x1="692.62" y1="219.77" x2="692.93" y2="219.50" style="stroke-width: 0.75;"/>
<line x1="703.95" y1="210.23" x2="704.08" y2="210.12" style="stroke-width: 0.75;"/>
<line x1="715.22" y1="200.98" x2="715.30" y2="200.92" style="stroke-width: 0.75;"/>
<line x1="726.49" y1="191.86" x2="726.51" y2="191.84" style="stroke-width: 0.75;"/>
<circle cx="102.58" cy="506.94" r="2.70" style="stroke-width: 0.75;"/>
<circle cx="113.82" cy="566.58" r="2.70" style="stroke-width: 0.75;"/>
<circle cx="125.06" cy="551.53" r="2.70" style="stroke-width: 0.75;"/>
<circle cx="136.30" cy="528.60" r="2.70" style="stroke-width: 0.75;"/>
<circle cx="147.55" cy="510.04" r="2.70" style="stroke-width: 0.75;"/>
<circle cx="158.79" cy="500.94" r="2.70" style="stroke-width: 0.75;"/>
<circle cx="170.03" cy="500.94" r="2.70" style="stroke-width: 0.75;"/>
<circle cx="181.27" cy="506.58" r="2.70" style="stroke-width: 0.75;"/>
<circle cx="192.51" cy="514.21" r="2.70" style="stroke-width: 0.75;"/>
<circle cx="203.75" cy="521.17" r="2.70" style="stroke-width: 0.75;"/>
<circle cx="215.00" cy="526.26" r="2.70" style="stroke-width: 0.75;"/>
<circle cx="226.24" cy="529.35" r="2.70" style="stroke-width: 0.75;"/>
<circle cx="237.48" cy="530.84" r="2.70" style="stroke-width: 0.75;"/>
<circle cx="248.72" cy="531.22" r="2.70" style="stroke-width: 0.75;"/>
<circle cx="259.96" cy="530.93" r="2.70" style="stroke-width: 0.75;"/>
<circle cx="271.21" cy="530.26" r="2.70" style="stroke-width: 0.75;"/>
<circle cx="282.45" cy="529.40" r="2.70" style="stroke-width: 0.75;"/>
<circle cx="293.69" cy="528.45" r="2.70" style="stroke-width: 0.75;"/>
<circle cx="304.93" cy="527.47" r="2.70" style="stroke-width: 0.75;"/>
<circle cx="316.17" cy="526.44" r="2.70" style="stroke-width: 0.75;"/>
<circle cx="327.41" cy="525.30" r="2.70" style="stroke-width: 0.75;"/>
<circle cx="338.66" cy="523.96" r="2.70" style="stroke-width: 0.75;"/>
<circle cx="349.90" cy="522.31" r="2.70" style="stroke-width: 0.75;"/>
<circle cx="361.14" cy="520.22" r="2.70" style="stroke-width: 0.75;"/>
<circle cx="372.38" cy="517.49" r="2.70" style="stroke-width: 0.75;"/>
<circle cx="383.62" cy="514.02" r="2.70" style="stroke-width: 0.75;"/>
<circle cx="394.87" cy="509.69" r="2.70" style="stroke-width: 0.75;"/>
<circle cx="406.11" cy="504.39" r="2.70" style="stroke-width: 0.75;"/>
<circle cx="417.35" cy="498.12" r="2.70" style="stroke-width: 0.75;"/>
<circle cx="428.59" cy="490.77" r="2.70" style="stroke-width: 0.75;"/>
<circle cx="439.83" cy="482.38" r="2.70" style="stroke-width: 0.75;"/>
<circle cx="451.07" cy="473.01" r="2.70" style="stroke-width: 0.75;"/>
<circle cx="462.32" cy="462.66" r="2.70" style="stroke-width: 0.75;"/>
<circle cx="473.56" cy="451.60" r="2.70" style="stroke-width: 0.75;"/>
<circle cx="484.80" cy="439.99" r="2.70" style="stroke-width: 0.75;"/>
<circle cx="496.04" cy="427.58" r="2.70" style="stroke-width: 0.75;"/>
<circle cx="507.28" cy="414.94" r="2.70" style="stroke-width: 0.75;"/>
<circle cx="518.53" cy="402.00" r="2.70" style="stroke-width: 0.75;"/>
<circle cx="529.77" cy="388.90" r="2.70" style="stroke-width: 0.75;"/>
<circle cx="541.01" cy="375.75" r="2.70" style="stroke-width: 0.75;"/>
<circle cx="552.25" cy="362.65" r="2.70" style="stroke-width: 0.75;"/>
<circle cx="563.49" cy="349.70" r="2.70" style="stroke-width: 0.75;"/>
<circle cx="574.73" cy="337.03" r="2.70" style="stroke-width: 0.75;"/>
<circle cx="585.98" cy="324.32" r="2.70" style="stroke-width: 0.75;"/>
<circle cx="597.22" cy="312.02" r="2.70" style="stroke-width: 0.75;"/>
<circle cx="608.46" cy="300.17" r="2.70" style="stroke-width: 0.75;"/>
<circle cx="619.70" cy="288.46" r="2.70" style="stroke-width: 0.75;"/>
<circle cx="630.94" cy="276.91" r="2.70" style="stroke-width: 0.75;"/>
<circle cx="642.19" cy="265.82" r="2.70" style="stroke-width: 0.75;"/>
<circle cx="653.43" cy="255.04" r="2.70" style="stroke-width: 0.75;"/>
<circle cx="664.67" cy="244.56" r="2.70" style="stroke-width: 0.75;"/>
<circle cx="675.91" cy="234.37" r="2.70" style="stroke-width: 0.75;"/>
<circle cx="687.15" cy="224.45" r="2.70" style="stroke-width: 0.75;"/>
<circle cx="698.39" cy="214.81" r="2.70" style="stroke-width: 0.75;"/>
<circle cx="709.64" cy="205.53" r="2.70" style="stroke-width: 0.75;"/>
<circle cx="720.88" cy="196.37" r="2.70" style="stroke-width: 0.75;"/>
<circle cx="732.12" cy="187.33" r="2.70" style="stroke-width: 0.75;"/>
<circle cx="743.36" cy="178.61" r="2.70" style="stroke-width: 0.75;"/>
<circle cx="754.60" cy="170.07" r="2.70" style="stroke-width: 0.75;"/>
<circle cx="765.85" cy="161.83" r="2.70" style="stroke-width: 0.75;"/>
<circle cx="777.09" cy="153.52" r="2.70" style="stroke-width: 0.75;"/>
<circle cx="788.33" cy="145.44" r="2.70" style="stroke-width: 0.75;"/>
<circle cx="799.57" cy="137.60" r="2.70" style="stroke-width: 0.75;"/>
<circle cx="810.81" cy="129.64" r="2.70" style="stroke-width: 0.75;"/>
<circle cx="822.05" cy="121.86" r="2.70" style="stroke-width: 0.75;"/>
<circle cx="833.30" cy="114.13" r="2.70" style="stroke-width: 0.75;"/>
<circle cx="844.54" cy="106.52" r="2.70" style="stroke-width: 0.75;"/>
<circle cx="855.78" cy="98.84" r="2.70" style="stroke-width: 0.75;"/>
<circle cx="867.02" cy="91.02" r="2.70" style="stroke-width: 0.75;"/>
</g><g clip-path="url(#c2)">
<line x1="91.34" y1="585.60" x2="878.26" y2="585.60" style="stroke-width: 0.75;"/>
<line x1="91.34" y1="585.60" x2="91.34" y2="592.80" style="stroke-width: 0.75;"/>
<line x1="203.75" y1="585.60" x2="203.75" y2="592.80" style="stroke-width: 0.75;"/>
<line x1="316.17" y1="585.60" x2="316.17" y2="592.80" style="stroke-width: 0.75;"/>
<line x1="428.59" y1="585.60" x2="428.59" y2="592.80" style="stroke-width: 0.75;"/>
<line x1="541.01" y1="585.60" x2="541.01" y2="592.80" style="stroke-width: 0.75;"/>
<line x1="653.43" y1="585.60" x2="653.43" y2="592.80" style="stroke-width: 0.75;"/>
<line x1="765.85" y1="585.60" x2="765.85" y2="592.80" style="stroke-width: 0.75;"/>
<line x1="878.26" y1="585.60" x2="878.26" y2="592.80" style="stroke-width: 0.75;"/>
<g><text x="91.34" y="611.52" text-anchor="middle" style="font-family: Arial;font-size: 13.20px;" textLength="7.34px" lengthAdjust="spacingAndGlyphs">0</text></g>
<g><text x="203.75" y="611.52" text-anchor="middle" style="font-family: Arial;font-size: 13.20px;" textLength="14.67px" lengthAdjust="spacingAndGlyphs">10</text></g>
<g><text x="316.17" y="611.52" text-anchor="middle" style="font-family: Arial;font-size: 13.20px;" textLength="14.67px" lengthAdjust="spacingAndGlyphs">20</text></g>
<g><text x="428.59" y="611.52" text-anchor="middle" style="font-family: Arial;font-size: 13.20px;" textLength="14.67px" lengthAdjust="spacingAndGlyphs">30</text></g>
<g><text x="541.01" y="611.52" text-anchor="middle" style="font-family: Arial;font-size: 13.20px;" textLength="14.67px" lengthAdjust="spacingAndGlyphs">40</text></g>
<g><text x="653.43" y="611.52" text-anchor="middle" style="font-family: Arial;font-size: 13.20px;" textLength="14.67px" lengthAdjust="spacingAndGlyphs">50</text></g>
<g><text x="765.85" y="611.52" text-anchor="middle" style="font-family: Arial;font-size: 13.20px;" textLength="14.67px" lengthAdjust="spacingAndGlyphs">60</text></g>
<g><text x="878.26" y="611.52" text-anchor="middle" style="font-family: Arial;font-size: 13.20px;" textLength="14.67px" lengthAdjust="spacingAndGlyphs">70</text></g>
<line x1="72.00" y1="517.48" x2="72.00" y2="77.96" style="stroke-width: 0.75;"/>
<line x1="72.00" y1="517.48" x2="64.80" y2="517.48" style="stroke-width: 0.75;"/>
<line x1="72.00" y1="444.22" x2="64.80" y2="444.22" style="stroke-width: 0.75;"/>
<line x1="72.00" y1="370.97" x2="64.80" y2="370.97" style="stroke-width: 0.75;"/>
<line x1="72.00" y1="297.72" x2="64.80" y2="297.72" style="stroke-width: 0.75;"/>
<line x1="72.00" y1="224.47" x2="64.80" y2="224.47" style="stroke-width: 0.75;"/>
<line x1="72.00" y1="151.22" x2="64.80" y2="151.22" style="stroke-width: 0.75;"/>
<line x1="72.00" y1="77.96" x2="64.80" y2="77.96" style="stroke-width: 0.75;"/>
<g><text transform="translate(54.72,517.48) rotate(-90.00)" text-anchor="middle" style="font-family: Arial;font-size: 13.20px;" textLength="25.68px" lengthAdjust="spacingAndGlyphs">0.64</text></g>
<g><text transform="translate(54.72,444.22) rotate(-90.00)" text-anchor="middle" style="font-family: Arial;font-size: 13.20px;" textLength="25.68px" lengthAdjust="spacingAndGlyphs">0.65</text></g>
<g><text transform="translate(54.72,370.97) rotate(-90.00)" text-anchor="middle" style="font-family: Arial;font-size: 13.20px;" textLength="25.68px" lengthAdjust="spacingAndGlyphs">0.66</text></g>
<g><text transform="translate(54.72,297.72) rotate(-90.00)" text-anchor="middle" style="font-family: Arial;font-size: 13.20px;" textLength="25.68px" lengthAdjust="spacingAndGlyphs">0.67</text></g>
<g><text transform="translate(54.72,224.47) rotate(-90.00)" text-anchor="middle" style="font-family: Arial;font-size: 13.20px;" textLength="25.68px" lengthAdjust="spacingAndGlyphs">0.68</text></g>
<g><text transform="translate(54.72,151.22) rotate(-90.00)" text-anchor="middle" style="font-family: Arial;font-size: 13.20px;" textLength="25.68px" lengthAdjust="spacingAndGlyphs">0.69</text></g>
<g><text transform="translate(54.72,77.96) rotate(-90.00)" text-anchor="middle" style="font-family: Arial;font-size: 13.20px;" textLength="25.68px" lengthAdjust="spacingAndGlyphs">0.70</text></g>
<polygon points="72.00,585.60 897.60,585.60 897.60,72.00 72.00,72.00" style="stroke-width: 0.75;" />
<g><text x="484.80" y="43.34" text-anchor="middle" style="font-family: Arial;font-size: 20.40px;font-weight: bold;" textLength="303.65px" lengthAdjust="spacingAndGlyphs">HPO - Simple Spline on density</text></g>
<g><text x="484.80" y="640.32" text-anchor="middle" style="font-family: Arial;font-size: 18.00px;" textLength="15.01px" lengthAdjust="spacingAndGlyphs">df</text></g>
<g><text transform="translate(25.92,328.80) rotate(-90.00)" text-anchor="middle" style="font-family: Arial;font-size: 18.00px;" textLength="82.02px" lengthAdjust="spacingAndGlyphs">MSE Loss</text></g>
</g><g clip-path="url(#c3)">
<circle cx="113.82" cy="566.58" r="2.70" style="stroke-width: 0.75;stroke: #FF0000;fill: #FF0000;"/>
</g>
</svg>