<svg xmlns="http://www.w3.org/2000/svg" xmlns:xlink="http://www.w3.org/1999/xlink" class="httpgd" width="1176.00" height="840.00" viewBox="0 0 940.80 672.00">
<defs>
  <style type='text/css'><![CDATA[
    .httpgd line, .httpgd polyline, .httpgd polygon, .httpgd path, .httpgd rect, .httpgd circle {
      fill: none;
      stroke: #000000;
      stroke-linecap: round;
      stroke-linejoin: round;
      stroke-miterlimit: 10.00;
    }
  ]]></style>
<clipPath id="c0"><rect x="0.00" y="0.00" width="940.80" height="672.00"/></clipPath>
<clipPath id="c1"><rect x="72.00" y="72.00" width="825.60" height="513.60"/></clipPath>
<clipPath id="c2"><rect x="0.00" y="0.00" width="940.80" height="672.00"/></clipPath>
<clipPath id="c3"><rect x="72.00" y="72.00" width="825.60" height="513.60"/></clipPath>
</defs>
<rect width="100%" height="100%" style="stroke: none;fill: #FFFFFF;"/>
<g clip-path="url(#c0)">
</g><g clip-path="url(#c1)">
<line x1="105.05" y1="559.82" x2="111.34" y2="542.65" style="stroke-width: 0.75;"/>
<line x1="115.04" y1="528.79" x2="123.84" y2="477.63" style="stroke-width: 0.75;"/>
<line x1="126.61" y1="463.50" x2="134.76" y2="426.39" style="stroke-width: 0.75;"/>
<line x1="138.36" y1="412.45" x2="145.49" y2="388.48" style="stroke-width: 0.75;"/>
<line x1="149.92" y1="374.78" x2="156.42" y2="356.15" style="stroke-width: 0.75;"/>
<line x1="161.36" y1="342.63" x2="167.45" y2="326.71" style="stroke-width: 0.75;"/>
<line x1="172.91" y1="313.39" x2="178.39" y2="300.87" style="stroke-width: 0.75;"/>
<line x1="184.68" y1="287.93" x2="189.10" y2="279.73" style="stroke-width: 0.75;"/>
<line x1="196.65" y1="267.50" x2="199.62" y2="263.27" style="stroke-width: 0.75;"/>
<line x1="208.77" y1="252.21" x2="209.98" y2="250.97" style="stroke-width: 0.75;"/>
<circle cx="102.58" cy="566.58" r="2.70" style="stroke-width: 0.75;"/>
<circle cx="113.82" cy="535.88" r="2.70" style="stroke-width: 0.75;"/>
<circle cx="125.06" cy="470.53" r="2.70" style="stroke-width: 0.75;"/>
<circle cx="136.30" cy="419.35" r="2.70" style="stroke-width: 0.75;"/>
<circle cx="147.55" cy="381.58" r="2.70" style="stroke-width: 0.75;"/>
<circle cx="158.79" cy="349.36" r="2.70" style="stroke-width: 0.75;"/>
<circle cx="170.03" cy="319.99" r="2.70" style="stroke-width: 0.75;"/>
<circle cx="181.27" cy="294.27" r="2.70" style="stroke-width: 0.75;"/>
<circle cx="192.51" cy="273.39" r="2.70" style="stroke-width: 0.75;"/>
<circle cx="203.75" cy="257.38" r="2.70" style="stroke-width: 0.75;"/>
<circle cx="215.00" cy="245.81" r="2.70" style="stroke-width: 0.75;"/>
<circle cx="226.24" cy="237.77" r="2.70" style="stroke-width: 0.75;"/>
<circle cx="237.48" cy="232.52" r="2.70" style="stroke-width: 0.75;"/>
<circle cx="248.72" cy="229.51" r="2.70" style="stroke-width: 0.75;"/>
<circle cx="259.96" cy="228.32" r="2.70" style="stroke-width: 0.75;"/>
<circle cx="271.21" cy="228.60" r="2.70" style="stroke-width: 0.75;"/>
<circle cx="282.45" cy="230.02" r="2.70" style="stroke-width: 0.75;"/>
<circle cx="293.69" cy="232.23" r="2.70" style="stroke-width: 0.75;"/>
<circle cx="304.93" cy="234.93" r="2.70" style="stroke-width: 0.75;"/>
<circle cx="316.17" cy="237.80" r="2.70" style="stroke-width: 0.75;"/>
<circle cx="327.41" cy="240.59" r="2.70" style="stroke-width: 0.75;"/>
<circle cx="338.66" cy="243.12" r="2.70" style="stroke-width: 0.75;"/>
<circle cx="349.90" cy="245.27" r="2.70" style="stroke-width: 0.75;"/>
<circle cx="361.14" cy="246.96" r="2.70" style="stroke-width: 0.75;"/>
<circle cx="372.38" cy="248.15" r="2.70" style="stroke-width: 0.75;"/>
<circle cx="383.62" cy="248.84" r="2.70" style="stroke-width: 0.75;"/>
<circle cx="394.87" cy="249.04" r="2.70" style="stroke-width: 0.75;"/>
<circle cx="406.11" cy="248.79" r="2.70" style="stroke-width: 0.75;"/>
<circle cx="417.35" cy="248.11" r="2.70" style="stroke-width: 0.75;"/>
<circle cx="428.59" cy="247.05" r="2.70" style="stroke-width: 0.75;"/>
<circle cx="439.83" cy="245.64" r="2.70" style="stroke-width: 0.75;"/>
<circle cx="451.07" cy="243.93" r="2.70" style="stroke-width: 0.75;"/>
<circle cx="462.32" cy="241.93" r="2.70" style="stroke-width: 0.75;"/>
<circle cx="473.56" cy="239.68" r="2.70" style="stroke-width: 0.75;"/>
<circle cx="484.80" cy="237.19" r="2.70" style="stroke-width: 0.75;"/>
<circle cx="496.04" cy="234.50" r="2.70" style="stroke-width: 0.75;"/>
<circle cx="507.28" cy="231.62" r="2.70" style="stroke-width: 0.75;"/>
<circle cx="518.53" cy="228.54" r="2.70" style="stroke-width: 0.75;"/>
<circle cx="529.77" cy="225.33" r="2.70" style="stroke-width: 0.75;"/>
<circle cx="541.01" cy="222.02" r="2.70" style="stroke-width: 0.75;"/>
<circle cx="552.25" cy="218.50" r="2.70" style="stroke-width: 0.75;"/>
<circle cx="563.49" cy="214.91" r="2.70" style="stroke-width: 0.75;"/>
<circle cx="574.73" cy="211.23" r="2.70" style="stroke-width: 0.75;"/>
<circle cx="585.98" cy="207.44" r="2.70" style="stroke-width: 0.75;"/>
<circle cx="597.22" cy="203.57" r="2.70" style="stroke-width: 0.75;"/>
<circle cx="608.46" cy="199.62" r="2.70" style="stroke-width: 0.75;"/>
<circle cx="619.70" cy="195.61" r="2.70" style="stroke-width: 0.75;"/>
<circle cx="630.94" cy="191.57" r="2.70" style="stroke-width: 0.75;"/>
<circle cx="642.19" cy="187.37" r="2.70" style="stroke-width: 0.75;"/>
<circle cx="653.43" cy="183.21" r="2.70" style="stroke-width: 0.75;"/>
<circle cx="664.67" cy="178.93" r="2.70" style="stroke-width: 0.75;"/>
<circle cx="675.91" cy="174.54" r="2.70" style="stroke-width: 0.75;"/>
<circle cx="687.15" cy="170.14" r="2.70" style="stroke-width: 0.75;"/>
<circle cx="698.39" cy="165.69" r="2.70" style="stroke-width: 0.75;"/>
<circle cx="709.64" cy="161.18" r="2.70" style="stroke-width: 0.75;"/>
<circle cx="720.88" cy="156.59" r="2.70" style="stroke-width: 0.75;"/>
<circle cx="732.12" cy="151.95" r="2.70" style="stroke-width: 0.75;"/>
<circle cx="743.36" cy="147.25" r="2.70" style="stroke-width: 0.75;"/>
<circle cx="754.60" cy="142.48" r="2.70" style="stroke-width: 0.75;"/>
<circle cx="765.85" cy="137.65" r="2.70" style="stroke-width: 0.75;"/>
<circle cx="777.09" cy="132.75" r="2.70" style="stroke-width: 0.75;"/>
<circle cx="788.33" cy="127.79" r="2.70" style="stroke-width: 0.75;"/>
<circle cx="799.57" cy="122.75" r="2.70" style="stroke-width: 0.75;"/>
<circle cx="810.81" cy="117.63" r="2.70" style="stroke-width: 0.75;"/>
<circle cx="822.05" cy="112.54" r="2.70" style="stroke-width: 0.75;"/>
<circle cx="833.30" cy="107.21" r="2.70" style="stroke-width: 0.75;"/>
<circle cx="844.54" cy="101.86" r="2.70" style="stroke-width: 0.75;"/>
<circle cx="855.78" cy="96.45" r="2.70" style="stroke-width: 0.75;"/>
<circle cx="867.02" cy="91.02" r="2.70" style="stroke-width: 0.75;"/>
</g><g clip-path="url(#c2)">
<line x1="91.34" y1="585.60" x2="878.26" y2="585.60" style="stroke-width: 0.75;"/>
<line x1="91.34" y1="585.60" x2="91.34" y2="592.80" style="stroke-width: 0.75;"/>
<line x1="203.75" y1="585.60" x2="203.75" y2="592.80" style="stroke-width: 0.75;"/>
<line x1="316.17" y1="585.60" x2="316.17" y2="592.80" style="stroke-width: 0.75;"/>
<line x1="428.59" y1="585.60" x2="428.59" y2="592.80" style="stroke-width: 0.75;"/>
<line x1="541.01" y1="585.60" x2="541.01" y2="592.80" style="stroke-width: 0.75;"/>
<line x1="653.43" y1="585.60" x2="653.43" y2="592.80" style="stroke-width: 0.75;"/>
<line x1="765.85" y1="585.60" x2="765.85" y2="592.80" style="stroke-width: 0.75;"/>
<line x1="878.26" y1="585.60" x2="878.26" y2="592.80" style="stroke-width: 0.75;"/>
<g><text x="91.34" y="611.52" text-anchor="middle" style="font-family: Arial;font-size: 13.20px;" textLength="7.34px" lengthAdjust="spacingAndGlyphs">0</text></g>
<g><text x="203.75" y="611.52" text-anchor="middle" style="font-family: Arial;font-size: 13.20px;" textLength="14.67px" lengthAdjust="spacingAndGlyphs">10</text></g>
<g><text x="316.17" y="611.52" text-anchor="middle" style="font-family: Arial;font-size: 13.20px;" textLength="14.67px" lengthAdjust="spacingAndGlyphs">20</text></g>
<g><text x="428.59" y="611.52" text-anchor="middle" style="font-family: Arial;font-size: 13.20px;" textLength="14.67px" lengthAdjust="spacingAndGlyphs">30</text></g>
<g><text x="541.01" y="611.52" text-anchor="middle" style="font-family: Arial;font-size: 13.20px;" textLength="14.67px" lengthAdjust="spacingAndGlyphs">40</text></g>
<g><text x="653.43" y="611.52" text-anchor="middle" style="font-family: Arial;font-size: 13.20px;" textLength="14.67px" lengthAdjust="spacingAndGlyphs">50</text></g>
<g><text x="765.85" y="611.52" text-anchor="middle" style="font-family: Arial;font-size: 13.20px;" textLength="14.67px" lengthAdjust="spacingAndGlyphs">60</text></g>
<g><text x="878.26" y="611.52" text-anchor="middle" style="font-family: Arial;font-size: 13.20px;" textLength="14.67px" lengthAdjust="spacingAndGlyphs">70</text></g>
<line x1="72.00" y1="531.72" x2="72.00" y2="76.41" style="stroke-width: 0.75;"/>
<line x1="72.00" y1="531.72" x2="64.80" y2="531.72" style="stroke-width: 0.75;"/>
<line x1="72.00" y1="455.83" x2="64.80" y2="455.83" style="stroke-width: 0.75;"/>
<line x1="72.00" y1="379.95" x2="64.80" y2="379.95" style="stroke-width: 0.75;"/>
<line x1="72.00" y1="304.06" x2="64.80" y2="304.06" style="stroke-width: 0.75;"/>
<line x1="72.00" y1="228.18" x2="64.80" y2="228.18" style="stroke-width: 0.75;"/>
<line x1="72.00" y1="152.29" x2="64.80" y2="152.29" style="stroke-width: 0.75;"/>
<line x1="72.00" y1="76.41" x2="64.80" y2="76.41" style="stroke-width: 0.75;"/>
<g><text transform="translate(54.72,531.72) rotate(-90.00)" text-anchor="middle" style="font-family: Arial;font-size: 13.20px;" textLength="18.34px" lengthAdjust="spacingAndGlyphs">2.3</text></g>
<g><text transform="translate(54.72,455.83) rotate(-90.00)" text-anchor="middle" style="font-family: Arial;font-size: 13.20px;" textLength="18.34px" lengthAdjust="spacingAndGlyphs">2.4</text></g>
<g><text transform="translate(54.72,379.95) rotate(-90.00)" text-anchor="middle" style="font-family: Arial;font-size: 13.20px;" textLength="18.34px" lengthAdjust="spacingAndGlyphs">2.5</text></g>
<g><text transform="translate(54.72,304.06) rotate(-90.00)" text-anchor="middle" style="font-family: Arial;font-size: 13.20px;" textLength="18.34px" lengthAdjust="spacingAndGlyphs">2.6</text></g>
<g><text transform="translate(54.72,228.18) rotate(-90.00)" text-anchor="middle" style="font-family: Arial;font-size: 13.20px;" textLength="18.34px" lengthAdjust="spacingAndGlyphs">2.7</text></g>
<g><text transform="translate(54.72,152.29) rotate(-90.00)" text-anchor="middle" style="font-family: Arial;font-size: 13.20px;" textLength="18.34px" lengthAdjust="spacingAndGlyphs">2.8</text></g>
<g><text transform="translate(54.72,76.41) rotate(-90.00)" text-anchor="middle" style="font-family: Arial;font-size: 13.20px;" textLength="18.34px" lengthAdjust="spacingAndGlyphs">2.9</text></g>
<polygon points="72.00,585.60 897.60,585.60 897.60,72.00 72.00,72.00" style="stroke-width: 0.75;" />
<g><text x="484.80" y="43.34" text-anchor="middle" style="font-family: Arial;font-size: 20.40px;font-weight: bold;" textLength="653.75px" lengthAdjust="spacingAndGlyphs">HPO - Weighted spline density with balanced data (hybrid sampled)</text></g>
<g><text x="484.80" y="640.32" text-anchor="middle" style="font-family: Arial;font-size: 18.00px;" textLength="15.01px" lengthAdjust="spacingAndGlyphs">df</text></g>
<g><text transform="translate(25.92,328.80) rotate(-90.00)" text-anchor="middle" style="font-family: Arial;font-size: 18.00px;" textLength="82.02px" lengthAdjust="spacingAndGlyphs">MSE Loss</text></g>
</g><g clip-path="url(#c3)">
<circle cx="102.58" cy="566.58" r="2.70" style="stroke-width: 0.75;stroke: #FF0000;fill: #FF0000;"/>
</g>
</svg>