<svg xmlns="http://www.w3.org/2000/svg" xmlns:xlink="http://www.w3.org/1999/xlink" class="httpgd" width="1176.00" height="840.00" viewBox="0 0 940.80 672.00">
<defs>
  <style type='text/css'><![CDATA[
    .httpgd line, .httpgd polyline, .httpgd polygon, .httpgd path, .httpgd rect, .httpgd circle {
      fill: none;
      stroke: #000000;
      stroke-linecap: round;
      stroke-linejoin: round;
      stroke-miterlimit: 10.00;
    }
  ]]></style>
<clipPath id="c0"><rect x="0.00" y="0.00" width="940.80" height="672.00"/></clipPath>
<clipPath id="c1"><rect x="72.00" y="72.00" width="825.60" height="513.60"/></clipPath>
<clipPath id="c2"><rect x="0.00" y="0.00" width="940.80" height="672.00"/></clipPath>
<clipPath id="c3"><rect x="72.00" y="72.00" width="825.60" height="513.60"/></clipPath>
</defs>
<rect width="100%" height="100%" style="stroke: none;fill: #FFFFFF;"/>
<g clip-path="url(#c0)">
</g><g clip-path="url(#c1)">
<line x1="107.68" y1="560.45" x2="108.72" y2="561.49" style="stroke-width: 0.75;"/>
<line x1="117.86" y1="560.62" x2="121.02" y2="555.97" style="stroke-width: 0.75;"/>
<line x1="129.66" y1="544.47" x2="131.70" y2="542.01" style="stroke-width: 0.75;"/>
<line x1="140.78" y1="530.84" x2="143.07" y2="527.96" style="stroke-width: 0.75;"/>
<line x1="151.74" y1="516.47" x2="154.59" y2="512.50" style="stroke-width: 0.75;"/>
<line x1="162.85" y1="500.71" x2="165.96" y2="496.17" style="stroke-width: 0.75;"/>
<line x1="174.06" y1="484.27" x2="177.24" y2="479.57" style="stroke-width: 0.75;"/>
<line x1="185.38" y1="467.70" x2="188.40" y2="463.36" style="stroke-width: 0.75;"/>
<line x1="196.83" y1="451.68" x2="199.44" y2="448.19" style="stroke-width: 0.75;"/>
<line x1="208.40" y1="436.92" x2="210.36" y2="434.60" style="stroke-width: 0.75;"/>
<line x1="219.95" y1="423.87" x2="221.28" y2="422.48" style="stroke-width: 0.75;"/>
<line x1="231.41" y1="412.25" x2="232.31" y2="411.38" style="stroke-width: 0.75;"/>
<line x1="242.71" y1="401.43" x2="243.49" y2="400.69" style="stroke-width: 0.75;"/>
<line x1="253.85" y1="390.69" x2="254.83" y2="389.73" style="stroke-width: 0.75;"/>
<line x1="264.92" y1="379.45" x2="266.25" y2="378.04" style="stroke-width: 0.75;"/>
<line x1="275.96" y1="367.41" x2="277.69" y2="365.45" style="stroke-width: 0.75;"/>
<line x1="287.07" y1="354.53" x2="289.06" y2="352.16" style="stroke-width: 0.75;"/>
<line x1="298.23" y1="341.06" x2="300.39" y2="338.40" style="stroke-width: 0.75;"/>
<line x1="309.47" y1="327.22" x2="311.64" y2="324.55" style="stroke-width: 0.75;"/>
<line x1="320.83" y1="313.47" x2="322.75" y2="311.21" style="stroke-width: 0.75;"/>
<line x1="332.21" y1="300.35" x2="333.86" y2="298.51" style="stroke-width: 0.75;"/>
<line x1="343.65" y1="287.95" x2="344.91" y2="286.64" style="stroke-width: 0.75;"/>
<line x1="355.14" y1="276.52" x2="355.90" y2="275.81" style="stroke-width: 0.75;"/>
<line x1="366.63" y1="266.21" x2="366.90" y2="265.98" style="stroke-width: 0.75;"/>
<circle cx="102.58" cy="555.36" r="2.70" style="stroke-width: 0.75;"/>
<circle cx="113.82" cy="566.58" r="2.70" style="stroke-width: 0.75;"/>
<circle cx="125.06" cy="550.01" r="2.70" style="stroke-width: 0.75;"/>
<circle cx="136.30" cy="536.47" r="2.70" style="stroke-width: 0.75;"/>
<circle cx="147.55" cy="522.32" r="2.70" style="stroke-width: 0.75;"/>
<circle cx="158.79" cy="506.65" r="2.70" style="stroke-width: 0.75;"/>
<circle cx="170.03" cy="490.23" r="2.70" style="stroke-width: 0.75;"/>
<circle cx="181.27" cy="473.61" r="2.70" style="stroke-width: 0.75;"/>
<circle cx="192.51" cy="457.44" r="2.70" style="stroke-width: 0.75;"/>
<circle cx="203.75" cy="442.43" r="2.70" style="stroke-width: 0.75;"/>
<circle cx="215.00" cy="429.09" r="2.70" style="stroke-width: 0.75;"/>
<circle cx="226.24" cy="417.26" r="2.70" style="stroke-width: 0.75;"/>
<circle cx="237.48" cy="406.37" r="2.70" style="stroke-width: 0.75;"/>
<circle cx="248.72" cy="395.74" r="2.70" style="stroke-width: 0.75;"/>
<circle cx="259.96" cy="384.67" r="2.70" style="stroke-width: 0.75;"/>
<circle cx="271.21" cy="372.82" r="2.70" style="stroke-width: 0.75;"/>
<circle cx="282.45" cy="360.04" r="2.70" style="stroke-width: 0.75;"/>
<circle cx="293.69" cy="346.64" r="2.70" style="stroke-width: 0.75;"/>
<circle cx="304.93" cy="332.81" r="2.70" style="stroke-width: 0.75;"/>
<circle cx="316.17" cy="318.96" r="2.70" style="stroke-width: 0.75;"/>
<circle cx="327.41" cy="305.72" r="2.70" style="stroke-width: 0.75;"/>
<circle cx="338.66" cy="293.14" r="2.70" style="stroke-width: 0.75;"/>
<circle cx="349.90" cy="281.46" r="2.70" style="stroke-width: 0.75;"/>
<circle cx="361.14" cy="270.87" r="2.70" style="stroke-width: 0.75;"/>
<circle cx="372.38" cy="261.32" r="2.70" style="stroke-width: 0.75;"/>
<circle cx="383.62" cy="252.79" r="2.70" style="stroke-width: 0.75;"/>
<circle cx="394.87" cy="245.08" r="2.70" style="stroke-width: 0.75;"/>
<circle cx="406.11" cy="238.15" r="2.70" style="stroke-width: 0.75;"/>
<circle cx="417.35" cy="231.86" r="2.70" style="stroke-width: 0.75;"/>
<circle cx="428.59" cy="226.12" r="2.70" style="stroke-width: 0.75;"/>
<circle cx="439.83" cy="220.78" r="2.70" style="stroke-width: 0.75;"/>
<circle cx="451.07" cy="215.84" r="2.70" style="stroke-width: 0.75;"/>
<circle cx="462.32" cy="211.18" r="2.70" style="stroke-width: 0.75;"/>
<circle cx="473.56" cy="206.76" r="2.70" style="stroke-width: 0.75;"/>
<circle cx="484.80" cy="202.52" r="2.70" style="stroke-width: 0.75;"/>
<circle cx="496.04" cy="198.42" r="2.70" style="stroke-width: 0.75;"/>
<circle cx="507.28" cy="194.45" r="2.70" style="stroke-width: 0.75;"/>
<circle cx="518.53" cy="190.59" r="2.70" style="stroke-width: 0.75;"/>
<circle cx="529.77" cy="186.83" r="2.70" style="stroke-width: 0.75;"/>
<circle cx="541.01" cy="183.17" r="2.70" style="stroke-width: 0.75;"/>
<circle cx="552.25" cy="179.62" r="2.70" style="stroke-width: 0.75;"/>
<circle cx="563.49" cy="176.14" r="2.70" style="stroke-width: 0.75;"/>
<circle cx="574.73" cy="172.76" r="2.70" style="stroke-width: 0.75;"/>
<circle cx="585.98" cy="169.48" r="2.70" style="stroke-width: 0.75;"/>
<circle cx="597.22" cy="166.27" r="2.70" style="stroke-width: 0.75;"/>
<circle cx="608.46" cy="163.18" r="2.70" style="stroke-width: 0.75;"/>
<circle cx="619.70" cy="160.13" r="2.70" style="stroke-width: 0.75;"/>
<circle cx="630.94" cy="157.10" r="2.70" style="stroke-width: 0.75;"/>
<circle cx="642.19" cy="154.15" r="2.70" style="stroke-width: 0.75;"/>
<circle cx="653.43" cy="151.24" r="2.70" style="stroke-width: 0.75;"/>
<circle cx="664.67" cy="148.35" r="2.70" style="stroke-width: 0.75;"/>
<circle cx="675.91" cy="145.46" r="2.70" style="stroke-width: 0.75;"/>
<circle cx="687.15" cy="142.58" r="2.70" style="stroke-width: 0.75;"/>
<circle cx="698.39" cy="139.70" r="2.70" style="stroke-width: 0.75;"/>
<circle cx="709.64" cy="136.77" r="2.70" style="stroke-width: 0.75;"/>
<circle cx="720.88" cy="133.77" r="2.70" style="stroke-width: 0.75;"/>
<circle cx="732.12" cy="130.81" r="2.70" style="stroke-width: 0.75;"/>
<circle cx="743.36" cy="127.76" r="2.70" style="stroke-width: 0.75;"/>
<circle cx="754.60" cy="124.66" r="2.70" style="stroke-width: 0.75;"/>
<circle cx="765.85" cy="121.52" r="2.70" style="stroke-width: 0.75;"/>
<circle cx="777.09" cy="118.28" r="2.70" style="stroke-width: 0.75;"/>
<circle cx="788.33" cy="115.08" r="2.70" style="stroke-width: 0.75;"/>
<circle cx="799.57" cy="111.75" r="2.70" style="stroke-width: 0.75;"/>
<circle cx="810.81" cy="108.41" r="2.70" style="stroke-width: 0.75;"/>
<circle cx="822.05" cy="105.02" r="2.70" style="stroke-width: 0.75;"/>
<circle cx="833.30" cy="101.59" r="2.70" style="stroke-width: 0.75;"/>
<circle cx="844.54" cy="98.11" r="2.70" style="stroke-width: 0.75;"/>
<circle cx="855.78" cy="94.61" r="2.70" style="stroke-width: 0.75;"/>
<circle cx="867.02" cy="91.02" r="2.70" style="stroke-width: 0.75;"/>
</g><g clip-path="url(#c2)">
<line x1="91.34" y1="585.60" x2="878.26" y2="585.60" style="stroke-width: 0.75;"/>
<line x1="91.34" y1="585.60" x2="91.34" y2="592.80" style="stroke-width: 0.75;"/>
<line x1="203.75" y1="585.60" x2="203.75" y2="592.80" style="stroke-width: 0.75;"/>
<line x1="316.17" y1="585.60" x2="316.17" y2="592.80" style="stroke-width: 0.75;"/>
<line x1="428.59" y1="585.60" x2="428.59" y2="592.80" style="stroke-width: 0.75;"/>
<line x1="541.01" y1="585.60" x2="541.01" y2="592.80" style="stroke-width: 0.75;"/>
<line x1="653.43" y1="585.60" x2="653.43" y2="592.80" style="stroke-width: 0.75;"/>
<line x1="765.85" y1="585.60" x2="765.85" y2="592.80" style="stroke-width: 0.75;"/>
<line x1="878.26" y1="585.60" x2="878.26" y2="592.80" style="stroke-width: 0.75;"/>
<g><text x="91.34" y="611.52" text-anchor="middle" style="font-family: Arial;font-size: 13.20px;" textLength="7.34px" lengthAdjust="spacingAndGlyphs">0</text></g>
<g><text x="203.75" y="611.52" text-anchor="middle" style="font-family: Arial;font-size: 13.20px;" textLength="14.67px" lengthAdjust="spacingAndGlyphs">10</text></g>
<g><text x="316.17" y="611.52" text-anchor="middle" style="font-family: Arial;font-size: 13.20px;" textLength="14.67px" lengthAdjust="spacingAndGlyphs">20</text></g>
<g><text x="428.59" y="611.52" text-anchor="middle" style="font-family: Arial;font-size: 13.20px;" textLength="14.67px" lengthAdjust="spacingAndGlyphs">30</text></g>
<g><text x="541.01" y="611.52" text-anchor="middle" style="font-family: Arial;font-size: 13.20px;" textLength="14.67px" lengthAdjust="spacingAndGlyphs">40</text></g>
<g><text x="653.43" y="611.52" text-anchor="middle" style="font-family: Arial;font-size: 13.20px;" textLength="14.67px" lengthAdjust="spacingAndGlyphs">50</text></g>
<g><text x="765.85" y="611.52" text-anchor="middle" style="font-family: Arial;font-size: 13.20px;" textLength="14.67px" lengthAdjust="spacingAndGlyphs">60</text></g>
<g><text x="878.26" y="611.52" text-anchor="middle" style="font-family: Arial;font-size: 13.20px;" textLength="14.67px" lengthAdjust="spacingAndGlyphs">70</text></g>
<line x1="72.00" y1="536.03" x2="72.00" y2="154.48" style="stroke-width: 0.75;"/>
<line x1="72.00" y1="536.03" x2="64.80" y2="536.03" style="stroke-width: 0.75;"/>
<line x1="72.00" y1="440.64" x2="64.80" y2="440.64" style="stroke-width: 0.75;"/>
<line x1="72.00" y1="345.26" x2="64.80" y2="345.26" style="stroke-width: 0.75;"/>
<line x1="72.00" y1="249.87" x2="64.80" y2="249.87" style="stroke-width: 0.75;"/>
<line x1="72.00" y1="154.48" x2="64.80" y2="154.48" style="stroke-width: 0.75;"/>
<g><text transform="translate(54.72,536.03) rotate(-90.00)" text-anchor="middle" style="font-family: Arial;font-size: 13.20px;" textLength="18.34px" lengthAdjust="spacingAndGlyphs">0.8</text></g>
<g><text transform="translate(54.72,440.64) rotate(-90.00)" text-anchor="middle" style="font-family: Arial;font-size: 13.20px;" textLength="18.34px" lengthAdjust="spacingAndGlyphs">0.9</text></g>
<g><text transform="translate(54.72,345.26) rotate(-90.00)" text-anchor="middle" style="font-family: Arial;font-size: 13.20px;" textLength="18.34px" lengthAdjust="spacingAndGlyphs">1.0</text></g>
<g><text transform="translate(54.72,249.87) rotate(-90.00)" text-anchor="middle" style="font-family: Arial;font-size: 13.20px;" textLength="18.34px" lengthAdjust="spacingAndGlyphs">1.1</text></g>
<g><text transform="translate(54.72,154.48) rotate(-90.00)" text-anchor="middle" style="font-family: Arial;font-size: 13.20px;" textLength="18.34px" lengthAdjust="spacingAndGlyphs">1.2</text></g>
<polygon points="72.00,585.60 897.60,585.60 897.60,72.00 72.00,72.00" style="stroke-width: 0.75;" />
<g><text x="484.80" y="43.34" text-anchor="middle" style="font-family: Arial;font-size: 20.40px;font-weight: bold;" textLength="514.41px" lengthAdjust="spacingAndGlyphs">HPO - Inverse Frequency Weighted Spline on density</text></g>
<g><text x="484.80" y="640.32" text-anchor="middle" style="font-family: Arial;font-size: 18.00px;" textLength="15.01px" lengthAdjust="spacingAndGlyphs">df</text></g>
<g><text transform="translate(25.92,328.80) rotate(-90.00)" text-anchor="middle" style="font-family: Arial;font-size: 18.00px;" textLength="82.02px" lengthAdjust="spacingAndGlyphs">MSE Loss</text></g>
</g><g clip-path="url(#c3)">
<circle cx="113.82" cy="566.58" r="2.70" style="stroke-width: 0.75;stroke: #FF0000;fill: #FF0000;"/>
</g>
</svg>