<svg xmlns="http://www.w3.org/2000/svg" xmlns:xlink="http://www.w3.org/1999/xlink" class="httpgd" width="1176.00" height="840.00" viewBox="0 0 940.80 672.00">
<defs>
  <style type='text/css'><![CDATA[
    .httpgd line, .httpgd polyline, .httpgd polygon, .httpgd path, .httpgd rect, .httpgd circle {
      fill: none;
      stroke: #000000;
      stroke-linecap: round;
      stroke-linejoin: round;
      stroke-miterlimit: 10.00;
    }
  ]]></style>
<clipPath id="c0"><rect x="0.00" y="0.00" width="940.80" height="672.00"/></clipPath>
<clipPath id="c1"><rect x="72.00" y="72.00" width="825.60" height="513.60"/></clipPath>
<clipPath id="c2"><rect x="0.00" y="0.00" width="940.80" height="672.00"/></clipPath>
<clipPath id="c3"><rect x="72.00" y="72.00" width="825.60" height="513.60"/></clipPath>
</defs>
<rect width="100%" height="100%" style="stroke: none;fill: #FFFFFF;"/>
<g clip-path="url(#c0)">
</g><g clip-path="url(#c1)">
<line x1="445.31" y1="474.83" x2="445.59" y2="474.59" style="stroke-width: 0.75;"/>
<line x1="456.36" y1="465.03" x2="457.03" y2="464.40" style="stroke-width: 0.75;"/>
<line x1="467.40" y1="454.41" x2="468.47" y2="453.34" style="stroke-width: 0.75;"/>
<line x1="478.53" y1="443.03" x2="479.83" y2="441.68" style="stroke-width: 0.75;"/>
<line x1="489.61" y1="431.11" x2="491.23" y2="429.30" style="stroke-width: 0.75;"/>
<line x1="500.72" y1="418.47" x2="502.61" y2="416.26" style="stroke-width: 0.75;"/>
<line x1="511.83" y1="405.21" x2="513.98" y2="402.57" style="stroke-width: 0.75;"/>
<line x1="523.00" y1="391.35" x2="525.29" y2="388.45" style="stroke-width: 0.75;"/>
<line x1="534.19" y1="377.13" x2="536.58" y2="374.06" style="stroke-width: 0.75;"/>
<line x1="545.36" y1="362.64" x2="547.90" y2="359.29" style="stroke-width: 0.75;"/>
<line x1="556.53" y1="347.76" x2="559.22" y2="344.12" style="stroke-width: 0.75;"/>
<line x1="567.80" y1="332.55" x2="570.43" y2="329.02" style="stroke-width: 0.75;"/>
<line x1="579.01" y1="317.45" x2="581.70" y2="313.81" style="stroke-width: 0.75;"/>
<line x1="590.26" y1="302.22" x2="592.94" y2="298.60" style="stroke-width: 0.75;"/>
<line x1="601.51" y1="287.02" x2="604.17" y2="283.43" style="stroke-width: 0.75;"/>
<line x1="612.83" y1="271.92" x2="615.34" y2="268.63" style="stroke-width: 0.75;"/>
<line x1="624.10" y1="257.20" x2="626.54" y2="254.04" style="stroke-width: 0.75;"/>
<line x1="635.40" y1="242.69" x2="637.73" y2="239.74" style="stroke-width: 0.75;"/>
<line x1="646.71" y1="228.49" x2="648.91" y2="225.76" style="stroke-width: 0.75;"/>
<line x1="658.06" y1="214.65" x2="660.04" y2="212.30" style="stroke-width: 0.75;"/>
<line x1="669.38" y1="201.35" x2="671.20" y2="199.23" style="stroke-width: 0.75;"/>
<line x1="680.70" y1="188.41" x2="682.37" y2="186.53" style="stroke-width: 0.75;"/>
<line x1="692.06" y1="175.88" x2="693.49" y2="174.34" style="stroke-width: 0.75;"/>
<line x1="703.37" y1="163.86" x2="704.66" y2="162.51" style="stroke-width: 0.75;"/>
<line x1="714.72" y1="152.21" x2="715.80" y2="151.13" style="stroke-width: 0.75;"/>
<line x1="726.04" y1="141.01" x2="726.96" y2="140.11" style="stroke-width: 0.75;"/>
<line x1="737.18" y1="129.97" x2="738.30" y2="128.84" style="stroke-width: 0.75;"/>
<line x1="745.70" y1="116.91" x2="752.26" y2="97.83" style="stroke-width: 0.75;"/>
<circle cx="102.58" cy="566.49" r="2.70" style="stroke-width: 0.75;"/>
<circle cx="113.82" cy="566.58" r="2.70" style="stroke-width: 0.75;"/>
<circle cx="125.06" cy="561.68" r="2.70" style="stroke-width: 0.75;"/>
<circle cx="136.30" cy="555.53" r="2.70" style="stroke-width: 0.75;"/>
<circle cx="147.55" cy="549.85" r="2.70" style="stroke-width: 0.75;"/>
<circle cx="158.79" cy="544.85" r="2.70" style="stroke-width: 0.75;"/>
<circle cx="170.03" cy="540.81" r="2.70" style="stroke-width: 0.75;"/>
<circle cx="181.27" cy="537.93" r="2.70" style="stroke-width: 0.75;"/>
<circle cx="192.51" cy="536.24" r="2.70" style="stroke-width: 0.75;"/>
<circle cx="203.75" cy="535.67" r="2.70" style="stroke-width: 0.75;"/>
<circle cx="215.00" cy="536.05" r="2.70" style="stroke-width: 0.75;"/>
<circle cx="226.24" cy="537.08" r="2.70" style="stroke-width: 0.75;"/>
<circle cx="237.48" cy="538.42" r="2.70" style="stroke-width: 0.75;"/>
<circle cx="248.72" cy="539.76" r="2.70" style="stroke-width: 0.75;"/>
<circle cx="259.96" cy="540.84" r="2.70" style="stroke-width: 0.75;"/>
<circle cx="271.21" cy="541.47" r="2.70" style="stroke-width: 0.75;"/>
<circle cx="282.45" cy="541.57" r="2.70" style="stroke-width: 0.75;"/>
<circle cx="293.69" cy="541.09" r="2.70" style="stroke-width: 0.75;"/>
<circle cx="304.93" cy="540.04" r="2.70" style="stroke-width: 0.75;"/>
<circle cx="316.17" cy="538.41" r="2.70" style="stroke-width: 0.75;"/>
<circle cx="327.41" cy="536.20" r="2.70" style="stroke-width: 0.75;"/>
<circle cx="338.66" cy="533.45" r="2.70" style="stroke-width: 0.75;"/>
<circle cx="349.90" cy="530.08" r="2.70" style="stroke-width: 0.75;"/>
<circle cx="361.14" cy="526.14" r="2.70" style="stroke-width: 0.75;"/>
<circle cx="372.38" cy="521.61" r="2.70" style="stroke-width: 0.75;"/>
<circle cx="383.62" cy="516.40" r="2.70" style="stroke-width: 0.75;"/>
<circle cx="394.87" cy="510.51" r="2.70" style="stroke-width: 0.75;"/>
<circle cx="406.11" cy="503.91" r="2.70" style="stroke-width: 0.75;"/>
<circle cx="417.35" cy="496.56" r="2.70" style="stroke-width: 0.75;"/>
<circle cx="428.59" cy="488.46" r="2.70" style="stroke-width: 0.75;"/>
<circle cx="439.83" cy="479.50" r="2.70" style="stroke-width: 0.75;"/>
<circle cx="451.07" cy="469.92" r="2.70" style="stroke-width: 0.75;"/>
<circle cx="462.32" cy="459.51" r="2.70" style="stroke-width: 0.75;"/>
<circle cx="473.56" cy="448.24" r="2.70" style="stroke-width: 0.75;"/>
<circle cx="484.80" cy="436.47" r="2.70" style="stroke-width: 0.75;"/>
<circle cx="496.04" cy="423.94" r="2.70" style="stroke-width: 0.75;"/>
<circle cx="507.28" cy="410.79" r="2.70" style="stroke-width: 0.75;"/>
<circle cx="518.53" cy="396.99" r="2.70" style="stroke-width: 0.75;"/>
<circle cx="529.77" cy="382.81" r="2.70" style="stroke-width: 0.75;"/>
<circle cx="541.01" cy="368.38" r="2.70" style="stroke-width: 0.75;"/>
<circle cx="552.25" cy="353.55" r="2.70" style="stroke-width: 0.75;"/>
<circle cx="563.49" cy="338.33" r="2.70" style="stroke-width: 0.75;"/>
<circle cx="574.73" cy="323.25" r="2.70" style="stroke-width: 0.75;"/>
<circle cx="585.98" cy="308.01" r="2.70" style="stroke-width: 0.75;"/>
<circle cx="597.22" cy="292.81" r="2.70" style="stroke-width: 0.75;"/>
<circle cx="608.46" cy="277.65" r="2.70" style="stroke-width: 0.75;"/>
<circle cx="619.70" cy="262.90" r="2.70" style="stroke-width: 0.75;"/>
<circle cx="630.94" cy="248.34" r="2.70" style="stroke-width: 0.75;"/>
<circle cx="642.19" cy="234.09" r="2.70" style="stroke-width: 0.75;"/>
<circle cx="653.43" cy="220.16" r="2.70" style="stroke-width: 0.75;"/>
<circle cx="664.67" cy="206.79" r="2.70" style="stroke-width: 0.75;"/>
<circle cx="675.91" cy="193.78" r="2.70" style="stroke-width: 0.75;"/>
<circle cx="687.15" cy="181.15" r="2.70" style="stroke-width: 0.75;"/>
<circle cx="698.39" cy="169.06" r="2.70" style="stroke-width: 0.75;"/>
<circle cx="709.64" cy="157.31" r="2.70" style="stroke-width: 0.75;"/>
<circle cx="720.88" cy="146.03" r="2.70" style="stroke-width: 0.75;"/>
<circle cx="732.12" cy="135.09" r="2.70" style="stroke-width: 0.75;"/>
<circle cx="743.36" cy="123.72" r="2.70" style="stroke-width: 0.75;"/>
<circle cx="754.60" cy="91.02" r="2.70" style="stroke-width: 0.75;"/>
<circle cx="765.85" cy="91.02" r="2.70" style="stroke-width: 0.75;"/>
<circle cx="777.09" cy="91.02" r="2.70" style="stroke-width: 0.75;"/>
<circle cx="788.33" cy="91.02" r="2.70" style="stroke-width: 0.75;"/>
<circle cx="799.57" cy="91.02" r="2.70" style="stroke-width: 0.75;"/>
<circle cx="810.81" cy="91.02" r="2.70" style="stroke-width: 0.75;"/>
<circle cx="822.05" cy="91.02" r="2.70" style="stroke-width: 0.75;"/>
<circle cx="833.30" cy="91.02" r="2.70" style="stroke-width: 0.75;"/>
<circle cx="844.54" cy="91.02" r="2.70" style="stroke-width: 0.75;"/>
<circle cx="855.78" cy="91.02" r="2.70" style="stroke-width: 0.75;"/>
<circle cx="867.02" cy="91.02" r="2.70" style="stroke-width: 0.75;"/>
</g><g clip-path="url(#c2)">
<line x1="91.34" y1="585.60" x2="878.26" y2="585.60" style="stroke-width: 0.75;"/>
<line x1="91.34" y1="585.60" x2="91.34" y2="592.80" style="stroke-width: 0.75;"/>
<line x1="203.75" y1="585.60" x2="203.75" y2="592.80" style="stroke-width: 0.75;"/>
<line x1="316.17" y1="585.60" x2="316.17" y2="592.80" style="stroke-width: 0.75;"/>
<line x1="428.59" y1="585.60" x2="428.59" y2="592.80" style="stroke-width: 0.75;"/>
<line x1="541.01" y1="585.60" x2="541.01" y2="592.80" style="stroke-width: 0.75;"/>
<line x1="653.43" y1="585.60" x2="653.43" y2="592.80" style="stroke-width: 0.75;"/>
<line x1="765.85" y1="585.60" x2="765.85" y2="592.80" style="stroke-width: 0.75;"/>
<line x1="878.26" y1="585.60" x2="878.26" y2="592.80" style="stroke-width: 0.75;"/>
<g><text x="91.34" y="611.52" text-anchor="middle" style="font-family: Arial;font-size: 13.20px;" textLength="7.34px" lengthAdjust="spacingAndGlyphs">0</text></g>
<g><text x="203.75" y="611.52" text-anchor="middle" style="font-family: Arial;font-size: 13.20px;" textLength="14.67px" lengthAdjust="spacingAndGlyphs">10</text></g>
<g><text x="316.17" y="611.52" text-anchor="middle" style="font-family: Arial;font-size: 13.20px;" textLength="14.67px" lengthAdjust="spacingAndGlyphs">20</text></g>
<g><text x="428.59" y="611.52" text-anchor="middle" style="font-family: Arial;font-size: 13.20px;" textLength="14.67px" lengthAdjust="spacingAndGlyphs">30</text></g>
<g><text x="541.01" y="611.52" text-anchor="middle" style="font-family: Arial;font-size: 13.20px;" textLength="14.67px" lengthAdjust="spacingAndGlyphs">40</text></g>
<g><text x="653.43" y="611.52" text-anchor="middle" style="font-family: Arial;font-size: 13.20px;" textLength="14.67px" lengthAdjust="spacingAndGlyphs">50</text></g>
<g><text x="765.85" y="611.52" text-anchor="middle" style="font-family: Arial;font-size: 13.20px;" textLength="14.67px" lengthAdjust="spacingAndGlyphs">60</text></g>
<g><text x="878.26" y="611.52" text-anchor="middle" style="font-family: Arial;font-size: 13.20px;" textLength="14.67px" lengthAdjust="spacingAndGlyphs">70</text></g>
<line x1="72.00" y1="574.29" x2="72.00" y2="84.48" style="stroke-width: 0.75;"/>
<line x1="72.00" y1="574.29" x2="64.80" y2="574.29" style="stroke-width: 0.75;"/>
<line x1="72.00" y1="504.32" x2="64.80" y2="504.32" style="stroke-width: 0.75;"/>
<line x1="72.00" y1="434.35" x2="64.80" y2="434.35" style="stroke-width: 0.75;"/>
<line x1="72.00" y1="364.37" x2="64.80" y2="364.37" style="stroke-width: 0.75;"/>
<line x1="72.00" y1="294.40" x2="64.80" y2="294.40" style="stroke-width: 0.75;"/>
<line x1="72.00" y1="224.42" x2="64.80" y2="224.42" style="stroke-width: 0.75;"/>
<line x1="72.00" y1="154.45" x2="64.80" y2="154.45" style="stroke-width: 0.75;"/>
<line x1="72.00" y1="84.48" x2="64.80" y2="84.48" style="stroke-width: 0.75;"/>
<g><text transform="translate(54.72,574.29) rotate(-90.00)" text-anchor="middle" style="font-family: Arial;font-size: 13.20px;" textLength="25.68px" lengthAdjust="spacingAndGlyphs">0.67</text></g>
<g><text transform="translate(54.72,504.32) rotate(-90.00)" text-anchor="middle" style="font-family: Arial;font-size: 13.20px;" textLength="25.68px" lengthAdjust="spacingAndGlyphs">0.68</text></g>
<g><text transform="translate(54.72,434.35) rotate(-90.00)" text-anchor="middle" style="font-family: Arial;font-size: 13.20px;" textLength="25.68px" lengthAdjust="spacingAndGlyphs">0.69</text></g>
<g><text transform="translate(54.72,364.37) rotate(-90.00)" text-anchor="middle" style="font-family: Arial;font-size: 13.20px;" textLength="25.68px" lengthAdjust="spacingAndGlyphs">0.70</text></g>
<g><text transform="translate(54.72,294.40) rotate(-90.00)" text-anchor="middle" style="font-family: Arial;font-size: 13.20px;" textLength="25.68px" lengthAdjust="spacingAndGlyphs">0.71</text></g>
<g><text transform="translate(54.72,224.42) rotate(-90.00)" text-anchor="middle" style="font-family: Arial;font-size: 13.20px;" textLength="25.68px" lengthAdjust="spacingAndGlyphs">0.72</text></g>
<g><text transform="translate(54.72,154.45) rotate(-90.00)" text-anchor="middle" style="font-family: Arial;font-size: 13.20px;" textLength="25.68px" lengthAdjust="spacingAndGlyphs">0.73</text></g>
<g><text transform="translate(54.72,84.48) rotate(-90.00)" text-anchor="middle" style="font-family: Arial;font-size: 13.20px;" textLength="25.68px" lengthAdjust="spacingAndGlyphs">0.74</text></g>
<polygon points="72.00,585.60 897.60,585.60 897.60,72.00 72.00,72.00" style="stroke-width: 0.75;" />
<g><text x="484.80" y="43.34" text-anchor="middle" style="font-family: Arial;font-size: 20.40px;font-weight: bold;" textLength="259.44px" lengthAdjust="spacingAndGlyphs">HPO - Simple Spline on pH</text></g>
<g><text x="484.80" y="640.32" text-anchor="middle" style="font-family: Arial;font-size: 18.00px;" textLength="15.01px" lengthAdjust="spacingAndGlyphs">df</text></g>
<g><text transform="translate(25.92,328.80) rotate(-90.00)" text-anchor="middle" style="font-family: Arial;font-size: 18.00px;" textLength="82.02px" lengthAdjust="spacingAndGlyphs">MSE Loss</text></g>
</g><g clip-path="url(#c3)">
<circle cx="113.82" cy="566.58" r="2.70" style="stroke-width: 0.75;stroke: #FF0000;fill: #FF0000;"/>
</g>
</svg>