<svg xmlns="http://www.w3.org/2000/svg" xmlns:xlink="http://www.w3.org/1999/xlink" class="httpgd" width="1176.00" height="840.00" viewBox="0 0 940.80 672.00">
<defs>
  <style type='text/css'><![CDATA[
    .httpgd line, .httpgd polyline, .httpgd polygon, .httpgd path, .httpgd rect, .httpgd circle {
      fill: none;
      stroke: #000000;
      stroke-linecap: round;
      stroke-linejoin: round;
      stroke-miterlimit: 10.00;
    }
  ]]></style>
<clipPath id="c0"><rect x="0.00" y="0.00" width="940.80" height="672.00"/></clipPath>
<clipPath id="c1"><rect x="72.00" y="72.00" width="825.60" height="513.60"/></clipPath>
<clipPath id="c2"><rect x="0.00" y="0.00" width="940.80" height="672.00"/></clipPath>
<clipPath id="c3"><rect x="72.00" y="72.00" width="825.60" height="513.60"/></clipPath>
</defs>
<rect width="100%" height="100%" style="stroke: none;fill: #FFFFFF;"/>
<g clip-path="url(#c0)">
</g><g clip-path="url(#c1)">
<line x1="105.58" y1="560.03" x2="110.82" y2="548.58" style="stroke-width: 0.75;"/>
<line x1="114.78" y1="534.90" x2="124.10" y2="465.96" style="stroke-width: 0.75;"/>
<line x1="125.89" y1="451.67" x2="135.48" y2="368.46" style="stroke-width: 0.75;"/>
<line x1="137.46" y1="354.20" x2="146.39" y2="299.38" style="stroke-width: 0.75;"/>
<line x1="149.65" y1="285.39" x2="156.68" y2="262.41" style="stroke-width: 0.75;"/>
<line x1="163.09" y1="249.75" x2="165.73" y2="246.20" style="stroke-width: 0.75;"/>
<circle cx="102.58" cy="566.58" r="2.70" style="stroke-width: 0.75;"/>
<circle cx="113.82" cy="542.03" r="2.70" style="stroke-width: 0.75;"/>
<circle cx="125.06" cy="458.82" r="2.70" style="stroke-width: 0.75;"/>
<circle cx="136.30" cy="361.31" r="2.70" style="stroke-width: 0.75;"/>
<circle cx="147.55" cy="292.28" r="2.70" style="stroke-width: 0.75;"/>
<circle cx="158.79" cy="255.52" r="2.70" style="stroke-width: 0.75;"/>
<circle cx="170.03" cy="240.43" r="2.70" style="stroke-width: 0.75;"/>
<circle cx="181.27" cy="236.43" r="2.70" style="stroke-width: 0.75;"/>
<circle cx="192.51" cy="236.70" r="2.70" style="stroke-width: 0.75;"/>
<circle cx="203.75" cy="238.30" r="2.70" style="stroke-width: 0.75;"/>
<circle cx="215.00" cy="240.47" r="2.70" style="stroke-width: 0.75;"/>
<circle cx="226.24" cy="243.26" r="2.70" style="stroke-width: 0.75;"/>
<circle cx="237.48" cy="246.71" r="2.70" style="stroke-width: 0.75;"/>
<circle cx="248.72" cy="250.67" r="2.70" style="stroke-width: 0.75;"/>
<circle cx="259.96" cy="254.83" r="2.70" style="stroke-width: 0.75;"/>
<circle cx="271.21" cy="258.79" r="2.70" style="stroke-width: 0.75;"/>
<circle cx="282.45" cy="262.22" r="2.70" style="stroke-width: 0.75;"/>
<circle cx="293.69" cy="264.89" r="2.70" style="stroke-width: 0.75;"/>
<circle cx="304.93" cy="266.64" r="2.70" style="stroke-width: 0.75;"/>
<circle cx="316.17" cy="267.42" r="2.70" style="stroke-width: 0.75;"/>
<circle cx="327.41" cy="267.24" r="2.70" style="stroke-width: 0.75;"/>
<circle cx="338.66" cy="266.13" r="2.70" style="stroke-width: 0.75;"/>
<circle cx="349.90" cy="264.17" r="2.70" style="stroke-width: 0.75;"/>
<circle cx="361.14" cy="261.42" r="2.70" style="stroke-width: 0.75;"/>
<circle cx="372.38" cy="257.94" r="2.70" style="stroke-width: 0.75;"/>
<circle cx="383.62" cy="253.82" r="2.70" style="stroke-width: 0.75;"/>
<circle cx="394.87" cy="249.11" r="2.70" style="stroke-width: 0.75;"/>
<circle cx="406.11" cy="243.89" r="2.70" style="stroke-width: 0.75;"/>
<circle cx="417.35" cy="238.19" r="2.70" style="stroke-width: 0.75;"/>
<circle cx="428.59" cy="232.10" r="2.70" style="stroke-width: 0.75;"/>
<circle cx="439.83" cy="225.67" r="2.70" style="stroke-width: 0.75;"/>
<circle cx="451.07" cy="218.99" r="2.70" style="stroke-width: 0.75;"/>
<circle cx="462.32" cy="212.03" r="2.70" style="stroke-width: 0.75;"/>
<circle cx="473.56" cy="204.88" r="2.70" style="stroke-width: 0.75;"/>
<circle cx="484.80" cy="197.60" r="2.70" style="stroke-width: 0.75;"/>
<circle cx="496.04" cy="190.17" r="2.70" style="stroke-width: 0.75;"/>
<circle cx="507.28" cy="182.83" r="2.70" style="stroke-width: 0.75;"/>
<circle cx="518.53" cy="175.36" r="2.70" style="stroke-width: 0.75;"/>
<circle cx="529.77" cy="168.02" r="2.70" style="stroke-width: 0.75;"/>
<circle cx="541.01" cy="160.79" r="2.70" style="stroke-width: 0.75;"/>
<circle cx="552.25" cy="153.70" r="2.70" style="stroke-width: 0.75;"/>
<circle cx="563.49" cy="146.82" r="2.70" style="stroke-width: 0.75;"/>
<circle cx="574.73" cy="140.17" r="2.70" style="stroke-width: 0.75;"/>
<circle cx="585.98" cy="133.79" r="2.70" style="stroke-width: 0.75;"/>
<circle cx="597.22" cy="127.79" r="2.70" style="stroke-width: 0.75;"/>
<circle cx="608.46" cy="122.04" r="2.70" style="stroke-width: 0.75;"/>
<circle cx="619.70" cy="116.78" r="2.70" style="stroke-width: 0.75;"/>
<circle cx="630.94" cy="111.89" r="2.70" style="stroke-width: 0.75;"/>
<circle cx="642.19" cy="107.42" r="2.70" style="stroke-width: 0.75;"/>
<circle cx="653.43" cy="103.53" r="2.70" style="stroke-width: 0.75;"/>
<circle cx="664.67" cy="100.10" r="2.70" style="stroke-width: 0.75;"/>
<circle cx="675.91" cy="97.20" r="2.70" style="stroke-width: 0.75;"/>
<circle cx="687.15" cy="94.85" r="2.70" style="stroke-width: 0.75;"/>
<circle cx="698.39" cy="93.06" r="2.70" style="stroke-width: 0.75;"/>
<circle cx="709.64" cy="91.82" r="2.70" style="stroke-width: 0.75;"/>
<circle cx="720.88" cy="91.15" r="2.70" style="stroke-width: 0.75;"/>
<circle cx="732.12" cy="91.02" r="2.70" style="stroke-width: 0.75;"/>
<circle cx="743.36" cy="91.42" r="2.70" style="stroke-width: 0.75;"/>
<circle cx="754.60" cy="92.33" r="2.70" style="stroke-width: 0.75;"/>
<circle cx="765.85" cy="93.71" r="2.70" style="stroke-width: 0.75;"/>
<circle cx="777.09" cy="95.49" r="2.70" style="stroke-width: 0.75;"/>
<circle cx="788.33" cy="97.70" r="2.70" style="stroke-width: 0.75;"/>
<circle cx="799.57" cy="100.29" r="2.70" style="stroke-width: 0.75;"/>
<circle cx="810.81" cy="103.14" r="2.70" style="stroke-width: 0.75;"/>
<circle cx="822.05" cy="106.29" r="2.70" style="stroke-width: 0.75;"/>
<circle cx="833.30" cy="109.68" r="2.70" style="stroke-width: 0.75;"/>
<circle cx="844.54" cy="113.27" r="2.70" style="stroke-width: 0.75;"/>
<circle cx="855.78" cy="117.03" r="2.70" style="stroke-width: 0.75;"/>
<circle cx="867.02" cy="120.98" r="2.70" style="stroke-width: 0.75;"/>
</g><g clip-path="url(#c2)">
<line x1="91.34" y1="585.60" x2="878.26" y2="585.60" style="stroke-width: 0.75;"/>
<line x1="91.34" y1="585.60" x2="91.34" y2="592.80" style="stroke-width: 0.75;"/>
<line x1="203.75" y1="585.60" x2="203.75" y2="592.80" style="stroke-width: 0.75;"/>
<line x1="316.17" y1="585.60" x2="316.17" y2="592.80" style="stroke-width: 0.75;"/>
<line x1="428.59" y1="585.60" x2="428.59" y2="592.80" style="stroke-width: 0.75;"/>
<line x1="541.01" y1="585.60" x2="541.01" y2="592.80" style="stroke-width: 0.75;"/>
<line x1="653.43" y1="585.60" x2="653.43" y2="592.80" style="stroke-width: 0.75;"/>
<line x1="765.85" y1="585.60" x2="765.85" y2="592.80" style="stroke-width: 0.75;"/>
<line x1="878.26" y1="585.60" x2="878.26" y2="592.80" style="stroke-width: 0.75;"/>
<g><text x="91.34" y="611.52" text-anchor="middle" style="font-family: Arial;font-size: 13.20px;" textLength="7.34px" lengthAdjust="spacingAndGlyphs">0</text></g>
<g><text x="203.75" y="611.52" text-anchor="middle" style="font-family: Arial;font-size: 13.20px;" textLength="14.67px" lengthAdjust="spacingAndGlyphs">10</text></g>
<g><text x="316.17" y="611.52" text-anchor="middle" style="font-family: Arial;font-size: 13.20px;" textLength="14.67px" lengthAdjust="spacingAndGlyphs">20</text></g>
<g><text x="428.59" y="611.52" text-anchor="middle" style="font-family: Arial;font-size: 13.20px;" textLength="14.67px" lengthAdjust="spacingAndGlyphs">30</text></g>
<g><text x="541.01" y="611.52" text-anchor="middle" style="font-family: Arial;font-size: 13.20px;" textLength="14.67px" lengthAdjust="spacingAndGlyphs">40</text></g>
<g><text x="653.43" y="611.52" text-anchor="middle" style="font-family: Arial;font-size: 13.20px;" textLength="14.67px" lengthAdjust="spacingAndGlyphs">50</text></g>
<g><text x="765.85" y="611.52" text-anchor="middle" style="font-family: Arial;font-size: 13.20px;" textLength="14.67px" lengthAdjust="spacingAndGlyphs">60</text></g>
<g><text x="878.26" y="611.52" text-anchor="middle" style="font-family: Arial;font-size: 13.20px;" textLength="14.67px" lengthAdjust="spacingAndGlyphs">70</text></g>
<line x1="72.00" y1="572.92" x2="72.00" y2="94.12" style="stroke-width: 0.75;"/>
<line x1="72.00" y1="572.92" x2="64.80" y2="572.92" style="stroke-width: 0.75;"/>
<line x1="72.00" y1="504.52" x2="64.80" y2="504.52" style="stroke-width: 0.75;"/>
<line x1="72.00" y1="436.12" x2="64.80" y2="436.12" style="stroke-width: 0.75;"/>
<line x1="72.00" y1="367.72" x2="64.80" y2="367.72" style="stroke-width: 0.75;"/>
<line x1="72.00" y1="299.32" x2="64.80" y2="299.32" style="stroke-width: 0.75;"/>
<line x1="72.00" y1="230.92" x2="64.80" y2="230.92" style="stroke-width: 0.75;"/>
<line x1="72.00" y1="162.52" x2="64.80" y2="162.52" style="stroke-width: 0.75;"/>
<line x1="72.00" y1="94.12" x2="64.80" y2="94.12" style="stroke-width: 0.75;"/>
<g><text transform="translate(54.72,572.92) rotate(-90.00)" text-anchor="middle" style="font-family: Arial;font-size: 13.20px;" textLength="25.68px" lengthAdjust="spacingAndGlyphs">2.45</text></g>
<g><text transform="translate(54.72,504.52) rotate(-90.00)" text-anchor="middle" style="font-family: Arial;font-size: 13.20px;" textLength="25.68px" lengthAdjust="spacingAndGlyphs">2.50</text></g>
<g><text transform="translate(54.72,436.12) rotate(-90.00)" text-anchor="middle" style="font-family: Arial;font-size: 13.20px;" textLength="25.68px" lengthAdjust="spacingAndGlyphs">2.55</text></g>
<g><text transform="translate(54.72,367.72) rotate(-90.00)" text-anchor="middle" style="font-family: Arial;font-size: 13.20px;" textLength="25.68px" lengthAdjust="spacingAndGlyphs">2.60</text></g>
<g><text transform="translate(54.72,299.32) rotate(-90.00)" text-anchor="middle" style="font-family: Arial;font-size: 13.20px;" textLength="25.68px" lengthAdjust="spacingAndGlyphs">2.65</text></g>
<g><text transform="translate(54.72,230.92) rotate(-90.00)" text-anchor="middle" style="font-family: Arial;font-size: 13.20px;" textLength="25.68px" lengthAdjust="spacingAndGlyphs">2.70</text></g>
<g><text transform="translate(54.72,162.52) rotate(-90.00)" text-anchor="middle" style="font-family: Arial;font-size: 13.20px;" textLength="25.68px" lengthAdjust="spacingAndGlyphs">2.75</text></g>
<g><text transform="translate(54.72,94.12) rotate(-90.00)" text-anchor="middle" style="font-family: Arial;font-size: 13.20px;" textLength="25.68px" lengthAdjust="spacingAndGlyphs">2.80</text></g>
<polygon points="72.00,585.60 897.60,585.60 897.60,72.00 72.00,72.00" style="stroke-width: 0.75;" />
<g><text x="484.80" y="43.34" text-anchor="middle" style="font-family: Arial;font-size: 20.40px;font-weight: bold;" textLength="609.54px" lengthAdjust="spacingAndGlyphs">HPO - Weighted spline pH with balanced data (hybrid sampled)</text></g>
<g><text x="484.80" y="640.32" text-anchor="middle" style="font-family: Arial;font-size: 18.00px;" textLength="15.01px" lengthAdjust="spacingAndGlyphs">df</text></g>
<g><text transform="translate(25.92,328.80) rotate(-90.00)" text-anchor="middle" style="font-family: Arial;font-size: 18.00px;" textLength="82.02px" lengthAdjust="spacingAndGlyphs">MSE Loss</text></g>
</g><g clip-path="url(#c3)">
<circle cx="102.58" cy="566.58" r="2.70" style="stroke-width: 0.75;stroke: #FF0000;fill: #FF0000;"/>
</g>
</svg>