<svg xmlns="http://www.w3.org/2000/svg" xmlns:xlink="http://www.w3.org/1999/xlink" class="httpgd" width="1176.00" height="840.00" viewBox="0 0 940.80 672.00">
<defs>
  <style type='text/css'><![CDATA[
    .httpgd line, .httpgd polyline, .httpgd polygon, .httpgd path, .httpgd rect, .httpgd circle {
      fill: none;
      stroke: #000000;
      stroke-linecap: round;
      stroke-linejoin: round;
      stroke-miterlimit: 10.00;
    }
  ]]></style>
<clipPath id="c0"><rect x="0.00" y="0.00" width="940.80" height="672.00"/></clipPath>
<clipPath id="c1"><rect x="72.00" y="72.00" width="825.60" height="513.60"/></clipPath>
<clipPath id="c2"><rect x="0.00" y="0.00" width="940.80" height="672.00"/></clipPath>
<clipPath id="c3"><rect x="72.00" y="72.00" width="825.60" height="513.60"/></clipPath>
</defs>
<rect width="100%" height="100%" style="stroke: none;fill: #FFFFFF;"/>
<g clip-path="url(#c0)">
</g><g clip-path="url(#c1)">
<line x1="107.94" y1="561.77" x2="108.46" y2="561.30" style="stroke-width: 0.75;"/>
<line x1="117.73" y1="550.45" x2="121.15" y2="545.17" style="stroke-width: 0.75;"/>
<line x1="129.03" y1="533.12" x2="132.33" y2="528.12" style="stroke-width: 0.75;"/>
<line x1="141.22" y1="516.85" x2="142.63" y2="515.34" style="stroke-width: 0.75;"/>
<line x1="153.12" y1="505.52" x2="153.22" y2="505.44" style="stroke-width: 0.75;"/>
<line x1="164.26" y1="496.20" x2="164.56" y2="495.94" style="stroke-width: 0.75;"/>
<line x1="175.02" y1="486.07" x2="176.28" y2="484.77" style="stroke-width: 0.75;"/>
<line x1="185.89" y1="474.05" x2="187.90" y2="471.64" style="stroke-width: 0.75;"/>
<line x1="196.97" y1="460.46" x2="199.29" y2="457.52" style="stroke-width: 0.75;"/>
<line x1="208.20" y1="446.20" x2="210.55" y2="443.20" style="stroke-width: 0.75;"/>
<line x1="219.48" y1="431.90" x2="221.76" y2="429.04" style="stroke-width: 0.75;"/>
<line x1="230.72" y1="417.77" x2="232.99" y2="414.92" style="stroke-width: 0.75;"/>
<line x1="241.94" y1="403.64" x2="244.26" y2="400.71" style="stroke-width: 0.75;"/>
<line x1="253.15" y1="389.39" x2="255.53" y2="386.34" style="stroke-width: 0.75;"/>
<line x1="264.37" y1="374.97" x2="266.79" y2="371.85" style="stroke-width: 0.75;"/>
<line x1="275.63" y1="360.48" x2="278.02" y2="357.42" style="stroke-width: 0.75;"/>
<line x1="286.93" y1="346.11" x2="289.21" y2="343.24" style="stroke-width: 0.75;"/>
<line x1="298.27" y1="332.04" x2="300.35" y2="329.51" style="stroke-width: 0.75;"/>
<line x1="309.61" y1="318.48" x2="311.50" y2="316.27" style="stroke-width: 0.75;"/>
<line x1="320.96" y1="305.41" x2="322.63" y2="303.53" style="stroke-width: 0.75;"/>
<line x1="332.37" y1="292.92" x2="333.70" y2="291.51" style="stroke-width: 0.75;"/>
<line x1="343.73" y1="281.17" x2="344.83" y2="280.07" style="stroke-width: 0.75;"/>
<line x1="355.09" y1="269.97" x2="355.95" y2="269.14" style="stroke-width: 0.75;"/>
<line x1="366.49" y1="259.34" x2="367.03" y2="258.86" style="stroke-width: 0.75;"/>
<line x1="377.87" y1="249.38" x2="378.14" y2="249.15" style="stroke-width: 0.75;"/>
<line x1="389.22" y1="239.96" x2="389.27" y2="239.92" style="stroke-width: 0.75;"/>
<circle cx="102.58" cy="566.58" r="2.70" style="stroke-width: 0.75;"/>
<circle cx="113.82" cy="556.50" r="2.70" style="stroke-width: 0.75;"/>
<circle cx="125.06" cy="539.12" r="2.70" style="stroke-width: 0.75;"/>
<circle cx="136.30" cy="522.12" r="2.70" style="stroke-width: 0.75;"/>
<circle cx="147.55" cy="510.08" r="2.70" style="stroke-width: 0.75;"/>
<circle cx="158.79" cy="500.88" r="2.70" style="stroke-width: 0.75;"/>
<circle cx="170.03" cy="491.26" r="2.70" style="stroke-width: 0.75;"/>
<circle cx="181.27" cy="479.58" r="2.70" style="stroke-width: 0.75;"/>
<circle cx="192.51" cy="466.11" r="2.70" style="stroke-width: 0.75;"/>
<circle cx="203.75" cy="451.87" r="2.70" style="stroke-width: 0.75;"/>
<circle cx="215.00" cy="437.54" r="2.70" style="stroke-width: 0.75;"/>
<circle cx="226.24" cy="423.40" r="2.70" style="stroke-width: 0.75;"/>
<circle cx="237.48" cy="409.29" r="2.70" style="stroke-width: 0.75;"/>
<circle cx="248.72" cy="395.06" r="2.70" style="stroke-width: 0.75;"/>
<circle cx="259.96" cy="380.66" r="2.70" style="stroke-width: 0.75;"/>
<circle cx="271.21" cy="366.16" r="2.70" style="stroke-width: 0.75;"/>
<circle cx="282.45" cy="351.75" r="2.70" style="stroke-width: 0.75;"/>
<circle cx="293.69" cy="337.60" r="2.70" style="stroke-width: 0.75;"/>
<circle cx="304.93" cy="323.95" r="2.70" style="stroke-width: 0.75;"/>
<circle cx="316.17" cy="310.79" r="2.70" style="stroke-width: 0.75;"/>
<circle cx="327.41" cy="298.15" r="2.70" style="stroke-width: 0.75;"/>
<circle cx="338.66" cy="286.28" r="2.70" style="stroke-width: 0.75;"/>
<circle cx="349.90" cy="274.96" r="2.70" style="stroke-width: 0.75;"/>
<circle cx="361.14" cy="264.15" r="2.70" style="stroke-width: 0.75;"/>
<circle cx="372.38" cy="254.04" r="2.70" style="stroke-width: 0.75;"/>
<circle cx="383.62" cy="244.49" r="2.70" style="stroke-width: 0.75;"/>
<circle cx="394.87" cy="235.39" r="2.70" style="stroke-width: 0.75;"/>
<circle cx="406.11" cy="226.93" r="2.70" style="stroke-width: 0.75;"/>
<circle cx="417.35" cy="218.80" r="2.70" style="stroke-width: 0.75;"/>
<circle cx="428.59" cy="211.19" r="2.70" style="stroke-width: 0.75;"/>
<circle cx="439.83" cy="203.98" r="2.70" style="stroke-width: 0.75;"/>
<circle cx="451.07" cy="197.20" r="2.70" style="stroke-width: 0.75;"/>
<circle cx="462.32" cy="190.70" r="2.70" style="stroke-width: 0.75;"/>
<circle cx="473.56" cy="184.44" r="2.70" style="stroke-width: 0.75;"/>
<circle cx="484.80" cy="178.53" r="2.70" style="stroke-width: 0.75;"/>
<circle cx="496.04" cy="172.92" r="2.70" style="stroke-width: 0.75;"/>
<circle cx="507.28" cy="167.50" r="2.70" style="stroke-width: 0.75;"/>
<circle cx="518.53" cy="162.27" r="2.70" style="stroke-width: 0.75;"/>
<circle cx="529.77" cy="157.33" r="2.70" style="stroke-width: 0.75;"/>
<circle cx="541.01" cy="152.54" r="2.70" style="stroke-width: 0.75;"/>
<circle cx="552.25" cy="147.99" r="2.70" style="stroke-width: 0.75;"/>
<circle cx="563.49" cy="143.64" r="2.70" style="stroke-width: 0.75;"/>
<circle cx="574.73" cy="139.53" r="2.70" style="stroke-width: 0.75;"/>
<circle cx="585.98" cy="135.56" r="2.70" style="stroke-width: 0.75;"/>
<circle cx="597.22" cy="131.74" r="2.70" style="stroke-width: 0.75;"/>
<circle cx="608.46" cy="128.12" r="2.70" style="stroke-width: 0.75;"/>
<circle cx="619.70" cy="124.61" r="2.70" style="stroke-width: 0.75;"/>
<circle cx="630.94" cy="121.21" r="2.70" style="stroke-width: 0.75;"/>
<circle cx="642.19" cy="117.86" r="2.70" style="stroke-width: 0.75;"/>
<circle cx="653.43" cy="114.62" r="2.70" style="stroke-width: 0.75;"/>
<circle cx="664.67" cy="111.43" r="2.70" style="stroke-width: 0.75;"/>
<circle cx="675.91" cy="108.28" r="2.70" style="stroke-width: 0.75;"/>
<circle cx="687.15" cy="105.23" r="2.70" style="stroke-width: 0.75;"/>
<circle cx="698.39" cy="102.28" r="2.70" style="stroke-width: 0.75;"/>
<circle cx="709.64" cy="99.45" r="2.70" style="stroke-width: 0.75;"/>
<circle cx="720.88" cy="96.80" r="2.70" style="stroke-width: 0.75;"/>
<circle cx="732.12" cy="94.36" r="2.70" style="stroke-width: 0.75;"/>
<circle cx="743.36" cy="92.21" r="2.70" style="stroke-width: 0.75;"/>
<circle cx="754.60" cy="91.02" r="2.70" style="stroke-width: 0.75;"/>
<circle cx="765.85" cy="91.02" r="2.70" style="stroke-width: 0.75;"/>
<circle cx="777.09" cy="91.02" r="2.70" style="stroke-width: 0.75;"/>
<circle cx="788.33" cy="91.02" r="2.70" style="stroke-width: 0.75;"/>
<circle cx="799.57" cy="91.02" r="2.70" style="stroke-width: 0.75;"/>
<circle cx="810.81" cy="91.02" r="2.70" style="stroke-width: 0.75;"/>
<circle cx="822.05" cy="91.02" r="2.70" style="stroke-width: 0.75;"/>
<circle cx="833.30" cy="91.02" r="2.70" style="stroke-width: 0.75;"/>
<circle cx="844.54" cy="91.02" r="2.70" style="stroke-width: 0.75;"/>
<circle cx="855.78" cy="91.02" r="2.70" style="stroke-width: 0.75;"/>
<circle cx="867.02" cy="91.02" r="2.70" style="stroke-width: 0.75;"/>
</g><g clip-path="url(#c2)">
<line x1="91.34" y1="585.60" x2="878.26" y2="585.60" style="stroke-width: 0.75;"/>
<line x1="91.34" y1="585.60" x2="91.34" y2="592.80" style="stroke-width: 0.75;"/>
<line x1="203.75" y1="585.60" x2="203.75" y2="592.80" style="stroke-width: 0.75;"/>
<line x1="316.17" y1="585.60" x2="316.17" y2="592.80" style="stroke-width: 0.75;"/>
<line x1="428.59" y1="585.60" x2="428.59" y2="592.80" style="stroke-width: 0.75;"/>
<line x1="541.01" y1="585.60" x2="541.01" y2="592.80" style="stroke-width: 0.75;"/>
<line x1="653.43" y1="585.60" x2="653.43" y2="592.80" style="stroke-width: 0.75;"/>
<line x1="765.85" y1="585.60" x2="765.85" y2="592.80" style="stroke-width: 0.75;"/>
<line x1="878.26" y1="585.60" x2="878.26" y2="592.80" style="stroke-width: 0.75;"/>
<g><text x="91.34" y="611.52" text-anchor="middle" style="font-family: Arial;font-size: 13.20px;" textLength="7.34px" lengthAdjust="spacingAndGlyphs">0</text></g>
<g><text x="203.75" y="611.52" text-anchor="middle" style="font-family: Arial;font-size: 13.20px;" textLength="14.67px" lengthAdjust="spacingAndGlyphs">10</text></g>
<g><text x="316.17" y="611.52" text-anchor="middle" style="font-family: Arial;font-size: 13.20px;" textLength="14.67px" lengthAdjust="spacingAndGlyphs">20</text></g>
<g><text x="428.59" y="611.52" text-anchor="middle" style="font-family: Arial;font-size: 13.20px;" textLength="14.67px" lengthAdjust="spacingAndGlyphs">30</text></g>
<g><text x="541.01" y="611.52" text-anchor="middle" style="font-family: Arial;font-size: 13.20px;" textLength="14.67px" lengthAdjust="spacingAndGlyphs">40</text></g>
<g><text x="653.43" y="611.52" text-anchor="middle" style="font-family: Arial;font-size: 13.20px;" textLength="14.67px" lengthAdjust="spacingAndGlyphs">50</text></g>
<g><text x="765.85" y="611.52" text-anchor="middle" style="font-family: Arial;font-size: 13.20px;" textLength="14.67px" lengthAdjust="spacingAndGlyphs">60</text></g>
<g><text x="878.26" y="611.52" text-anchor="middle" style="font-family: Arial;font-size: 13.20px;" textLength="14.67px" lengthAdjust="spacingAndGlyphs">70</text></g>
<line x1="72.00" y1="555.04" x2="72.00" y2="110.07" style="stroke-width: 0.75;"/>
<line x1="72.00" y1="555.04" x2="64.80" y2="555.04" style="stroke-width: 0.75;"/>
<line x1="72.00" y1="443.80" x2="64.80" y2="443.80" style="stroke-width: 0.75;"/>
<line x1="72.00" y1="332.55" x2="64.80" y2="332.55" style="stroke-width: 0.75;"/>
<line x1="72.00" y1="221.31" x2="64.80" y2="221.31" style="stroke-width: 0.75;"/>
<line x1="72.00" y1="110.07" x2="64.80" y2="110.07" style="stroke-width: 0.75;"/>
<g><text transform="translate(54.72,555.04) rotate(-90.00)" text-anchor="middle" style="font-family: Arial;font-size: 13.20px;" textLength="18.34px" lengthAdjust="spacingAndGlyphs">0.8</text></g>
<g><text transform="translate(54.72,443.80) rotate(-90.00)" text-anchor="middle" style="font-family: Arial;font-size: 13.20px;" textLength="18.34px" lengthAdjust="spacingAndGlyphs">1.0</text></g>
<g><text transform="translate(54.72,332.55) rotate(-90.00)" text-anchor="middle" style="font-family: Arial;font-size: 13.20px;" textLength="18.34px" lengthAdjust="spacingAndGlyphs">1.2</text></g>
<g><text transform="translate(54.72,221.31) rotate(-90.00)" text-anchor="middle" style="font-family: Arial;font-size: 13.20px;" textLength="18.34px" lengthAdjust="spacingAndGlyphs">1.4</text></g>
<g><text transform="translate(54.72,110.07) rotate(-90.00)" text-anchor="middle" style="font-family: Arial;font-size: 13.20px;" textLength="18.34px" lengthAdjust="spacingAndGlyphs">1.6</text></g>
<polygon points="72.00,585.60 897.60,585.60 897.60,72.00 72.00,72.00" style="stroke-width: 0.75;" />
<g><text x="484.80" y="43.34" text-anchor="middle" style="font-family: Arial;font-size: 20.40px;font-weight: bold;" textLength="470.20px" lengthAdjust="spacingAndGlyphs">HPO - Inverse Frequency Weighted Spline on pH</text></g>
<g><text x="484.80" y="640.32" text-anchor="middle" style="font-family: Arial;font-size: 18.00px;" textLength="15.01px" lengthAdjust="spacingAndGlyphs">df</text></g>
<g><text transform="translate(25.92,328.80) rotate(-90.00)" text-anchor="middle" style="font-family: Arial;font-size: 18.00px;" textLength="82.02px" lengthAdjust="spacingAndGlyphs">MSE Loss</text></g>
</g><g clip-path="url(#c3)">
<circle cx="102.58" cy="566.58" r="2.70" style="stroke-width: 0.75;stroke: #FF0000;fill: #FF0000;"/>
</g>
</svg>