<svg xmlns="http://www.w3.org/2000/svg" xmlns:xlink="http://www.w3.org/1999/xlink" class="httpgd" width="1176.00" height="840.00" viewBox="0 0 940.80 672.00">
<defs>
  <style type='text/css'><![CDATA[
    .httpgd line, .httpgd polyline, .httpgd polygon, .httpgd path, .httpgd rect, .httpgd circle {
      fill: none;
      stroke: #000000;
      stroke-linecap: round;
      stroke-linejoin: round;
      stroke-miterlimit: 10.00;
    }
  ]]></style>
<clipPath id="c0"><rect x="0.00" y="0.00" width="940.80" height="672.00"/></clipPath>
<clipPath id="c1"><rect x="72.00" y="72.00" width="825.60" height="513.60"/></clipPath>
<clipPath id="c2"><rect x="0.00" y="0.00" width="940.80" height="672.00"/></clipPath>
<clipPath id="c3"><rect x="72.00" y="72.00" width="825.60" height="513.60"/></clipPath>
</defs>
<rect width="100%" height="100%" style="stroke: none;fill: #FFFFFF;"/>
<g clip-path="url(#c0)">
</g><g clip-path="url(#c1)">
<line x1="105.19" y1="546.49" x2="126.33" y2="492.17" style="stroke-width: 0.75;"/>
<line x1="131.16" y1="492.31" x2="153.07" y2="559.73" style="stroke-width: 0.75;"/>
<line x1="158.26" y1="560.01" x2="178.70" y2="514.68" style="stroke-width: 0.75;"/>
<line x1="187.78" y1="504.33" x2="201.89" y2="495.61" style="stroke-width: 0.75;"/>
<line x1="210.79" y1="485.18" x2="231.60" y2="435.38" style="stroke-width: 0.75;"/>
<line x1="236.18" y1="421.76" x2="258.94" y2="333.79" style="stroke-width: 0.75;"/>
<line x1="264.07" y1="333.21" x2="283.77" y2="371.00" style="stroke-width: 0.75;"/>
<line x1="288.42" y1="370.31" x2="312.14" y2="243.02" style="stroke-width: 0.75;"/>
<line x1="314.75" y1="228.86" x2="338.53" y2="98.11" style="stroke-width: 0.75;"/>
<line x1="340.85" y1="98.15" x2="365.15" y2="266.75" style="stroke-width: 0.75;"/>
<line x1="368.64" y1="267.11" x2="390.08" y2="208.11" style="stroke-width: 0.75;"/>
<line x1="393.86" y1="208.42" x2="417.58" y2="335.87" style="stroke-width: 0.75;"/>
<line x1="420.76" y1="335.99" x2="443.40" y2="251.15" style="stroke-width: 0.75;"/>
<line x1="450.23" y1="238.98" x2="466.65" y2="221.76" style="stroke-width: 0.75;"/>
<line x1="477.40" y1="220.85" x2="492.20" y2="231.83" style="stroke-width: 0.75;"/>
<line x1="503.52" y1="231.53" x2="518.80" y2="218.88" style="stroke-width: 0.75;"/>
<line x1="528.85" y1="219.89" x2="546.19" y2="241.42" style="stroke-width: 0.75;"/>
<line x1="552.97" y1="240.20" x2="574.79" y2="174.50" style="stroke-width: 0.75;"/>
<line x1="577.91" y1="174.82" x2="602.57" y2="382.04" style="stroke-width: 0.75;"/>
<line x1="607.01" y1="382.95" x2="626.19" y2="349.63" style="stroke-width: 0.75;"/>
<line x1="632.15" y1="336.59" x2="653.77" y2="274.43" style="stroke-width: 0.75;"/>
<line x1="658.31" y1="274.50" x2="680.33" y2="344.11" style="stroke-width: 0.75;"/>
<line x1="686.95" y1="345.31" x2="704.41" y2="323.07" style="stroke-width: 0.75;"/>
<line x1="712.30" y1="323.74" x2="731.78" y2="359.56" style="stroke-width: 0.75;"/>
<line x1="737.07" y1="358.93" x2="759.73" y2="273.89" style="stroke-width: 0.75;"/>
<line x1="764.75" y1="273.40" x2="784.77" y2="314.21" style="stroke-width: 0.75;"/>
<line x1="790.48" y1="313.94" x2="811.77" y2="257.32" style="stroke-width: 0.75;"/>
<line x1="817.61" y1="256.98" x2="837.36" y2="295.21" style="stroke-width: 0.75;"/>
<line x1="843.95" y1="295.20" x2="863.73" y2="256.73" style="stroke-width: 0.75;"/>
<circle cx="102.58" cy="553.20" r="2.70" style="stroke-width: 0.75;"/>
<circle cx="128.94" cy="485.46" r="2.70" style="stroke-width: 0.75;"/>
<circle cx="155.30" cy="566.58" r="2.70" style="stroke-width: 0.75;"/>
<circle cx="181.66" cy="508.12" r="2.70" style="stroke-width: 0.75;"/>
<circle cx="208.02" cy="491.82" r="2.70" style="stroke-width: 0.75;"/>
<circle cx="234.38" cy="428.73" r="2.70" style="stroke-width: 0.75;"/>
<circle cx="260.74" cy="326.82" r="2.70" style="stroke-width: 0.75;"/>
<circle cx="287.10" cy="377.39" r="2.70" style="stroke-width: 0.75;"/>
<circle cx="313.46" cy="235.94" r="2.70" style="stroke-width: 0.75;"/>
<circle cx="339.82" cy="91.02" r="2.70" style="stroke-width: 0.75;"/>
<circle cx="366.18" cy="273.88" r="2.70" style="stroke-width: 0.75;"/>
<circle cx="392.54" cy="201.34" r="2.70" style="stroke-width: 0.75;"/>
<circle cx="418.90" cy="342.95" r="2.70" style="stroke-width: 0.75;"/>
<circle cx="445.26" cy="244.19" r="2.70" style="stroke-width: 0.75;"/>
<circle cx="471.62" cy="216.55" r="2.70" style="stroke-width: 0.75;"/>
<circle cx="497.98" cy="236.12" r="2.70" style="stroke-width: 0.75;"/>
<circle cx="524.34" cy="214.28" r="2.70" style="stroke-width: 0.75;"/>
<circle cx="550.70" cy="247.03" r="2.70" style="stroke-width: 0.75;"/>
<circle cx="577.06" cy="167.67" r="2.70" style="stroke-width: 0.75;"/>
<circle cx="603.42" cy="389.19" r="2.70" style="stroke-width: 0.75;"/>
<circle cx="629.78" cy="343.39" r="2.70" style="stroke-width: 0.75;"/>
<circle cx="656.14" cy="267.63" r="2.70" style="stroke-width: 0.75;"/>
<circle cx="682.50" cy="350.97" r="2.70" style="stroke-width: 0.75;"/>
<circle cx="708.86" cy="317.41" r="2.70" style="stroke-width: 0.75;"/>
<circle cx="735.22" cy="365.88" r="2.70" style="stroke-width: 0.75;"/>
<circle cx="761.58" cy="266.93" r="2.70" style="stroke-width: 0.75;"/>
<circle cx="787.94" cy="320.68" r="2.70" style="stroke-width: 0.75;"/>
<circle cx="814.30" cy="250.58" r="2.70" style="stroke-width: 0.75;"/>
<circle cx="840.66" cy="301.60" r="2.70" style="stroke-width: 0.75;"/>
<circle cx="867.02" cy="250.33" r="2.70" style="stroke-width: 0.75;"/>
</g><g clip-path="url(#c2)">
<line x1="76.22" y1="585.60" x2="867.02" y2="585.60" style="stroke-width: 0.75;"/>
<line x1="76.22" y1="585.60" x2="76.22" y2="592.80" style="stroke-width: 0.75;"/>
<line x1="208.02" y1="585.60" x2="208.02" y2="592.80" style="stroke-width: 0.75;"/>
<line x1="339.82" y1="585.60" x2="339.82" y2="592.80" style="stroke-width: 0.75;"/>
<line x1="471.62" y1="585.60" x2="471.62" y2="592.80" style="stroke-width: 0.75;"/>
<line x1="603.42" y1="585.60" x2="603.42" y2="592.80" style="stroke-width: 0.75;"/>
<line x1="735.22" y1="585.60" x2="735.22" y2="592.80" style="stroke-width: 0.75;"/>
<line x1="867.02" y1="585.60" x2="867.02" y2="592.80" style="stroke-width: 0.75;"/>
<g><text x="76.22" y="611.52" text-anchor="middle" style="font-family: Arial;font-size: 13.20px;" textLength="7.34px" lengthAdjust="spacingAndGlyphs">0</text></g>
<g><text x="208.02" y="611.52" text-anchor="middle" style="font-family: Arial;font-size: 13.20px;" textLength="7.34px" lengthAdjust="spacingAndGlyphs">5</text></g>
<g><text x="339.82" y="611.52" text-anchor="middle" style="font-family: Arial;font-size: 13.20px;" textLength="14.67px" lengthAdjust="spacingAndGlyphs">10</text></g>
<g><text x="471.62" y="611.52" text-anchor="middle" style="font-family: Arial;font-size: 13.20px;" textLength="14.67px" lengthAdjust="spacingAndGlyphs">15</text></g>
<g><text x="603.42" y="611.52" text-anchor="middle" style="font-family: Arial;font-size: 13.20px;" textLength="14.67px" lengthAdjust="spacingAndGlyphs">20</text></g>
<g><text x="735.22" y="611.52" text-anchor="middle" style="font-family: Arial;font-size: 13.20px;" textLength="14.67px" lengthAdjust="spacingAndGlyphs">25</text></g>
<g><text x="867.02" y="611.52" text-anchor="middle" style="font-family: Arial;font-size: 13.20px;" textLength="14.67px" lengthAdjust="spacingAndGlyphs">30</text></g>
<line x1="72.00" y1="550.14" x2="72.00" y2="174.11" style="stroke-width: 0.75;"/>
<line x1="72.00" y1="550.14" x2="64.80" y2="550.14" style="stroke-width: 0.75;"/>
<line x1="72.00" y1="424.79" x2="64.80" y2="424.79" style="stroke-width: 0.75;"/>
<line x1="72.00" y1="299.45" x2="64.80" y2="299.45" style="stroke-width: 0.75;"/>
<line x1="72.00" y1="174.11" x2="64.80" y2="174.11" style="stroke-width: 0.75;"/>
<g><text transform="translate(54.72,550.14) rotate(-90.00)" text-anchor="middle" style="font-family: Arial;font-size: 13.20px;" textLength="18.34px" lengthAdjust="spacingAndGlyphs">0.8</text></g>
<g><text transform="translate(54.72,424.79) rotate(-90.00)" text-anchor="middle" style="font-family: Arial;font-size: 13.20px;" textLength="18.34px" lengthAdjust="spacingAndGlyphs">1.0</text></g>
<g><text transform="translate(54.72,299.45) rotate(-90.00)" text-anchor="middle" style="font-family: Arial;font-size: 13.20px;" textLength="18.34px" lengthAdjust="spacingAndGlyphs">1.2</text></g>
<g><text transform="translate(54.72,174.11) rotate(-90.00)" text-anchor="middle" style="font-family: Arial;font-size: 13.20px;" textLength="18.34px" lengthAdjust="spacingAndGlyphs">1.4</text></g>
<polygon points="72.00,585.60 897.60,585.60 897.60,72.00 72.00,72.00" style="stroke-width: 0.75;" />
<g><text x="484.80" y="43.34" text-anchor="middle" style="font-family: Arial;font-size: 20.40px;font-weight: bold;" textLength="462.28px" lengthAdjust="spacingAndGlyphs">HPO - PPR with balanced data (hybrid sampled)</text></g>
<g><text x="484.80" y="640.32" text-anchor="middle" style="font-family: Arial;font-size: 18.00px;" textLength="134.04px" lengthAdjust="spacingAndGlyphs">Number of terms</text></g>
<g><text transform="translate(25.92,328.80) rotate(-90.00)" text-anchor="middle" style="font-family: Arial;font-size: 18.00px;" textLength="82.02px" lengthAdjust="spacingAndGlyphs">MSE Loss</text></g>
</g><g clip-path="url(#c3)">
<circle cx="155.30" cy="566.58" r="2.70" style="stroke-width: 0.75;stroke: #FF0000;fill: #FF0000;"/>
</g>
</svg>