<svg xmlns="http://www.w3.org/2000/svg" xmlns:xlink="http://www.w3.org/1999/xlink" class="httpgd" width="1176.00" height="840.00" viewBox="0 0 940.80 672.00">
<defs>
  <style type='text/css'><![CDATA[
    .httpgd line, .httpgd polyline, .httpgd polygon, .httpgd path, .httpgd rect, .httpgd circle {
      fill: none;
      stroke: #000000;
      stroke-linecap: round;
      stroke-linejoin: round;
      stroke-miterlimit: 10.00;
    }
  ]]></style>
<clipPath id="c0"><rect x="0.00" y="0.00" width="940.80" height="672.00"/></clipPath>
<clipPath id="c1"><rect x="72.00" y="72.00" width="825.60" height="513.60"/></clipPath>
<clipPath id="c2"><rect x="0.00" y="0.00" width="940.80" height="672.00"/></clipPath>
<clipPath id="c3"><rect x="72.00" y="72.00" width="825.60" height="513.60"/></clipPath>
</defs>
<rect width="100%" height="100%" style="stroke: none;fill: #FFFFFF;"/>
<g clip-path="url(#c0)">
</g><g clip-path="url(#c1)">
<line x1="109.07" y1="524.73" x2="122.44" y2="518.34" style="stroke-width: 0.75;"/>
<line x1="136.14" y1="515.13" x2="148.10" y2="514.96" style="stroke-width: 0.75;"/>
<line x1="162.49" y1="514.53" x2="174.47" y2="513.99" style="stroke-width: 0.75;"/>
<line x1="184.87" y1="520.11" x2="204.81" y2="560.13" style="stroke-width: 0.75;"/>
<line x1="214.98" y1="564.74" x2="227.42" y2="561.47" style="stroke-width: 0.75;"/>
<line x1="240.34" y1="555.59" x2="254.78" y2="545.78" style="stroke-width: 0.75;"/>
<line x1="267.85" y1="542.87" x2="279.99" y2="544.79" style="stroke-width: 0.75;"/>
<line x1="290.24" y1="539.44" x2="310.32" y2="498.08" style="stroke-width: 0.75;"/>
<line x1="317.11" y1="485.40" x2="336.17" y2="453.01" style="stroke-width: 0.75;"/>
<line x1="343.33" y1="453.09" x2="362.67" y2="487.77" style="stroke-width: 0.75;"/>
<line x1="370.18" y1="488.07" x2="388.54" y2="460.55" style="stroke-width: 0.75;"/>
<line x1="394.57" y1="447.66" x2="416.87" y2="371.81" style="stroke-width: 0.75;"/>
<line x1="424.84" y1="368.97" x2="439.32" y2="378.88" style="stroke-width: 0.75;"/>
<line x1="451.87" y1="380.09" x2="465.01" y2="374.40" style="stroke-width: 0.75;"/>
<line x1="473.96" y1="378.35" x2="495.64" y2="441.43" style="stroke-width: 0.75;"/>
<line x1="500.91" y1="441.66" x2="521.41" y2="395.69" style="stroke-width: 0.75;"/>
<line x1="525.38" y1="381.99" x2="549.66" y2="215.42" style="stroke-width: 0.75;"/>
<line x1="552.71" y1="215.21" x2="575.05" y2="291.94" style="stroke-width: 0.75;"/>
<line x1="580.69" y1="305.08" x2="599.80" y2="337.86" style="stroke-width: 0.75;"/>
<line x1="609.20" y1="339.79" x2="624.00" y2="328.81" style="stroke-width: 0.75;"/>
<line x1="631.23" y1="317.47" x2="654.69" y2="203.74" style="stroke-width: 0.75;"/>
<line x1="658.37" y1="203.54" x2="680.27" y2="270.65" style="stroke-width: 0.75;"/>
<line x1="684.43" y1="270.56" x2="706.93" y2="189.89" style="stroke-width: 0.75;"/>
<line x1="711.69" y1="189.57" x2="732.39" y2="238.05" style="stroke-width: 0.75;"/>
<line x1="737.21" y1="237.75" x2="759.60" y2="159.66" style="stroke-width: 0.75;"/>
<line x1="763.67" y1="159.63" x2="785.85" y2="232.80" style="stroke-width: 0.75;"/>
<line x1="789.25" y1="232.61" x2="812.99" y2="104.23" style="stroke-width: 0.75;"/>
<line x1="818.03" y1="103.31" x2="836.94" y2="134.57" style="stroke-width: 0.75;"/>
<line x1="844.04" y1="134.37" x2="863.65" y2="97.38" style="stroke-width: 0.75;"/>
<circle cx="102.58" cy="527.84" r="2.70" style="stroke-width: 0.75;"/>
<circle cx="128.94" cy="515.23" r="2.70" style="stroke-width: 0.75;"/>
<circle cx="155.30" cy="514.86" r="2.70" style="stroke-width: 0.75;"/>
<circle cx="181.66" cy="513.66" r="2.70" style="stroke-width: 0.75;"/>
<circle cx="208.02" cy="566.58" r="2.70" style="stroke-width: 0.75;"/>
<circle cx="234.38" cy="559.64" r="2.70" style="stroke-width: 0.75;"/>
<circle cx="260.74" cy="541.74" r="2.70" style="stroke-width: 0.75;"/>
<circle cx="287.10" cy="545.92" r="2.70" style="stroke-width: 0.75;"/>
<circle cx="313.46" cy="491.60" r="2.70" style="stroke-width: 0.75;"/>
<circle cx="339.82" cy="446.80" r="2.70" style="stroke-width: 0.75;"/>
<circle cx="366.18" cy="494.06" r="2.70" style="stroke-width: 0.75;"/>
<circle cx="392.54" cy="454.56" r="2.70" style="stroke-width: 0.75;"/>
<circle cx="418.90" cy="364.90" r="2.70" style="stroke-width: 0.75;"/>
<circle cx="445.26" cy="382.95" r="2.70" style="stroke-width: 0.75;"/>
<circle cx="471.62" cy="371.54" r="2.70" style="stroke-width: 0.75;"/>
<circle cx="497.98" cy="448.24" r="2.70" style="stroke-width: 0.75;"/>
<circle cx="524.34" cy="389.11" r="2.70" style="stroke-width: 0.75;"/>
<circle cx="550.70" cy="208.29" r="2.70" style="stroke-width: 0.75;"/>
<circle cx="577.06" cy="298.86" r="2.70" style="stroke-width: 0.75;"/>
<circle cx="603.42" cy="344.08" r="2.70" style="stroke-width: 0.75;"/>
<circle cx="629.78" cy="324.52" r="2.70" style="stroke-width: 0.75;"/>
<circle cx="656.14" cy="196.69" r="2.70" style="stroke-width: 0.75;"/>
<circle cx="682.50" cy="277.50" r="2.70" style="stroke-width: 0.75;"/>
<circle cx="708.86" cy="182.95" r="2.70" style="stroke-width: 0.75;"/>
<circle cx="735.22" cy="244.67" r="2.70" style="stroke-width: 0.75;"/>
<circle cx="761.58" cy="152.74" r="2.70" style="stroke-width: 0.75;"/>
<circle cx="787.94" cy="239.69" r="2.70" style="stroke-width: 0.75;"/>
<circle cx="814.30" cy="97.15" r="2.70" style="stroke-width: 0.75;"/>
<circle cx="840.66" cy="140.73" r="2.70" style="stroke-width: 0.75;"/>
<circle cx="867.02" cy="91.02" r="2.70" style="stroke-width: 0.75;"/>
</g><g clip-path="url(#c2)">
<line x1="76.22" y1="585.60" x2="867.02" y2="585.60" style="stroke-width: 0.75;"/>
<line x1="76.22" y1="585.60" x2="76.22" y2="592.80" style="stroke-width: 0.75;"/>
<line x1="208.02" y1="585.60" x2="208.02" y2="592.80" style="stroke-width: 0.75;"/>
<line x1="339.82" y1="585.60" x2="339.82" y2="592.80" style="stroke-width: 0.75;"/>
<line x1="471.62" y1="585.60" x2="471.62" y2="592.80" style="stroke-width: 0.75;"/>
<line x1="603.42" y1="585.60" x2="603.42" y2="592.80" style="stroke-width: 0.75;"/>
<line x1="735.22" y1="585.60" x2="735.22" y2="592.80" style="stroke-width: 0.75;"/>
<line x1="867.02" y1="585.60" x2="867.02" y2="592.80" style="stroke-width: 0.75;"/>
<g><text x="76.22" y="611.52" text-anchor="middle" style="font-family: Arial;font-size: 13.20px;" textLength="7.34px" lengthAdjust="spacingAndGlyphs">0</text></g>
<g><text x="208.02" y="611.52" text-anchor="middle" style="font-family: Arial;font-size: 13.20px;" textLength="7.34px" lengthAdjust="spacingAndGlyphs">5</text></g>
<g><text x="339.82" y="611.52" text-anchor="middle" style="font-family: Arial;font-size: 13.20px;" textLength="14.67px" lengthAdjust="spacingAndGlyphs">10</text></g>
<g><text x="471.62" y="611.52" text-anchor="middle" style="font-family: Arial;font-size: 13.20px;" textLength="14.67px" lengthAdjust="spacingAndGlyphs">15</text></g>
<g><text x="603.42" y="611.52" text-anchor="middle" style="font-family: Arial;font-size: 13.20px;" textLength="14.67px" lengthAdjust="spacingAndGlyphs">20</text></g>
<g><text x="735.22" y="611.52" text-anchor="middle" style="font-family: Arial;font-size: 13.20px;" textLength="14.67px" lengthAdjust="spacingAndGlyphs">25</text></g>
<g><text x="867.02" y="611.52" text-anchor="middle" style="font-family: Arial;font-size: 13.20px;" textLength="14.67px" lengthAdjust="spacingAndGlyphs">30</text></g>
<line x1="72.00" y1="508.21" x2="72.00" y2="89.92" style="stroke-width: 0.75;"/>
<line x1="72.00" y1="508.21" x2="64.80" y2="508.21" style="stroke-width: 0.75;"/>
<line x1="72.00" y1="424.55" x2="64.80" y2="424.55" style="stroke-width: 0.75;"/>
<line x1="72.00" y1="340.90" x2="64.80" y2="340.90" style="stroke-width: 0.75;"/>
<line x1="72.00" y1="257.24" x2="64.80" y2="257.24" style="stroke-width: 0.75;"/>
<line x1="72.00" y1="173.58" x2="64.80" y2="173.58" style="stroke-width: 0.75;"/>
<line x1="72.00" y1="89.92" x2="64.80" y2="89.92" style="stroke-width: 0.75;"/>
<g><text transform="translate(54.72,508.21) rotate(-90.00)" text-anchor="middle" style="font-family: Arial;font-size: 13.20px;" textLength="25.68px" lengthAdjust="spacingAndGlyphs">0.45</text></g>
<g><text transform="translate(54.72,424.55) rotate(-90.00)" text-anchor="middle" style="font-family: Arial;font-size: 13.20px;" textLength="25.68px" lengthAdjust="spacingAndGlyphs">0.50</text></g>
<g><text transform="translate(54.72,340.90) rotate(-90.00)" text-anchor="middle" style="font-family: Arial;font-size: 13.20px;" textLength="25.68px" lengthAdjust="spacingAndGlyphs">0.55</text></g>
<g><text transform="translate(54.72,257.24) rotate(-90.00)" text-anchor="middle" style="font-family: Arial;font-size: 13.20px;" textLength="25.68px" lengthAdjust="spacingAndGlyphs">0.60</text></g>
<g><text transform="translate(54.72,173.58) rotate(-90.00)" text-anchor="middle" style="font-family: Arial;font-size: 13.20px;" textLength="25.68px" lengthAdjust="spacingAndGlyphs">0.65</text></g>
<g><text transform="translate(54.72,89.92) rotate(-90.00)" text-anchor="middle" style="font-family: Arial;font-size: 13.20px;" textLength="25.68px" lengthAdjust="spacingAndGlyphs">0.70</text></g>
<polygon points="72.00,585.60 897.60,585.60 897.60,72.00 72.00,72.00" style="stroke-width: 0.75;" />
<g><text x="484.80" y="43.34" text-anchor="middle" style="font-family: Arial;font-size: 20.40px;font-weight: bold;" textLength="176.76px" lengthAdjust="spacingAndGlyphs">HPO - Simple PPR</text></g>
<g><text x="484.80" y="640.32" text-anchor="middle" style="font-family: Arial;font-size: 18.00px;" textLength="134.04px" lengthAdjust="spacingAndGlyphs">Number of terms</text></g>
<g><text transform="translate(25.92,328.80) rotate(-90.00)" text-anchor="middle" style="font-family: Arial;font-size: 18.00px;" textLength="82.02px" lengthAdjust="spacingAndGlyphs">MSE Loss</text></g>
</g><g clip-path="url(#c3)">
<circle cx="208.02" cy="566.58" r="2.70" style="stroke-width: 0.75;stroke: #FF0000;fill: #FF0000;"/>
</g>
</svg>