<svg xmlns="http://www.w3.org/2000/svg" xmlns:xlink="http://www.w3.org/1999/xlink" class="httpgd" width="1176.00" height="840.00" viewBox="0 0 940.80 672.00">
<defs>
  <style type='text/css'><![CDATA[
    .httpgd line, .httpgd polyline, .httpgd polygon, .httpgd path, .httpgd rect, .httpgd circle {
      fill: none;
      stroke: #000000;
      stroke-linecap: round;
      stroke-linejoin: round;
      stroke-miterlimit: 10.00;
    }
  ]]></style>
<clipPath id="c0"><rect x="0.00" y="0.00" width="940.80" height="672.00"/></clipPath>
<clipPath id="c1"><rect x="72.00" y="72.00" width="825.60" height="513.60"/></clipPath>
<clipPath id="c2"><rect x="0.00" y="0.00" width="940.80" height="672.00"/></clipPath>
<clipPath id="c3"><rect x="72.00" y="72.00" width="825.60" height="513.60"/></clipPath>
</defs>
<rect width="100%" height="100%" style="stroke: none;fill: #FFFFFF;"/>
<g clip-path="url(#c0)">
</g><g clip-path="url(#c1)">
<line x1="109.75" y1="565.90" x2="121.77" y2="564.76" style="stroke-width: 0.75;"/>
<line x1="135.61" y1="561.38" x2="148.62" y2="556.12" style="stroke-width: 0.75;"/>
<line x1="156.69" y1="546.36" x2="180.27" y2="426.56" style="stroke-width: 0.75;"/>
<line x1="183.81" y1="426.37" x2="205.86" y2="496.62" style="stroke-width: 0.75;"/>
<line x1="209.99" y1="496.57" x2="232.41" y2="417.65" style="stroke-width: 0.75;"/>
<line x1="236.02" y1="417.73" x2="259.10" y2="516.55" style="stroke-width: 0.75;"/>
<line x1="265.82" y1="518.45" x2="282.02" y2="502.16" style="stroke-width: 0.75;"/>
<line x1="290.74" y1="490.84" x2="309.82" y2="458.23" style="stroke-width: 0.75;"/>
<line x1="317.45" y1="446.02" x2="335.83" y2="418.42" style="stroke-width: 0.75;"/>
<line x1="340.82" y1="405.30" x2="365.17" y2="232.63" style="stroke-width: 0.75;"/>
<line x1="370.06" y1="231.56" x2="388.66" y2="260.59" style="stroke-width: 0.75;"/>
<line x1="395.60" y1="260.14" x2="415.84" y2="216.94" style="stroke-width: 0.75;"/>
<line x1="423.14" y1="204.61" x2="441.02" y2="180.11" style="stroke-width: 0.75;"/>
<line x1="450.90" y1="178.77" x2="465.98" y2="190.76" style="stroke-width: 0.75;"/>
<line x1="475.53" y1="201.28" x2="494.07" y2="229.96" style="stroke-width: 0.75;"/>
<line x1="503.92" y1="231.94" x2="518.40" y2="222.05" style="stroke-width: 0.75;"/>
<line x1="530.87" y1="214.95" x2="544.17" y2="208.76" style="stroke-width: 0.75;"/>
<line x1="556.99" y1="202.21" x2="570.78" y2="194.50" style="stroke-width: 0.75;"/>
<line x1="583.45" y1="194.31" x2="597.03" y2="201.38" style="stroke-width: 0.75;"/>
<line x1="607.33" y1="210.75" x2="625.87" y2="239.41" style="stroke-width: 0.75;"/>
<line x1="631.62" y1="252.42" x2="654.30" y2="338.13" style="stroke-width: 0.75;"/>
<line x1="660.07" y1="339.05" x2="678.57" y2="310.64" style="stroke-width: 0.75;"/>
<line x1="683.74" y1="297.52" x2="707.63" y2="160.32" style="stroke-width: 0.75;"/>
<line x1="712.09" y1="159.67" x2="731.99" y2="199.33" style="stroke-width: 0.75;"/>
<line x1="736.83" y1="198.75" x2="759.97" y2="98.04" style="stroke-width: 0.75;"/>
<line x1="762.48" y1="98.17" x2="787.04" y2="292.90" style="stroke-width: 0.75;"/>
<line x1="789.42" y1="293.00" x2="812.83" y2="181.14" style="stroke-width: 0.75;"/>
<line x1="816.33" y1="181.00" x2="838.63" y2="256.77" style="stroke-width: 0.75;"/>
<line x1="845.79" y1="268.73" x2="861.89" y2="284.60" style="stroke-width: 0.75;"/>
<circle cx="102.58" cy="566.58" r="2.70" style="stroke-width: 0.75;"/>
<circle cx="128.94" cy="564.08" r="2.70" style="stroke-width: 0.75;"/>
<circle cx="155.30" cy="553.42" r="2.70" style="stroke-width: 0.75;"/>
<circle cx="181.66" cy="419.50" r="2.70" style="stroke-width: 0.75;"/>
<circle cx="208.02" cy="503.49" r="2.70" style="stroke-width: 0.75;"/>
<circle cx="234.38" cy="410.72" r="2.70" style="stroke-width: 0.75;"/>
<circle cx="260.74" cy="523.56" r="2.70" style="stroke-width: 0.75;"/>
<circle cx="287.10" cy="497.06" r="2.70" style="stroke-width: 0.75;"/>
<circle cx="313.46" cy="452.02" r="2.70" style="stroke-width: 0.75;"/>
<circle cx="339.82" cy="412.43" r="2.70" style="stroke-width: 0.75;"/>
<circle cx="366.18" cy="225.50" r="2.70" style="stroke-width: 0.75;"/>
<circle cx="392.54" cy="266.65" r="2.70" style="stroke-width: 0.75;"/>
<circle cx="418.90" cy="210.43" r="2.70" style="stroke-width: 0.75;"/>
<circle cx="445.26" cy="174.29" r="2.70" style="stroke-width: 0.75;"/>
<circle cx="471.62" cy="195.24" r="2.70" style="stroke-width: 0.75;"/>
<circle cx="497.98" cy="236.00" r="2.70" style="stroke-width: 0.75;"/>
<circle cx="524.34" cy="217.98" r="2.70" style="stroke-width: 0.75;"/>
<circle cx="550.70" cy="205.72" r="2.70" style="stroke-width: 0.75;"/>
<circle cx="577.06" cy="190.99" r="2.70" style="stroke-width: 0.75;"/>
<circle cx="603.42" cy="204.70" r="2.70" style="stroke-width: 0.75;"/>
<circle cx="629.78" cy="245.46" r="2.70" style="stroke-width: 0.75;"/>
<circle cx="656.14" cy="345.09" r="2.70" style="stroke-width: 0.75;"/>
<circle cx="682.50" cy="304.61" r="2.70" style="stroke-width: 0.75;"/>
<circle cx="708.86" cy="153.23" r="2.70" style="stroke-width: 0.75;"/>
<circle cx="735.22" cy="205.76" r="2.70" style="stroke-width: 0.75;"/>
<circle cx="761.58" cy="91.02" r="2.70" style="stroke-width: 0.75;"/>
<circle cx="787.94" cy="300.05" r="2.70" style="stroke-width: 0.75;"/>
<circle cx="814.30" cy="174.09" r="2.70" style="stroke-width: 0.75;"/>
<circle cx="840.66" cy="263.68" r="2.70" style="stroke-width: 0.75;"/>
<circle cx="867.02" cy="289.65" r="2.70" style="stroke-width: 0.75;"/>
</g><g clip-path="url(#c2)">
<line x1="76.22" y1="585.60" x2="867.02" y2="585.60" style="stroke-width: 0.75;"/>
<line x1="76.22" y1="585.60" x2="76.22" y2="592.80" style="stroke-width: 0.75;"/>
<line x1="208.02" y1="585.60" x2="208.02" y2="592.80" style="stroke-width: 0.75;"/>
<line x1="339.82" y1="585.60" x2="339.82" y2="592.80" style="stroke-width: 0.75;"/>
<line x1="471.62" y1="585.60" x2="471.62" y2="592.80" style="stroke-width: 0.75;"/>
<line x1="603.42" y1="585.60" x2="603.42" y2="592.80" style="stroke-width: 0.75;"/>
<line x1="735.22" y1="585.60" x2="735.22" y2="592.80" style="stroke-width: 0.75;"/>
<line x1="867.02" y1="585.60" x2="867.02" y2="592.80" style="stroke-width: 0.75;"/>
<g><text x="76.22" y="611.52" text-anchor="middle" style="font-family: Arial;font-size: 13.20px;" textLength="7.34px" lengthAdjust="spacingAndGlyphs">0</text></g>
<g><text x="208.02" y="611.52" text-anchor="middle" style="font-family: Arial;font-size: 13.20px;" textLength="7.34px" lengthAdjust="spacingAndGlyphs">5</text></g>
<g><text x="339.82" y="611.52" text-anchor="middle" style="font-family: Arial;font-size: 13.20px;" textLength="14.67px" lengthAdjust="spacingAndGlyphs">10</text></g>
<g><text x="471.62" y="611.52" text-anchor="middle" style="font-family: Arial;font-size: 13.20px;" textLength="14.67px" lengthAdjust="spacingAndGlyphs">15</text></g>
<g><text x="603.42" y="611.52" text-anchor="middle" style="font-family: Arial;font-size: 13.20px;" textLength="14.67px" lengthAdjust="spacingAndGlyphs">20</text></g>
<g><text x="735.22" y="611.52" text-anchor="middle" style="font-family: Arial;font-size: 13.20px;" textLength="14.67px" lengthAdjust="spacingAndGlyphs">25</text></g>
<g><text x="867.02" y="611.52" text-anchor="middle" style="font-family: Arial;font-size: 13.20px;" textLength="14.67px" lengthAdjust="spacingAndGlyphs">30</text></g>
<line x1="72.00" y1="581.84" x2="72.00" y2="131.73" style="stroke-width: 0.75;"/>
<line x1="72.00" y1="581.84" x2="64.80" y2="581.84" style="stroke-width: 0.75;"/>
<line x1="72.00" y1="506.82" x2="64.80" y2="506.82" style="stroke-width: 0.75;"/>
<line x1="72.00" y1="431.80" x2="64.80" y2="431.80" style="stroke-width: 0.75;"/>
<line x1="72.00" y1="356.78" x2="64.80" y2="356.78" style="stroke-width: 0.75;"/>
<line x1="72.00" y1="281.77" x2="64.80" y2="281.77" style="stroke-width: 0.75;"/>
<line x1="72.00" y1="206.75" x2="64.80" y2="206.75" style="stroke-width: 0.75;"/>
<line x1="72.00" y1="131.73" x2="64.80" y2="131.73" style="stroke-width: 0.75;"/>
<g><text transform="translate(54.72,581.84) rotate(-90.00)" text-anchor="middle" style="font-family: Arial;font-size: 13.20px;" textLength="18.34px" lengthAdjust="spacingAndGlyphs">0.8</text></g>
<g><text transform="translate(54.72,506.82) rotate(-90.00)" text-anchor="middle" style="font-family: Arial;font-size: 13.20px;" textLength="18.34px" lengthAdjust="spacingAndGlyphs">1.0</text></g>
<g><text transform="translate(54.72,431.80) rotate(-90.00)" text-anchor="middle" style="font-family: Arial;font-size: 13.20px;" textLength="18.34px" lengthAdjust="spacingAndGlyphs">1.2</text></g>
<g><text transform="translate(54.72,356.78) rotate(-90.00)" text-anchor="middle" style="font-family: Arial;font-size: 13.20px;" textLength="18.34px" lengthAdjust="spacingAndGlyphs">1.4</text></g>
<g><text transform="translate(54.72,281.77) rotate(-90.00)" text-anchor="middle" style="font-family: Arial;font-size: 13.20px;" textLength="18.34px" lengthAdjust="spacingAndGlyphs">1.6</text></g>
<g><text transform="translate(54.72,206.75) rotate(-90.00)" text-anchor="middle" style="font-family: Arial;font-size: 13.20px;" textLength="18.34px" lengthAdjust="spacingAndGlyphs">1.8</text></g>
<g><text transform="translate(54.72,131.73) rotate(-90.00)" text-anchor="middle" style="font-family: Arial;font-size: 13.20px;" textLength="18.34px" lengthAdjust="spacingAndGlyphs">2.0</text></g>
<polygon points="72.00,585.60 897.60,585.60 897.60,72.00 72.00,72.00" style="stroke-width: 0.75;" />
<g><text x="484.80" y="43.34" text-anchor="middle" style="font-family: Arial;font-size: 20.40px;font-weight: bold;" textLength="559.69px" lengthAdjust="spacingAndGlyphs">HPO - Weighted PPR with balanced data (hybrid sampled)</text></g>
<g><text x="484.80" y="640.32" text-anchor="middle" style="font-family: Arial;font-size: 18.00px;" textLength="134.04px" lengthAdjust="spacingAndGlyphs">Number of terms</text></g>
<g><text transform="translate(25.92,328.80) rotate(-90.00)" text-anchor="middle" style="font-family: Arial;font-size: 18.00px;" textLength="82.02px" lengthAdjust="spacingAndGlyphs">MSE Loss</text></g>
</g><g clip-path="url(#c3)">
<circle cx="102.58" cy="566.58" r="2.70" style="stroke-width: 0.75;stroke: #FF0000;fill: #FF0000;"/>
</g>
</svg>